<svg id="wk-air-balloon" xmlns="http://www.w3.org/2000/svg" width="202" height="202" viewBox="0 0 202 202">
  <metadata><?xpacket begin="﻿" id="W5M0MpCehiHzreSzNTczkc9d"?>
<x:xmpmeta xmlns:x="adobe:ns:meta/" x:xmptk="Adobe XMP Core 5.6-c140 79.160451, 2017/05/06-01:08:21        ">
   <rdf:RDF xmlns:rdf="http://www.w3.org/1999/02/22-rdf-syntax-ns#">
      <rdf:Description rdf:about=""/>
   </rdf:RDF>
</x:xmpmeta>
                                                                                                    
                                                                                                    
                                                                                                    
                                                                                                    
                                                                                                    
                                                                                                    
                                                                                                    
                                                                                                    
                                                                                                    
                                                                                                    
                                                                                                    
                                                                                                    
                                                                                                    
                                                                                                    
                                                                                                    
                                                                                                    
                                                                                                    
                                                                                                    
                                                                                                    
                                                                                                    
                           
<?xpacket end="w"?></metadata>
<defs>
    <style>
      .cls-1 {
        fill: #fd4f54;
      }

      .cls-1, .cls-2, .cls-3, .cls-4 {
        fill-rule: evenodd;
      }

      .cls-2 {
        fill: #fab007;
      }

      .cls-3 {
        fill: #6e5620;
      }

      .cls-4 {
        fill: #886c2d;
      }
    </style>
  </defs>
  <path id="wk-red-cloth" class="cls-1" d="M101,160c17.49-.077,41-38,41-38s27.36-41.775,18-66c-8.412-21.77-29.958-44.349-59-43C67.314,14.565,43.685,43.629,40,72c-3.043,23.428,25,56,25,56S86.487,160.064,101,160Z"/>
  <path id="wk-yellow-cloth" class="cls-2" d="M102.66,160.792C162.272,112.685,148.082,18.516,104.2,13.2,183.524,20.482,182.112,121.027,102.66,160.792ZM102.079,13.018c-0.288,0-.687,0-1.09,0l-0.23,0c25.069,9.507,19.7,113.125-.039,147.791-19.94-31.269-26.163-139.774-.048-147.79-1.03.005-1.846-.009-0.432-0.015L100.1,13h1.766l-0.119,0h0.163l-0.044,0,0.047,0c0.8,0,.663.012,0.177,0.014q1.064,0.058,2.1.184C103.494,13.138,102.8,13.068,102.079,13.018ZM99.313,160.792C19.86,121.027,18.448,20.482,97.775,13.2,53.89,18.516,39.7,112.685,99.313,160.792Z"/>
  <path id="wk-bucket" class="cls-3" d="M78.992,163h44l-5,27h-34Z"/>
  <path id="wk-ropes" class="cls-4" d="M151.44,112.588l0.007,0-0.007.013v0.62H151.1l-28.526,52-3.05-1.368,29.28-50.855H101.872V163.45H99.215V113.005H52.283l29.332,50.707-2.048,1.36L49.043,113.225H48.733l-0.878-2.875H153.232Z"/>
</svg>
