<svg id="wk-alarm-clock" xmlns="http://www.w3.org/2000/svg" width="202" height="202"><defs><style>.cls-1{fill:#34495e}.cls-1,.cls-4{fill-rule:evenodd}.cls-2{fill:#fff}.cls-4{fill:#e85757}</style></defs><path id="wk-bell" class="cls-1" d="M159.088 46.345c-.088.151-.192.286-.284.434l-13.46-7.8-6.516 9.5-10.882-6.273 6.531-9.524-13.377-7.744c.083-.152.151-.309.239-.46a17.214 17.214 0 0 1 23.468-6.159L152.9 23a17.016 17.016 0 0 1 6.188 23.345z"/><path id="wk-bell-2" data-name="wk-bell" class="cls-1" d="M65.816 32.739L72.191 43.2l-10.828 6.14L55 38.9l-13.821 7.885c-.089-.15-.19-.288-.275-.441a17.366 17.366 0 0 1 6.577-23.465l8.126-4.633a16.914 16.914 0 0 1 23.217 6.479c.085.153.149.313.229.467z"/><circle id="wk-clock-bg" class="cls-2" cx="101" cy="106" r="69"/><path id="wk-clock-circle" class="cls-1" d="M128.464 174.806l4.35 9.084a2.092 2.092 0 0 1-.753 2.841 2.046 2.046 0 0 1-2.811-.762l-4.666-9.743a75.775 75.775 0 0 1-47.2.325l-4.784 9.405a2.047 2.047 0 0 1-2.811.76 2.088 2.088 0 0 1-.753-2.838l4.425-8.708a75.5 75.5 0 1 1 55.003-.364zM100.5 39.94a64.98 64.98 0 1 0 65.205 64.98A65.093 65.093 0 0 0 100.5 39.94z"/><path id="wk-points" d="M149.4 105.775v-1.71h9.438v1.71H149.4zm-15.262 34.287l1.462-1.462 6.582 6.553-1.462 1.455zm0-69.89l6.582-6.552 1.462 1.456-6.582 6.552zm-34.5 83.483h1.716v9.405h-1.712v-9.405zm0-106.02h1.716v9.405h-1.712v-9.405zm-40.823 97.523L65.4 138.6l1.463 1.457-6.582 6.551zm0-80.082l1.463-1.456 6.582 6.552-1.46 1.456zm-15.8 38.989h9.437v1.71h-9.435v-1.71z" fill="#555" fill-rule="evenodd"/><path id="wk-minute" class="cls-4" d="M128.049 79.753l.314.314a3.372 3.372 0 0 1-.009 4.783l-23.763 23.564a3.41 3.41 0 0 1-4.8-.009l-.314-.314a3.371 3.371 0 0 1 .009-4.783l23.762-23.564a3.409 3.409 0 0 1 4.801.009z"/><path id="wk-hour" class="cls-4" d="M85.618 86.952l17.953 17.948a3.372 3.372 0 0 1-.009 4.783l-.315.312a3.409 3.409 0 0 1-4.8-.009L80.489 92.038a3.371 3.371 0 0 1 .009-4.783l.315-.312a3.409 3.409 0 0 1 4.805.009z"/><path id="wk-second" class="cls-4" d="M110.77 142.835l.828-.221-10.214-37.99-.829.221z"/><path id="wk-center-nut" class="cls-1" d="M106.786 100.205a7.49 7.49 0 1 1-10.595-.02 7.488 7.488 0 0 1 10.595.02z"/><circle id="wk-center-nut-hole" class="cls-2" cx="101.5" cy="105.5" r="4.5"/></svg>