<svg id="wk-airplane" xmlns="http://www.w3.org/2000/svg" width="202" height="202"><defs><style>.cls-1,.cls-2{fill:#71bce2;fill-rule:evenodd}.cls-2{fill:#64aacd}</style></defs><path id="wk-bottom-left-wing" class="cls-1" d="M63.189 130.516l-18.5 18.754-18.327-18.58a1.366 1.366 0 0 1 .009-1.914l2.372-2.4c18.147 2.06 34.446 4.14 34.446 4.14z"/><path id="wk-bottom-right-wing" class="cls-1" d="M74.187 141.573l-18.652 18.6L74.013 178.6a1.349 1.349 0 0 0 1.9-.009l2.391-2.384c-2.049-18.245-4.117-34.634-4.117-34.634z"/><g id="wk-left-wing"><path id="wk-engine-b" class="cls-2" d="M72.949 32.893a6.079 6.079 0 0 1 0 8.563L60.174 54.3l-8.517-8.563 12.775-12.844a6 6 0 0 1 8.517 0z"/><path id="wk-engine-a" class="cls-2" d="M107.015 36.007a6.078 6.078 0 0 1 0 8.563L94.24 57.416l-8.517-8.563L98.5 36.007a6 6 0 0 1 8.515 0z"/><path id="wk-left-engine" class="cls-1" d="M35.121 34.34l86.781 15.5-30.627 30.8-68.267-34.121z"/></g><g id="wk-right-wing"><path id="wk-engine-b-2" data-name="wk-engine-b" class="cls-2" d="M168.307 128.519a6.08 6.08 0 0 1 0 8.563l-12.853 12.923-8.517-8.563 12.853-12.923a6 6 0 0 1 8.517 0z"/><path id="wk-engine-a-2" data-name="wk-engine-a" class="cls-2" d="M165.28 94.195a6.078 6.078 0 0 1 0 8.563l-12.852 12.923-8.517-8.563 12.853-12.923a6 6 0 0 1 8.516 0z"/><path id="wk-right-wing-2" data-name="wk-right-wing" class="cls-1" d="M166.8 166.627l-15.259-87.422-30.767 30.936 33.854 68.721z"/></g><path id="wk-body" d="M171.053 23.072c5.734 1.206 6.671 1.965 7.955 8.064-3.228 61.273-123.48 130.6-123.48 130.6s-18.687 6.4-12.388-12.455c-.366.658 66.867-129.845 127.913-126.209z" fill="#a6d3ea" fill-rule="evenodd"/><path id="wk-front-glass" d="M153.856 30.169c15.558 1.966 17.807 17.905 17.807 17.905l-3.871 7.006a27.505 27.505 0 0 0-20.9-21.019c-.803.402 5.766-3.223 6.964-3.892z" fill="#6fa7c4" fill-rule="evenodd"/><path id="wk-mid-wing" class="cls-1" d="M56.967 146.07l1.547 1.566-17.7 21.111-4.64-4.7z"/></svg>