<svg xmlns="http://www.w3.org/2000/svg" width="222" height="222"><path d="M44.038 70.727l131.794-20.658a5.133 5.133 0 0 1 5.859 4.3l14.232 91.684a5.152 5.152 0 0 1-4.278 5.889L59.851 172.6a5.134 5.134 0 0 1-5.86-4.3L39.759 76.614a5.151 5.151 0 0 1 4.279-5.887z" fill-rule="evenodd" fill="#b53c3c"/><rect x="39.375" y="69.906" width="143.656" height="103.094" rx="10" ry="10" fill="#ff5353"/><path d="M111.215 160.112h-51.3l25.652-38.664 16.575 24.983 29.6-45.6 38.477 59.285h-59zm-2.565-43.819a12.889 12.889 0 1 1 12.826-12.888 12.857 12.857 0 0 1-12.826 12.888z" fill="#fff" fill-rule="evenodd"/><path d="M70.173 136.914H39.391a15.466 15.466 0 0 1 0-30.932h30.782a15.466 15.466 0 0 1 0 30.932zm0-25.777H39.391a10.311 10.311 0 0 0 0 20.621h30.782a10.311 10.311 0 0 0 0-20.621z" fill="#333" fill-rule="evenodd"/></svg>