<svg xmlns="http://www.w3.org/2000/svg" width="202" height="202"><path d="M101 160c17.49-.077 41-38 41-38s27.36-41.775 18-66c-8.412-21.77-29.958-44.349-59-43-33.686 1.565-57.315 30.629-61 59-3.043 23.428 25 56 25 56s21.487 32.064 36 32z" fill-rule="evenodd" fill="#fd4f54"/><path d="M102.66 160.792c59.612-48.107 45.422-142.276 1.54-147.592 79.324 7.282 77.912 107.827-1.54 147.592zm-.581-147.774h-1.32c25.069 9.507 19.7 113.125-.039 147.791-19.94-31.269-26.163-139.774-.048-147.79-1.03.005-1.846-.009-.432-.015L100.1 13h1.766-.119.163-.044.047c.8 0 .663.012.177.014q1.064.058 2.1.184c-.696-.06-1.39-.13-2.111-.18zm-2.766 147.774C19.86 121.027 18.448 20.482 97.775 13.2 53.89 18.516 39.7 112.685 99.313 160.792z" fill="#fab007" fill-rule="evenodd"/><path d="M78.992 163h44l-5 27h-34z" fill="#6e5620" fill-rule="evenodd"/><path d="M151.44 112.588h.007l-.007.013v.62h-.34l-28.526 52-3.05-1.368 29.28-50.855h-46.932v50.452h-2.657v-50.445H52.283l29.332 50.707-2.048 1.36-30.524-51.847h-.31l-.878-2.875h105.377z" fill="#886c2d" fill-rule="evenodd"/></svg>