<svg id="wk-attachment" xmlns="http://www.w3.org/2000/svg" width="222" height="222" viewBox="0 0 222 222">
  <metadata><?xpacket begin="﻿" id="W5M0MpCehiHzreSzNTczkc9d"?>
<x:xmpmeta xmlns:x="adobe:ns:meta/" x:xmptk="Adobe XMP Core 5.6-c140 79.160451, 2017/05/06-01:08:21        ">
   <rdf:RDF xmlns:rdf="http://www.w3.org/1999/02/22-rdf-syntax-ns#">
      <rdf:Description rdf:about=""/>
   </rdf:RDF>
</x:xmpmeta>
                                                                                                    
                                                                                                    
                                                                                                    
                                                                                                    
                                                                                                    
                                                                                                    
                                                                                                    
                                                                                                    
                                                                                                    
                                                                                                    
                                                                                                    
                                                                                                    
                                                                                                    
                                                                                                    
                                                                                                    
                                                                                                    
                                                                                                    
                                                                                                    
                                                                                                    
                                                                                                    
                           
<?xpacket end="w"?></metadata>
<defs>
    <style>
      .cls-1 {
        fill: #b53c3c;
      }

      .cls-1, .cls-3, .cls-4 {
        fill-rule: evenodd;
      }

      .cls-2 {
        fill: #ff5353;
      }

      .cls-3 {
        fill: #fff;
      }

      .cls-4 {
        fill: #333;
      }
    </style>
  </defs>
  <path id="wk-back-paper" class="cls-1" d="M44.038,70.727L175.832,50.069a5.133,5.133,0,0,1,5.859,4.3l14.232,91.684a5.152,5.152,0,0,1-4.278,5.889L59.851,172.6a5.134,5.134,0,0,1-5.86-4.3L39.759,76.614A5.151,5.151,0,0,1,44.038,70.727Z"/>
  <rect id="wk-front-paper" class="cls-2" x="39.375" y="69.906" width="143.656" height="103.094" rx="10" ry="10"/>
  <path id="wk-empty-image" class="cls-3" d="M111.215,160.112h-51.3l25.652-38.664,16.575,24.983,29.6-45.6,38.477,59.285h-59Zm-2.565-43.819a12.889,12.889,0,1,1,12.826-12.888A12.857,12.857,0,0,1,108.65,116.293Z"/>
  <path id="wk-clip" class="cls-4" d="M70.173,136.914H39.391a15.466,15.466,0,0,1,0-30.932H70.173A15.466,15.466,0,0,1,70.173,136.914Zm0-25.777H39.391a10.311,10.311,0,0,0,0,20.621H70.173A10.311,10.311,0,0,0,70.173,111.137Z"/>
</svg>
