<svg id="wk-alarm-clock" xmlns="http://www.w3.org/2000/svg" width="202" height="202" viewBox="0 0 202 202">
  <metadata><?xpacket begin="﻿" id="W5M0MpCehiHzreSzNTczkc9d"?>
<x:xmpmeta xmlns:x="adobe:ns:meta/" x:xmptk="Adobe XMP Core 5.6-c140 79.160451, 2017/05/06-01:08:21        ">
   <rdf:RDF xmlns:rdf="http://www.w3.org/1999/02/22-rdf-syntax-ns#">
      <rdf:Description rdf:about=""/>
   </rdf:RDF>
</x:xmpmeta>
                                                                                                    
                                                                                                    
                                                                                                    
                                                                                                    
                                                                                                    
                                                                                                    
                                                                                                    
                                                                                                    
                                                                                                    
                                                                                                    
                                                                                                    
                                                                                                    
                                                                                                    
                                                                                                    
                                                                                                    
                                                                                                    
                                                                                                    
                                                                                                    
                                                                                                    
                                                                                                    
                           
<?xpacket end="w"?></metadata>
<defs>
    <style>
      .cls-1 {
        fill: #34495e;
      }

      .cls-1, .cls-3, .cls-4 {
        fill-rule: evenodd;
      }

      .cls-2 {
        fill: #fff;
      }

      .cls-3 {
        fill: #555;
      }

      .cls-4 {
        fill: #e85757;
      }
    </style>
  </defs>
  <path id="wk-bell" class="cls-1" d="M159.088,46.345c-0.088.151-.192,0.286-0.284,0.434l-13.46-7.8-6.516,9.5-10.882-6.273,6.531-9.524L121.1,24.938c0.083-.152.151-0.309,0.239-0.46a17.214,17.214,0,0,1,23.468-6.159L152.9,23A17.016,17.016,0,0,1,159.088,46.345Z"/>
  <path id="wk-bell-2" data-name="wk-bell" class="cls-1" d="M65.816,32.739L72.191,43.2l-10.828,6.14L55,38.9,41.179,46.785c-0.089-.15-0.19-0.288-0.275-0.441a17.366,17.366,0,0,1,6.577-23.465l8.126-4.633a16.914,16.914,0,0,1,23.217,6.479c0.085,0.153.149,0.313,0.229,0.467Z"/>
  <circle id="wk-clock-bg" class="cls-2" cx="101" cy="106" r="69"/>
  <path id="wk-clock-circle" class="cls-1" d="M128.464,174.806l4.35,9.084a2.092,2.092,0,0,1-.753,2.841,2.046,2.046,0,0,1-2.811-.762l-4.666-9.743a75.775,75.775,0,0,1-47.2.325L72.6,185.956a2.047,2.047,0,0,1-2.811.76,2.088,2.088,0,0,1-.753-2.838l4.425-8.708A75.5,75.5,0,1,1,128.464,174.806ZM100.5,39.94a64.98,64.98,0,1,0,65.205,64.98A65.093,65.093,0,0,0,100.5,39.94Z"/>
  <path id="wk-points" class="cls-3" d="M149.4,105.775v-1.71h9.438v1.71H149.4Zm-15.262,34.287L135.6,138.6l6.582,6.553-1.462,1.455Zm0-69.89,6.582-6.552,1.462,1.456L135.6,71.628Zm-34.5,83.483h1.716v9.405H99.642v-9.405Zm0-106.02h1.716V57.04H99.642V47.635ZM58.815,145.158L65.4,138.6l1.463,1.457-6.582,6.551Zm0-80.082,1.463-1.456,6.582,6.552L65.4,71.628Zm-15.8,38.989h9.437v1.71H43.017v-1.71Z"/>
  <path id="wk-minute" class="cls-4" d="M128.049,79.753l0.314,0.314a3.372,3.372,0,0,1-.009,4.783l-23.763,23.564a3.41,3.41,0,0,1-4.8-.009l-0.314-.314a3.371,3.371,0,0,1,.009-4.783l23.762-23.564A3.409,3.409,0,0,1,128.049,79.753Z"/>
  <path id="wk-hour" class="cls-4" d="M85.618,86.952L103.571,104.9a3.372,3.372,0,0,1-.009,4.783l-0.315.312a3.409,3.409,0,0,1-4.8-.009L80.489,92.038a3.371,3.371,0,0,1,.009-4.783l0.315-.312A3.409,3.409,0,0,1,85.618,86.952Z"/>
  <path id="wk-second" class="cls-4" d="M110.77,142.835l0.828-.221-10.214-37.99-0.829.221Z"/>
  <path id="wk-center-nut" class="cls-1" d="M106.786,100.205a7.49,7.49,0,1,1-10.595-.02A7.488,7.488,0,0,1,106.786,100.205Z"/>
  <circle id="wk-center-nut-hole" class="cls-2" cx="101.5" cy="105.5" r="4.5"/>
</svg>
