<svg id="wk-browser" xmlns="http://www.w3.org/2000/svg" width="202" height="202"><defs><style>.cls-2{fill:#d3d3d3}.cls-3{fill:#c5c5c5}</style></defs><path id="wk-body" d="M19 43h164a5 5 0 0 1 5 5v111H14V48a5 5 0 0 1 5-5z" fill="#e6e6e6"/><path id="wk-browser-shadow" class="cls-2" d="M14 157.25h174V159H14z"/><g id="wk-browser-header"><path id="wk-header-shadow" class="cls-3" d="M14 62.938h174v.813H14z"/><path id="wk-header" class="cls-2" d="M19 43h164a5 5 0 0 1 5 5v14.938H14V48a5 5 0 0 1 5-5z"/><g id="wk-controllers"><ellipse id="wk-red" cx="158" cy="53.813" rx="3.062" ry="3.031" fill="#e74c3c"/><circle id="wk-yellow" cx="168.406" cy="53.813" r="3.031" fill="#e5e73c"/><circle id="wk-green" cx="178.859" cy="53.813" r="3.047" fill="#52ce6a"/></g></g><path id="wk-image" fill="#fff" d="M21.844 75.031h70.437v70.125H21.844z"/><g id="wk-text"><path id="wk-d" class="cls-3" d="M97.531 75.031h83.5v4.313h-83.5z"/><path id="wk-c" class="cls-3" d="M97.531 82.813h83.5v4.344h-83.5z"/><path id="wk-b" class="cls-3" d="M97.531 90.594h83.5v4.344h-83.5z"/><path id="wk-a" class="cls-3" d="M97.531 98.406h31.313v4.344H97.531z"/></g><g id="wk-mouse-cursor" fill-rule="evenodd"><path id="wk-shadow" d="M112.934 110.508l21.572 5.229-6.03 6.15 9.078 9.259-4.386 4.473-9.078-9.258-6.03 6.15z" fill="#c5c5c5"/><path id="wk-cursor" d="M111.439 110.508l21.572 5.229-6.03 6.15 9.077 9.259-4.385 4.473-9.078-9.258-6.03 6.15z" fill="#fff"/></g></svg>