<svg xmlns="http://www.w3.org/2000/svg" width="220" height="220"><path d="M35.286 80.092C47.993 53.471 78.353 48 109.857 48c32.013 0 62.137 4.774 74.572 32.092A78.393 78.393 0 0 1 187 91.645H34a44.009 44.009 0 0 1 1.286-11.553zm149.143 59.833C171.994 167.228 141.87 172 109.857 172c-31.5 0-61.864-5.468-74.571-32.075A43.961 43.961 0 0 1 34 128.378h153a78.314 78.314 0 0 1-2.571 11.547z" fill-rule="evenodd" fill="#f5a12f"/><path d="M160.225 85.506a2.3 2.3 0 1 1 2.3-2.3 2.3 2.3 0 0 1-2.3 2.3zm-4.59 65.827a2.3 2.3 0 1 1 2.3-2.3 2.3 2.3 0 0 1-2.3 2.3zm-19.89-6.889a2.3 2.3 0 1 1 2.295-2.3 2.3 2.3 0 0 1-2.295 2.3zM133.45 67.9a2.3 2.3 0 1 1 2.3-2.3 2.3 2.3 0 0 1-2.3 2.3zM112.8 85.506a2.3 2.3 0 1 1 2.3-2.3 2.3 2.3 0 0 1-2.3 2.3zm-4.59 77.309a2.3 2.3 0 1 1 2.3-2.3 2.3 2.3 0 0 1-2.305 2.3zm-9.18-99.506a2.3 2.3 0 1 1 2.295-2.3 2.3 2.3 0 0 1-2.3 2.3zm-4.59 81.135a2.3 2.3 0 1 1 2.3-2.3 2.3 2.3 0 0 1-2.305 2.3zm-13.77 13.778a2.3 2.3 0 1 1 2.3-2.3 2.3 2.3 0 0 1-2.305 2.3zm-2.3-77.308a2.3 2.3 0 1 1 2.295-2.3 2.3 2.3 0 0 1-2.295 2.3zm-19.89 68.123a2.3 2.3 0 1 1 2.3-2.3 2.3 2.3 0 0 1-2.3 2.3zm0-72.716a2.3 2.3 0 1 1 2.3-2.3 2.3 2.3 0 0 1-2.3 2.3z" fill="#ffb95b" fill-rule="evenodd"/><path d="M36.571 98.518h147.858a2.539 2.539 0 0 1 2.571 2.507v8.775a2.539 2.539 0 0 1-2.571 2.507H36.571A2.54 2.54 0 0 1 34 109.8v-8.772a2.539 2.539 0 0 1 2.571-2.51z" fill="#9c6626" fill-rule="evenodd"/><path d="M114.281 112.281H185.5a1.5 1.5 0 0 1 1.5 1.5v.844a1.5 1.5 0 0 1-1.5 1.5h-71.219a1.5 1.5 0 0 1-1.5-1.5v-.844a1.5 1.5 0 0 1 1.5-1.5zm-78.362.023h70.374a1.914 1.914 0 1 1 0 3.827H35.919a1.914 1.914 0 1 1 0-3.831z" fill="#e85757" fill-rule="evenodd"/><path d="M35.929 116.239c3.848-1.816 12.607-7.831 31.895 0 9.8-5.324 21.246-4.662 33.1 0 13.724-7.691 22.047-2.14 29.572 0 13.294-8.028 21.228-1.526 26.439 0 11-7.529 27.116-2.149 28.139 0a2.057 2.057 0 0 1 1.926 1.944v5.182a1.936 1.936 0 0 1-1.929 1.943H35.929A1.935 1.935 0 0 1 34 123.365v-5.182c0-1.074.362-2.338 1.929-1.944z" fill="#67c261" fill-rule="evenodd"/><path d="M35.286 94.691h150.428A1.281 1.281 0 0 1 187 95.967v1.276a1.281 1.281 0 0 1-1.286 1.276H35.286A1.281 1.281 0 0 1 34 97.243v-1.276a1.281 1.281 0 0 1 1.286-1.276z" fill="#e4cb57" fill-rule="evenodd"/><path d="M170.16 94.691l-28.3 28.331-28.3-28.331h56.6z" fill="#f0d65f" fill-rule="evenodd"/></svg>