<svg id="wk-book" xmlns="http://www.w3.org/2000/svg" width="202" height="202"><defs><style>.cls-1{fill:#5a9fcd}.cls-2{fill:#74c0f3}.cls-3{fill:#fff}</style></defs><circle id="wk-back-circle" class="cls-1" cx="49.75" cy="36.703" r="13.75"/><circle id="wk-back-bottom-circle" class="cls-2" cx="152.25" cy="165.297" r="13.75"/><path id="wk-back-cover" class="cls-2" d="M51.656 23H166v140.406H51.656z"/><path id="wk-pages" class="cls-3" d="M51.344 25.344h112.312v137.531a13 13 0 0 1-13 13H38.344V38.344a13 13 0 0 1 13-13z"/><rect id="wk-front-cover" class="cls-2" x="36" y="37.031" width="117.5" height="141.969" rx="3" ry="3"/><path id="wk-binding" class="cls-1" d="M36 37.031h15.656V179H39a3 3 0 0 1-3-3V37.031z"/><path id="wk-text-a" class="cls-3" d="M62.656 47.156h71.219v8.594H62.656z"/><path id="wk-text-b" class="cls-3" d="M62.656 61.25h36v8.563h-36z"/><path id="wk-ribbon" d="M119.794 143.113h39.155v23.409h-39.155l11.641-10.963z" fill-rule="evenodd" fill="#e85757"/><path id="wk-ribbon-fold" d="M153.468 139.214l5.481 3.9h-5.481v-3.9z" fill="#b23d3d" fill-rule="evenodd"/></svg>