<svg id="wk-board" xmlns="http://www.w3.org/2000/svg" width="202" height="202"><defs><style>.cls-1,.cls-3{fill:#eec469}.cls-3,.cls-4{fill-rule:evenodd}.cls-4{fill:#e85757}</style></defs><rect id="wk-head" class="cls-1" x="10" y="14" width="182" height="9.719" rx="4.859" ry="4.859"/><path id="wk-sheet" fill="#80b7df" d="M15.813 23.719h170.375v99.156H15.813z"/><path id="wk-stand" class="cls-1" d="M98.094 122.875h5.812V154h-5.812z"/><path id="wk-stand-left" class="cls-3" d="M97.692 149.138l4.275 4.307L66.7 188.981l-7.342.019z"/><path id="wk-stand-right" class="cls-3" d="M104.294 149.138l-4.275 4.307 35.27 35.536 7.339.019z"/><path class="cls-4" d="M43.879 108.656l46.568-20.241 2.324 5.485L46.2 114.139z"/><path id="Rectangle_27_copy" data-name="Rectangle 27 copy" class="cls-4" d="M87.574 90.95l14-31.382 4.923 3.279-14 31.382z"/><path id="Rectangle_27_copy_2" data-name="Rectangle 27 copy 2" class="cls-4" d="M101.962 59.253l45.188-22.72 2.225 5.525-44.009 22.72z"/><path id="arrow" class="cls-4" d="M130.038 34.59l6.752-2.119 15.535 4-5.125 16.983-6.17 1.831 5.269-15.8z"/></svg>