<svg id="wk-browser" xmlns="http://www.w3.org/2000/svg" width="202" height="202" viewBox="0 0 202 202">
  <metadata><?xpacket begin="﻿" id="W5M0MpCehiHzreSzNTczkc9d"?>
<x:xmpmeta xmlns:x="adobe:ns:meta/" x:xmptk="Adobe XMP Core 5.6-c140 79.160451, 2017/05/06-01:08:21        ">
   <rdf:RDF xmlns:rdf="http://www.w3.org/1999/02/22-rdf-syntax-ns#">
      <rdf:Description rdf:about=""/>
   </rdf:RDF>
</x:xmpmeta>
                                                                                                    
                                                                                                    
                                                                                                    
                                                                                                    
                                                                                                    
                                                                                                    
                                                                                                    
                                                                                                    
                                                                                                    
                                                                                                    
                                                                                                    
                                                                                                    
                                                                                                    
                                                                                                    
                                                                                                    
                                                                                                    
                                                                                                    
                                                                                                    
                                                                                                    
                                                                                                    
                           
<?xpacket end="w"?></metadata>
<defs>
    <style>
      .cls-1 {
        fill: #e6e6e6;
      }

      .cls-2 {
        fill: #d3d3d3;
      }

      .cls-3, .cls-8 {
        fill: #c5c5c5;
      }

      .cls-4 {
        fill: #e74c3c;
      }

      .cls-5 {
        fill: #e5e73c;
      }

      .cls-6 {
        fill: #52ce6a;
      }

      .cls-7, .cls-9 {
        fill: #fff;
      }

      .cls-8, .cls-9 {
        fill-rule: evenodd;
      }
    </style>
  </defs>
  <path id="wk-body" class="cls-1" d="M19,43H183a5,5,0,0,1,5,5V159a0,0,0,0,1,0,0H14a0,0,0,0,1,0,0V48A5,5,0,0,1,19,43Z"/>
  <rect id="wk-browser-shadow" class="cls-2" x="14" y="157.25" width="174" height="1.75"/>
  <g id="wk-browser-header">
    <rect id="wk-header-shadow" class="cls-3" x="14" y="62.938" width="174" height="0.813"/>
    <path id="wk-header" class="cls-2" d="M19,43H183a5,5,0,0,1,5,5V62.938a0,0,0,0,1,0,0H14a0,0,0,0,1,0,0V48A5,5,0,0,1,19,43Z"/>
    <g id="wk-controllers">
      <ellipse id="wk-red" class="cls-4" cx="158" cy="53.813" rx="3.062" ry="3.031"/>
      <circle id="wk-yellow" class="cls-5" cx="168.406" cy="53.813" r="3.031"/>
      <circle id="wk-green" class="cls-6" cx="178.859" cy="53.813" r="3.047"/>
    </g>
  </g>
  <rect id="wk-image" class="cls-7" x="21.844" y="75.031" width="70.437" height="70.125"/>
  <g id="wk-text">
    <rect id="wk-d" class="cls-3" x="97.531" y="75.031" width="83.5" height="4.313"/>
    <rect id="wk-c" class="cls-3" x="97.531" y="82.813" width="83.5" height="4.344"/>
    <rect id="wk-b" class="cls-3" x="97.531" y="90.594" width="83.5" height="4.344"/>
    <rect id="wk-a" class="cls-3" x="97.531" y="98.406" width="31.313" height="4.344"/>
  </g>
  <g id="wk-mouse-cursor">
    <path id="wk-shadow" class="cls-8" d="M112.934,110.508l21.572,5.229-6.03,6.15,9.078,9.259-4.386,4.473-9.078-9.258-6.03,6.15Z"/>
    <path id="wk-cursor" class="cls-9" d="M111.439,110.508l21.572,5.229-6.03,6.15,9.077,9.259-4.385,4.473-9.078-9.258-6.03,6.15Z"/>
  </g>
</svg>
