<svg id="wk-bulb" xmlns="http://www.w3.org/2000/svg" width="202" height="202" viewBox="0 0 202 202">
  <metadata><?xpacket begin="﻿" id="W5M0MpCehiHzreSzNTczkc9d"?>
<x:xmpmeta xmlns:x="adobe:ns:meta/" x:xmptk="Adobe XMP Core 5.6-c140 79.160451, 2017/05/06-01:08:21        ">
   <rdf:RDF xmlns:rdf="http://www.w3.org/1999/02/22-rdf-syntax-ns#">
      <rdf:Description rdf:about=""/>
   </rdf:RDF>
</x:xmpmeta>
                                                                                                    
                                                                                                    
                                                                                                    
                                                                                                    
                                                                                                    
                                                                                                    
                                                                                                    
                                                                                                    
                                                                                                    
                                                                                                    
                                                                                                    
                                                                                                    
                                                                                                    
                                                                                                    
                                                                                                    
                                                                                                    
                                                                                                    
                                                                                                    
                                                                                                    
                                                                                                    
                           
<?xpacket end="w"?></metadata>
<defs>
    <style>
      .cls-1 {
        fill: #fab007;
      }

      .cls-1, .cls-2, .cls-3 {
        fill-rule: evenodd;
      }

      .cls-2 {
        fill: #34495e;
      }

      .cls-3 {
        fill: #999;
      }
    </style>
  </defs>
  <path id="wk-glass" class="cls-1" d="M116.812,131.685v24.409H84.375V131.408A51.46,51.46,0,1,1,116.812,131.685Z"/>
  <g id="wk-metal">
    <path id="wk-ring-metal" class="cls-2" d="M84.392,159.327v-3.239h5.671V89.656h0.02a5.251,5.251,0,0,1,8.077-4.041,5.255,5.255,0,0,1,5.68,0,5.251,5.251,0,0,1,8.077,4.041h0.02v66.432H116.8v3.239H84.392ZM96.869,86.778a3.644,3.644,0,1,0,.006,6.577A5.266,5.266,0,0,1,96.869,86.778Zm5.681,0a3.644,3.644,0,1,0,.006,6.569A5.276,5.276,0,0,1,102.55,86.782Zm4.124-.358a3.644,3.644,0,1,0,3.643,3.644A3.644,3.644,0,0,0,106.674,86.424Zm3.67,7.42a5.237,5.237,0,0,1-6.5.666,5.255,5.255,0,0,1-5.68,0,5.237,5.237,0,0,1-6.5-.666v62.244h18.688V93.844Z"/>
  </g>
  <g id="wk-bottom-rings">
    <path id="wk-ring-fit" class="cls-3" d="M114.791,176.344H86.4a2.022,2.022,0,0,1-2.021-2.022V174.3a2.022,2.022,0,0,1,2.021-2.022h28.395a2.021,2.021,0,0,1,2.021,2.022v0.019A2.021,2.021,0,0,1,114.791,176.344Zm0.006-5.688H86.391a2.016,2.016,0,1,1,0-4.031H114.8A2.016,2.016,0,0,1,114.8,170.656ZM114.791,165H86.4a2.021,2.021,0,0,1-2.021-2.021v-0.02a2.022,2.022,0,0,1,2.021-2.022h28.395a2.022,2.022,0,0,1,2.021,2.022v0.02A2.021,2.021,0,0,1,114.791,165ZM92.078,177.969h17.031a2.016,2.016,0,1,1,0,4.031H92.078A2.016,2.016,0,1,1,92.078,177.969Z"/>
  </g>
  <path id="wk-shine" class="cls-1" d="M161.784,83.188h-5.661a1.217,1.217,0,0,1-1.217-1.216v0a1.217,1.217,0,0,1,1.217-1.216h5.661A1.217,1.217,0,0,1,163,81.966v0A1.217,1.217,0,0,1,161.784,83.188ZM143.075,126.2l-4.119-4.133a1.251,1.251,0,0,1,1.765-1.772l4.12,4.134A1.251,1.251,0,1,1,143.075,126.2Zm-2.354-82.075a1.25,1.25,0,0,1-1.765-1.771l4.119-4.133a1.251,1.251,0,0,1,1.766,1.771ZM101,28.094a1.219,1.219,0,0,1-1.219-1.219V21.219a1.219,1.219,0,0,1,2.438,0v5.656A1.219,1.219,0,0,1,101,28.094ZM58.925,126.2a1.25,1.25,0,0,1-1.766-1.771l4.119-4.134a1.251,1.251,0,0,1,1.765,1.772Zm2.354-82.075-4.119-4.133a1.25,1.25,0,0,1,1.766-1.771l4.119,4.133A1.25,1.25,0,0,1,61.279,44.126Zm-15.4,39.062H40.216A1.216,1.216,0,0,1,39,81.971v0a1.216,1.216,0,0,1,1.216-1.216h5.661a1.216,1.216,0,0,1,1.216,1.216v0A1.216,1.216,0,0,1,45.877,83.188Z"/>
</svg>
