<svg id="wk-briefcase" xmlns="http://www.w3.org/2000/svg" width="202" height="202"><defs><style>.cls-4,.cls-5,.cls-6{fill-rule:evenodd}.cls-4{fill:#e9cf9e}.cls-5{fill:#fff}.cls-6{fill:#fff1d5}</style></defs><path id="wk-handle" d="M72.991 34h57a5.713 5.713 0 0 1 5.7 5.725v21.757h-68.4V39.725a5.713 5.713 0 0 1 5.7-5.725zm7.774 7.732h41.479a5.785 5.785 0 0 1 5.761 5.809v13.941H75V47.541a5.785 5.785 0 0 1 5.765-5.809z" fill-rule="evenodd" fill="#746342"/><path id="wk-bag-container" d="M21.7 84.669h159.6a5.7 5.7 0 0 1 5.7 5.69v71.951a5.7 5.7 0 0 1-5.7 5.69H21.7a5.7 5.7 0 0 1-5.7-5.69V90.359a5.7 5.7 0 0 1 5.7-5.69z" fill="#a78137" fill-rule="evenodd"/><path id="wk-bag-cover" d="M21.7 50.322h159.6a5.729 5.729 0 0 1 5.7 5.757v46.039a5.729 5.729 0 0 1-5.7 5.758H21.7a5.729 5.729 0 0 1-5.7-5.758V56.079a5.729 5.729 0 0 1 5.7-5.757z" fill="#c39743" fill-rule="evenodd"/><path id="wk-left-belt" class="cls-4" d="M39.938 107.031h7.688V168h-7.688v-60.969zm-2.572-56.709H50.2v57.554H37.366V50.322z"/><path id="wk-right-belt" class="cls-4" d="M155.375 107.031h7.687V168h-7.687v-60.969zM152.8 50.322h12.834v57.554H152.8V50.322z"/><g id="wk-left-buckle"><path id="wk-outer-box" class="cls-5" d="M37.954 94.982h12.54a2.287 2.287 0 0 1 2.28 2.293v12.611a2.287 2.287 0 0 1-2.28 2.293h-12.54a2.287 2.287 0 0 1-2.28-2.293V97.275a2.287 2.287 0 0 1 2.28-2.293z"/><path id="wk-inner-box" class="cls-6" d="M39.31 97.563h9.8a1.091 1.091 0 0 1 1.09 1.094v9.843a1.091 1.091 0 0 1-1.089 1.094h-9.8a1.091 1.091 0 0 1-1.089-1.094v-9.843a1.091 1.091 0 0 1 1.088-1.094z"/></g><g id="wk-right-buckle"><path id="wk-outer-box-2" data-name="wk-outer-box" class="cls-5" d="M153.379 94.982h12.54a2.287 2.287 0 0 1 2.28 2.293v12.611a2.287 2.287 0 0 1-2.28 2.293h-12.54a2.287 2.287 0 0 1-2.28-2.293V97.275a2.287 2.287 0 0 1 2.28-2.293z"/><path id="wk-inner-box-2" data-name="wk-inner-box" class="cls-6" d="M154.735 97.563h9.8a1.092 1.092 0 0 1 1.089 1.094v9.843a1.091 1.091 0 0 1-1.089 1.094h-9.8a1.09 1.09 0 0 1-1.088-1.094v-9.843a1.091 1.091 0 0 1 1.088-1.094z"/></g></svg>