<svg id="wk-book" xmlns="http://www.w3.org/2000/svg" width="202" height="202" viewBox="0 0 202 202">
  <metadata><?xpacket begin="﻿" id="W5M0MpCehiHzreSzNTczkc9d"?>
<x:xmpmeta xmlns:x="adobe:ns:meta/" x:xmptk="Adobe XMP Core 5.6-c140 79.160451, 2017/05/06-01:08:21        ">
   <rdf:RDF xmlns:rdf="http://www.w3.org/1999/02/22-rdf-syntax-ns#">
      <rdf:Description rdf:about=""/>
   </rdf:RDF>
</x:xmpmeta>
                                                                                                    
                                                                                                    
                                                                                                    
                                                                                                    
                                                                                                    
                                                                                                    
                                                                                                    
                                                                                                    
                                                                                                    
                                                                                                    
                                                                                                    
                                                                                                    
                                                                                                    
                                                                                                    
                                                                                                    
                                                                                                    
                                                                                                    
                                                                                                    
                                                                                                    
                                                                                                    
                           
<?xpacket end="w"?></metadata>
<defs>
    <style>
      .cls-1 {
        fill: #5a9fcd;
      }

      .cls-2 {
        fill: #74c0f3;
      }

      .cls-3 {
        fill: #fff;
      }

      .cls-4 {
        fill: #e85757;
      }

      .cls-4, .cls-5 {
        fill-rule: evenodd;
      }

      .cls-5 {
        fill: #b23d3d;
      }
    </style>
  </defs>
  <circle id="wk-back-circle" class="cls-1" cx="49.75" cy="36.703" r="13.75"/>
  <circle id="wk-back-bottom-circle" class="cls-2" cx="152.25" cy="165.297" r="13.75"/>
  <rect id="wk-back-cover" class="cls-2" x="51.656" y="23" width="114.344" height="140.406"/>
  <path id="wk-pages" class="cls-3" d="M51.344,25.344H163.656a0,0,0,0,1,0,0V162.875a13,13,0,0,1-13,13H38.344a0,0,0,0,1,0,0V38.344a13,13,0,0,1,13-13Z"/>
  <rect id="wk-front-cover" class="cls-2" x="36" y="37.031" width="117.5" height="141.969" rx="3" ry="3"/>
  <path id="wk-binding" class="cls-1" d="M36,37.031H51.656a0,0,0,0,1,0,0V179a0,0,0,0,1,0,0H39a3,3,0,0,1-3-3V37.031a0,0,0,0,1,0,0Z"/>
  <rect id="wk-text-a" class="cls-3" x="62.656" y="47.156" width="71.219" height="8.594"/>
  <rect id="wk-text-b" class="cls-3" x="62.656" y="61.25" width="36" height="8.563"/>
  <path id="wk-ribbon" class="cls-4" d="M119.794,143.113h39.155v23.409H119.794l11.641-10.963Z"/>
  <path id="wk-ribbon-fold" class="cls-5" d="M153.468,139.214l5.481,3.9h-5.481v-3.9Z"/>
</svg>
