<svg id="wk-burger" xmlns="http://www.w3.org/2000/svg" width="220" height="220" viewBox="0 0 220 220">
  <metadata><?xpacket begin="﻿" id="W5M0MpCehiHzreSzNTczkc9d"?>
<x:xmpmeta xmlns:x="adobe:ns:meta/" x:xmptk="Adobe XMP Core 5.6-c140 79.160451, 2017/05/06-01:08:21        ">
   <rdf:RDF xmlns:rdf="http://www.w3.org/1999/02/22-rdf-syntax-ns#">
      <rdf:Description rdf:about=""/>
   </rdf:RDF>
</x:xmpmeta>
                                                                                                    
                                                                                                    
                                                                                                    
                                                                                                    
                                                                                                    
                                                                                                    
                                                                                                    
                                                                                                    
                                                                                                    
                                                                                                    
                                                                                                    
                                                                                                    
                                                                                                    
                                                                                                    
                                                                                                    
                                                                                                    
                                                                                                    
                                                                                                    
                                                                                                    
                                                                                                    
                           
<?xpacket end="w"?></metadata>
<defs>
    <style>
      .cls-1 {
        fill: #f5a12f;
      }

      .cls-1, .cls-2, .cls-3, .cls-4, .cls-5, .cls-6, .cls-7 {
        fill-rule: evenodd;
      }

      .cls-2 {
        fill: #ffb95b;
      }

      .cls-3 {
        fill: #9c6626;
      }

      .cls-4 {
        fill: #e85757;
      }

      .cls-5 {
        fill: #67c261;
      }

      .cls-6 {
        fill: #e4cb57;
      }

      .cls-7 {
        fill: #f0d65f;
      }
    </style>
  </defs>
  <path id="wk-bun" class="cls-1" d="M35.286,80.092C47.993,53.471,78.353,48,109.857,48c32.013,0,62.137,4.774,74.572,32.092A78.393,78.393,0,0,1,187,91.645H34A44.009,44.009,0,0,1,35.286,80.092Zm149.143,59.833C171.994,167.228,141.87,172,109.857,172c-31.5,0-61.864-5.468-74.571-32.075A43.961,43.961,0,0,1,34,128.378H187A78.314,78.314,0,0,1,184.429,139.925Z"/>
  <path id="wk-seeds" class="cls-2" d="M160.225,85.506a2.3,2.3,0,1,1,2.3-2.3A2.3,2.3,0,0,1,160.225,85.506Zm-4.59,65.827a2.3,2.3,0,1,1,2.3-2.3A2.3,2.3,0,0,1,155.635,151.333Zm-19.89-6.889a2.3,2.3,0,1,1,2.295-2.3A2.3,2.3,0,0,1,135.745,144.444ZM133.45,67.9a2.3,2.3,0,1,1,2.3-2.3A2.3,2.3,0,0,1,133.45,67.9ZM112.8,85.506a2.3,2.3,0,1,1,2.3-2.3A2.3,2.3,0,0,1,112.8,85.506Zm-4.59,77.309a2.3,2.3,0,1,1,2.3-2.3A2.3,2.3,0,0,1,108.205,162.815Zm-9.18-99.506a2.3,2.3,0,1,1,2.295-2.3A2.3,2.3,0,0,1,99.025,63.309Zm-4.59,81.135a2.3,2.3,0,1,1,2.3-2.3A2.3,2.3,0,0,1,94.435,144.444Zm-13.77,13.778a2.3,2.3,0,1,1,2.3-2.3A2.3,2.3,0,0,1,80.665,158.222ZM78.37,80.914a2.3,2.3,0,1,1,2.295-2.3A2.3,2.3,0,0,1,78.37,80.914ZM58.48,149.037a2.3,2.3,0,1,1,2.3-2.3A2.3,2.3,0,0,1,58.48,149.037Zm0-72.716a2.3,2.3,0,1,1,2.3-2.3A2.3,2.3,0,0,1,58.48,76.321Z"/>
  <path id="wk-pattie" class="cls-3" d="M36.571,98.518H184.429A2.539,2.539,0,0,1,187,101.025V109.8a2.539,2.539,0,0,1-2.571,2.507H36.571A2.54,2.54,0,0,1,34,109.8v-8.772A2.539,2.539,0,0,1,36.571,98.518Z"/>
  <path id="wk-tomatos" class="cls-4" d="M114.281,112.281H185.5a1.5,1.5,0,0,1,1.5,1.5v0.844a1.5,1.5,0,0,1-1.5,1.5H114.281a1.5,1.5,0,0,1-1.5-1.5v-0.844A1.5,1.5,0,0,1,114.281,112.281Zm-78.362.023h70.374a1.914,1.914,0,1,1,0,3.827H35.919A1.914,1.914,0,1,1,35.919,112.3Z"/>
  <path id="wk-spinach" class="cls-5" d="M35.929,116.239c3.848-1.816,12.607-7.831,31.895,0,9.8-5.324,21.246-4.662,33.1,0,13.724-7.691,22.047-2.14,29.572,0,13.294-8.028,21.228-1.526,26.439,0,11-7.529,27.116-2.149,28.139,0A2.057,2.057,0,0,1,187,118.183v5.182a1.936,1.936,0,0,1-1.929,1.943H35.929A1.935,1.935,0,0,1,34,123.365v-5.182C34,117.109,34.362,115.845,35.929,116.239Z"/>
  <path id="wk-cheese" class="cls-6" d="M35.286,94.691H185.714A1.281,1.281,0,0,1,187,95.967v1.276a1.281,1.281,0,0,1-1.286,1.276H35.286A1.281,1.281,0,0,1,34,97.243V95.967A1.281,1.281,0,0,1,35.286,94.691Z"/>
  <path id="wk-hanged-cheese" class="cls-7" d="M170.16,94.691l-28.3,28.331-28.3-28.331H170.16Z"/>
</svg>
