<svg xmlns="http://www.w3.org/2000/svg" width="202" height="202"><path d="M175.433 167.335h-34.222v17.1a2.822 2.822 0 0 1-2.426 2.565H38.1c-1.171 0-2.119-1.4-2.119-2.565V50.373a5.3 5.3 0 0 1 5.3-5.3H135.6c2.927 0 5.606 2.2 5.606 5.122V67.3l31.49.019a5.3 5.3 0 0 1 5.3 5.3v92.143a2.975 2.975 0 0 1-2.563 2.573zm-11.977-80.2a5.306 5.306 0 0 0-5.3-5.312H141.2v70.116h20.138a2.122 2.122 0 0 0 2.12-2.125V87.138z" fill-rule="evenodd" fill="#c3e3f8"/><rect data-name="wk-beer" x="41.125" y="50.188" width="94.094" height="132.531" rx="2" ry="2" fill="#f1c40f"/><path d="M112.125 169.9a12.826 12.826 0 1 1 12.825-12.825 12.825 12.825 0 0 1-12.825 12.825zM101 92.953a5.989 5.989 0 1 1 6-5.989 6 6 0 0 1-6 5.989zm1.7 32.5a8.55 8.55 0 1 1-8.55-8.551 8.55 8.55 0 0 1 8.55 8.549zm-37.637 34.2a5.988 5.988 0 1 1 5.989-5.988 5.988 5.988 0 0 1-5.989 5.987z" fill="#ffd735" fill-rule="evenodd"/><path d="M133.083 66.445a20.1 20.1 0 0 1-17.6-10.391 21.07 21.07 0 0 1-2.372-.411A20.078 20.078 0 0 1 81.124 57.8a20.061 20.061 0 0 1-5.79 2.72v56.8a13.261 13.261 0 0 1-26.522 0V70.154a20.087 20.087 0 1 1 3.066-38.061 20.076 20.076 0 0 1 33.066-4.03 19.941 19.941 0 0 1 15.926-2.971 20.1 20.1 0 0 1 34.415 1.293 20.089 20.089 0 0 1-2.202 40.06z" fill="#feefb5" fill-rule="evenodd"/></svg>