<svg id="wk-bulb" xmlns="http://www.w3.org/2000/svg" width="202" height="202"><defs><style>.cls-1{fill:#fab007;fill-rule:evenodd}</style></defs><path id="wk-glass" class="cls-1" d="M116.812 131.685v24.409H84.375v-24.686a51.46 51.46 0 1 1 32.437.277z"/><g id="wk-metal"><path id="wk-ring-metal" d="M84.392 159.327v-3.239h5.671V89.656h.02a5.251 5.251 0 0 1 8.077-4.041 5.255 5.255 0 0 1 5.68 0 5.251 5.251 0 0 1 8.077 4.041h.02v66.432h4.863v3.239H84.392zm12.477-72.549a3.644 3.644 0 1 0 .006 6.577 5.266 5.266 0 0 1-.006-6.577zm5.681 0a3.644 3.644 0 1 0 .006 6.569 5.276 5.276 0 0 1-.006-6.565zm4.124-.358a3.644 3.644 0 1 0 3.643 3.644 3.644 3.644 0 0 0-3.643-3.64zm3.67 7.42a5.237 5.237 0 0 1-6.5.666 5.255 5.255 0 0 1-5.68 0 5.237 5.237 0 0 1-6.5-.666v62.244h18.688v-62.24z" fill="#34495e" fill-rule="evenodd"/></g><g id="wk-bottom-rings"><path id="wk-ring-fit" d="M114.791 176.344H86.4a2.022 2.022 0 0 1-2.021-2.022v-.022a2.022 2.022 0 0 1 2.021-2.022h28.395a2.021 2.021 0 0 1 2.021 2.022v.019a2.021 2.021 0 0 1-2.025 2.025zm.006-5.688H86.391a2.016 2.016 0 1 1 0-4.031H114.8a2.016 2.016 0 0 1 0 4.031zm-.006-5.656H86.4a2.021 2.021 0 0 1-2.021-2.021v-.02a2.022 2.022 0 0 1 2.021-2.022h28.395a2.022 2.022 0 0 1 2.021 2.022v.02a2.021 2.021 0 0 1-2.025 2.021zm-22.713 12.969h17.031a2.016 2.016 0 1 1 0 4.031H92.078a2.016 2.016 0 1 1 0-4.031z" fill="#999" fill-rule="evenodd"/></g><path id="wk-shine" class="cls-1" d="M161.784 83.188h-5.661a1.217 1.217 0 0 1-1.217-1.216 1.217 1.217 0 0 1 1.217-1.216h5.661a1.217 1.217 0 0 1 1.216 1.21 1.217 1.217 0 0 1-1.216 1.222zM143.075 126.2l-4.119-4.133a1.251 1.251 0 0 1 1.765-1.772l4.12 4.134a1.251 1.251 0 1 1-1.766 1.771zm-2.354-82.075a1.25 1.25 0 0 1-1.765-1.771l4.119-4.133a1.251 1.251 0 0 1 1.766 1.771zM101 28.094a1.219 1.219 0 0 1-1.219-1.219v-5.656a1.219 1.219 0 0 1 2.438 0v5.656A1.219 1.219 0 0 1 101 28.094zM58.925 126.2a1.25 1.25 0 0 1-1.766-1.771l4.119-4.134a1.251 1.251 0 0 1 1.765 1.772zm2.354-82.075l-4.119-4.133a1.25 1.25 0 0 1 1.766-1.771l4.119 4.133a1.25 1.25 0 0 1-1.766 1.772zm-15.4 39.062h-5.663A1.216 1.216 0 0 1 39 81.971a1.216 1.216 0 0 1 1.216-1.216h5.661a1.216 1.216 0 0 1 1.216 1.216 1.216 1.216 0 0 1-1.216 1.217z"/></svg>