<svg id="wk-beer" xmlns="http://www.w3.org/2000/svg" width="202" height="202" viewBox="0 0 202 202">
  <metadata><?xpacket begin="﻿" id="W5M0MpCehiHzreSzNTczkc9d"?>
<x:xmpmeta xmlns:x="adobe:ns:meta/" x:xmptk="Adobe XMP Core 5.6-c140 79.160451, 2017/05/06-01:08:21        ">
   <rdf:RDF xmlns:rdf="http://www.w3.org/1999/02/22-rdf-syntax-ns#">
      <rdf:Description rdf:about=""/>
   </rdf:RDF>
</x:xmpmeta>
                                                                                                    
                                                                                                    
                                                                                                    
                                                                                                    
                                                                                                    
                                                                                                    
                                                                                                    
                                                                                                    
                                                                                                    
                                                                                                    
                                                                                                    
                                                                                                    
                                                                                                    
                                                                                                    
                                                                                                    
                                                                                                    
                                                                                                    
                                                                                                    
                                                                                                    
                                                                                                    
                           
<?xpacket end="w"?></metadata>
<defs>
    <style>
      .cls-1 {
        fill: #c3e3f8;
      }

      .cls-1, .cls-3, .cls-4 {
        fill-rule: evenodd;
      }

      .cls-2 {
        fill: #f1c40f;
      }

      .cls-3 {
        fill: #ffd735;
      }

      .cls-4 {
        fill: #feefb5;
      }
    </style>
  </defs>
  <path id="wk-glass" class="cls-1" d="M175.433,167.335H141.211v17.1A2.822,2.822,0,0,1,138.785,187H38.1c-1.171,0-2.119-1.4-2.119-2.565V50.373a5.3,5.3,0,0,1,5.3-5.3H135.6c2.927,0,5.606,2.2,5.606,5.122V67.3l31.49,0.019a5.3,5.3,0,0,1,5.3,5.3v92.143A2.975,2.975,0,0,1,175.433,167.335Zm-11.977-80.2a5.306,5.306,0,0,0-5.3-5.312H141.2v70.116h20.138a2.122,2.122,0,0,0,2.12-2.125V87.138Z"/>
  <rect id="wk-beer-2" data-name="wk-beer" class="cls-2" x="41.125" y="50.188" width="94.094" height="132.531" rx="2" ry="2"/>
  <path id="wk-bubbles" class="cls-3" d="M112.125,169.9a12.826,12.826,0,1,1,12.825-12.825A12.825,12.825,0,0,1,112.125,169.9ZM101,92.953a5.989,5.989,0,1,1,6-5.989A6,6,0,0,1,101,92.953Zm1.7,32.5a8.55,8.55,0,1,1-8.55-8.551A8.55,8.55,0,0,1,102.7,125.451Zm-37.637,34.2a5.988,5.988,0,1,1,5.989-5.988A5.988,5.988,0,0,1,65.063,159.652Z"/>
  <path id="wk-foam" class="cls-4" d="M133.083,66.445a20.1,20.1,0,0,1-17.6-10.391,21.07,21.07,0,0,1-2.372-.411A20.078,20.078,0,0,1,81.124,57.8a20.061,20.061,0,0,1-5.79,2.72v56.8a13.261,13.261,0,0,1-26.522,0V70.154a20.087,20.087,0,1,1,3.066-38.061,20.076,20.076,0,0,1,33.066-4.03,19.941,19.941,0,0,1,15.926-2.971,20.1,20.1,0,0,1,34.415,1.293A20.089,20.089,0,0,1,133.083,66.445Z"/>
</svg>
