<svg id="wk-briefcase" xmlns="http://www.w3.org/2000/svg" width="202" height="202" viewBox="0 0 202 202">
  <metadata><?xpacket begin="﻿" id="W5M0MpCehiHzreSzNTczkc9d"?>
<x:xmpmeta xmlns:x="adobe:ns:meta/" x:xmptk="Adobe XMP Core 5.6-c140 79.160451, 2017/05/06-01:08:21        ">
   <rdf:RDF xmlns:rdf="http://www.w3.org/1999/02/22-rdf-syntax-ns#">
      <rdf:Description rdf:about=""/>
   </rdf:RDF>
</x:xmpmeta>
                                                                                                    
                                                                                                    
                                                                                                    
                                                                                                    
                                                                                                    
                                                                                                    
                                                                                                    
                                                                                                    
                                                                                                    
                                                                                                    
                                                                                                    
                                                                                                    
                                                                                                    
                                                                                                    
                                                                                                    
                                                                                                    
                                                                                                    
                                                                                                    
                                                                                                    
                                                                                                    
                           
<?xpacket end="w"?></metadata>
<defs>
    <style>
      .cls-1 {
        fill: #746342;
      }

      .cls-1, .cls-2, .cls-3, .cls-4, .cls-5, .cls-6 {
        fill-rule: evenodd;
      }

      .cls-2 {
        fill: #a78137;
      }

      .cls-3 {
        fill: #c39743;
      }

      .cls-4 {
        fill: #e9cf9e;
      }

      .cls-5 {
        fill: #fff;
      }

      .cls-6 {
        fill: #fff1d5;
      }
    </style>
  </defs>
  <path id="wk-handle" class="cls-1" d="M72.991,34h57a5.713,5.713,0,0,1,5.7,5.725V61.482h-68.4V39.725A5.713,5.713,0,0,1,72.991,34Zm7.774,7.732h41.479a5.785,5.785,0,0,1,5.761,5.809V61.482H75V47.541A5.785,5.785,0,0,1,80.765,41.732Z"/>
  <path id="wk-bag-container" class="cls-2" d="M21.7,84.669H181.3a5.7,5.7,0,0,1,5.7,5.69V162.31a5.7,5.7,0,0,1-5.7,5.69H21.7a5.7,5.7,0,0,1-5.7-5.69V90.359A5.7,5.7,0,0,1,21.7,84.669Z"/>
  <path id="wk-bag-cover" class="cls-3" d="M21.7,50.322H181.3a5.729,5.729,0,0,1,5.7,5.757v46.039a5.729,5.729,0,0,1-5.7,5.758H21.7a5.729,5.729,0,0,1-5.7-5.758V56.079A5.729,5.729,0,0,1,21.7,50.322Z"/>
  <path id="wk-left-belt" class="cls-4" d="M39.938,107.031h7.688V168H39.938V107.031ZM37.366,50.322H50.2v57.554H37.366V50.322Z"/>
  <path id="wk-right-belt" class="cls-4" d="M155.375,107.031h7.687V168h-7.687V107.031ZM152.8,50.322h12.834v57.554H152.8V50.322Z"/>
  <g id="wk-left-buckle">
    <path id="wk-outer-box" class="cls-5" d="M37.954,94.982h12.54a2.287,2.287,0,0,1,2.28,2.293v12.611a2.287,2.287,0,0,1-2.28,2.293H37.954a2.287,2.287,0,0,1-2.28-2.293V97.275A2.287,2.287,0,0,1,37.954,94.982Z"/>
    <path id="wk-inner-box" class="cls-6" d="M39.31,97.563h9.8A1.091,1.091,0,0,1,50.2,98.657V108.5a1.091,1.091,0,0,1-1.089,1.094h-9.8a1.091,1.091,0,0,1-1.089-1.094V98.657A1.091,1.091,0,0,1,39.31,97.563Z"/>
  </g>
  <g id="wk-right-buckle">
    <path id="wk-outer-box-2" data-name="wk-outer-box" class="cls-5" d="M153.379,94.982h12.54a2.287,2.287,0,0,1,2.28,2.293v12.611a2.287,2.287,0,0,1-2.28,2.293h-12.54a2.287,2.287,0,0,1-2.28-2.293V97.275A2.287,2.287,0,0,1,153.379,94.982Z"/>
    <path id="wk-inner-box-2" data-name="wk-inner-box" class="cls-6" d="M154.735,97.563h9.8a1.092,1.092,0,0,1,1.089,1.094V108.5a1.091,1.091,0,0,1-1.089,1.094h-9.8a1.09,1.09,0,0,1-1.088-1.094V98.657A1.091,1.091,0,0,1,154.735,97.563Z"/>
  </g>
</svg>
