<svg id="wk-color-swatches" xmlns="http://www.w3.org/2000/svg" width="202" height="202"><defs><style>.cls-2{fill:#ebeef0}</style></defs><g id="wk-swatch-d"><path id="wk-holder" d="M46.688 135.375H74.5V175H46.688a19.813 19.813 0 0 1-19.812-19.812 19.813 19.813 0 0 1 19.812-19.813z" fill="#223240"/><circle id="wk-hole" class="cls-2" cx="43.203" cy="155.188" r="4.859"/><path id="wk-green-swatch" fill="#4caf76" d="M74.5 135.375H108V175H74.5z"/><path id="wk-yellow-swatch" fill="#d1c66d" d="M108 135.375h33.5V175H108z"/><path id="wk-red-swatch" d="M141.5 135.375H170a5 5 0 0 1 5 5V170a5 5 0 0 1-5 5h-28.5v-39.625z" fill="#cd4949"/></g><g id="wk-swatch-c"><path id="wk-holder-2" data-name="wk-holder" d="M65.855 123.894l19.881 34.3-23.888 14.074a19.643 19.643 0 0 1-27-7.095 19.985 19.985 0 0 1 7.122-27.2z" fill-rule="evenodd" fill="#293b4c"/><circle id="wk-hole-2" data-name="wk-hole" class="cls-2" cx="48.875" cy="156.906" r="4.813"/><path id="wk-green-swatch-2" data-name="wk-green-swatch" d="M94.672 106.914l19.881 34.3-28.816 16.98-19.881-34.3z" fill="#52ba7e" fill-rule="evenodd"/><path id="wk-yellow-swatch-2" data-name="wk-yellow-swatch" d="M123.488 89.933l19.881 34.3-28.817 16.981-19.881-34.3z" fill="#dcd174" fill-rule="evenodd"/><path id="wk-red-swatch-2" data-name="wk-red-swatch" d="M154.514 76.764l15.463 26.676a4.441 4.441 0 0 1-1.583 6.045l-25.025 14.746-19.881-34.3 25.025-14.746a4.365 4.365 0 0 1 6.001 1.579z" fill="#d74e4e" fill-rule="evenodd"/></g><g id="wk-swatch-b"><path id="wk-holder-3" data-name="wk-holder" d="M47.2 121.547L82.649 139.7l-12.79 24.6A20.011 20.011 0 0 1 43 172.794a19.709 19.709 0 0 1-8.591-26.646z" fill="#2f4356" fill-rule="evenodd"/><circle id="wk-hole-3" data-name="wk-hole" class="cls-2" cx="50.5" cy="158.344" r="4.875"/><path id="wk-green-swatch-3" data-name="wk-green-swatch" d="M62.625 91.871l35.453 18.148L82.649 139.7 47.2 121.547z" fill="#58c385" fill-rule="evenodd"/><path id="wk-yellow-swatch-3" data-name="wk-yellow-swatch" d="M78.055 62.194l35.452 18.148-15.429 29.677-35.453-18.148z" fill="#e5da7b" fill-rule="evenodd"/><path id="wk-red-swatch-3" data-name="wk-red-swatch" d="M97.423 34.533L125 48.648a4.38 4.38 0 0 1 1.909 5.921l-13.4 25.772-35.454-18.147 13.4-25.772a4.447 4.447 0 0 1 5.968-1.889z" fill="#df5252" fill-rule="evenodd"/></g><g id="wk-swatch-a"><path id="wk-holder-4" data-name="wk-holder" d="M26 127.906h39.5v27.351A19.743 19.743 0 0 1 45.758 175h-.015A19.743 19.743 0 0 1 26 155.258v-27.352z" fill="#34495e"/><ellipse id="wk-hole-4" data-name="wk-hole" class="cls-2" cx="45.844" cy="158.719" rx="4.844" ry="4.844"/><path id="wk-green-swatch-4" data-name="wk-green-swatch" fill="#5ecc8c" d="M26 94.281h39.5v33.625H26z"/><path id="wk-yellow-swatch-4" data-name="wk-yellow-swatch" fill="#efe483" d="M26 60.625h39.5v33.656H26z"/><path id="wk-red-swatch-4" data-name="wk-red-swatch" d="M31 27h29.5a5 5 0 0 1 5 5v28.625H26V32a5 5 0 0 1 5-5z" fill="#e85757"/></g></svg>