<svg xmlns="http://www.w3.org/2000/svg" width="202" height="202"><path d="M22 180V22h158v158H22zM167.344 34.656H34.656v132.688h132.688V34.656z" fill-rule="evenodd" fill="#333"/><path data-name="wk-cross" d="M117.146 101.375l24.97 24.971a2.477 2.477 0 0 1 0 3.5l-12.266 12.27a2.477 2.477 0 0 1-3.5 0l-24.97-24.97-24.97 24.97a2.478 2.478 0 0 1-3.5 0L60.635 129.85a2.477 2.477 0 0 1 0-3.5l24.97-24.971-24.97-24.97a2.478 2.478 0 0 1 0-3.5L72.9 60.635a2.478 2.478 0 0 1 3.5 0L101.376 85.6l24.97-24.97a2.478 2.478 0 0 1 3.5 0l12.27 12.27a2.478 2.478 0 0 1 0 3.5z" fill="#e85757" fill-rule="evenodd"/></svg>