<svg id="wk-compass" xmlns="http://www.w3.org/2000/svg" width="202" height="202" viewBox="0 0 202 202">
  <metadata><?xpacket begin="﻿" id="W5M0MpCehiHzreSzNTczkc9d"?>
<x:xmpmeta xmlns:x="adobe:ns:meta/" x:xmptk="Adobe XMP Core 5.6-c140 79.160451, 2017/05/06-01:08:21        ">
   <rdf:RDF xmlns:rdf="http://www.w3.org/1999/02/22-rdf-syntax-ns#">
      <rdf:Description rdf:about=""/>
   </rdf:RDF>
</x:xmpmeta>
                                                                                                    
                                                                                                    
                                                                                                    
                                                                                                    
                                                                                                    
                                                                                                    
                                                                                                    
                                                                                                    
                                                                                                    
                                                                                                    
                                                                                                    
                                                                                                    
                                                                                                    
                                                                                                    
                                                                                                    
                                                                                                    
                                                                                                    
                                                                                                    
                                                                                                    
                                                                                                    
                           
<?xpacket end="w"?></metadata>
<defs>
    <style>
      .cls-1, .cls-5 {
        fill: #34495e;
      }

      .cls-1, .cls-2, .cls-3, .cls-4, .cls-6 {
        fill-rule: evenodd;
      }

      .cls-2 {
        fill: #555;
      }

      .cls-3 {
        fill: #79bcff;
      }

      .cls-4 {
        fill: #e85757;
      }

      .cls-6 {
        fill: #fff;
      }
    </style>
  </defs>
  <path id="wk-boundries" class="cls-1" d="M101,33.844a76.078,76.078,0,1,1-76,76.078A76.039,76.039,0,0,1,101,33.844Zm-0.422,10.219a66.3,66.3,0,1,1-66.234,66.3A66.265,66.265,0,0,1,100.578,44.063Z"/>
  <g id="wk-directions">
    <path id="wk-directions-2" data-name="wk-directions" class="cls-2" d="M156.625,112.906v-5.968h5.938v5.968h-5.938ZM98.031,165.594h5.938v5.968H98.031v-5.968Zm0-117.281h5.938V54.25H98.031V48.313ZM39.438,106.938h5.938v5.968H39.438v-5.968Z"/>
  </g>
  <g id="wk-directioner">
    <path id="wk-top-directioner" class="cls-3" d="M129.109,67.815L107.7,114.854l-14.1-9.5Z"/>
    <path id="wk-bottom-directioner" class="cls-4" d="M72.187,152.41L107.7,114.854l-14.1-9.5Z"/>
    <circle id="wk-back-circle" class="cls-5" cx="101.234" cy="110" r="10.609"/>
    <path id="wk-front-circle" class="cls-6" d="M105.269,104.005a7.223,7.223,0,1,1-10.018,1.956A7.228,7.228,0,0,1,105.269,104.005Z"/>
  </g>
  <path id="wk-hang-circle" class="cls-1" d="M100.578,16a7.656,7.656,0,1,1-7.641,7.656A7.649,7.649,0,0,1,100.578,16Zm0,2.55a5.1,5.1,0,1,1-5.095,5.1A5.1,5.1,0,0,1,100.575,18.55Z"/>
  <rect id="wk-hang" class="cls-5" x="98.875" y="29.594" width="3.406" height="5.094"/>
</svg>
