<svg id="wk-compass" xmlns="http://www.w3.org/2000/svg" width="202" height="202"><defs><style>.cls-1,.cls-5{fill:#34495e}.cls-1{fill-rule:evenodd}</style></defs><path id="wk-boundries" class="cls-1" d="M101 33.844a76.078 76.078 0 1 1-76 76.078 76.039 76.039 0 0 1 76-76.078zm-.422 10.219a66.3 66.3 0 1 1-66.234 66.3 66.265 66.265 0 0 1 66.234-66.3z"/><g id="wk-directions"><path id="wk-directions-2" data-name="wk-directions" d="M156.625 112.906v-5.968h5.938v5.968h-5.938zm-58.594 52.688h5.938v5.968h-5.938v-5.968zm0-117.281h5.938v5.937h-5.938v-5.937zm-58.593 58.625h5.938v5.968h-5.938v-5.968z" fill="#555" fill-rule="evenodd"/></g><g id="wk-directioner"><path id="wk-top-directioner" d="M129.109 67.815L107.7 114.854l-14.1-9.5z" fill="#79bcff" fill-rule="evenodd"/><path id="wk-bottom-directioner" d="M72.187 152.41l35.513-37.556-14.1-9.5z" fill="#e85757" fill-rule="evenodd"/><circle id="wk-back-circle" class="cls-5" cx="101.234" cy="110" r="10.609"/><path id="wk-front-circle" d="M105.269 104.005a7.223 7.223 0 1 1-10.018 1.956 7.228 7.228 0 0 1 10.018-1.956z" fill="#fff" fill-rule="evenodd"/></g><path id="wk-hang-circle" class="cls-1" d="M100.578 16a7.656 7.656 0 1 1-7.641 7.656A7.649 7.649 0 0 1 100.578 16zm0 2.55a5.1 5.1 0 1 1-5.095 5.1 5.1 5.1 0 0 1 5.092-5.1z"/><path id="wk-hang" class="cls-5" d="M98.875 29.594h3.406v5.094h-3.406z"/></svg>