<svg id="wk-cocnut-trees" xmlns="http://www.w3.org/2000/svg" width="202" height="202" viewBox="0 0 202 202">
  <metadata><?xpacket begin="﻿" id="W5M0MpCehiHzreSzNTczkc9d"?>
<x:xmpmeta xmlns:x="adobe:ns:meta/" x:xmptk="Adobe XMP Core 5.6-c140 79.160451, 2017/05/06-01:08:21        ">
   <rdf:RDF xmlns:rdf="http://www.w3.org/1999/02/22-rdf-syntax-ns#">
      <rdf:Description rdf:about=""/>
   </rdf:RDF>
</x:xmpmeta>
                                                                                                    
                                                                                                    
                                                                                                    
                                                                                                    
                                                                                                    
                                                                                                    
                                                                                                    
                                                                                                    
                                                                                                    
                                                                                                    
                                                                                                    
                                                                                                    
                                                                                                    
                                                                                                    
                                                                                                    
                                                                                                    
                                                                                                    
                                                                                                    
                                                                                                    
                                                                                                    
                           
<?xpacket end="w"?></metadata>
<defs>
    <style>
      .cls-1 {
        fill: #6a4e2a;
      }

      .cls-1, .cls-2, .cls-3, .cls-4 {
        fill-rule: evenodd;
      }

      .cls-2 {
        fill: #479356;
      }

      .cls-3 {
        fill: #926d3c;
      }

      .cls-4 {
        fill: #67be5e;
      }
    </style>
  </defs>
  <g id="wk-tree-back">
    <path id="wk-wood" class="cls-1" d="M119.1,79.625h5.432s17.733,72.54-1.165,105.375c-3.925-.057-5.885,0-13.322,0C130.019,151.967,119.1,79.625,119.1,79.625Z"/>
    <path id="wk-leaves" class="cls-2" d="M174.01,73.587L129.572,80.23c20.078,1.354,29.361,26.7,29.361,26.7l-36.9-25.41-0.466.016L95.229,117.77S95.141,89.1,117.07,81.686L69.949,83.253s18.858-18.808,38.644-12.912L79.113,49.326s32.24-6.3,42.754,17.008c5.358-25.8,37.9-20.263,37.9-20.263L134.073,69.122C152.109,60.221,174.01,73.587,174.01,73.587Z"/>
  </g>
  <g id="wk-tree-front">
    <path id="wk-wood-2" data-name="wk-wood" class="cls-3" d="M87.441,58.042h6.57S115.457,145.44,92.6,185c-4.746-.068-7.118,0-16.111,0C100.644,145.2,87.441,58.042,87.441,58.042Z"/>
    <path id="wk-leaves-2" data-name="wk-leaves" class="cls-4" d="M153.847,50.768L100.19,58.759c24.229,1.691,35.423,32.182,35.423,32.182L90.984,60.327l-0.563.019L58.568,104S58.451,69.478,84.937,60.528L27.994,62.413S50.8,39.753,74.732,46.856L39.077,21.538s38.991-7.594,51.708,20.492c6.48-31.085,45.834-24.412,45.834-24.412L105.547,45.388C127.36,34.664,153.847,50.768,153.847,50.768Z"/>
  </g>
</svg>
