<svg id="wk-coffee" xmlns="http://www.w3.org/2000/svg" width="202" height="202" viewBox="0 0 202 202">
  <metadata><?xpacket begin="﻿" id="W5M0MpCehiHzreSzNTczkc9d"?>
<x:xmpmeta xmlns:x="adobe:ns:meta/" x:xmptk="Adobe XMP Core 5.6-c140 79.160451, 2017/05/06-01:08:21        ">
   <rdf:RDF xmlns:rdf="http://www.w3.org/1999/02/22-rdf-syntax-ns#">
      <rdf:Description rdf:about=""/>
   </rdf:RDF>
</x:xmpmeta>
                                                                                                    
                                                                                                    
                                                                                                    
                                                                                                    
                                                                                                    
                                                                                                    
                                                                                                    
                                                                                                    
                                                                                                    
                                                                                                    
                                                                                                    
                                                                                                    
                                                                                                    
                                                                                                    
                                                                                                    
                                                                                                    
                                                                                                    
                                                                                                    
                                                                                                    
                                                                                                    
                           
<?xpacket end="w"?></metadata>
<defs>
    <style>
      .cls-1 {
        fill: #fab007;
      }

      .cls-1, .cls-2, .cls-3 {
        fill-rule: evenodd;
      }

      .cls-2 {
        fill: #85603b;
      }

      .cls-3 {
        fill: #e6e6e6;
        opacity: 0.2;
      }
    </style>
  </defs>
  <path id="wk-mug" class="cls-1" d="M143.02,143.916l-2.979,18A5.1,5.1,0,0,1,134.933,167h-70.5a5.1,5.1,0,0,1-5.109-5.088L44,69.313a5.2,5.2,0,0,1,5.109-5.088c56.247-8.778,101.15,0,101.15,0a5.1,5.1,0,0,1,5.109,5.088L153.3,81.807C193.252,77.635,174.438,132.718,143.02,143.916Zm8.627-52.125-6.415,38.756C165.924,122.412,177.682,90.015,151.647,91.791Z"/>
  <path id="wk-coffee-2" data-name="wk-coffee" class="cls-2" d="M99.684,67.278c25.675,0,46.489,2,46.489,3.968S125.358,74.4,99.684,74.4,53.2,73.213,53.2,71.246,74.009,67.278,99.684,67.278Z"/>
  <path id="wk-steam" class="cls-3" d="M108.368,57.966c16.286-34.52-22.72-37.4,5.109-55.967C96.412,22.046,134.259,34.4,108.368,57.966Zm-14.3,0C110.35,23.446,71.344,20.563,99.173,2,82.108,22.046,119.955,34.4,94.064,57.966ZM81.8,58.984C96.28,34.03,62.7,43.6,86.912,23.369,69.848,43.415,103.1,35.139,81.8,58.984Z"/>
</svg>
