<svg id="wk-cross" xmlns="http://www.w3.org/2000/svg" width="202" height="202" viewBox="0 0 202 202">
  <metadata><?xpacket begin="﻿" id="W5M0MpCehiHzreSzNTczkc9d"?>
<x:xmpmeta xmlns:x="adobe:ns:meta/" x:xmptk="Adobe XMP Core 5.6-c140 79.160451, 2017/05/06-01:08:21        ">
   <rdf:RDF xmlns:rdf="http://www.w3.org/1999/02/22-rdf-syntax-ns#">
      <rdf:Description rdf:about=""/>
   </rdf:RDF>
</x:xmpmeta>
                                                                                                    
                                                                                                    
                                                                                                    
                                                                                                    
                                                                                                    
                                                                                                    
                                                                                                    
                                                                                                    
                                                                                                    
                                                                                                    
                                                                                                    
                                                                                                    
                                                                                                    
                                                                                                    
                                                                                                    
                                                                                                    
                                                                                                    
                                                                                                    
                                                                                                    
                                                                                                    
                           
<?xpacket end="w"?></metadata>
<defs>
    <style>
      .cls-1 {
        fill: #333;
      }

      .cls-1, .cls-2 {
        fill-rule: evenodd;
      }

      .cls-2 {
        fill: #e85757;
      }
    </style>
  </defs>
  <path id="wk-frame" class="cls-1" d="M22,180V22H180V180H22ZM167.344,34.656H34.656V167.344H167.344V34.656Z"/>
  <path id="wk-cross-2" data-name="wk-cross" class="cls-2" d="M117.146,101.375l24.97,24.971a2.477,2.477,0,0,1,0,3.5L129.85,142.116a2.477,2.477,0,0,1-3.5,0l-24.97-24.97-24.97,24.97a2.478,2.478,0,0,1-3.5,0L60.635,129.85a2.477,2.477,0,0,1,0-3.5l24.97-24.971-24.97-24.97a2.478,2.478,0,0,1,0-3.5L72.9,60.635a2.478,2.478,0,0,1,3.5,0L101.376,85.6l24.97-24.97a2.478,2.478,0,0,1,3.5,0L142.116,72.9a2.478,2.478,0,0,1,0,3.5Z"/>
</svg>
