<svg id="wk-chicken" xmlns="http://www.w3.org/2000/svg" width="202" height="202"><defs><style>.cls-1{fill:#fef1d3;fill-rule:evenodd}</style></defs><g id="wk-back-leg"><path id="wk-bone" class="cls-1" d="M138.441 40.819a7.2 7.2 0 0 1 .452-9.7 7.312 7.312 0 0 1 10.295-.015 7.2 7.2 0 0 1 .993 9.041 7.318 7.318 0 0 1 9.213.872 7.2 7.2 0 0 1 .033 10.23 7.309 7.309 0 0 1-9.919.352l-11.181 11.132-11-10.849z"/><path id="wk-meat" d="M73.764 66.117a35.492 35.492 0 0 1 41.248-6.606l8.756-8.746a3.922 3.922 0 0 1 5.523-.009l9.971 9.868a3.867 3.867 0 0 1 .016 5.491l-8.988 8.978a35.291 35.291 0 1 1-56.526-8.976z" fill="#936c15" fill-rule="evenodd"/></g><path id="wk-main-meat" d="M105.922 174.006L65.861 174c-33.436 0-55.812-23.746-52.521-60.607 14.411-161.419 292.032 40.321 92.582 60.613z" fill="#a1781c" fill-rule="evenodd"/><g id="wk-front-leg"><path id="wk-bone-2" data-name="wk-bone" class="cls-1" d="M164.878 57.166a7.2 7.2 0 0 1 .451-9.7 7.313 7.313 0 0 1 10.3-.015 7.2 7.2 0 0 1 .993 9.042 7.318 7.318 0 0 1 9.213.872 7.2 7.2 0 0 1 .032 10.23 7.308 7.308 0 0 1-9.918.353l-11.186 11.13-11-10.849z"/><path id="wk-meat-2" data-name="wk-meat" d="M100.2 82.464a35.493 35.493 0 0 1 41.249-6.606l8.755-8.746a3.922 3.922 0 0 1 5.523-.009l9.973 9.867a3.868 3.868 0 0 1 .017 5.491l-8.988 8.978a35.291 35.291 0 1 1-56.529-8.975z" fill="#af8526" fill-rule="evenodd"/></g></svg>