<svg id="wk-coffee-machine" xmlns="http://www.w3.org/2000/svg" width="222" height="222"><defs><style>.cls-5,.cls-6{fill-rule:evenodd}.cls-5{fill:#e1e1e1}.cls-6{fill:#333}</style></defs><path id="wk-base" d="M36.188 0h149.281a4 4 0 0 1 4 4v188.062H32.188V4a4 4 0 0 1 4-4zM29 192.062h163a4 4 0 0 1 4 4V218a4 4 0 0 1-4 4H29a4 4 0 0 1-4-4v-21.938a4 4 0 0 1 4-4z" fill-rule="evenodd" fill="#e7c072"/><path id="wk-shine" d="M193.389 222h-11.095a2.608 2.608 0 0 0 2.611-2.6v-24.743a2.608 2.608 0 0 0-2.611-2.6h-1.305V0h5.875a2.607 2.607 0 0 1 2.61 2.6v189.453h3.916a2.608 2.608 0 0 1 2.611 2.6V219.4a2.608 2.608 0 0 1-2.612 2.6z" fill="#ffe4b0" fill-rule="evenodd"/><rect id="wk-dispensing-area" x="40" y="100.906" width="141" height="91.156" rx="4" ry="4" fill="#594f38"/><path id="wk-dispensing-area-shine" d="M45.886 100.909v91.144h-3.264a2.607 2.607 0 0 1-2.611-2.6v-85.94a2.607 2.607 0 0 1 2.611-2.6h3.263z" fill="#6d634c" fill-rule="evenodd"/><g id="wk-steamer-right"><path id="wk-metal" class="cls-5" d="M153.576 100.909h5.224l10.442 24.739-9.142 20.182a.652.652 0 0 1-.653.651l-1.958-.651a.652.652 0 0 1-.652-.651l7.179-19.531z"/><path id="wk-grip" class="cls-6" d="M162.7 127.039l5.952 2.671-7.23 15.38-5.3-2.02z"/></g><g id="wk-steamer-left"><path id="wk-metal-2" data-name="wk-metal" class="cls-5" d="M67.986 101h-5.325L52.01 125.979l9.319 20.376a.661.661 0 0 0 .666.657l2-.657a.661.661 0 0 0 .666-.657l-7.323-19.719z"/><path id="wk-grip-2" data-name="wk-grip" class="cls-6" d="M58.681 127.384l-6.071 2.7 7.374 15.527 5.4-2.04z"/></g><g id="wk-coffee-jar" fill-rule="evenodd"><path id="wk-glass" d="M132.038 192.053H89.615a2.607 2.607 0 0 1-2.611-2.6v-21.511l.007-.011 5.214-24.054h37.2l5.2 24 .018.015v21.552a2.608 2.608 0 0 1-2.605 2.609z" fill="#e2e9ee" opacity=".5"/><path id="wk-coffee" d="M130.08 190.1H91.573a2.607 2.607 0 0 1-2.611-2.6v-15.629h43.729V187.5a2.608 2.608 0 0 1-2.611 2.6z" fill="#373023"/><path id="wk-plastic" d="M138.565 179.032h-1.958v-4.557h1.958v-30.6h-46.34l-4.569-4.557h55.477v39.712h-4.569z" fill="#433a28"/></g><g id="wk-dispensor"><path id="wk-parent-container" d="M79.813 100.906h60.063v6.469a2 2 0 0 1-2 2H81.813a2 2 0 0 1-2-2v-6.469z" fill="#433a28"/><path id="wk-shine-2" data-name="wk-shine" d="M138.565 109.373h-2.611a1.305 1.305 0 0 0 1.306-1.3v-7.161h2.61v7.161a1.3 1.3 0 0 1-1.305 1.3z" fill="#534936" fill-rule="evenodd"/><path id="wk-pointer-container" d="M88.969 109.375h41.75v6.469a2 2 0 0 1-2 2h-37.75a2 2 0 0 1-2-2v-6.469z" fill="#8a8271"/><path id="wk-shine-3" data-name="wk-shine" d="M129.427 117.836h-2.61a1.3 1.3 0 0 0 1.305-1.3v-7.162h2.611v7.162a1.3 1.3 0 0 1-1.306 1.3z" fill="#9d978b" fill-rule="evenodd"/><path id="wk-pointer" d="M105.931 116.534h9.138l-3.264 5.208H109.2z" fill="#8a8271" fill-rule="evenodd"/></g><path id="wk-dispensing-shadow" opacity=".12" d="M110.5 100.906H181v91.156h-70.5z"/><path id="wk-body-steel" fill="#ffeac2" d="M48.5 0h124.656v100.906H48.5z"/><path id="wk-body-steel-shine" d="M166.63 100.909V0h6.527v100.909h-6.527z" fill="#fff2d9" fill-rule="evenodd"/><path id="wk-logo" fill="#77694d" d="M99 14h24v5H99z"/><path id="wk-manuals" d="M154.882 48.827a5.208 5.208 0 1 1 5.221-5.208 5.215 5.215 0 0 1-5.221 5.208zm-29.371 23.437a5.208 5.208 0 1 1 5.222-5.208 5.215 5.215 0 0 1-5.222 5.208zm0-23.437a5.208 5.208 0 1 1 5.222-5.208 5.215 5.215 0 0 1-5.222 5.208zm-29.37 23.437a5.208 5.208 0 1 1 5.222-5.208 5.215 5.215 0 0 1-5.222 5.208zm0-23.437a5.208 5.208 0 1 1 5.222-5.208 5.215 5.215 0 0 1-5.222 5.208zm-29.37 23.437a5.208 5.208 0 1 1 5.221-5.208 5.215 5.215 0 0 1-5.221 5.208zm0-23.437a5.208 5.208 0 1 1 5.221-5.208 5.215 5.215 0 0 1-5.221 5.208zm88.111 13.02a5.208 5.208 0 1 1-5.222 5.208 5.215 5.215 0 0 1 5.222-5.207z" fill="#77694d" fill-rule="evenodd"/></svg>