<svg xmlns="http://www.w3.org/2000/svg" width="202" height="202"><path d="M143.02 143.916l-2.979 18a5.1 5.1 0 0 1-5.108 5.084h-70.5a5.1 5.1 0 0 1-5.109-5.088L44 69.313a5.2 5.2 0 0 1 5.109-5.088c56.247-8.778 101.15 0 101.15 0a5.1 5.1 0 0 1 5.109 5.088L153.3 81.807c39.952-4.172 21.138 50.911-10.28 62.109zm8.627-52.125l-6.415 38.756c20.692-8.135 32.45-40.532 6.415-38.756z" fill-rule="evenodd" fill="#fab007"/><path data-name="wk-coffee" d="M99.684 67.278c25.675 0 46.489 2 46.489 3.968S125.358 74.4 99.684 74.4 53.2 73.213 53.2 71.246s20.809-3.968 46.484-3.968z" fill="#85603b" fill-rule="evenodd"/><path d="M108.368 57.966c16.286-34.52-22.72-37.4 5.109-55.967-17.065 20.047 20.782 32.401-5.109 55.967zm-14.3 0C110.35 23.446 71.344 20.563 99.173 2c-17.065 20.046 20.782 32.4-5.109 55.966zM81.8 58.984C96.28 34.03 62.7 43.6 86.912 23.369 69.848 43.415 103.1 35.139 81.8 58.984z" fill="#e6e6e6" opacity=".2" fill-rule="evenodd"/></svg>