<svg xmlns="http://www.w3.org/2000/svg" width="202" height="202"><path d="M22 180V22h158v158H22zM167.344 34.656H34.656v132.688h132.688V34.656z" fill-rule="evenodd" fill="#333"/><path data-name="wk-check" d="M155.557 76.41L89.84 142.127a2.476 2.476 0 0 1-2.2.683 2.453 2.453 0 0 1-2.188-.676L46.411 103.1a2.453 2.453 0 0 1 0-3.47l12.145-12.148a2.454 2.454 0 0 1 3.47 0l25.457 25.458 52.3-52.3a2.478 2.478 0 0 1 3.5 0l12.267 12.267a2.478 2.478 0 0 1 .007 3.503z" fill="#63bb6f" fill-rule="evenodd"/></svg>