<svg id="wk-clock" xmlns="http://www.w3.org/2000/svg" width="202" height="202"><defs><style>.cls-3,.cls-4{fill:#555}.cls-4{fill-rule:evenodd}.cls-5{fill:#e85757}</style></defs><circle cx="101.5" cy="101.5" r="74.5" fill="#34495e"/><circle id="Ellipse_6_copy" data-name="Ellipse 6 copy" cx="101.125" cy="101.125" r="64.437" fill="#fff"/><g id="Points"><path class="cls-3" d="M100 44.125h2.25v8.938H100z"/><path id="Rectangle_22_copy" data-name="Rectangle 22 copy" class="cls-3" d="M100 149.188h2.25v8.937H100z"/><path id="Rectangle_22_copy_2" data-name="Rectangle 22 copy 2" class="cls-3" d="M149.188 100h8.937v2.25h-8.937z"/><path id="Rectangle_22_copy_2-2" data-name="Rectangle 22 copy 2" class="cls-3" d="M44.125 100h8.938v2.25h-8.938z"/><path id="Rectangle_22_copy_3" data-name="Rectangle 22 copy 3" class="cls-4" d="M140.637 60.037l1.58 1.581-6.317 6.321-1.58-1.58z"/><path id="Rectangle_22_copy_3-2" data-name="Rectangle 22 copy 3" class="cls-4" d="M66.359 134.315l1.58 1.581-6.322 6.321-1.58-1.58z"/><path id="Rectangle_22_copy_3-3" data-name="Rectangle 22 copy 3" class="cls-4" d="M135.9 134.315l6.321 6.322-1.58 1.58-6.321-6.321z"/><path id="Rectangle_22_copy_3-4" data-name="Rectangle 22 copy 3" class="cls-4" d="M61.618 60.037l6.322 6.322-1.58 1.58-6.321-6.321z"/><rect class="cls-5" x="97.781" y="62.75" width="6.719" height="40.25" rx="3.354" ry="3.354"/><rect id="Rectangle_23_copy" data-name="Rectangle 23 copy" class="cls-5" x="72.438" y="97.781" width="34.281" height="6.719" rx="3.354" ry="3.354"/><circle cx="101.141" cy="101.141" r="7.078" stroke="#34495e" stroke-linejoin="round" stroke-width="3" fill="#fff"/></g></svg>