<svg id="wk-calculator" xmlns="http://www.w3.org/2000/svg" width="202" height="202"><defs><style>.cls-3,.cls-4{fill:#34495e;fill-rule:evenodd}.cls-4{fill:#fff}</style></defs><rect id="wk-body" x="21" y="19" width="161" height="165" rx="5" ry="5" fill="#34495e"/><rect id="wk-screen" x="29.125" y="27.156" width="144.75" height="48.094" rx="5" ry="5" fill="#e1f4ff"/><path id="wk-screen-number" class="cls-3" d="M162.485 54.045v9.78l.813 3.26a3.512 3.512 0 0 0 2.439-2.445V53.23l-.813-.815zm-.813 9.78H151.1l-3.253.815a3.512 3.512 0 0 0 2.44 2.445h12.2zM151.1 63.01v-8.965l-2.439-1.63-.814.815v10.6zm11.384-26.9h-12.2a3.514 3.514 0 0 0-2.44 2.445l3.253.815h10.571zm-14.637 3.26v10.6l.814.815 2.439-2.445v-8.15zm17.076 11.41l.813-.815V38.56a3.515 3.515 0 0 0-2.439-2.445l-.813 3.26v8.965z"/><path id="wk-button-bg" class="cls-4" d="M168.875 125.75h-35.531a5 5 0 0 1-5-5V85.125a5 5 0 0 1 5-5h35.531a5 5 0 0 1 5 5v35.625a5 5 0 0 1-5 5zm-49.594 50.531H83.719a5 5 0 0 1-5-5v-35.625a5 5 0 0 1 5-5h35.562a5 5 0 0 1 5 5v35.625a5 5 0 0 1-5 5zm0-50.531H83.719a5 5 0 0 1-5-5V85.125a5 5 0 0 1 5-5h35.562a5 5 0 0 1 5 5v35.625a5 5 0 0 1-5 5zm-49.625 50.531H34.125a5 5 0 0 1-5-5v-35.625a5 5 0 0 1 5-5h35.531a5 5 0 0 1 5 5v35.625a5 5 0 0 1-5 5zm0-50.531H34.125a5 5 0 0 1-5-5V85.125a5 5 0 0 1 5-5h35.531a5 5 0 0 1 5 5v35.625a5 5 0 0 1-5 5z"/><path id="wk-signs" class="cls-3" d="M160.031 104.594h-7.312v7.312h-3.25v-7.312h-7.313v-3.281h7.313V94h3.25v7.313h7.312v3.281zm-52.715 6.5l-5.816-5.826-5.816 5.832-2.326-2.33 5.816-5.826-5.816-5.826 2.326-2.331 5.816 5.826 5.816-5.826 2.326 2.331-5.816 5.826 5.816 5.826zm-64.347 40.75h17.875v3.281H42.969v-3.281zm7.313-39.938v-3.25h3.25v3.25h-3.25zm-7.312-10.593h17.874v3.281H42.969v-3.281zM50.281 94h3.25v3.25h-3.25V94zm53.657 74.125h-4.875v-4.875h4.876v4.875z"/><rect id="wk-result-bg" x="128.344" y="130.656" width="45.531" height="45.625" rx="5" ry="5" fill="#ff8400"/><path id="wk-equal-to-sign" class="cls-4" d="M142.156 155.906h17.875v3.282h-17.875v-3.282zm0-8.156h17.875v3.281h-17.875v-3.281z"/></svg>