<svg id="wk-calculator" xmlns="http://www.w3.org/2000/svg" width="202" height="202" viewBox="0 0 202 202">
  <metadata><?xpacket begin="﻿" id="W5M0MpCehiHzreSzNTczkc9d"?>
<x:xmpmeta xmlns:x="adobe:ns:meta/" x:xmptk="Adobe XMP Core 5.6-c140 79.160451, 2017/05/06-01:08:21        ">
   <rdf:RDF xmlns:rdf="http://www.w3.org/1999/02/22-rdf-syntax-ns#">
      <rdf:Description rdf:about=""/>
   </rdf:RDF>
</x:xmpmeta>
                                                                                                    
                                                                                                    
                                                                                                    
                                                                                                    
                                                                                                    
                                                                                                    
                                                                                                    
                                                                                                    
                                                                                                    
                                                                                                    
                                                                                                    
                                                                                                    
                                                                                                    
                                                                                                    
                                                                                                    
                                                                                                    
                                                                                                    
                                                                                                    
                                                                                                    
                                                                                                    
                           
<?xpacket end="w"?></metadata>
<defs>
    <style>
      .cls-1, .cls-3 {
        fill: #34495e;
      }

      .cls-2 {
        fill: #e1f4ff;
      }

      .cls-3, .cls-4 {
        fill-rule: evenodd;
      }

      .cls-4 {
        fill: #fff;
      }

      .cls-5 {
        fill: #ff8400;
      }
    </style>
  </defs>
  <rect id="wk-body" class="cls-1" x="21" y="19" width="161" height="165" rx="5" ry="5"/>
  <rect id="wk-screen" class="cls-2" x="29.125" y="27.156" width="144.75" height="48.094" rx="5" ry="5"/>
  <path id="wk-screen-number" class="cls-3" d="M162.485,54.045v9.78l0.813,3.26a3.512,3.512,0,0,0,2.439-2.445V53.23l-0.813-.815Zm-0.813,9.78H151.1l-3.253.815a3.512,3.512,0,0,0,2.44,2.445h12.2ZM151.1,63.01V54.045l-2.439-1.63-0.814.815v10.6Zm11.384-26.9h-12.2a3.514,3.514,0,0,0-2.44,2.445l3.253,0.815h10.571Zm-14.637,3.26V49.97l0.814,0.815L151.1,48.34V40.19Zm17.076,11.41,0.813-.815V38.56a3.515,3.515,0,0,0-2.439-2.445l-0.813,3.26V48.34Z"/>
  <path id="wk-button-bg" class="cls-4" d="M168.875,125.75H133.344a5,5,0,0,1-5-5V85.125a5,5,0,0,1,5-5h35.531a5,5,0,0,1,5,5V120.75A5,5,0,0,1,168.875,125.75Zm-49.594,50.531H83.719a5,5,0,0,1-5-5V135.656a5,5,0,0,1,5-5h35.562a5,5,0,0,1,5,5v35.625A5,5,0,0,1,119.281,176.281Zm0-50.531H83.719a5,5,0,0,1-5-5V85.125a5,5,0,0,1,5-5h35.562a5,5,0,0,1,5,5V120.75A5,5,0,0,1,119.281,125.75ZM69.656,176.281H34.125a5,5,0,0,1-5-5V135.656a5,5,0,0,1,5-5H69.656a5,5,0,0,1,5,5v35.625A5,5,0,0,1,69.656,176.281Zm0-50.531H34.125a5,5,0,0,1-5-5V85.125a5,5,0,0,1,5-5H69.656a5,5,0,0,1,5,5V120.75A5,5,0,0,1,69.656,125.75Z"/>
  <path id="wk-signs" class="cls-3" d="M160.031,104.594h-7.312v7.312h-3.25v-7.312h-7.313v-3.281h7.313V94h3.25v7.313h7.312v3.281Zm-52.715,6.5-5.816-5.826L95.684,111.1l-2.326-2.33,5.816-5.826-5.816-5.826,2.326-2.331,5.816,5.826,5.816-5.826,2.326,2.331-5.816,5.826,5.816,5.826ZM42.969,151.844H60.844v3.281H42.969v-3.281Zm7.313-39.938v-3.25h3.25v3.25h-3.25Zm-7.312-10.593H60.844v3.281H42.969v-3.281ZM50.281,94h3.25v3.25h-3.25V94Zm53.657,74.125H99.063V163.25h4.876v4.875Z"/>
  <rect id="wk-result-bg" class="cls-5" x="128.344" y="130.656" width="45.531" height="45.625" rx="5" ry="5"/>
  <path id="wk-equal-to-sign" class="cls-4" d="M142.156,155.906h17.875v3.282H142.156v-3.282Zm0-8.156h17.875v3.281H142.156V147.75Z"/>
</svg>
