<svg id="wk-coffee-machine" xmlns="http://www.w3.org/2000/svg" width="222" height="222" viewBox="0 0 222 222">
  <metadata><?xpacket begin="﻿" id="W5M0MpCehiHzreSzNTczkc9d"?>
<x:xmpmeta xmlns:x="adobe:ns:meta/" x:xmptk="Adobe XMP Core 5.6-c140 79.160451, 2017/05/06-01:08:21        ">
   <rdf:RDF xmlns:rdf="http://www.w3.org/1999/02/22-rdf-syntax-ns#">
      <rdf:Description rdf:about=""/>
   </rdf:RDF>
</x:xmpmeta>
                                                                                                    
                                                                                                    
                                                                                                    
                                                                                                    
                                                                                                    
                                                                                                    
                                                                                                    
                                                                                                    
                                                                                                    
                                                                                                    
                                                                                                    
                                                                                                    
                                                                                                    
                                                                                                    
                                                                                                    
                                                                                                    
                                                                                                    
                                                                                                    
                                                                                                    
                                                                                                    
                           
<?xpacket end="w"?></metadata>
<defs>
    <style>
      .cls-1 {
        fill: #e7c072;
      }

      .cls-1, .cls-11, .cls-13, .cls-14, .cls-17, .cls-19, .cls-2, .cls-4, .cls-5, .cls-6, .cls-7, .cls-8, .cls-9 {
        fill-rule: evenodd;
      }

      .cls-2 {
        fill: #ffe4b0;
      }

      .cls-3 {
        fill: #594f38;
      }

      .cls-4 {
        fill: #6d634c;
      }

      .cls-5 {
        fill: #e1e1e1;
      }

      .cls-6 {
        fill: #333;
      }

      .cls-7 {
        fill: #e2e9ee;
        opacity: 0.5;
      }

      .cls-8 {
        fill: #373023;
      }

      .cls-10, .cls-9 {
        fill: #433a28;
      }

      .cls-11 {
        fill: #534936;
      }

      .cls-12, .cls-14 {
        fill: #8a8271;
      }

      .cls-13 {
        fill: #9d978b;
      }

      .cls-15 {
        opacity: 0.12;
      }

      .cls-16 {
        fill: #ffeac2;
      }

      .cls-17 {
        fill: #fff2d9;
      }

      .cls-18, .cls-19 {
        fill: #77694d;
      }
    </style>
  </defs>
  <path id="wk-base" class="cls-1" d="M36.188,0H185.469a4,4,0,0,1,4,4V192.062H32.188V4A4,4,0,0,1,36.188,0ZM29,192.062H192a4,4,0,0,1,4,4V218a4,4,0,0,1-4,4H29a4,4,0,0,1-4-4V196.062A4,4,0,0,1,29,192.062Z"/>
  <path id="wk-shine" class="cls-2" d="M193.389,222H182.294a2.608,2.608,0,0,0,2.611-2.6V194.657a2.608,2.608,0,0,0-2.611-2.6h-1.305V0h5.875a2.607,2.607,0,0,1,2.61,2.6V192.053h3.916a2.608,2.608,0,0,1,2.611,2.6V219.4A2.608,2.608,0,0,1,193.389,222Z"/>
  <rect id="wk-dispensing-area" class="cls-3" x="40" y="100.906" width="141" height="91.156" rx="4" ry="4"/>
  <path id="wk-dispensing-area-shine" class="cls-4" d="M45.886,100.909v91.144H42.622a2.607,2.607,0,0,1-2.611-2.6V103.513a2.607,2.607,0,0,1,2.611-2.6h3.263Z"/>
  <g id="wk-steamer-right">
    <path id="wk-metal" class="cls-5" d="M153.576,100.909H158.8l10.442,24.739L160.1,145.83a0.652,0.652,0,0,1-.653.651l-1.958-.651a0.652,0.652,0,0,1-.652-0.651l7.179-19.531Z"/>
    <path id="wk-grip" class="cls-6" d="M162.7,127.039l5.952,2.671-7.23,15.38-5.3-2.02Z"/>
  </g>
  <g id="wk-steamer-left">
    <path id="wk-metal-2" data-name="wk-metal" class="cls-5" d="M67.986,101H62.661L52.01,125.979l9.319,20.376a0.661,0.661,0,0,0,.666.657l2-.657a0.661,0.661,0,0,0,.666-0.657l-7.323-19.719Z"/>
    <path id="wk-grip-2" data-name="wk-grip" class="cls-6" d="M58.681,127.384l-6.071,2.7,7.374,15.527,5.4-2.04Z"/>
  </g>
  <g id="wk-coffee-jar">
    <path id="wk-glass" class="cls-7" d="M132.038,192.053H89.615a2.607,2.607,0,0,1-2.611-2.6V167.942l0.007-.011,5.214-24.054h37.2l5.2,24,0.018,0.015v21.552A2.608,2.608,0,0,1,132.038,192.053Z"/>
    <path id="wk-coffee" class="cls-8" d="M130.08,190.1H91.573a2.607,2.607,0,0,1-2.611-2.6V171.871h43.729V187.5A2.608,2.608,0,0,1,130.08,190.1Z"/>
    <path id="wk-plastic" class="cls-9" d="M138.565,179.032h-1.958v-4.557h1.958v-30.6H92.225l-4.569-4.557h55.477v39.712h-4.569Z"/>
  </g>
  <g id="wk-dispensor">
    <path id="wk-parent-container" class="cls-10" d="M79.813,100.906h60.063a0,0,0,0,1,0,0v6.469a2,2,0,0,1-2,2H81.813a2,2,0,0,1-2-2v-6.469A0,0,0,0,1,79.813,100.906Z"/>
    <path id="wk-shine-2" data-name="wk-shine" class="cls-11" d="M138.565,109.373h-2.611a1.305,1.305,0,0,0,1.306-1.3v-7.161h2.61v7.161A1.3,1.3,0,0,1,138.565,109.373Z"/>
    <path id="wk-pointer-container" class="cls-12" d="M88.969,109.375h41.75a0,0,0,0,1,0,0v6.469a2,2,0,0,1-2,2H90.969a2,2,0,0,1-2-2v-6.469A0,0,0,0,1,88.969,109.375Z"/>
    <path id="wk-shine-3" data-name="wk-shine" class="cls-13" d="M129.427,117.836h-2.61a1.3,1.3,0,0,0,1.305-1.3v-7.162h2.611v7.162A1.3,1.3,0,0,1,129.427,117.836Z"/>
    <path id="wk-pointer" class="cls-14" d="M105.931,116.534h9.138l-3.264,5.208H109.2Z"/>
  </g>
  <rect id="wk-dispensing-shadow" class="cls-15" x="110.5" y="100.906" width="70.5" height="91.156"/>
  <rect id="wk-body-steel" class="cls-16" x="48.5" width="124.656" height="100.906"/>
  <path id="wk-body-steel-shine" class="cls-17" d="M166.63,100.909V0h6.527V100.909H166.63Z"/>
  <rect id="wk-logo" class="cls-18" x="99" y="14" width="24" height="5"/>
  <path id="wk-manuals" class="cls-19" d="M154.882,48.827a5.208,5.208,0,1,1,5.221-5.208A5.215,5.215,0,0,1,154.882,48.827ZM125.511,72.264a5.208,5.208,0,1,1,5.222-5.208A5.215,5.215,0,0,1,125.511,72.264Zm0-23.437a5.208,5.208,0,1,1,5.222-5.208A5.215,5.215,0,0,1,125.511,48.827ZM96.141,72.264a5.208,5.208,0,1,1,5.222-5.208A5.215,5.215,0,0,1,96.141,72.264Zm0-23.437a5.208,5.208,0,1,1,5.222-5.208A5.215,5.215,0,0,1,96.141,48.827ZM66.771,72.264a5.208,5.208,0,1,1,5.221-5.208A5.215,5.215,0,0,1,66.771,72.264Zm0-23.437a5.208,5.208,0,1,1,5.221-5.208A5.215,5.215,0,0,1,66.771,48.827Zm88.111,13.02a5.208,5.208,0,1,1-5.222,5.208A5.215,5.215,0,0,1,154.882,61.848Z"/>
</svg>
