<svg id="wk-calendar" xmlns="http://www.w3.org/2000/svg" width="202" height="202" viewBox="0 0 202 202">
  <metadata><?xpacket begin="﻿" id="W5M0MpCehiHzreSzNTczkc9d"?>
<x:xmpmeta xmlns:x="adobe:ns:meta/" x:xmptk="Adobe XMP Core 5.6-c140 79.160451, 2017/05/06-01:08:21        ">
   <rdf:RDF xmlns:rdf="http://www.w3.org/1999/02/22-rdf-syntax-ns#">
      <rdf:Description rdf:about=""/>
   </rdf:RDF>
</x:xmpmeta>
                                                                                                    
                                                                                                    
                                                                                                    
                                                                                                    
                                                                                                    
                                                                                                    
                                                                                                    
                                                                                                    
                                                                                                    
                                                                                                    
                                                                                                    
                                                                                                    
                                                                                                    
                                                                                                    
                                                                                                    
                                                                                                    
                                                                                                    
                                                                                                    
                                                                                                    
                                                                                                    
                           
<?xpacket end="w"?></metadata>
<defs>
    <style>
      .cls-1 {
        fill: #e6e6e6;
      }

      .cls-2 {
        fill: #de6262;
      }

      .cls-2, .cls-4 {
        fill-rule: evenodd;
      }

      .cls-3 {
        fill: #fff;
      }

      .cls-4 {
        fill: #555;
      }
    </style>
  </defs>
  <path id="Rectangle_17_copy" data-name="Rectangle 17 copy" class="cls-1" d="M18,84.844H184a0,0,0,0,1,0,0V176a5,5,0,0,1-5,5H23a5,5,0,0,1-5-5V84.844A0,0,0,0,1,18,84.844Z"/>
  <path class="cls-2" d="M23.061,34.268H178.939A5.05,5.05,0,0,1,184,39.306V85.673H18V39.306A5.05,5.05,0,0,1,23.061,34.268Z"/>
  <rect class="cls-3" x="73.625" y="59.969" width="54.75" height="6.625"/>
  <path class="cls-4" d="M34.2,21a4.05,4.05,0,0,1,4.049,4.05V42.265a4.049,4.049,0,1,1-8.1,0V25.05A4.05,4.05,0,0,1,34.2,21Z"/>
  <path id="Rectangle_19_copy" data-name="Rectangle 19 copy" class="cls-4" d="M67.6,21a4.05,4.05,0,0,1,4.049,4.05V42.265a4.049,4.049,0,1,1-8.1,0V25.05A4.05,4.05,0,0,1,67.6,21Z"/>
  <path id="Rectangle_19_copy_2" data-name="Rectangle 19 copy 2" class="cls-4" d="M101,21a4.05,4.05,0,0,1,4.049,4.05V42.265a4.049,4.049,0,1,1-8.1,0V25.05A4.05,4.05,0,0,1,101,21Z"/>
  <path id="Rectangle_19_copy_3" data-name="Rectangle 19 copy 3" class="cls-4" d="M134.4,21a4.05,4.05,0,0,1,4.049,4.05V42.265a4.049,4.049,0,1,1-8.1,0V25.05A4.049,4.049,0,0,1,134.4,21Z"/>
  <path id="Rectangle_19_copy_4" data-name="Rectangle 19 copy 4" class="cls-4" d="M167.805,21a4.05,4.05,0,0,1,4.049,4.05V42.265a4.049,4.049,0,1,1-8.1,0V25.05A4.05,4.05,0,0,1,167.805,21Z"/>
  <path id="_20" data-name="20" class="cls-4" d="M95.982,160.5V152H74.509l13.829-16.327q7.3-8.85,7.3-16.07t-4.295-11.386q-4.3-4.167-12.8-4.168a36.657,36.657,0,0,0-16.577,4.039v13.749l8.761,0.6v-6.1a5.047,5.047,0,0,1,.3-2.019,3.071,3.071,0,0,1,1.89-1.16,16.3,16.3,0,0,1,4.724-.516,7.247,7.247,0,0,1,5.154,1.891,6.36,6.36,0,0,1,2.019,4.855,14.053,14.053,0,0,1-.816,5.07,14.282,14.282,0,0,1-1.675,3.266q-0.859,1.16-3.522,4.6L61.711,153.886V160.5H95.982Zm13.141-49.325q-5.412,7.133-5.412,21.74t4.9,21.527q4.9,6.918,14.86,6.917t15.031-7q5.067-7,5.068-22.042,0-28.272-19.5-28.272Q114.534,104.045,109.123,111.178Zm4.981,21.955q0-11.127,2.448-15.9t7.172-4.769a7.77,7.77,0,0,1,7.173,4.468q2.448,4.47,2.448,15.769t-2.534,15.854q-2.535,4.555-7.172,4.555a7.711,7.711,0,0,1-7.087-4.426Q114.1,144.262,114.1,133.133Z"/>
</svg>
