<svg id="wk-chicken" xmlns="http://www.w3.org/2000/svg" width="202" height="202" viewBox="0 0 202 202">
  <metadata><?xpacket begin="﻿" id="W5M0MpCehiHzreSzNTczkc9d"?>
<x:xmpmeta xmlns:x="adobe:ns:meta/" x:xmptk="Adobe XMP Core 5.6-c140 79.160451, 2017/05/06-01:08:21        ">
   <rdf:RDF xmlns:rdf="http://www.w3.org/1999/02/22-rdf-syntax-ns#">
      <rdf:Description rdf:about=""/>
   </rdf:RDF>
</x:xmpmeta>
                                                                                                    
                                                                                                    
                                                                                                    
                                                                                                    
                                                                                                    
                                                                                                    
                                                                                                    
                                                                                                    
                                                                                                    
                                                                                                    
                                                                                                    
                                                                                                    
                                                                                                    
                                                                                                    
                                                                                                    
                                                                                                    
                                                                                                    
                                                                                                    
                                                                                                    
                                                                                                    
                           
<?xpacket end="w"?></metadata>
<defs>
    <style>
      .cls-1 {
        fill: #fef1d3;
      }

      .cls-1, .cls-2, .cls-3, .cls-4 {
        fill-rule: evenodd;
      }

      .cls-2 {
        fill: #936c15;
      }

      .cls-3 {
        fill: #a1781c;
      }

      .cls-4 {
        fill: #af8526;
      }
    </style>
  </defs>
  <g id="wk-back-leg">
    <path id="wk-bone" class="cls-1" d="M138.441,40.819a7.2,7.2,0,0,1,.452-9.7,7.312,7.312,0,0,1,10.295-.015,7.2,7.2,0,0,1,.993,9.041,7.318,7.318,0,0,1,9.213.872,7.2,7.2,0,0,1,.033,10.23,7.309,7.309,0,0,1-9.919.352L138.327,62.731l-11-10.849Z"/>
    <path id="wk-meat" class="cls-2" d="M73.764,66.117a35.492,35.492,0,0,1,41.248-6.606l8.756-8.746a3.922,3.922,0,0,1,5.523-.009l9.971,9.868a3.867,3.867,0,0,1,.016,5.491l-8.988,8.978A35.291,35.291,0,1,1,73.764,66.117Z"/>
  </g>
  <path id="wk-main-meat" class="cls-3" d="M105.922,174.006L65.861,174c-33.436,0-55.812-23.746-52.521-60.607C27.751-48.026,305.372,153.714,105.922,174.006Z"/>
  <g id="wk-front-leg">
    <path id="wk-bone-2" data-name="wk-bone" class="cls-1" d="M164.878,57.166a7.2,7.2,0,0,1,.451-9.7,7.313,7.313,0,0,1,10.3-.015,7.2,7.2,0,0,1,.993,9.042,7.318,7.318,0,0,1,9.213.872,7.2,7.2,0,0,1,.032,10.23,7.308,7.308,0,0,1-9.918.353L164.763,79.078l-11-10.849Z"/>
    <path id="wk-meat-2" data-name="wk-meat" class="cls-4" d="M100.2,82.464a35.493,35.493,0,0,1,41.249-6.606l8.755-8.746a3.922,3.922,0,0,1,5.523-.009L165.7,76.97a3.868,3.868,0,0,1,.017,5.491l-8.988,8.978A35.291,35.291,0,1,1,100.2,82.464Z"/>
  </g>
</svg>
