<svg id="wk-car" xmlns="http://www.w3.org/2000/svg" width="202" height="202"><defs><style>.cls-3{fill:#642a2a}.cls-9{fill:#fff}.cls-10{fill:#f7efc5}</style></defs><path id="wk-body" fill="#e85757" d="M20 96.938h162v45.969H20z"/><g id="wk-engine"><path fill="#d9d9d9" d="M64.094 108.656h73.812v22.532H64.094z"/><path class="cls-3" d="M64.094 112.25h73.812v1.812H64.094z"/><path id="Rectangle_16_copy" data-name="Rectangle 16 copy" class="cls-3" d="M64.094 116.75h73.812v1.812H64.094z"/><path id="Rectangle_16_copy_2" data-name="Rectangle 16 copy 2" class="cls-3" d="M64.094 121.281h73.812v1.781H64.094z"/><path id="Rectangle_16_copy_2-2" data-name="Rectangle 16 copy 2" class="cls-3" d="M64.094 125.781h73.812v1.781H64.094z"/></g><path id="wk-shine" fill="#ffe9e9" opacity=".2" d="M97.406 96.938H123.5v45.969H97.406z"/><g id="wk-roof" fill-rule="evenodd"><path id="Roof" d="M29.9 87.038L47.2 42H154l18.1 45.038 9.9 9.908H20z" fill="#f46464"/><path id="Shine" d="M87.521 42h21.193l5.895 26.37 3.618 4.109 5.473 24.467H97.484l-3.131-23.691-3.284-4.419z" fill="#ff7a7a"/></g><g id="wk-front-glass" fill-rule="evenodd"><path id="wk-front-glass-2" data-name="wk-front-glass" d="M51.5 46.5h99l14.4 38.733H37.1z" fill="#c6f0ff"/><path id="wk-shine-2" data-name="wk-shine" d="M88.861 46.5h22.97l7.378 38.733H94.151z" fill="#e6f8ff"/></g><g id="wk-wheels"><path id="L" d="M34.406 142.906H51.5v8.547A8.547 8.547 0 0 1 42.953 160a8.547 8.547 0 0 1-8.547-8.547v-8.547z"/><path id="R" d="M151.406 142.906H168.5v8.547a8.547 8.547 0 0 1-8.547 8.547 8.547 8.547 0 0 1-8.547-8.547v-8.547z"/></g><g id="wk-headlights"><g id="L-2" data-name="L"><path class="cls-9" d="M37.094 117.656h20.719v15.313H37.094z"/><path id="Rectangle_14_copy" data-name="Rectangle 14 copy" class="cls-10" d="M29 117.656h8.094v15.313H29z"/></g><g id="R-2" data-name="R"><path class="cls-9" d="M144.188 117.656h20.718v15.313h-20.718z"/><path id="Rectangle_14_copy-2" data-name="Rectangle 14 copy" class="cls-10" d="M164.906 117.656H173v15.313h-8.094z"/></g></g></svg>