<svg id="wk-coffee-glass" xmlns="http://www.w3.org/2000/svg" width="222" height="222" viewBox="0 0 222 222">
  <metadata><?xpacket begin="﻿" id="W5M0MpCehiHzreSzNTczkc9d"?>
<x:xmpmeta xmlns:x="adobe:ns:meta/" x:xmptk="Adobe XMP Core 5.6-c140 79.160451, 2017/05/06-01:08:21        ">
   <rdf:RDF xmlns:rdf="http://www.w3.org/1999/02/22-rdf-syntax-ns#">
      <rdf:Description rdf:about=""/>
   </rdf:RDF>
</x:xmpmeta>
                                                                                                    
                                                                                                    
                                                                                                    
                                                                                                    
                                                                                                    
                                                                                                    
                                                                                                    
                                                                                                    
                                                                                                    
                                                                                                    
                                                                                                    
                                                                                                    
                                                                                                    
                                                                                                    
                                                                                                    
                                                                                                    
                                                                                                    
                                                                                                    
                                                                                                    
                                                                                                    
                           
<?xpacket end="w"?></metadata>
<defs>
    <style>
      .cls-1 {
        fill: #866746;
      }

      .cls-1, .cls-2, .cls-3, .cls-5, .cls-6, .cls-7 {
        fill-rule: evenodd;
      }

      .cls-2 {
        fill: #e2cbb2;
      }

      .cls-3 {
        fill: #fff;
      }

      .cls-4, .cls-6 {
        fill: #775a3b;
      }

      .cls-5 {
        fill: #93714d;
      }

      .cls-7 {
        fill: #ccc;
      }
    </style>
  </defs>
  <path id="wk-glass-cover" class="cls-1" d="M53,85.926L63.588,72.292h93.824L168,85.926H53ZM76.494,56.8h68.942l2.494,13.663H74Z"/>
  <path id="wk-glass" class="cls-2" d="M64.851,88.668h92.21L139.373,187H84.1Z"/>
  <g id="wk-coffee-brand">
    <path class="cls-3" d="M141.527,120.307c-3.6,20.61-52.609,28.2-61.142.2C82.414,97.372,133.844,92.921,141.527,120.307Z"/>
    <g id="wk-bean-b">
      <path id="wk-light" class="cls-1" d="M126.027,122c-1.219,8.561-18.126,11.716-21.016.081C105.7,112.471,123.425,110.623,126.027,122Z"/>
      <rect id="wk-dark" class="cls-4" x="105.031" y="120.531" width="21" height="2.719"/>
    </g>
    <g id="wk-bean-a">
      <path id="wk-light-2" data-name="wk-light" class="cls-5" d="M112.992,125.613c-4.562,5.782-20.129-.478-17.767-10.653C99.77,108.123,115.491,115.778,112.992,125.613Z"/>
      <path id="wk-dark-2" data-name="wk-dark" class="cls-6" d="M96.285,114.173L114.161,125.4l-1.29,2.429L94.995,116.6Z"/>
    </g>
  </g>
  <path id="wk-steam" class="cls-7" d="M117.665,54.02c4.791-25.472-26.385-35.362,0-50.02C100.766,16.966,128.092,33.035,117.665,54.02Zm-16.106,0c4.791-25.472-26.385-35.362,0-50.02C84.66,16.966,111.987,33.035,101.559,54.02Z"/>
</svg>
