<svg id="wk-color-swatches" xmlns="http://www.w3.org/2000/svg" width="202" height="202" viewBox="0 0 202 202">
  <metadata><?xpacket begin="﻿" id="W5M0MpCehiHzreSzNTczkc9d"?>
<x:xmpmeta xmlns:x="adobe:ns:meta/" x:xmptk="Adobe XMP Core 5.6-c140 79.160451, 2017/05/06-01:08:21        ">
   <rdf:RDF xmlns:rdf="http://www.w3.org/1999/02/22-rdf-syntax-ns#">
      <rdf:Description rdf:about=""/>
   </rdf:RDF>
</x:xmpmeta>
                                                                                                    
                                                                                                    
                                                                                                    
                                                                                                    
                                                                                                    
                                                                                                    
                                                                                                    
                                                                                                    
                                                                                                    
                                                                                                    
                                                                                                    
                                                                                                    
                                                                                                    
                                                                                                    
                                                                                                    
                                                                                                    
                                                                                                    
                                                                                                    
                                                                                                    
                                                                                                    
                           
<?xpacket end="w"?></metadata>
<defs>
    <style>
      .cls-1 {
        fill: #223240;
      }

      .cls-2 {
        fill: #ebeef0;
      }

      .cls-3 {
        fill: #4caf76;
      }

      .cls-4 {
        fill: #d1c66d;
      }

      .cls-5 {
        fill: #cd4949;
      }

      .cls-6 {
        fill: #293b4c;
      }

      .cls-10, .cls-11, .cls-12, .cls-13, .cls-6, .cls-7, .cls-8, .cls-9 {
        fill-rule: evenodd;
      }

      .cls-7 {
        fill: #52ba7e;
      }

      .cls-8 {
        fill: #dcd174;
      }

      .cls-9 {
        fill: #d74e4e;
      }

      .cls-10 {
        fill: #2f4356;
      }

      .cls-11 {
        fill: #58c385;
      }

      .cls-12 {
        fill: #e5da7b;
      }

      .cls-13 {
        fill: #df5252;
      }

      .cls-14 {
        fill: #34495e;
      }

      .cls-15 {
        fill: #5ecc8c;
      }

      .cls-16 {
        fill: #efe483;
      }

      .cls-17 {
        fill: #e85757;
      }
    </style>
  </defs>
  <g id="wk-swatch-d">
    <path id="wk-holder" class="cls-1" d="M46.688,135.375H74.5a0,0,0,0,1,0,0V175a0,0,0,0,1,0,0H46.688a19.813,19.813,0,0,1-19.812-19.812v0A19.813,19.813,0,0,1,46.688,135.375Z"/>
    <circle id="wk-hole" class="cls-2" cx="43.203" cy="155.188" r="4.859"/>
    <rect id="wk-green-swatch" class="cls-3" x="74.5" y="135.375" width="33.5" height="39.625"/>
    <rect id="wk-yellow-swatch" class="cls-4" x="108" y="135.375" width="33.5" height="39.625"/>
    <path id="wk-red-swatch" class="cls-5" d="M141.5,135.375H170a5,5,0,0,1,5,5V170a5,5,0,0,1-5,5H141.5a0,0,0,0,1,0,0V135.375A0,0,0,0,1,141.5,135.375Z"/>
  </g>
  <g id="wk-swatch-c">
    <path id="wk-holder-2" data-name="wk-holder" class="cls-6" d="M65.855,123.894l19.881,34.3L61.848,172.268a19.643,19.643,0,0,1-27-7.095,19.985,19.985,0,0,1,7.122-27.2Z"/>
    <circle id="wk-hole-2" data-name="wk-hole" class="cls-2" cx="48.875" cy="156.906" r="4.813"/>
    <path id="wk-green-swatch-2" data-name="wk-green-swatch" class="cls-7" d="M94.672,106.914l19.881,34.3-28.816,16.98-19.881-34.3Z"/>
    <path id="wk-yellow-swatch-2" data-name="wk-yellow-swatch" class="cls-8" d="M123.488,89.933l19.881,34.3-28.817,16.981-19.881-34.3Z"/>
    <path id="wk-red-swatch-2" data-name="wk-red-swatch" class="cls-9" d="M154.514,76.764l15.463,26.676a4.441,4.441,0,0,1-1.583,6.045l-25.025,14.746-19.881-34.3,25.025-14.746A4.365,4.365,0,0,1,154.514,76.764Z"/>
  </g>
  <g id="wk-swatch-b">
    <path id="wk-holder-3" data-name="wk-holder" class="cls-10" d="M47.2,121.547L82.649,139.7l-12.79,24.6A20.011,20.011,0,0,1,43,172.794a19.709,19.709,0,0,1-8.591-26.646Z"/>
    <circle id="wk-hole-3" data-name="wk-hole" class="cls-2" cx="50.5" cy="158.344" r="4.875"/>
    <path id="wk-green-swatch-3" data-name="wk-green-swatch" class="cls-11" d="M62.625,91.871l35.453,18.148L82.649,139.7,47.2,121.547Z"/>
    <path id="wk-yellow-swatch-3" data-name="wk-yellow-swatch" class="cls-12" d="M78.055,62.194l35.452,18.148L98.078,110.019,62.625,91.871Z"/>
    <path id="wk-red-swatch-3" data-name="wk-red-swatch" class="cls-13" d="M97.423,34.533L125,48.648a4.38,4.38,0,0,1,1.909,5.921l-13.4,25.772L78.055,62.194l13.4-25.772A4.447,4.447,0,0,1,97.423,34.533Z"/>
  </g>
  <g id="wk-swatch-a">
    <path id="wk-holder-4" data-name="wk-holder" class="cls-14" d="M26,127.906H65.5a0,0,0,0,1,0,0v27.351A19.743,19.743,0,0,1,45.758,175H45.743A19.743,19.743,0,0,1,26,155.258V127.906A0,0,0,0,1,26,127.906Z"/>
    <ellipse id="wk-hole-4" data-name="wk-hole" class="cls-2" cx="45.844" cy="158.719" rx="4.844" ry="4.844"/>
    <rect id="wk-green-swatch-4" data-name="wk-green-swatch" class="cls-15" x="26" y="94.281" width="39.5" height="33.625"/>
    <rect id="wk-yellow-swatch-4" data-name="wk-yellow-swatch" class="cls-16" x="26" y="60.625" width="39.5" height="33.656"/>
    <path id="wk-red-swatch-4" data-name="wk-red-swatch" class="cls-17" d="M31,27H60.5a5,5,0,0,1,5,5V60.625a0,0,0,0,1,0,0H26a0,0,0,0,1,0,0V32A5,5,0,0,1,31,27Z"/>
  </g>
</svg>
