<svg id="wk-car" xmlns="http://www.w3.org/2000/svg" width="202" height="202" viewBox="0 0 202 202">
  <metadata><?xpacket begin="﻿" id="W5M0MpCehiHzreSzNTczkc9d"?>
<x:xmpmeta xmlns:x="adobe:ns:meta/" x:xmptk="Adobe XMP Core 5.6-c140 79.160451, 2017/05/06-01:08:21        ">
   <rdf:RDF xmlns:rdf="http://www.w3.org/1999/02/22-rdf-syntax-ns#">
      <rdf:Description rdf:about=""/>
   </rdf:RDF>
</x:xmpmeta>
                                                                                                    
                                                                                                    
                                                                                                    
                                                                                                    
                                                                                                    
                                                                                                    
                                                                                                    
                                                                                                    
                                                                                                    
                                                                                                    
                                                                                                    
                                                                                                    
                                                                                                    
                                                                                                    
                                                                                                    
                                                                                                    
                                                                                                    
                                                                                                    
                                                                                                    
                                                                                                    
                           
<?xpacket end="w"?></metadata>
<defs>
    <style>
      .cls-1 {
        fill: #e85757;
      }

      .cls-2 {
        fill: #d9d9d9;
      }

      .cls-3 {
        fill: #642a2a;
      }

      .cls-4 {
        fill: #ffe9e9;
        opacity: 0.2;
      }

      .cls-5 {
        fill: #f46464;
      }

      .cls-5, .cls-6, .cls-7, .cls-8 {
        fill-rule: evenodd;
      }

      .cls-6 {
        fill: #ff7a7a;
      }

      .cls-7 {
        fill: #c6f0ff;
      }

      .cls-8 {
        fill: #e6f8ff;
      }

      .cls-9 {
        fill: #fff;
      }

      .cls-10 {
        fill: #f7efc5;
      }
    </style>
  </defs>
  <rect id="wk-body" class="cls-1" x="20" y="96.938" width="162" height="45.969"/>
  <g id="wk-engine">
    <rect class="cls-2" x="64.094" y="108.656" width="73.812" height="22.532"/>
    <rect class="cls-3" x="64.094" y="112.25" width="73.812" height="1.812"/>
    <rect id="Rectangle_16_copy" data-name="Rectangle 16 copy" class="cls-3" x="64.094" y="116.75" width="73.812" height="1.812"/>
    <rect id="Rectangle_16_copy_2" data-name="Rectangle 16 copy 2" class="cls-3" x="64.094" y="121.281" width="73.812" height="1.781"/>
    <rect id="Rectangle_16_copy_2-2" data-name="Rectangle 16 copy 2" class="cls-3" x="64.094" y="125.781" width="73.812" height="1.781"/>
  </g>
  <rect id="wk-shine" class="cls-4" x="97.406" y="96.938" width="26.094" height="45.969"/>
  <g id="wk-roof">
    <path id="Roof" class="cls-5" d="M29.9,87.038L47.2,42h106.8L172.1,87.038l9.9,9.908H20Z"/>
    <path id="Shine" class="cls-6" d="M87.521,42h21.193l5.895,26.37,3.618,4.109L123.7,96.946H97.484L94.353,73.255l-3.284-4.419Z"/>
  </g>
  <g id="wk-front-glass">
    <path id="wk-front-glass-2" data-name="wk-front-glass" class="cls-7" d="M51.5,46.5h99l14.4,38.733H37.1Z"/>
    <path id="wk-shine-2" data-name="wk-shine" class="cls-8" d="M88.861,46.5h22.97l7.378,38.733H94.151Z"/>
  </g>
  <g id="wk-wheels">
    <path id="L" d="M34.406,142.906H51.5a0,0,0,0,1,0,0v8.547A8.547,8.547,0,0,1,42.953,160h0a8.547,8.547,0,0,1-8.547-8.547v-8.547A0,0,0,0,1,34.406,142.906Z"/>
    <path id="R" d="M151.406,142.906H168.5a0,0,0,0,1,0,0v8.547A8.547,8.547,0,0,1,159.953,160h0a8.547,8.547,0,0,1-8.547-8.547v-8.547a0,0,0,0,1,0,0Z"/>
  </g>
  <g id="wk-headlights">
    <g id="L-2" data-name="L">
      <rect class="cls-9" x="37.094" y="117.656" width="20.719" height="15.313"/>
      <rect id="Rectangle_14_copy" data-name="Rectangle 14 copy" class="cls-10" x="29" y="117.656" width="8.094" height="15.313"/>
    </g>
    <g id="R-2" data-name="R">
      <rect class="cls-9" x="144.188" y="117.656" width="20.718" height="15.313"/>
      <rect id="Rectangle_14_copy-2" data-name="Rectangle 14 copy" class="cls-10" x="164.906" y="117.656" width="8.094" height="15.313"/>
    </g>
  </g>
</svg>
