<svg xmlns="http://www.w3.org/2000/svg" width="202" height="202"><path d="M71.431 165.887a11.665 11.665 0 1 1-17.931 5.888 11.673 11.673 0 1 1-3.69-18.121l12.745-21.948L84.1 144.074z" fill-rule="evenodd" fill="#fef1d3"/><path d="M161.311 99.825a56.807 56.807 0 0 1-61.26 27.289l-9.968 17.231a6.276 6.276 0 0 1-8.564 2.29l-19.546-11.262a6.25 6.25 0 0 1-2.295-8.547l10.233-17.689A56.82 56.82 0 0 1 63.925 43.6c15.7-27.193 50.226-36.649 77.118-21.122s35.967 50.154 20.268 77.347z" fill="#af8526" fill-rule="evenodd"/></svg>