<svg id="wk-coffee-glass" xmlns="http://www.w3.org/2000/svg" width="222" height="222"><defs><style>.cls-1{fill:#866746;fill-rule:evenodd}</style></defs><path id="wk-glass-cover" class="cls-1" d="M53 85.926l10.588-13.634h93.824L168 85.926H53zM76.494 56.8h68.942l2.494 13.663H74z"/><path id="wk-glass" d="M64.851 88.668h92.21L139.373 187H84.1z" fill="#e2cbb2" fill-rule="evenodd"/><g id="wk-coffee-brand"><path d="M141.527 120.307c-3.6 20.61-52.609 28.2-61.142.2 2.029-23.135 53.459-27.586 61.142-.2z" fill="#fff" fill-rule="evenodd"/><g id="wk-bean-b"><path id="wk-light" class="cls-1" d="M126.027 122c-1.219 8.561-18.126 11.716-21.016.081.689-9.61 18.414-11.458 21.016-.081z"/><path id="wk-dark" fill="#775a3b" d="M105.031 120.531h21v2.719h-21z"/></g><g id="wk-bean-a" fill-rule="evenodd"><path id="wk-light-2" data-name="wk-light" d="M112.992 125.613c-4.562 5.782-20.129-.478-17.767-10.653 4.545-6.837 20.266.818 17.767 10.653z" fill="#93714d"/><path id="wk-dark-2" data-name="wk-dark" d="M96.285 114.173l17.876 11.227-1.29 2.429L94.995 116.6z" fill="#775a3b"/></g></g><path id="wk-steam" d="M117.665 54.02c4.791-25.472-26.385-35.362 0-50.02-16.899 12.966 10.427 29.035 0 50.02zm-16.106 0c4.791-25.472-26.385-35.362 0-50.02-16.899 12.966 10.428 29.035 0 50.02z" fill="#ccc" fill-rule="evenodd"/></svg>