<svg xmlns="http://www.w3.org/2000/svg" width="202" height="202"><g fill-rule="evenodd"><path d="M119.1 79.625h5.432s17.733 72.54-1.165 105.375c-3.925-.057-5.885 0-13.322 0 19.974-33.033 9.055-105.375 9.055-105.375z" fill="#6a4e2a"/><path d="M174.01 73.587l-44.438 6.643c20.078 1.354 29.361 26.7 29.361 26.7l-36.9-25.41-.466.016-26.338 36.234s-.088-28.67 21.841-36.084l-47.121 1.567s18.858-18.808 38.644-12.912l-29.48-21.015s32.24-6.3 42.754 17.008c5.358-25.8 37.9-20.263 37.9-20.263l-25.694 23.051c18.036-8.901 39.937 4.465 39.937 4.465z" fill="#479356"/></g><g fill-rule="evenodd"><path data-name="wk-wood" d="M87.441 58.042h6.57S115.457 145.44 92.6 185c-4.746-.068-7.118 0-16.111 0 24.155-39.8 10.952-126.958 10.952-126.958z" fill="#926d3c"/><path data-name="wk-leaves" d="M153.847 50.768l-53.657 7.991c24.229 1.691 35.423 32.182 35.423 32.182L90.984 60.327l-.563.019L58.568 104s-.117-34.522 26.369-43.472l-56.943 1.885S50.8 39.753 74.732 46.856L39.077 21.538s38.991-7.594 51.708 20.492c6.48-31.085 45.834-24.412 45.834-24.412l-31.072 27.77c21.813-10.724 48.3 5.38 48.3 5.38z" fill="#67be5e"/></g></svg>