<svg id="wk-dropper" xmlns="http://www.w3.org/2000/svg" width="202" height="202" viewBox="0 0 202 202">
  <metadata><?xpacket begin="﻿" id="W5M0MpCehiHzreSzNTczkc9d"?>
<x:xmpmeta xmlns:x="adobe:ns:meta/" x:xmptk="Adobe XMP Core 5.6-c140 79.160451, 2017/05/06-01:08:21        ">
   <rdf:RDF xmlns:rdf="http://www.w3.org/1999/02/22-rdf-syntax-ns#">
      <rdf:Description rdf:about=""/>
   </rdf:RDF>
</x:xmpmeta>
                                                                                                    
                                                                                                    
                                                                                                    
                                                                                                    
                                                                                                    
                                                                                                    
                                                                                                    
                                                                                                    
                                                                                                    
                                                                                                    
                                                                                                    
                                                                                                    
                                                                                                    
                                                                                                    
                                                                                                    
                                                                                                    
                                                                                                    
                                                                                                    
                                                                                                    
                                                                                                    
                           
<?xpacket end="w"?></metadata>
<defs>
    <style>
      .cls-1 {
        fill: #c3e3f8;
      }

      .cls-1, .cls-2, .cls-4, .cls-5 {
        fill-rule: evenodd;
      }

      .cls-2 {
        fill: #3598db;
      }

      .cls-3 {
        fill: #4baef1;
      }

      .cls-4 {
        fill: #f57a7a;
      }

      .cls-5 {
        fill: #accde3;
      }
    </style>
  </defs>
  <path id="wk-body" class="cls-1" d="M73.415,148.491l-10.327,17.95a6.475,6.475,0,1,1-11.206-6.493s9.886-17.251,10.322-18.01c2.181-3.789-5.227-9.025-5.227-9.025l56.285-97.834,26.893,15.582L83.872,148.494S75.845,144.268,73.415,148.491Z"/>
  <path id="wk-liquid" class="cls-2" d="M72.468,144.944L62.142,162.893c-1.787,3.1-3.5,5.467-6.6,3.675S53.632,162.1,55.418,159c0,0,9.886-17.251,10.322-18.009,2.18-3.79-5.227-9.026-5.227-9.026L91.567,77.985c9.114-11.456,18.29,4.8,33.409-6.132-0.667,1.16-42.052,73.094-42.052,73.094S74.9,140.72,72.468,144.944Z"/>
  <ellipse id="wk-bubble-b" class="cls-3" cx="84.469" cy="122.766" rx="4.75" ry="4.734"/>
  <ellipse id="wk-bubble-a" class="cls-3" cx="92.547" cy="90.078" rx="3.328" ry="3.297"/>
  <path id="wk-squeezer" class="cls-4" d="M144.824,11.384a10.407,10.407,0,0,1,3.789,14.19l-12.939,22.49L117.745,37.676l12.939-22.49A10.331,10.331,0,0,1,144.824,11.384Z"/>
  <path id="wk-ring" class="cls-5" d="M107.66,31.833l38.1,22.074-3.235,5.623-38.1-22.074Z"/>
  <path id="wk-drop" class="cls-2" d="M57.44,172.1l6.171,12.349c0,4.168-2.763,7.547-6.171,7.547s-6.171-3.379-6.171-7.547Z"/>
</svg>
