<svg id="wk-dropper" xmlns="http://www.w3.org/2000/svg" width="202" height="202"><defs><style>.cls-2{fill-rule:evenodd;fill:#3598db}.cls-3{fill:#4baef1}</style></defs><path id="wk-body" d="M73.415 148.491l-10.327 17.95a6.475 6.475 0 1 1-11.206-6.493l10.322-18.01c2.181-3.789-5.227-9.025-5.227-9.025l56.285-97.834 26.893 15.582-56.283 97.833s-8.027-4.226-10.457-.003z" fill-rule="evenodd" fill="#c3e3f8"/><path id="wk-liquid" class="cls-2" d="M72.468 144.944l-10.326 17.949c-1.787 3.1-3.5 5.467-6.6 3.675s-1.91-4.468-.124-7.568c0 0 9.886-17.251 10.322-18.009 2.18-3.79-5.227-9.026-5.227-9.026l31.054-53.98c9.114-11.456 18.29 4.8 33.409-6.132l-42.052 73.094s-8.024-4.227-10.456-.003z"/><ellipse id="wk-bubble-b" class="cls-3" cx="84.469" cy="122.766" rx="4.75" ry="4.734"/><ellipse id="wk-bubble-a" class="cls-3" cx="92.547" cy="90.078" rx="3.328" ry="3.297"/><path id="wk-squeezer" d="M144.824 11.384a10.407 10.407 0 0 1 3.789 14.19l-12.939 22.49-17.929-10.388 12.939-22.49a10.331 10.331 0 0 1 14.14-3.802z" fill="#f57a7a" fill-rule="evenodd"/><path id="wk-ring" d="M107.66 31.833l38.1 22.074-3.235 5.623-38.1-22.074z" fill="#accde3" fill-rule="evenodd"/><path id="wk-drop" class="cls-2" d="M57.44 172.1l6.171 12.349c0 4.168-2.763 7.547-6.171 7.547s-6.171-3.379-6.171-7.547z"/></svg>