<svg xmlns="http://www.w3.org/2000/svg" width="202" height="202"><path d="M39.334 50.429h122.542L139.993 180H61.216z" fill-rule="evenodd" fill="#ccc"/><path d="M130.273 161.831l-8.725-1.367 16.583-92.656 8.726 1.367zM96.259 67.812h8.694v94.015h-8.694V67.812zm-40.34 1.363l8.725-1.367 16.584 92.656-8.728 1.367z" fill="#999" fill-rule="evenodd"/><path d="M166.806 48.062H35.194A2.174 2.174 0 0 1 33 45.908v-7.539a2.174 2.174 0 0 1 2.194-2.154h131.612A2.174 2.174 0 0 1 169 38.369v7.539a2.174 2.174 0 0 1-2.194 2.154zM118.57 33.846H83.43a2.175 2.175 0 0 1-2.2-2.154v-7.538A2.176 2.176 0 0 1 83.43 22h35.14a2.176 2.176 0 0 1 2.2 2.154v7.539a2.176 2.176 0 0 1-2.2 2.153z" fill="#e85757" fill-rule="evenodd"/></svg>