<svg id="wk-dustbin" xmlns="http://www.w3.org/2000/svg" width="202" height="202" viewBox="0 0 202 202">
  <metadata><?xpacket begin="﻿" id="W5M0MpCehiHzreSzNTczkc9d"?>
<x:xmpmeta xmlns:x="adobe:ns:meta/" x:xmptk="Adobe XMP Core 5.6-c140 79.160451, 2017/05/06-01:08:21        ">
   <rdf:RDF xmlns:rdf="http://www.w3.org/1999/02/22-rdf-syntax-ns#">
      <rdf:Description rdf:about=""/>
   </rdf:RDF>
</x:xmpmeta>
                                                                                                    
                                                                                                    
                                                                                                    
                                                                                                    
                                                                                                    
                                                                                                    
                                                                                                    
                                                                                                    
                                                                                                    
                                                                                                    
                                                                                                    
                                                                                                    
                                                                                                    
                                                                                                    
                                                                                                    
                                                                                                    
                                                                                                    
                                                                                                    
                                                                                                    
                                                                                                    
                           
<?xpacket end="w"?></metadata>
<defs>
    <style>
      .cls-1 {
        fill: #ccc;
      }

      .cls-1, .cls-2, .cls-3 {
        fill-rule: evenodd;
      }

      .cls-2 {
        fill: #999;
      }

      .cls-3 {
        fill: #e85757;
      }
    </style>
  </defs>
  <path id="wk-bin" class="cls-1" d="M39.334,50.429H161.876L139.993,180H61.216Z"/>
  <path id="wk-lines" class="cls-2" d="M130.273,161.831l-8.725-1.367,16.583-92.656,8.726,1.367ZM96.259,67.812h8.694v94.015H96.259V67.812Zm-40.34,1.363,8.725-1.367,16.584,92.656L72.5,161.831Z"/>
  <path id="wk-cover" class="cls-3" d="M166.806,48.062H35.194A2.174,2.174,0,0,1,33,45.908V38.369a2.174,2.174,0,0,1,2.194-2.154H166.806A2.174,2.174,0,0,1,169,38.369v7.539A2.174,2.174,0,0,1,166.806,48.062ZM118.57,33.846H83.43a2.175,2.175,0,0,1-2.2-2.154V24.154A2.176,2.176,0,0,1,83.43,22h35.14a2.176,2.176,0,0,1,2.2,2.154v7.539A2.176,2.176,0,0,1,118.57,33.846Z"/>
</svg>
