<svg id="wk-donut" xmlns="http://www.w3.org/2000/svg" width="220" height="220"><defs><style>.cls-1,.cls-2{fill:#ff9696;fill-rule:evenodd}.cls-2{fill:#5d441d}</style></defs><path id="wk-strawberry-syrup" class="cls-1" d="M110 25a85 85 0 1 0 85 85 85 85 0 0 0-85-85zm0 120.7a35.7 35.7 0 1 1 35.7-35.7 35.7 35.7 0 0 1-35.7 35.7z"/><path id="wk-chocolate-syrup" class="cls-2" d="M110 25a85 85 0 0 0-85 85c32.312 47.3 23.253-21.83 49.3 0a35.7 35.7 0 1 1 71.4 0c23.469-22.875 39.672 19.484 49.3 0a85 85 0 0 0-85-85z"/><path id="wk-strawberry-round-chip" d="M179.275 132.1a2.975 2.975 0 1 1 2.975-2.975 2.975 2.975 0 0 1-2.975 2.975zm-20.825 30.6a4.25 4.25 0 1 1 4.25-4.25 4.25 4.25 0 0 1-4.25 4.25zm-1.275-34a2.975 2.975 0 1 1 2.975-2.975 2.975 2.975 0 0 1-2.975 2.975zm-39.95 29.75a2.125 2.125 0 1 1 2.125-2.125 2.124 2.124 0 0 1-2.125 2.125zM89.6 178a4.25 4.25 0 1 1 4.25-4.25A4.25 4.25 0 0 1 89.6 178zm-26.775-46.75a3.825 3.825 0 1 1 3.825-3.825 3.825 3.825 0 0 1-3.825 3.825zm-11.9 26.35a2.975 2.975 0 1 1 2.975-2.975 2.975 2.975 0 0 1-2.975 2.975z" fill="#ffc0c0" fill-rule="evenodd"/><path id="wk-chocolate-round-chip" d="M179.7 90.45a2.55 2.55 0 1 1 2.55-2.55 2.55 2.55 0 0 1-2.55 2.55zM146.55 70.9a4.25 4.25 0 1 1 4.25-4.25 4.25 4.25 0 0 1-4.25 4.25zm-19.975-10.2a2.125 2.125 0 1 1 2.125-2.125 2.125 2.125 0 0 1-2.125 2.125zM112.55 36.05a2.55 2.55 0 1 1 2.55-2.55 2.55 2.55 0 0 1-2.55 2.55zM89.6 68.35a3.4 3.4 0 1 1 3.4-3.4 3.4 3.4 0 0 1-3.4 3.4zM61.125 53.9a2.975 2.975 0 1 1 2.975-2.975 2.975 2.975 0 0 1-2.975 2.975zM47.1 104.05a3.4 3.4 0 1 1 3.4-3.4 3.4 3.4 0 0 1-3.4 3.4z" fill="#715426" fill-rule="evenodd"/><g id="wk-sparkle"><path id="wk-a" fill="#ff7373" d="M94.688 36.063h5.125v5.938h-5.125z"/><path id="wk-b" fill="#ffe2bf" d="M125.312 42h5.094v5.094h-5.094z"/><path id="wk-c" fill="#e7dc9f" d="M153.344 79.406h3.406v8.5h-3.406z"/><path id="wk-d" fill="#91e39b" d="M51.344 77.688h2.562v5.125h-2.562z"/><path id="wk-e" fill="#8be4cc" d="M58.156 121.906h4.25v9.344h-4.25z"/><path id="wk-f" fill="#85cdee" d="M35.188 126.156h1.719v4.25h-1.719z"/><path id="wk-g" fill="#aaa4ff" d="M68.344 161.844h9.344v5.094h-9.344z"/><path id="wk-h" fill="#df67d8" d="M142.312 156.75H152.5v5.938h-10.188z"/><path id="wk-i" fill="#ff5277" d="M151.656 115.094h7.656v4.25h-7.656z"/><path id="wk-j" fill="#ff4e4e" d="M177.156 138.062h5.094v8.5h-5.094z"/><path id="wk-k" fill="#4f9584" d="M105.75 183.094h5.094v4.25h-5.094z"/><path id="wk-l" fill="#2a7b34" d="M72.594 76.844h5.094v3.406h-5.094z"/><path id="wk-m" fill="#7a2c75" d="M136.344 81.938h2.562v10.219h-2.562z"/></g><path id="wk-strawberry-chip" class="cls-1" d="M160.15 57.3c.2-1.278 3.619-2.953 3.4 0-.216 2.919-1.263 3.75 0 7.65-.42 1.721-1.828 3.044-3.4 0-1.95-3.772-.227-6.194 0-7.65zm-81.6-11.05c.2-1.277 3.619-2.953 3.4 0-.216 2.919-1.263 3.75 0 7.65-.42 1.72-1.828 3.044-3.4 0-1.95-3.772-.227-6.194 0-7.65zM62.233 84.827c1.063-.736 4.634.587 2.343 2.464-2.264 1.855-3.588 1.669-5.543 5.272-1.536.882-3.465.773-2.343-2.464 1.39-4.011 4.331-4.433 5.543-5.272z"/><path id="wk-chocolate-chip" class="cls-2" d="M57.983 141.777c1.063-.736 4.634.587 2.343 2.464-2.264 1.855-3.588 1.668-5.544 5.272-1.536.881-3.465.772-2.343-2.464 1.391-4.011 4.332-4.433 5.544-5.272zm58.67 37.841c.7 1.085-.732 4.613-2.536 2.264-1.783-2.321-1.556-3.638-5.1-5.705-.833-1.563-.664-3.488 2.536-2.265 3.97 1.515 4.299 4.468 5.1 5.706zm36.911-32.472c-1.109.665-4.586-.889-2.177-2.612 2.381-1.7 3.69-1.43 5.876-4.9 1.591-.779 3.509-.545 2.177 2.612-1.65 3.913-4.612 4.142-5.876 4.9z"/></svg>