<svg id="wk-donut" xmlns="http://www.w3.org/2000/svg" width="220" height="220" viewBox="0 0 220 220">
  <metadata><?xpacket begin="﻿" id="W5M0MpCehiHzreSzNTczkc9d"?>
<x:xmpmeta xmlns:x="adobe:ns:meta/" x:xmptk="Adobe XMP Core 5.6-c140 79.160451, 2017/05/06-01:08:21        ">
   <rdf:RDF xmlns:rdf="http://www.w3.org/1999/02/22-rdf-syntax-ns#">
      <rdf:Description rdf:about=""/>
   </rdf:RDF>
</x:xmpmeta>
                                                                                                    
                                                                                                    
                                                                                                    
                                                                                                    
                                                                                                    
                                                                                                    
                                                                                                    
                                                                                                    
                                                                                                    
                                                                                                    
                                                                                                    
                                                                                                    
                                                                                                    
                                                                                                    
                                                                                                    
                                                                                                    
                                                                                                    
                                                                                                    
                                                                                                    
                                                                                                    
                           
<?xpacket end="w"?></metadata>
<defs>
    <style>
      .cls-1 {
        fill: #ff9696;
      }

      .cls-1, .cls-2, .cls-3, .cls-4 {
        fill-rule: evenodd;
      }

      .cls-2 {
        fill: #5d441d;
      }

      .cls-3 {
        fill: #ffc0c0;
      }

      .cls-4 {
        fill: #715426;
      }

      .cls-5 {
        fill: #ff7373;
      }

      .cls-6 {
        fill: #ffe2bf;
      }

      .cls-7 {
        fill: #e7dc9f;
      }

      .cls-8 {
        fill: #91e39b;
      }

      .cls-9 {
        fill: #8be4cc;
      }

      .cls-10 {
        fill: #85cdee;
      }

      .cls-11 {
        fill: #aaa4ff;
      }

      .cls-12 {
        fill: #df67d8;
      }

      .cls-13 {
        fill: #ff5277;
      }

      .cls-14 {
        fill: #ff4e4e;
      }

      .cls-15 {
        fill: #4f9584;
      }

      .cls-16 {
        fill: #2a7b34;
      }

      .cls-17 {
        fill: #7a2c75;
      }
    </style>
  </defs>
  <path id="wk-strawberry-syrup" class="cls-1" d="M110,25a85,85,0,1,0,85,85A85,85,0,0,0,110,25Zm0,120.7A35.7,35.7,0,1,1,145.7,110,35.7,35.7,0,0,1,110,145.7Z"/>
  <path id="wk-chocolate-syrup" class="cls-2" d="M110,25a85,85,0,0,0-85,85c32.312,47.3,23.253-21.83,49.3,0a35.7,35.7,0,1,1,71.4,0c23.469-22.875,39.672,19.484,49.3,0A85,85,0,0,0,110,25Z"/>
  <path id="wk-strawberry-round-chip" class="cls-3" d="M179.275,132.1a2.975,2.975,0,1,1,2.975-2.975A2.975,2.975,0,0,1,179.275,132.1ZM158.45,162.7a4.25,4.25,0,1,1,4.25-4.25A4.25,4.25,0,0,1,158.45,162.7Zm-1.275-34a2.975,2.975,0,1,1,2.975-2.975A2.975,2.975,0,0,1,157.175,128.7Zm-39.95,29.75a2.125,2.125,0,1,1,2.125-2.125A2.124,2.124,0,0,1,117.225,158.45ZM89.6,178a4.25,4.25,0,1,1,4.25-4.25A4.25,4.25,0,0,1,89.6,178ZM62.825,131.25a3.825,3.825,0,1,1,3.825-3.825A3.825,3.825,0,0,1,62.825,131.25Zm-11.9,26.35a2.975,2.975,0,1,1,2.975-2.975A2.975,2.975,0,0,1,50.925,157.6Z"/>
  <path id="wk-chocolate-round-chip" class="cls-4" d="M179.7,90.45a2.55,2.55,0,1,1,2.55-2.55A2.55,2.55,0,0,1,179.7,90.45ZM146.55,70.9a4.25,4.25,0,1,1,4.25-4.25A4.25,4.25,0,0,1,146.55,70.9ZM126.575,60.7a2.125,2.125,0,1,1,2.125-2.125A2.125,2.125,0,0,1,126.575,60.7ZM112.55,36.05a2.55,2.55,0,1,1,2.55-2.55A2.55,2.55,0,0,1,112.55,36.05ZM89.6,68.35a3.4,3.4,0,1,1,3.4-3.4A3.4,3.4,0,0,1,89.6,68.35ZM61.125,53.9A2.975,2.975,0,1,1,64.1,50.925,2.975,2.975,0,0,1,61.125,53.9ZM47.1,104.05a3.4,3.4,0,1,1,3.4-3.4A3.4,3.4,0,0,1,47.1,104.05Z"/>
  <g id="wk-sparkle">
    <rect id="wk-a" class="cls-5" x="94.688" y="36.063" width="5.125" height="5.938"/>
    <rect id="wk-b" class="cls-6" x="125.312" y="42" width="5.094" height="5.094"/>
    <rect id="wk-c" class="cls-7" x="153.344" y="79.406" width="3.406" height="8.5"/>
    <rect id="wk-d" class="cls-8" x="51.344" y="77.688" width="2.562" height="5.125"/>
    <rect id="wk-e" class="cls-9" x="58.156" y="121.906" width="4.25" height="9.344"/>
    <rect id="wk-f" class="cls-10" x="35.188" y="126.156" width="1.719" height="4.25"/>
    <rect id="wk-g" class="cls-11" x="68.344" y="161.844" width="9.344" height="5.094"/>
    <rect id="wk-h" class="cls-12" x="142.312" y="156.75" width="10.188" height="5.938"/>
    <rect id="wk-i" class="cls-13" x="151.656" y="115.094" width="7.656" height="4.25"/>
    <rect id="wk-j" class="cls-14" x="177.156" y="138.062" width="5.094" height="8.5"/>
    <rect id="wk-k" class="cls-15" x="105.75" y="183.094" width="5.094" height="4.25"/>
    <rect id="wk-l" class="cls-16" x="72.594" y="76.844" width="5.094" height="3.406"/>
    <rect id="wk-m" class="cls-17" x="136.344" y="81.938" width="2.562" height="10.219"/>
  </g>
  <path id="wk-strawberry-chip" class="cls-1" d="M160.15,57.3c0.2-1.278,3.619-2.953,3.4,0-0.216,2.919-1.263,3.75,0,7.65-0.42,1.721-1.828,3.044-3.4,0C158.2,61.178,159.923,58.756,160.15,57.3ZM78.55,46.25c0.2-1.277,3.619-2.953,3.4,0-0.216,2.919-1.263,3.75,0,7.65-0.42,1.72-1.828,3.044-3.4,0C76.6,50.128,78.323,47.706,78.55,46.25ZM62.233,84.827c1.063-.736,4.634.587,2.343,2.464-2.264,1.855-3.588,1.669-5.543,5.272-1.536.882-3.465,0.773-2.343-2.464C58.08,86.088,61.021,85.666,62.233,84.827Z"/>
  <path id="wk-chocolate-chip" class="cls-2" d="M57.983,141.777c1.063-.736,4.634.587,2.343,2.464-2.264,1.855-3.588,1.668-5.544,5.272-1.536.881-3.465,0.772-2.343-2.464C53.83,143.038,56.771,142.616,57.983,141.777Zm58.67,37.841c0.7,1.085-.732,4.613-2.536,2.264-1.783-2.321-1.556-3.638-5.1-5.705-0.833-1.563-.664-3.488,2.536-2.265C115.523,175.427,115.852,178.38,116.653,179.618Zm36.911-32.472c-1.109.665-4.586-.889-2.177-2.612,2.381-1.7,3.69-1.43,5.876-4.9,1.591-.779,3.509-0.545,2.177,2.612C157.79,146.159,154.828,146.388,153.564,147.146Z"/>
</svg>
