<svg xmlns="http://www.w3.org/2000/svg" width="202" height="202"><circle cx="100.5" cy="101.5" r="76.5" fill="#34495e"/><path d="M164.316 86.208c-9.5-15.685-33.572-21.963-46-2.606s8.278 29.887 12.959 32.57 2.625 21.012 2.592 22.8c-.095 5.068 7.5 6.42 12.311.652 2.193-2.631 9.782-9.76 15.551-31.268 1.049-3.926 4.211-19.468 2.587-22.148zm-68.339 16.937s-1.38-7.965-5.184-9.12-9.071 2.605-9.071 2.605l-3.24 10.422s-1.884 4.921.648 6.514 1.82 2.516 5.183 4.56 6.224 8.807 4.536 13.029-2.808 10.856-2.592 12.376 5.974 5.339 8.423 3.257 1.438-6.056 1.944-9.771 2.458-7.575 3.887-13.68.1-16.457-1.3-17.588a21.569 21.569 0 0 1-3.234-2.604zM69.106 95.98c2.308-2.936 22.173-15.321 23.326-18.891s-5.1-10.975-7.127-11.074-10.305.71-12.96.651-16.634-1.935-19.438-.651S41.574 67.8 40.6 70.575a37.954 37.954 0 0 0-1.3 7.817s3.518 4.237 5.184 5.211 3.425 3.069 1.944 6.514a43.543 43.543 0 0 0-2.592 11.725c-.093 2.26-.423.971 0 3.257s2.368 7.926 3.888 9.771 2.912 2.45 4.536 5.863-1.411 3.568 3.888 6.514 10.493 8.976 14.255 0 5.467-6.129 3.24-14.983S66.8 98.915 69.106 95.98z" fill="#48af9c" fill-rule="evenodd"/></svg>