<svg id="wk-eggs" xmlns="http://www.w3.org/2000/svg" width="202" height="202"><defs><style>.cls-1{fill:#e1e9e9;fill-rule:evenodd}</style></defs><path id="wk-right-egg" class="cls-1" d="M146.89 140.392c76.994.42 30.5-101.245.22-99.4-31.218 1.744-66.034 99.041-.22 99.4z"/><path id="wk-crack" d="M157.268 43.444l2.514 1.492-10.56 17.9 10.56 15.91-20.618 16.9 4.023 22.87-18.606 16.406-2.011-1.989 17.6-15.412-3.792-22.939 19.884-16.337-10.282-15.393z" fill="#abb6b6" fill-rule="evenodd"/><path id="wk-left-egg" class="cls-1" d="M50.286 140.392c76.994.42 30.5-101.245.22-99.4-31.217 1.744-66.034 99.041-.22 99.4z"/><path id="wk-egg-containers" d="M170.315 161h-41.181l-21.674-30.987h84.529zm-137.63 0l-21.674-30.987H95.54L73.866 161H32.685z" fill="#f0ac1b" fill-rule="evenodd"/><path id="wk-egg-tray" fill="#ffbd25" d="M1 107h200v24H1z"/></svg>