<svg id="wk-envelope" xmlns="http://www.w3.org/2000/svg" width="202" height="202"><defs><style>.cls-4{fill:#34495e}</style></defs><rect id="wk-envelope-outside" x="24.031" y="86.531" width="153.969" height="92.469" rx="5" ry="5" fill="#5baadc"/><path id="wk-envelope-inside" d="M105.22 25.474l71.018 59.914a4.507 4.507 0 0 1 0 7.133l-71.018 55.327a6.786 6.786 0 0 1-8.454 0L25.748 92.52a4.507 4.507 0 0 1 0-7.133l71.018-59.913a6.787 6.787 0 0 1 8.454 0z" fill-rule="evenodd" fill="#4a92c0"/><path id="wk-paper" d="M48.987 37.766H153.8c2.73 0 4.944 1.881 4.944 4.2l.008 64.583s-51.665 40.035-53.124 41.275c-4.306 3.5-8.469 0-8.469 0l-53.124-40.511.008-65.347c0-2.319 2.213-4.2 4.944-4.2z" fill="#eee" fill-rule="evenodd"/><g id="wk-content"><path id="wk-content-a" class="cls-4" d="M59.438 56.5h83.688v4.781H59.438z"/><path id="wk-content-b" class="cls-4" d="M59.438 66.094h83.688v4.781H59.438z"/><path id="wk-content-c" class="cls-4" d="M59.438 75.125h83.688v4.813H59.438z"/><path id="wk-content-d" class="cls-4" d="M59.438 84.188h25.219v4.781H59.438z"/></g></svg>