<svg id="wk-guitar" xmlns="http://www.w3.org/2000/svg" width="202" height="202" viewBox="0 0 202 202">
  <metadata><?xpacket begin="﻿" id="W5M0MpCehiHzreSzNTczkc9d"?>
<x:xmpmeta xmlns:x="adobe:ns:meta/" x:xmptk="Adobe XMP Core 5.6-c140 79.160451, 2017/05/06-01:08:21        ">
   <rdf:RDF xmlns:rdf="http://www.w3.org/1999/02/22-rdf-syntax-ns#">
      <rdf:Description rdf:about=""/>
   </rdf:RDF>
</x:xmpmeta>
                                                                                                    
                                                                                                    
                                                                                                    
                                                                                                    
                                                                                                    
                                                                                                    
                                                                                                    
                                                                                                    
                                                                                                    
                                                                                                    
                                                                                                    
                                                                                                    
                                                                                                    
                                                                                                    
                                                                                                    
                                                                                                    
                                                                                                    
                                                                                                    
                                                                                                    
                                                                                                    
                           
<?xpacket end="w"?></metadata>
<defs>
    <style>
      .cls-1 {
        fill: #71571c;
      }

      .cls-1, .cls-2, .cls-3, .cls-4, .cls-5, .cls-6 {
        fill-rule: evenodd;
      }

      .cls-2 {
        fill: #bd9539;
      }

      .cls-3 {
        fill: #473610;
      }

      .cls-4 {
        fill: #533f11;
      }

      .cls-5 {
        fill: #fad888;
      }

      .cls-6 {
        fill: #999;
      }
    </style>
  </defs>
  <path id="wk-handle" class="cls-1" d="M191.794,10.194a7.471,7.471,0,0,1,0,10.608L115.663,96.5,104.994,85.893l76.132-75.7A7.574,7.574,0,0,1,191.794,10.194Z"/>
  <path id="wk-front-board" class="cls-2" d="M111.783,137a32.238,32.238,0,0,1-12.625,7.763A46.1,46.1,0,0,1,85.6,180.4a46.82,46.82,0,0,1-65.948,0,46.183,46.183,0,0,1,0-65.575,46.684,46.684,0,0,1,37.117-13.392,32.014,32.014,0,0,1,7.495-11.68c12.855-12.782,33.914-12.566,47.036.482S124.638,124.221,111.783,137Z"/>
  <path id="wk-hole" class="cls-1" d="M97.721,103.733a14.262,14.262,0,0,1,0,20.251,14.458,14.458,0,0,1-20.366,0,14.262,14.262,0,0,1,0-20.251A14.46,14.46,0,0,1,97.721,103.733Z"/>
  <path id="wk-wires" class="cls-3" d="M174.822,20.319l0.97,0.964L41.956,154.361l-0.97-.964Zm6.789-2.893,0.969,0.964L44.865,155.325l-0.97-.964Zm1.939,1.929,0.97,0.964L46.805,157.254l-0.97-.965Zm-2.909,6.75,0.97,0.964L48.745,159.182l-0.97-.964Zm-7.759-7.715,2.91,2.893-0.97.965-2.91-2.893Zm-2.909,2.893,2.909,2.893-0.97.965L169,22.248Zm10.668,4.822L183.55,29l-0.97.964-2.909-2.893ZM177.731,29l2.91,2.893-0.97.964-2.91-2.893Zm3.88-7.715,4.849,4.822-0.97.964-4.849-4.821Zm2.909-2.893,4.849,4.822-0.97.964-4.849-4.821ZM175.792,15.5l4.849,4.821-0.97.964-4.849-4.821ZM178.7,12.6l4.849,4.821-0.97.964-4.849-4.821Z"/>
  <path id="wk-big-jointer" class="cls-4" d="M37.107,145.682L55.534,164l-2.91,2.893L34.2,148.575Z"/>
  <path id="wk-small-jointer" class="cls-5" d="M38.077,150.5L50.684,163.04l-2.909,2.893L35.167,153.4Z"/>
  <path id="wk-plugs" class="cls-6" d="M176.761,10.676L178.7,12.6l-0.97.965-1.939-1.929Zm0.485-1.447a2.036,2.036,0,0,1,0,2.893,2.065,2.065,0,0,1-2.909,0,2.036,2.036,0,0,1,0-2.893A2.066,2.066,0,0,1,177.246,9.229Zm-3.394,4.34,1.94,1.928-0.97.964-1.94-1.928Zm0.485-1.447a2.038,2.038,0,0,1,0,2.893,2.066,2.066,0,0,1-2.91,0,2.038,2.038,0,0,1,0-2.893A2.067,2.067,0,0,1,174.337,12.122Zm-3.395,4.34,1.94,1.928-0.97.965-1.939-1.929Zm0.485-1.447a2.036,2.036,0,0,1,0,2.893,2.065,2.065,0,0,1-2.909,0,2.038,2.038,0,0,1,0-2.893A2.066,2.066,0,0,1,171.427,15.015Zm-3.394,4.34,1.94,1.928-0.97.965-1.94-1.929Zm0.485-1.447a2.038,2.038,0,0,1,0,2.893,2.066,2.066,0,0,1-2.91,0,2.038,2.038,0,0,1,0-2.893A2.067,2.067,0,0,1,168.518,17.908Zm20.851,5.3,1.94,1.929-0.97.964-1.94-1.929Zm3.394,1.447a2.036,2.036,0,0,1,0,2.893,2.066,2.066,0,0,1-2.909,0,2.038,2.038,0,0,1,0-2.893A2.065,2.065,0,0,1,192.763,24.659Zm-6.3,1.446,1.939,1.929L187.43,29l-1.94-1.929Zm3.394,1.447a2.036,2.036,0,0,1,0,2.893,2.065,2.065,0,0,1-2.909,0,2.036,2.036,0,0,1,0-2.893A2.064,2.064,0,0,1,189.854,27.552ZM183.55,29l1.94,1.929-0.97.964-1.94-1.929Zm3.395,1.446a2.038,2.038,0,0,1,0,2.893,2.066,2.066,0,0,1-2.91,0,2.038,2.038,0,0,1,0-2.893A2.066,2.066,0,0,1,186.945,30.444Zm-6.3,1.447,1.939,1.929-0.969.964-1.94-1.929Zm3.394,1.446a2.037,2.037,0,0,1,0,2.893,2.066,2.066,0,0,1-2.909,0,2.037,2.037,0,0,1,0-2.893A2.065,2.065,0,0,1,184.035,33.337Z"/>
  <path id="wk-double-music" class="cls-1" d="M72.282,75.5H71.791a3.167,3.167,0,0,1-2.409,1.011c-1.6,0-2.9-1.018-2.9-2.275s1.3-2.275,2.9-2.275a3.4,3.4,0,0,1,1.762.48A19.454,19.454,0,0,0,70.9,65.73l-7.044.449c1.565,6.7-.721,12.883-0.506,12.884H62.714a4.161,4.161,0,0,1-3.126,1.277c-2.077,0-3.761-1.287-3.761-2.874s1.684-2.873,3.761-2.873a4.448,4.448,0,0,1,2.438.7,23.813,23.813,0,0,0-.558-9.98,0.4,0.4,0,0,0,.126-0.045l-0.126-.256,0.652-.037a4.711,4.711,0,0,1,1.229-.6c0.06,0.175.1,0.349,0.157,0.523l6.907-.391c-0.023-.042-0.039-0.092-0.063-0.132h2.4C74.689,70.192,72.1,75.5,72.282,75.5Z"/>
  <path id="wk-single-music" class="cls-1" d="M105.187,76.436H104.7a3.167,3.167,0,0,1-2.409,1.011c-1.6,0-2.9-1.018-2.9-2.275s1.3-2.275,2.9-2.275a3.474,3.474,0,0,1,1.615.386c0.132-2.547.11-6.014-1.067-7.969h1.853C106.626,71.131,105.006,76.436,105.187,76.436Z"/>
</svg>
