<svg id="wk-gift" xmlns="http://www.w3.org/2000/svg" width="202" height="202" viewBox="0 0 202 202">
  <metadata><?xpacket begin="﻿" id="W5M0MpCehiHzreSzNTczkc9d"?>
<x:xmpmeta xmlns:x="adobe:ns:meta/" x:xmptk="Adobe XMP Core 5.6-c140 79.160451, 2017/05/06-01:08:21        ">
   <rdf:RDF xmlns:rdf="http://www.w3.org/1999/02/22-rdf-syntax-ns#">
      <rdf:Description rdf:about=""/>
   </rdf:RDF>
</x:xmpmeta>
                                                                                                    
                                                                                                    
                                                                                                    
                                                                                                    
                                                                                                    
                                                                                                    
                                                                                                    
                                                                                                    
                                                                                                    
                                                                                                    
                                                                                                    
                                                                                                    
                                                                                                    
                                                                                                    
                                                                                                    
                                                                                                    
                                                                                                    
                                                                                                    
                                                                                                    
                                                                                                    
                           
<?xpacket end="w"?></metadata>
<defs>
    <style>
      .cls-1 {
        fill: #75c3eb;
      }

      .cls-2 {
        fill: #da5e54;
      }

      .cls-3, .cls-5 {
        fill: #ea6a60;
      }

      .cls-3 {
        fill-rule: evenodd;
      }

      .cls-4 {
        fill: #7ccdf7;
      }
    </style>
  </defs>
  <rect id="wk-container" class="cls-1" x="28" y="79" width="146" height="94" rx="4" ry="4"/>
  <rect id="wk-container-ribbon" class="cls-2" x="93" y="95" width="14" height="78"/>
  <path id="wk-ribbon" class="cls-3" d="M141.666,66.213c-8.252,13.537-22.816,19.8-32.53,13.981-4.27-2.557-6.889-7.024-7.785-12.375H98.3c-0.764,5.7-3.4,10.489-7.88,13.169C80.71,86.8,66.15,80.545,57.9,67.009s-7.065-29.224,2.645-35.04,24.27,0.444,32.52,13.98A37.976,37.976,0,0,1,97.89,58.11h3.6a37.805,37.805,0,0,1,5-12.957c8.253-13.537,22.817-19.8,32.53-13.981S149.919,52.676,141.666,66.213ZM86.277,50.346c-5.069-8.414-14.012-12.307-19.974-8.7s-6.686,13.36-1.616,21.774S78.7,75.732,84.661,72.12,91.347,58.76,86.277,50.346Zm47-8.693c-5.968-3.611-14.918.281-19.992,8.7s-4.349,18.162,1.618,21.773,14.918-.282,19.991-8.7S139.246,45.264,133.279,41.653Z"/>
  <rect id="wk-gift-cap" class="cls-4" x="20" y="65" width="162" height="30" rx="4" ry="4"/>
  <rect id="wk-gift-cap-ribbon" class="cls-5" x="90" y="65" width="20" height="30"/>
</svg>
