<svg id="wk-gear" xmlns="http://www.w3.org/2000/svg" width="202" height="202" viewBox="0 0 202 202">
  <metadata><?xpacket begin="﻿" id="W5M0MpCehiHzreSzNTczkc9d"?>
<x:xmpmeta xmlns:x="adobe:ns:meta/" x:xmptk="Adobe XMP Core 5.6-c140 79.160451, 2017/05/06-01:08:21        ">
   <rdf:RDF xmlns:rdf="http://www.w3.org/1999/02/22-rdf-syntax-ns#">
      <rdf:Description rdf:about=""/>
   </rdf:RDF>
</x:xmpmeta>
                                                                                                    
                                                                                                    
                                                                                                    
                                                                                                    
                                                                                                    
                                                                                                    
                                                                                                    
                                                                                                    
                                                                                                    
                                                                                                    
                                                                                                    
                                                                                                    
                                                                                                    
                                                                                                    
                                                                                                    
                                                                                                    
                                                                                                    
                                                                                                    
                                                                                                    
                                                                                                    
                           
<?xpacket end="w"?></metadata>
<defs>
    <style>
      .cls-1 {
        fill: #e85757;
      }

      .cls-1, .cls-2, .cls-3, .cls-4 {
        fill-rule: evenodd;
      }

      .cls-2 {
        fill: #ae3434;
      }

      .cls-3 {
        fill: #34495e;
      }

      .cls-4 {
        fill: #273747;
      }
    </style>
  </defs>
  <g id="wk-gear-small">
    <path id="wk-circle" class="cls-1" d="M94.273,142.063l-2.466,9.192a1.7,1.7,0,0,1-2.084,1.2l-4-1.069a28.718,28.718,0,0,1-5.861,7.629l2.069,3.579a1.7,1.7,0,0,1-.623,2.321l-8.251,4.759a1.7,1.7,0,0,1-2.324-.622l-2.069-3.58a28.764,28.764,0,0,1-9.545,1.256l-1.071,3.991a1.7,1.7,0,0,1-2.084,1.2l-9.2-2.463a1.7,1.7,0,0,1-1.2-2.081l1.071-3.992A28.741,28.741,0,0,1,39,157.533L35.414,159.6a1.7,1.7,0,0,1-2.324-.622l-4.763-8.242a1.7,1.7,0,0,1,.623-2.32l3.583-2.067a28.678,28.678,0,0,1-1.258-9.534l-4-1.07a1.7,1.7,0,0,1-1.2-2.081l2.466-9.192a1.7,1.7,0,0,1,2.084-1.2l4,1.07a28.7,28.7,0,0,1,5.862-7.629l-2.069-3.58a1.7,1.7,0,0,1,.623-2.321l8.25-4.758a1.7,1.7,0,0,1,2.324.622l2.069,3.579A28.764,28.764,0,0,1,61.225,109l1.071-3.991a1.7,1.7,0,0,1,2.084-1.2l9.2,2.463a1.7,1.7,0,0,1,1.2,2.081l-1.071,3.992a28.723,28.723,0,0,1,7.638,5.855l3.583-2.067a1.7,1.7,0,0,1,2.324.622l4.763,8.242a1.7,1.7,0,0,1-.623,2.321l-3.583,2.066a28.681,28.681,0,0,1,1.257,9.535l4,1.069A1.7,1.7,0,0,1,94.273,142.063ZM63.782,125.68A13.906,13.906,0,1,0,73.671,142.7,13.993,13.993,0,0,0,63.782,125.68Z"/>
    <path id="wk-hollow_shadow" data-name="wk-hollow shadow" class="cls-2" d="M63.947,125.724a14.075,14.075,0,1,1-17.336,9.949A14.061,14.061,0,0,1,63.947,125.724Zm-0.5-.134a13.561,13.561,0,1,1-16.7,9.585A13.548,13.548,0,0,1,63.447,125.59Z"/>
  </g>
  <g id="wk-gear-big">
    <path id="wk-circle-2" data-name="wk-circle" class="cls-3" d="M174.919,88.6l-3.771,14.059a2.6,2.6,0,0,1-3.187,1.837l-6.1-1.633a43.942,43.942,0,0,1-8.97,11.674L156.049,120a2.6,2.6,0,0,1-.952,3.55l-12.618,7.277a2.6,2.6,0,0,1-3.554-.951l-3.159-5.466a44.017,44.017,0,0,1-14.606,1.922l-1.635,6.1a2.6,2.6,0,0,1-3.187,1.838L102.264,130.5a2.6,2.6,0,0,1-1.84-3.183l1.635-6.095a43.967,43.967,0,0,1-11.687-8.96L84.9,115.419a2.6,2.6,0,0,1-3.554-.951l-7.285-12.6a2.6,2.6,0,0,1,.952-3.551l5.472-3.156a43.875,43.875,0,0,1-1.924-14.59l-6.1-1.633a2.6,2.6,0,0,1-1.84-3.183l3.771-14.058a2.6,2.6,0,0,1,3.186-1.837l6.1,1.633a43.927,43.927,0,0,1,8.969-11.674l-3.159-5.466a2.6,2.6,0,0,1,.952-3.55l12.618-7.277a2.6,2.6,0,0,1,3.554.951l3.159,5.466a44.014,44.014,0,0,1,14.606-1.922l1.635-6.1a2.6,2.6,0,0,1,3.187-1.838l14.074,3.767a2.6,2.6,0,0,1,1.839,3.183l-1.635,6.095a43.957,43.957,0,0,1,11.687,8.959l5.472-3.156a2.6,2.6,0,0,1,3.554.952l7.286,12.6a2.6,2.6,0,0,1-.953,3.55l-5.472,3.156a43.869,43.869,0,0,1,1.924,14.59l6.1,1.633A2.6,2.6,0,0,1,174.919,88.6ZM129.237,62.806a20.838,20.838,0,1,0,14.832,25.509A20.99,20.99,0,0,0,129.237,62.806Z"/>
    <path id="wk-hollow_shadow-2" data-name="wk-hollow shadow" class="cls-4" d="M129.487,62.873a21.1,21.1,0,1,1-26.006,14.909A21.071,21.071,0,0,1,129.487,62.873Zm-0.752-.2a20.325,20.325,0,1,1-25.056,14.365A20.3,20.3,0,0,1,128.735,62.668Z"/>
  </g>
</svg>
