<svg id="wk-guitar" xmlns="http://www.w3.org/2000/svg" width="202" height="202"><defs><style>.cls-1{fill:#71571c;fill-rule:evenodd}</style></defs><path id="wk-handle" class="cls-1" d="M191.794 10.194a7.471 7.471 0 0 1 0 10.608L115.663 96.5l-10.669-10.607 76.132-75.7a7.574 7.574 0 0 1 10.668.001z"/><path id="wk-front-board" d="M111.783 137a32.238 32.238 0 0 1-12.625 7.763A46.1 46.1 0 0 1 85.6 180.4a46.82 46.82 0 0 1-65.948 0 46.183 46.183 0 0 1 0-65.575 46.684 46.684 0 0 1 37.117-13.392 32.014 32.014 0 0 1 7.495-11.68c12.855-12.782 33.914-12.566 47.036.482s13.338 33.986.483 46.765z" fill="#bd9539" fill-rule="evenodd"/><path id="wk-hole" class="cls-1" d="M97.721 103.733a14.262 14.262 0 0 1 0 20.251 14.458 14.458 0 0 1-20.366 0 14.262 14.262 0 0 1 0-20.251 14.46 14.46 0 0 1 20.366 0z"/><path id="wk-wires" d="M174.822 20.319l.97.964L41.956 154.361l-.97-.964zm6.789-2.893l.969.964L44.865 155.325l-.97-.964zm1.939 1.929l.97.964L46.805 157.254l-.97-.965zm-2.909 6.75l.97.964L48.745 159.182l-.97-.964zm-7.759-7.715l2.91 2.893-.97.965-2.91-2.893zm-2.909 2.893l2.909 2.893-.97.965L169 22.248zm10.668 4.822L183.55 29l-.97.964-2.909-2.893zM177.731 29l2.91 2.893-.97.964-2.91-2.893zm3.88-7.715l4.849 4.822-.97.964-4.849-4.821zm2.909-2.893l4.849 4.822-.97.964-4.849-4.821zm-8.728-2.892l4.849 4.821-.97.964-4.849-4.821zm2.908-2.9l4.849 4.821-.97.964-4.849-4.821z" fill="#473610" fill-rule="evenodd"/><path id="wk-big-jointer" d="M37.107 145.682L55.534 164l-2.91 2.893L34.2 148.575z" fill="#533f11" fill-rule="evenodd"/><path id="wk-small-jointer" d="M38.077 150.5l12.607 12.54-2.909 2.893L35.167 153.4z" fill="#fad888" fill-rule="evenodd"/><path id="wk-plugs" d="M176.761 10.676L178.7 12.6l-.97.965-1.939-1.929zm.485-1.447a2.036 2.036 0 0 1 0 2.893 2.065 2.065 0 0 1-2.909 0 2.036 2.036 0 0 1 0-2.893 2.066 2.066 0 0 1 2.909 0zm-3.394 4.34l1.94 1.928-.97.964-1.94-1.928zm.485-1.447a2.038 2.038 0 0 1 0 2.893 2.066 2.066 0 0 1-2.91 0 2.038 2.038 0 0 1 0-2.893 2.067 2.067 0 0 1 2.91 0zm-3.395 4.34l1.94 1.928-.97.965-1.939-1.929zm.485-1.447a2.036 2.036 0 0 1 0 2.893 2.065 2.065 0 0 1-2.909 0 2.038 2.038 0 0 1 0-2.893 2.066 2.066 0 0 1 2.909 0zm-3.394 4.34l1.94 1.928-.97.965-1.94-1.929zm.485-1.447a2.038 2.038 0 0 1 0 2.893 2.066 2.066 0 0 1-2.91 0 2.038 2.038 0 0 1 0-2.893 2.067 2.067 0 0 1 2.91 0zm20.851 5.3l1.94 1.929-.97.964-1.94-1.929zm3.394 1.447a2.036 2.036 0 0 1 0 2.893 2.066 2.066 0 0 1-2.909 0 2.038 2.038 0 0 1 0-2.893 2.065 2.065 0 0 1 2.909.004zm-6.3 1.446l1.939 1.929-.972.97-1.94-1.929zm3.394 1.447a2.036 2.036 0 0 1 0 2.893 2.065 2.065 0 0 1-2.909 0 2.036 2.036 0 0 1 0-2.893 2.064 2.064 0 0 1 2.906.004zM183.55 29l1.94 1.929-.97.964-1.94-1.929zm3.395 1.446a2.038 2.038 0 0 1 0 2.893 2.066 2.066 0 0 1-2.91 0 2.038 2.038 0 0 1 0-2.893 2.066 2.066 0 0 1 2.91-.002zm-6.3 1.447l1.939 1.929-.969.964-1.94-1.929zm3.394 1.446a2.037 2.037 0 0 1 0 2.893 2.066 2.066 0 0 1-2.909 0 2.037 2.037 0 0 1 0-2.893 2.065 2.065 0 0 1 2.905-.002z" fill="#999" fill-rule="evenodd"/><path id="wk-double-music" class="cls-1" d="M72.282 75.5h-.491a3.167 3.167 0 0 1-2.409 1.011c-1.6 0-2.9-1.018-2.9-2.275s1.3-2.275 2.9-2.275a3.4 3.4 0 0 1 1.762.48 19.454 19.454 0 0 0-.244-6.711l-7.044.449c1.565 6.7-.721 12.883-.506 12.884h-.636a4.161 4.161 0 0 1-3.126 1.277c-2.077 0-3.761-1.287-3.761-2.874s1.684-2.873 3.761-2.873a4.448 4.448 0 0 1 2.438.7 23.813 23.813 0 0 0-.558-9.98.4.4 0 0 0 .126-.045l-.126-.256.652-.037a4.711 4.711 0 0 1 1.229-.6c.06.175.1.349.157.523l6.907-.391c-.023-.042-.039-.092-.063-.132h2.4c1.939 5.817-.65 11.125-.468 11.125z"/><path id="wk-single-music" class="cls-1" d="M105.187 76.436h-.487a3.167 3.167 0 0 1-2.409 1.011c-1.6 0-2.9-1.018-2.9-2.275s1.3-2.275 2.9-2.275a3.474 3.474 0 0 1 1.615.386c.132-2.547.11-6.014-1.067-7.969h1.853c1.934 5.817.314 11.122.495 11.122z"/></svg>