<svg xmlns="http://www.w3.org/2000/svg" width="202" height="202"><rect x="28" y="79" width="146" height="94" rx="4" ry="4" fill="#75c3eb"/><path fill="#da5e54" d="M93 95h14v78H93z"/><path d="M141.666 66.213c-8.252 13.537-22.816 19.8-32.53 13.981-4.27-2.557-6.889-7.024-7.785-12.375H98.3c-.764 5.7-3.4 10.489-7.88 13.169-9.71 5.812-24.27-.443-32.52-13.979s-7.065-29.224 2.645-35.04 24.27.444 32.52 13.98A37.976 37.976 0 0 1 97.89 58.11h3.6a37.805 37.805 0 0 1 5-12.957c8.253-13.537 22.817-19.8 32.53-13.981s10.899 21.504 2.646 35.041zM86.277 50.346c-5.069-8.414-14.012-12.307-19.974-8.7s-6.686 13.36-1.616 21.774 14.013 12.312 19.974 8.7 6.686-13.36 1.616-21.774zm47-8.693c-5.968-3.611-14.918.281-19.992 8.7s-4.349 18.162 1.618 21.773 14.918-.282 19.991-8.7 4.352-18.162-1.615-21.773z" fill-rule="evenodd" fill="#ea6a60"/><rect x="20" y="65" width="162" height="30" rx="4" ry="4" fill="#7ccdf7"/><path fill="#ea6a60" d="M90 65h20v30H90z"/></svg>