<svg id="wk-home" xmlns="http://www.w3.org/2000/svg" width="202" height="202" viewBox="0 0 202 202">
  <metadata><?xpacket begin="﻿" id="W5M0MpCehiHzreSzNTczkc9d"?>
<x:xmpmeta xmlns:x="adobe:ns:meta/" x:xmptk="Adobe XMP Core 5.6-c140 79.160451, 2017/05/06-01:08:21        ">
   <rdf:RDF xmlns:rdf="http://www.w3.org/1999/02/22-rdf-syntax-ns#">
      <rdf:Description rdf:about=""/>
   </rdf:RDF>
</x:xmpmeta>
                                                                                                    
                                                                                                    
                                                                                                    
                                                                                                    
                                                                                                    
                                                                                                    
                                                                                                    
                                                                                                    
                                                                                                    
                                                                                                    
                                                                                                    
                                                                                                    
                                                                                                    
                                                                                                    
                                                                                                    
                                                                                                    
                                                                                                    
                                                                                                    
                                                                                                    
                                                                                                    
                           
<?xpacket end="w"?></metadata>
<defs>
    <style>
      .cls-1 {
        fill: #ccc;
      }

      .cls-1, .cls-2 {
        fill-rule: evenodd;
      }

      .cls-2, .cls-3 {
        fill: #e85757;
      }

      .cls-4 {
        fill: #777;
      }

      .cls-5 {
        fill: #6bb3dd;
      }

      .cls-6 {
        fill: #3895cc;
      }
    </style>
  </defs>
  <path id="ki-bg" class="cls-1" d="M84.907,44.278h30.248l46.588,50.632V178H39.448V91.1Z"/>
  <path id="ki-rood-left" class="cls-2" d="M108.254,27.259a11.161,11.161,0,0,1,0,15.777L39.022,112.321A11.152,11.152,0,1,1,23.257,96.543L92.488,27.259A11.142,11.142,0,0,1,108.254,27.259Z"/>
  <path id="ki-roof-right" class="cls-2" d="M93.747,27.238a10.992,10.992,0,0,0,0,15.635l69.217,68.658a11.21,11.21,0,0,0,15.762,0,10.992,10.992,0,0,0,0-15.635L109.509,27.238A11.209,11.209,0,0,0,93.747,27.238Z"/>
  <path id="ki-chimney" class="cls-3" d="M142.469,24h11.843a5,5,0,0,1,5,5V81.563a0,0,0,0,1,0,0H137.469a0,0,0,0,1,0,0V29A5,5,0,0,1,142.469,24Z"/>
  <circle id="ki-home" class="cls-4" cx="100.609" cy="89.25" r="14.172"/>
  <g id="ki-door">
    <rect class="cls-5" x="85.625" y="118.031" width="29.937" height="52.688"/>
    <ellipse class="cls-6" cx="107.891" cy="143.547" rx="2.828" ry="2.828"/>
    <rect id="Rectangle_31_copy" data-name="Rectangle 31 copy" class="cls-6" x="83.188" y="169.875" width="34.813" height="3.25"/>
  </g>
</svg>
