<svg id="wk-home" xmlns="http://www.w3.org/2000/svg" width="202" height="202"><defs><style>.cls-2{fill-rule:evenodd;fill:#e85757}.cls-6{fill:#3895cc}</style></defs><path id="ki-bg" d="M84.907 44.278h30.248l46.588 50.632V178H39.448V91.1z" fill-rule="evenodd" fill="#ccc"/><path id="ki-rood-left" class="cls-2" d="M108.254 27.259a11.161 11.161 0 0 1 0 15.777l-69.232 69.285a11.152 11.152 0 1 1-15.765-15.778l69.231-69.284a11.142 11.142 0 0 1 15.766 0z"/><path id="ki-roof-right" class="cls-2" d="M93.747 27.238a10.992 10.992 0 0 0 0 15.635l69.217 68.658a11.21 11.21 0 0 0 15.762 0 10.992 10.992 0 0 0 0-15.635l-69.217-68.658a11.209 11.209 0 0 0-15.762 0z"/><path id="ki-chimney" d="M142.469 24h11.843a5 5 0 0 1 5 5v52.563h-21.843V29a5 5 0 0 1 5-5z" fill="#e85757"/><circle id="ki-home" cx="100.609" cy="89.25" r="14.172" fill="#777"/><g id="ki-door"><path fill="#6bb3dd" d="M85.625 118.031h29.937v52.688H85.625z"/><ellipse class="cls-6" cx="107.891" cy="143.547" rx="2.828" ry="2.828"/><path id="Rectangle_31_copy" data-name="Rectangle 31 copy" class="cls-6" d="M83.188 169.875h34.813v3.25H83.188z"/></g></svg>