<svg id="wk-iphone" xmlns="http://www.w3.org/2000/svg" width="202" height="202"><defs><style>.cls-2{fill:#333}</style></defs><rect id="ki-body" x="51" y="5" width="101" height="192" rx="5" ry="5" fill="#555"/><circle id="ki-button" class="cls-2" cx="101.5" cy="184.516" r="8.562"/><path id="ki-screen" d="M59.575 22.28h83.85a1.913 1.913 0 0 1 1.905 1.92v145.92a1.913 1.913 0 0 1-1.905 1.92h-83.85a1.913 1.913 0 0 1-1.906-1.92V24.2a1.913 1.913 0 0 1 1.906-1.92z" fill-rule="evenodd" fill="#fff"/><path id="ki-speaker" d="M87.208 12.68h27.632a.96.96 0 0 1 0 1.92H87.208a.96.96 0 0 1 0-1.92z" fill-rule="evenodd" fill="#333"/><circle id="ki-front-cam" class="cls-2" cx="138.672" cy="13.625" r=".953"/></svg>