<svg id="wk-imac" xmlns="http://www.w3.org/2000/svg" width="202" height="202" viewBox="0 0 202 202">
  <metadata><?xpacket begin="﻿" id="W5M0MpCehiHzreSzNTczkc9d"?>
<x:xmpmeta xmlns:x="adobe:ns:meta/" x:xmptk="Adobe XMP Core 5.6-c140 79.160451, 2017/05/06-01:08:21        ">
   <rdf:RDF xmlns:rdf="http://www.w3.org/1999/02/22-rdf-syntax-ns#">
      <rdf:Description rdf:about=""/>
   </rdf:RDF>
</x:xmpmeta>
                                                                                                    
                                                                                                    
                                                                                                    
                                                                                                    
                                                                                                    
                                                                                                    
                                                                                                    
                                                                                                    
                                                                                                    
                                                                                                    
                                                                                                    
                                                                                                    
                                                                                                    
                                                                                                    
                                                                                                    
                                                                                                    
                                                                                                    
                                                                                                    
                                                                                                    
                                                                                                    
                           
<?xpacket end="w"?></metadata>
<defs>
    <style>
      .cls-1 {
        fill: #cacaca;
      }

      .cls-2 {
        fill: #555;
      }

      .cls-3 {
        fill: #fff;
      }

      .cls-4 {
        fill: #bfbfbf;
      }
    </style>
  </defs>
  <path id="ki-bottom" class="cls-1" d="M11,66.406H192a0,0,0,0,1,0,0v78.75a5,5,0,0,1-5,5H16a5,5,0,0,1-5-5V66.406A0,0,0,0,1,11,66.406Z"/>
  <path id="ki-bg" class="cls-2" d="M16,30H187a5,5,0,0,1,5,5v99.688a0,0,0,0,1,0,0H11a0,0,0,0,1,0,0V35A5,5,0,0,1,16,30Z"/>
  <rect id="ki-screen" class="cls-3" x="20.031" y="39.094" width="162.938" height="86.5"/>
  <rect id="ki-stand" class="cls-4" x="87.906" y="150.156" width="27.188" height="17.282"/>
  <rect id="ki-stand-base" class="cls-1" x="82.5" y="167.438" width="38" height="4.562"/>
</svg>
