<svg id="wk-jeans" xmlns="http://www.w3.org/2000/svg" width="220" height="220"><defs><style>.cls-2{fill-rule:evenodd;fill:#333}</style></defs><g id="wk-poles"><path id="wk-poles-2" data-name="wk-poles" d="M6 14.1h208a4 4 0 0 1 4 4 4 4 0 0 1-4 4H6a4 4 0 0 1-4-4 4 4 0 0 1 4-4z" fill-rule="evenodd" fill="#e3e3e3"/></g><g id="wk-b"><g id="wk-hanger"><path id="wk-hanger-2" data-name="wk-hanger" class="cls-2" d="M127 80.116H25S9.756 81.185 21.213 73.7l49.645-32.184v-3.872c-6.408-.921-12.422-7.144-12.422-13.821A14.237 14.237 0 0 1 72.238 10a12.781 12.781 0 0 1 9.1 4.093H73v.111c-.253-.021-.5-.058-.762-.058a9.928 9.928 0 0 0-9.661 9.675 9.927 9.927 0 0 0 9.661 9.679 20.148 20.148 0 0 0 2.76 0v7.848l53.214 33.132c11.071 6.346-1.212 5.636-1.212 5.636zm-13.486-9.231c-12.872-8.2-40.454-24.772-40.454-24.772s-25.278 15.769-38.587 24.24c-8.964 5.262-1.552 4.66 3.527 4.762h77s7.359.744-1.486-4.23zM82 25.1a2 2 0 0 1-2-2v-1h4v1a2 2 0 0 1-2 2z"/></g><g id="wk-jean"><path id="wk-main-cloth" d="M20.458 68.432h107.656v233.574H101.89l-7.691-47.753-10.467-64.982-9.446-58.645s-2.453 26.443-7.108 58.555c-2.869 19.794-8.812 41.742-11.6 60.979-4.2 29.005-6.136 51.846-6.136 51.846H20.458s-1.38-20.525-1.38-49.407c0-23.645 2.761-94.354 2.761-122.523-.001-53.494-1.381-61.644-1.381-61.644z" fill="#3a56bc" fill-rule="evenodd"/><path id="wk-chain-area" d="M66 78.107h11.047v53.9l-8.281-6.91A14.75 14.75 0 0 1 66 116.805v-12.048c0-5.234-1.38-10.785-1.38-15.458A44.416 44.416 0 0 1 66 78.107z" fill="#506cd0" fill-rule="evenodd"/><path id="wk-belt-area" d="M21.994 68.119H130v12H22v-12z" fill="#415dc5" fill-rule="evenodd"/><circle id="wk-button" cx="72" cy="74.125" r="3" fill="#757376"/></g></g><g id="wk-a"><g id="wk-hanger-3" data-name="wk-hanger"><path id="wk-hanger-4" data-name="wk-hanger" class="cls-2" d="M198 80.116H96s-15.244 1.069-3.787-6.416l49.645-32.184v-3.872c-6.408-.921-12.422-7.147-12.422-13.821A14.237 14.237 0 0 1 143.238 10a12.78 12.78 0 0 1 9.1 4.093H144v.111c-.253-.021-.5-.058-.762-.058a9.927 9.927 0 0 0-9.661 9.675 9.927 9.927 0 0 0 9.661 9.675 20.157 20.157 0 0 0 2.761 0v7.848l53.214 33.132c11.07 6.35-1.213 5.64-1.213 5.64zm-13.486-9.231c-12.872-8.2-40.454-24.772-40.454-24.772s-25.278 15.769-38.587 24.24c-8.964 5.262-1.552 4.66 3.527 4.762h77s7.359.744-1.486-4.23zM153 25.1a2 2 0 0 1-2-2v-1h4v1a2 2 0 0 1-2 2z"/></g><g id="wk-jean-2" data-name="wk-jean"><path id="wk-main-cloth-2" data-name="wk-main-cloth" d="M91.458 68.432h107.656v233.574H172.89l-7.691-47.753-10.467-64.982-9.446-58.645s-2.453 26.443-7.108 58.555c-2.87 19.794-8.812 41.742-11.6 60.979-4.2 29.005-6.136 51.846-6.136 51.846H91.458s-1.38-20.525-1.38-49.407c0-23.645 2.761-94.354 2.761-122.523-.001-53.494-1.381-61.644-1.381-61.644z" fill="#4e6bd7" fill-rule="evenodd"/><path id="wk-chain-area-2" data-name="wk-chain-area" d="M137.005 78.107h11.042v53.9l-8.282-6.91a14.752 14.752 0 0 1-2.76-8.293v-12.047c0-5.234-1.38-10.785-1.38-15.458a44.422 44.422 0 0 1 1.38-11.192z" fill="#627ee7" fill-rule="evenodd"/><path id="wk-belt-area-2" data-name="wk-belt-area" d="M92.994 68.119H201v12H93v-12z" fill="#455fbc" fill-rule="evenodd"/><circle id="wk-button-2" data-name="wk-button" cx="143" cy="74.125" r="3" fill="#6981da"/></g></g></svg>