<svg id="wk-jeans" xmlns="http://www.w3.org/2000/svg" width="220" height="220" viewBox="0 0 220 220">
  <metadata><?xpacket begin="﻿" id="W5M0MpCehiHzreSzNTczkc9d"?>
<x:xmpmeta xmlns:x="adobe:ns:meta/" x:xmptk="Adobe XMP Core 5.6-c140 79.160451, 2017/05/06-01:08:21        ">
   <rdf:RDF xmlns:rdf="http://www.w3.org/1999/02/22-rdf-syntax-ns#">
      <rdf:Description rdf:about=""/>
   </rdf:RDF>
</x:xmpmeta>
                                                                                                    
                                                                                                    
                                                                                                    
                                                                                                    
                                                                                                    
                                                                                                    
                                                                                                    
                                                                                                    
                                                                                                    
                                                                                                    
                                                                                                    
                                                                                                    
                                                                                                    
                                                                                                    
                                                                                                    
                                                                                                    
                                                                                                    
                                                                                                    
                                                                                                    
                                                                                                    
                           
<?xpacket end="w"?></metadata>
<defs>
    <style>
      .cls-1 {
        fill: #e3e3e3;
      }

      .cls-1, .cls-2, .cls-3, .cls-4, .cls-5, .cls-7, .cls-8, .cls-9 {
        fill-rule: evenodd;
      }

      .cls-2 {
        fill: #333;
      }

      .cls-3 {
        fill: #3a56bc;
      }

      .cls-4 {
        fill: #506cd0;
      }

      .cls-5 {
        fill: #415dc5;
      }

      .cls-6 {
        fill: #757376;
      }

      .cls-7 {
        fill: #4e6bd7;
      }

      .cls-8 {
        fill: #627ee7;
      }

      .cls-9 {
        fill: #455fbc;
      }

      .cls-10 {
        fill: #6981da;
      }
    </style>
  </defs>
  <g id="wk-poles">
    <path id="wk-poles-2" data-name="wk-poles" class="cls-1" d="M6,14.1H214a4,4,0,0,1,4,4v0a4,4,0,0,1-4,4H6a4,4,0,0,1-4-4v0A4,4,0,0,1,6,14.1Z"/>
  </g>
  <g id="wk-b">
    <g id="wk-hanger">
      <path id="wk-hanger-2" data-name="wk-hanger" class="cls-2" d="M127,80.116H25S9.756,81.185,21.213,73.7L70.858,41.516V37.644C64.45,36.723,58.436,30.5,58.436,23.823A14.237,14.237,0,0,1,72.238,10a12.781,12.781,0,0,1,9.1,4.093H73v0.111c-0.253-.021-0.5-0.058-0.762-0.058a9.928,9.928,0,0,0-9.661,9.675A9.927,9.927,0,0,0,72.238,33.5a20.148,20.148,0,0,0,2.76,0v7.848l53.214,33.132C139.283,80.826,127,80.116,127,80.116Zm-13.486-9.231c-12.872-8.2-40.454-24.772-40.454-24.772S47.782,61.882,34.473,70.353c-8.964,5.262-1.552,4.66,3.527,4.762h77S122.359,75.859,113.514,70.885ZM82,25.1a2,2,0,0,1-2-2v-1h4v1A2,2,0,0,1,82,25.1Z"/>
    </g>
    <g id="wk-jean">
      <path id="wk-main-cloth" class="cls-3" d="M20.458,68.432H128.114V302.006H101.89s-3.337-20.721-7.691-47.753L83.732,189.271l-9.446-58.645s-2.453,26.443-7.108,58.555c-2.869,19.794-8.812,41.742-11.6,60.979-4.2,29.005-6.136,51.846-6.136,51.846H20.458s-1.38-20.525-1.38-49.407c0-23.645,2.761-94.354,2.761-122.523C21.838,76.582,20.458,68.432,20.458,68.432Z"/>
      <path id="wk-chain-area" class="cls-4" d="M66,78.107H77.047v53.9l-8.281-6.91A14.75,14.75,0,0,1,66,116.805V104.757c0-5.234-1.38-10.785-1.38-15.458A44.416,44.416,0,0,1,66,78.107Z"/>
      <path id="wk-belt-area" class="cls-5" d="M21.994,68.119H130v12h-108v-12Z"/>
      <circle id="wk-button" class="cls-6" cx="72" cy="74.125" r="3"/>
    </g>
  </g>
  <g id="wk-a">
    <g id="wk-hanger-3" data-name="wk-hanger">
      <path id="wk-hanger-4" data-name="wk-hanger" class="cls-2" d="M198,80.116H96S80.756,81.185,92.213,73.7l49.645-32.184V37.644c-6.408-.921-12.422-7.147-12.422-13.821A14.237,14.237,0,0,1,143.238,10a12.78,12.78,0,0,1,9.1,4.093H144v0.111c-0.253-.021-0.5-0.058-0.762-0.058a9.927,9.927,0,0,0-9.661,9.675,9.927,9.927,0,0,0,9.661,9.675,20.157,20.157,0,0,0,2.761,0v7.848l53.214,33.132C210.283,80.826,198,80.116,198,80.116Zm-13.486-9.231c-12.872-8.2-40.454-24.772-40.454-24.772s-25.278,15.769-38.587,24.24c-8.964,5.262-1.552,4.66,3.527,4.762h77S193.359,75.859,184.514,70.885ZM153,25.1a2,2,0,0,1-2-2v-1h4v1A2,2,0,0,1,153,25.1Z"/>
    </g>
    <g id="wk-jean-2" data-name="wk-jean">
      <path id="wk-main-cloth-2" data-name="wk-main-cloth" class="cls-7" d="M91.458,68.432H199.114V302.006H172.89s-3.337-20.721-7.691-47.753c-3.245-20.144-7.054-43.792-10.467-64.982-5.179-32.152-9.446-58.645-9.446-58.645s-2.453,26.443-7.108,58.555c-2.87,19.794-8.812,41.742-11.6,60.979-4.2,29.005-6.136,51.846-6.136,51.846H91.458s-1.38-20.525-1.38-49.407c0-23.645,2.761-94.354,2.761-122.523C92.838,76.582,91.458,68.432,91.458,68.432Z"/>
      <path id="wk-chain-area-2" data-name="wk-chain-area" class="cls-8" d="M137.005,78.107h11.042v53.9l-8.282-6.91a14.752,14.752,0,0,1-2.76-8.293V104.757c0-5.234-1.38-10.785-1.38-15.458A44.422,44.422,0,0,1,137.005,78.107Z"/>
      <path id="wk-belt-area-2" data-name="wk-belt-area" class="cls-9" d="M92.994,68.119H201v12h-108v-12Z"/>
      <circle id="wk-button-2" data-name="wk-button" class="cls-10" cx="143" cy="74.125" r="3"/>
    </g>
  </g>
</svg>
