<svg xmlns="http://www.w3.org/2000/svg" width="202" height="202"><path d="M168.951 105.846a51.909 51.909 0 0 1-61.836 8.445L84.067 137.2l-7.771.923-1 7.8-7.845 1-1 7.8-7.845 1-1 7.8-7.845 1-1 7.8-7.845 1-1 7.8-21.914 3.887 4.575-24.354 65.08-64.989A51.72 51.72 0 0 1 95 32.022c20.21-20.176 53.147-20.006 73.568.38s20.593 53.268.383 73.444z" fill-rule="evenodd" fill="#fab007"/><path d="M162.1 98.992a42.015 42.015 0 1 1 0-59.364 42.109 42.109 0 0 1 0 59.364zm-61 10.655L35.528 175.1l-10.68 3.039 2.293-11.411 65.574-65.452z" fill="#ffc134" fill-rule="evenodd"/><circle cx="150.656" cy="51.047" r="8.625" fill="#fff"/></svg>