<svg id="wk-key" xmlns="http://www.w3.org/2000/svg" width="202" height="202" viewBox="0 0 202 202">
  <metadata><?xpacket begin="﻿" id="W5M0MpCehiHzreSzNTczkc9d"?>
<x:xmpmeta xmlns:x="adobe:ns:meta/" x:xmptk="Adobe XMP Core 5.6-c140 79.160451, 2017/05/06-01:08:21        ">
   <rdf:RDF xmlns:rdf="http://www.w3.org/1999/02/22-rdf-syntax-ns#">
      <rdf:Description rdf:about=""/>
   </rdf:RDF>
</x:xmpmeta>
                                                                                                    
                                                                                                    
                                                                                                    
                                                                                                    
                                                                                                    
                                                                                                    
                                                                                                    
                                                                                                    
                                                                                                    
                                                                                                    
                                                                                                    
                                                                                                    
                                                                                                    
                                                                                                    
                                                                                                    
                                                                                                    
                                                                                                    
                                                                                                    
                                                                                                    
                                                                                                    
                           
<?xpacket end="w"?></metadata>
<defs>
    <style>
      .cls-1 {
        fill: #fab007;
      }

      .cls-1, .cls-2 {
        fill-rule: evenodd;
      }

      .cls-2 {
        fill: #ffc134;
      }

      .cls-3 {
        fill: #fff;
      }
    </style>
  </defs>
  <path id="wk-ket-thinkness" class="cls-1" d="M168.951,105.846a51.909,51.909,0,0,1-61.836,8.445L84.067,137.2l-7.771.923-1,7.8-7.845,1-1,7.8-7.845,1-1,7.8-7.845,1-1,7.8-7.845,1-1,7.8-21.914,3.887,4.575-24.354L87.657,95.667A51.72,51.72,0,0,1,95,32.022c20.21-20.176,53.147-20.006,73.568.38S189.161,85.67,168.951,105.846Z"/>
  <path id="wk-key-depth" class="cls-2" d="M162.1,98.992a42.015,42.015,0,1,1,0-59.364A42.109,42.109,0,0,1,162.1,98.992Zm-61,10.655L35.528,175.1l-10.68,3.039,2.293-11.411,65.574-65.452Z"/>
  <circle id="wk-white-hole" class="cls-3" cx="150.656" cy="51.047" r="8.625"/>
</svg>
