<svg xmlns="http://www.w3.org/2000/svg" width="202" height="202"><path d="M101.5 20a45.282 45.282 0 0 1 45.347 45.556V101.9c0 25.428-20.3 46.041-45.347 46.041s-45.347-20.61-45.347-46.041V66.04C56.153 40.613 76.456 20 101.5 20zm0 15.481c17 0 30.617 14.139 30.617 31.068l.162 35.262a30.78 30.78 0 0 1-61.558 0V66.133A30.716 30.716 0 0 1 101.5 35.481z" fill-rule="evenodd" fill="#d3d3d3"/><path d="M53.664 84.392h95.672A9.666 9.666 0 0 1 159 94.059v79.273a9.666 9.666 0 0 1-9.664 9.668H53.664A9.666 9.666 0 0 1 44 173.332V94.059a9.666 9.666 0 0 1 9.664-9.667z" fill="#fab007" fill-rule="evenodd"/><circle cx="102.297" cy="146.313" r="9.703" fill="#aa7600"/><path d="M99.07 150.4h5.669l4.05 20.375H95.021z" fill="#aa7600" fill-rule="evenodd"/></svg>