<svg id="wk-list" xmlns="http://www.w3.org/2000/svg" width="202" height="202" viewBox="0 0 202 202">
  <metadata><?xpacket begin="﻿" id="W5M0MpCehiHzreSzNTczkc9d"?>
<x:xmpmeta xmlns:x="adobe:ns:meta/" x:xmptk="Adobe XMP Core 5.6-c140 79.160451, 2017/05/06-01:08:21        ">
   <rdf:RDF xmlns:rdf="http://www.w3.org/1999/02/22-rdf-syntax-ns#">
      <rdf:Description rdf:about=""/>
   </rdf:RDF>
</x:xmpmeta>
                                                                                                    
                                                                                                    
                                                                                                    
                                                                                                    
                                                                                                    
                                                                                                    
                                                                                                    
                                                                                                    
                                                                                                    
                                                                                                    
                                                                                                    
                                                                                                    
                                                                                                    
                                                                                                    
                                                                                                    
                                                                                                    
                                                                                                    
                                                                                                    
                                                                                                    
                                                                                                    
                           
<?xpacket end="w"?></metadata>
<defs>
    <style>
      .cls-1 {
        fill: #32425f;
      }

      .cls-2, .cls-8 {
        fill: #fff;
      }

      .cls-10, .cls-11, .cls-12, .cls-13, .cls-2, .cls-3, .cls-9 {
        fill-rule: evenodd;
      }

      .cls-3 {
        fill: #e1e1e1;
      }

      .cls-4 {
        fill: #4bcd48;
      }

      .cls-5 {
        fill: #34495e;
      }

      .cls-6 {
        fill: #d0d36d;
      }

      .cls-7 {
        fill: #dde079;
      }

      .cls-9 {
        fill: #fab007;
      }

      .cls-10 {
        fill: #ffbb21;
      }

      .cls-11 {
        fill: #ffdba3;
      }

      .cls-12 {
        fill: #333;
      }

      .cls-13 {
        fill: #ff8484;
      }
    </style>
  </defs>
  <g id="wk-back-board">
    <rect id="wk-back-board-2" data-name="wk-back-board" class="cls-1" x="42" y="37.156" width="118.375" height="146.844" rx="2" ry="2"/>
  </g>
  <g id="wk-sheet">
    <path id="wk-sheet-2" data-name="wk-sheet" class="cls-2" d="M156.215,41.286H46.15V179.041h64.744l45.321-48.429V41.286Z"/>
  </g>
  <g id="wk-fold">
    <path id="wk-fold-2" data-name="wk-fold" class="cls-3" d="M156.215,130.383H110.683v48.658Z"/>
  </g>
  <g id="wk-point-a">
    <g id="wk-check">
      <circle class="cls-4" cx="73.453" cy="72.609" r="17.391"/>
      <path id="_" data-name="" class="cls-2" d="M66.278,72.527a1.519,1.519,0,0,1,2.118,0l3.265,3.241,7.854-7.789a1.435,1.435,0,0,1,1.059-.448,1.465,1.465,0,0,1,1.059.43,1.486,1.486,0,0,1,0,2.113L72.72,78.937a1.476,1.476,0,0,1-2.118,0L66.26,74.658a1.507,1.507,0,0,1-.424-1.075A1.416,1.416,0,0,1,66.278,72.527Z"/>
    </g>
    <g id="wk-text">
      <rect id="wk-text-down" class="cls-5" x="94.938" y="65.219" width="51.344" height="4.094"/>
      <rect id="wk-text-up" class="cls-5" x="94.938" y="75.094" width="24.001" height="4.125"/>
    </g>
  </g>
  <g id="wk-point-b">
    <g id="wk-check-2" data-name="wk-check">
      <ellipse class="cls-4" cx="73.453" cy="113.86" rx="17.391" ry="17.328"/>
      <path id="_2" data-name="" class="cls-2" d="M66.278,113.508a1.519,1.519,0,0,1,2.118,0l3.265,3.241,7.854-7.789a1.432,1.432,0,0,1,1.059-.448,1.462,1.462,0,0,1,1.059.43,1.486,1.486,0,0,1,0,2.113l-8.913,8.863a1.476,1.476,0,0,1-2.118,0l-4.342-4.28a1.506,1.506,0,0,1-.424-1.074A1.415,1.415,0,0,1,66.278,113.508Z"/>
    </g>
    <g id="wk-text-2" data-name="wk-text">
      <rect id="wk-text-down-2" data-name="wk-text-down" class="cls-5" x="94.938" y="106.469" width="51.344" height="4.093"/>
      <rect id="wk-text-up-2" data-name="wk-text-up" class="cls-5" x="94.938" y="116.344" width="24.001" height="4.125"/>
    </g>
  </g>
  <g id="wk-point-c">
    <g id="wk-check-3" data-name="wk-check">
      <ellipse class="cls-4" cx="73.453" cy="155.109" rx="17.391" ry="17.328"/>
      <path id="_3" data-name="" class="cls-2" d="M66.278,154.488a1.519,1.519,0,0,1,2.118,0l3.265,3.241,7.854-7.789a1.436,1.436,0,0,1,1.059-.448,1.466,1.466,0,0,1,1.059.43,1.486,1.486,0,0,1,0,2.113L72.72,160.9a1.478,1.478,0,0,1-2.118,0l-4.342-4.28a1.506,1.506,0,0,1-.424-1.074A1.418,1.418,0,0,1,66.278,154.488Z"/>
    </g>
    <g id="wk-text-3" data-name="wk-text">
      <rect id="wk-text-down-3" data-name="wk-text-down" class="cls-5" x="94.938" y="147.719" width="15.751" height="4.093"/>
      <rect id="wk-text-up-3" data-name="wk-text-up" class="cls-5" x="94.938" y="156.781" width="15.751" height="4.125"/>
    </g>
  </g>
  <g id="wk-clip">
    <circle id="wk-circle" class="cls-6" cx="101.547" cy="33.016" r="14.078"/>
    <rect id="wk-light" class="cls-7" x="66" y="38.781" width="71.156" height="9.906"/>
    <path id="wk-dark" class="cls-6" d="M68,33.031h67.156a2,2,0,0,1,2,2v6.25a0,0,0,0,1,0,0H66a0,0,0,0,1,0,0v-6.25A2,2,0,0,1,68,33.031Z"/>
    <circle id="wk-hole" class="cls-8" cx="101.594" cy="31.375" r="4.125"/>
  </g>
  <g id="wk-pencil">
    <path id="wk-painted-area" class="cls-9" d="M164.508,77.59L186,77.579,185.963,151l-21.492.011Z"/>
    <path id="wk-white-pinted-area" class="cls-2" d="M164.483,75.123L186,75.111v2.441l-21.518.012V75.123Z"/>
    <path id="wk-shine" class="cls-10" d="M171.956,77.586l6.6,0L178.515,151l-6.6,0Z"/>
    <path id="wk-sharped-area" class="cls-11" d="M164.471,151.007L185.989,151,175.22,172.452Z"/>
    <path id="wk-graphite" class="cls-12" d="M171.937,165.851l6.623,0-3.314,6.6Z"/>
    <path id="wk-eraser" class="cls-13" d="M166.643,58.6l17.214-.009a2.173,2.173,0,0,1,2.15,2.2L186,75.086l-21.518.011L164.49,60.8A2.178,2.178,0,0,1,166.643,58.6Z"/>
  </g>
</svg>
