<svg id="wk-lock" xmlns="http://www.w3.org/2000/svg" width="202" height="202" viewBox="0 0 202 202">
  <metadata><?xpacket begin="﻿" id="W5M0MpCehiHzreSzNTczkc9d"?>
<x:xmpmeta xmlns:x="adobe:ns:meta/" x:xmptk="Adobe XMP Core 5.6-c140 79.160451, 2017/05/06-01:08:21        ">
   <rdf:RDF xmlns:rdf="http://www.w3.org/1999/02/22-rdf-syntax-ns#">
      <rdf:Description rdf:about=""/>
   </rdf:RDF>
</x:xmpmeta>
                                                                                                    
                                                                                                    
                                                                                                    
                                                                                                    
                                                                                                    
                                                                                                    
                                                                                                    
                                                                                                    
                                                                                                    
                                                                                                    
                                                                                                    
                                                                                                    
                                                                                                    
                                                                                                    
                                                                                                    
                                                                                                    
                                                                                                    
                                                                                                    
                                                                                                    
                                                                                                    
                           
<?xpacket end="w"?></metadata>
<defs>
    <style>
      .cls-1 {
        fill: #d3d3d3;
      }

      .cls-1, .cls-2, .cls-4 {
        fill-rule: evenodd;
      }

      .cls-2 {
        fill: #fab007;
      }

      .cls-3, .cls-4 {
        fill: #aa7600;
      }
    </style>
  </defs>
  <path id="wk-rod" class="cls-1" d="M101.5,20a45.282,45.282,0,0,1,45.347,45.556V101.9c0,25.428-20.3,46.041-45.347,46.041S56.153,127.331,56.153,101.9V66.04C56.153,40.613,76.456,20,101.5,20Zm0,15.481c17,0,30.617,14.139,30.617,31.068l0.162,35.262a30.78,30.78,0,0,1-61.558,0V66.133A30.716,30.716,0,0,1,101.5,35.481Z"/>
  <path id="wk-machine" class="cls-2" d="M53.664,84.392h95.672A9.666,9.666,0,0,1,159,94.059v79.273A9.666,9.666,0,0,1,149.336,183H53.664A9.666,9.666,0,0,1,44,173.332V94.059A9.666,9.666,0,0,1,53.664,84.392Z"/>
  <circle class="cls-3" cx="102.297" cy="146.313" r="9.703"/>
  <path class="cls-4" d="M99.07,150.4h5.669l4.05,20.375H95.021Z"/>
</svg>
