<svg id="wk-list" xmlns="http://www.w3.org/2000/svg" width="202" height="202"><defs><style>.cls-2{fill:#fff;fill-rule:evenodd}.cls-4{fill:#4bcd48}.cls-5{fill:#34495e}.cls-6{fill:#d0d36d}</style></defs><g id="wk-back-board"><rect id="wk-back-board-2" data-name="wk-back-board" x="42" y="37.156" width="118.375" height="146.844" rx="2" ry="2" fill="#32425f"/></g><g id="wk-sheet"><path id="wk-sheet-2" data-name="wk-sheet" class="cls-2" d="M156.215 41.286H46.15v137.755h64.744l45.321-48.429V41.286z"/></g><g id="wk-fold"><path id="wk-fold-2" data-name="wk-fold" d="M156.215 130.383h-45.532v48.658z" fill="#e1e1e1" fill-rule="evenodd"/></g><g id="wk-point-a"><g id="wk-check"><circle class="cls-4" cx="73.453" cy="72.609" r="17.391"/><path id="_" data-name="" class="cls-2" d="M66.278 72.527a1.519 1.519 0 0 1 2.118 0l3.265 3.241 7.854-7.789a1.435 1.435 0 0 1 1.059-.448 1.465 1.465 0 0 1 1.059.43 1.486 1.486 0 0 1 0 2.113l-8.913 8.863a1.476 1.476 0 0 1-2.118 0l-4.342-4.279a1.507 1.507 0 0 1-.424-1.075 1.416 1.416 0 0 1 .442-1.056z"/></g><g id="wk-text"><path id="wk-text-down" class="cls-5" d="M94.938 65.219h51.344v4.094H94.938z"/><path id="wk-text-up" class="cls-5" d="M94.938 75.094h24.001v4.125H94.938z"/></g></g><g id="wk-point-b"><g id="wk-check-2" data-name="wk-check"><ellipse class="cls-4" cx="73.453" cy="113.86" rx="17.391" ry="17.328"/><path id="_2" data-name="" class="cls-2" d="M66.278 113.508a1.519 1.519 0 0 1 2.118 0l3.265 3.241 7.854-7.789a1.432 1.432 0 0 1 1.059-.448 1.462 1.462 0 0 1 1.059.43 1.486 1.486 0 0 1 0 2.113l-8.913 8.863a1.476 1.476 0 0 1-2.118 0l-4.342-4.28a1.506 1.506 0 0 1-.424-1.074 1.415 1.415 0 0 1 .442-1.056z"/></g><g id="wk-text-2" data-name="wk-text"><path id="wk-text-down-2" data-name="wk-text-down" class="cls-5" d="M94.938 106.469h51.344v4.093H94.938z"/><path id="wk-text-up-2" data-name="wk-text-up" class="cls-5" d="M94.938 116.344h24.001v4.125H94.938z"/></g></g><g id="wk-point-c"><g id="wk-check-3" data-name="wk-check"><ellipse class="cls-4" cx="73.453" cy="155.109" rx="17.391" ry="17.328"/><path id="_3" data-name="" class="cls-2" d="M66.278 154.488a1.519 1.519 0 0 1 2.118 0l3.265 3.241 7.854-7.789a1.436 1.436 0 0 1 1.059-.448 1.466 1.466 0 0 1 1.059.43 1.486 1.486 0 0 1 0 2.113L72.72 160.9a1.478 1.478 0 0 1-2.118 0l-4.342-4.28a1.506 1.506 0 0 1-.424-1.074 1.418 1.418 0 0 1 .442-1.058z"/></g><g id="wk-text-3" data-name="wk-text"><path id="wk-text-down-3" data-name="wk-text-down" class="cls-5" d="M94.938 147.719h15.751v4.093H94.938z"/><path id="wk-text-up-3" data-name="wk-text-up" class="cls-5" d="M94.938 156.781h15.751v4.125H94.938z"/></g></g><g id="wk-clip"><circle id="wk-circle" class="cls-6" cx="101.547" cy="33.016" r="14.078"/><path id="wk-light" fill="#dde079" d="M66 38.781h71.156v9.906H66z"/><path id="wk-dark" class="cls-6" d="M68 33.031h67.156a2 2 0 0 1 2 2v6.25H66v-6.25a2 2 0 0 1 2-2z"/><circle id="wk-hole" cx="101.594" cy="31.375" r="4.125" fill="#fff"/></g><g id="wk-pencil"><path id="wk-painted-area" d="M164.508 77.59L186 77.579 185.963 151l-21.492.011z" fill="#fab007" fill-rule="evenodd"/><path id="wk-white-pinted-area" class="cls-2" d="M164.483 75.123L186 75.111v2.441l-21.518.012v-2.441z"/><path id="wk-shine" d="M171.956 77.586h6.6L178.515 151h-6.6z" fill="#ffbb21" fill-rule="evenodd"/><path id="wk-sharped-area" d="M164.471 151.007l21.518-.007-10.769 21.452z" fill="#ffdba3" fill-rule="evenodd"/><path id="wk-graphite" d="M171.937 165.851h6.623l-3.314 6.6z" fill="#333" fill-rule="evenodd"/><path id="wk-eraser" d="M166.643 58.6l17.214-.009a2.173 2.173 0 0 1 2.15 2.2L186 75.086l-21.518.011.008-14.297a2.178 2.178 0 0 1 2.153-2.2z" fill="#ff8484" fill-rule="evenodd"/></g></svg>