<svg id="wk-mountains" xmlns="http://www.w3.org/2000/svg" width="202" height="202"><defs><style>.cls-3{fill-rule:evenodd;fill:#e6f3ff}</style></defs><g id="wk-sun"><ellipse id="wk-sun-2" data-name="wk-sun" cx="83.609" cy="86.516" rx="13.609" ry="13.578" fill="#e17642"/></g><g id="wk-mountain-small"><path id="wk-mountain" d="M7 161l23.526-42.016 10.587-4.326L69.3 73.865l20.626 51.3 7.646 5.561 10 30.277H7z" fill-rule="evenodd" fill="#34495e"/><path id="wk-snow" class="cls-3" d="M82.213 105.559L69.163 72.92l-21.75 31.551 7.612-3.264 5.438 4.352 4.35-4.352 6.525 5.44s5.007-5.056 5.438-4.352 5.437 3.264 5.437 3.264z"/></g><g id="wk-mountain-big"><path id="wk-mountain-2" data-name="wk-mountain" d="M58.7 161l31.88-56.935 14.348-5.86 38.822-55.26 27.338 69.493 10.362 7.535L195 161H58.7z" fill="#304254" fill-rule="evenodd"/><path id="wk-snow-2" data-name="wk-snow" class="cls-3" d="M163.978 90.718L144.18 42l-31.9 44.388 11-3.248 5.5 6.5 9.9-4.331 5.5 5.414 7.7-4.331z"/></g></svg>