<svg xmlns="http://www.w3.org/2000/svg" width="202" height="202"><path d="M43.835 31.88h114.33l-19.175 139.2a1.919 1.919 0 0 1-1.917 1.92H64.927a1.919 1.919 0 0 1-1.918-1.92z" fill-rule="evenodd" fill="#c3e3f8"/><path data-name="wk-milk" d="M56.3 85.64c17.281-27.733 66.725 3.508 93.238-23.04.711-4.5-15.339 104.64-15.339 104.64a1.919 1.919 0 0 1-1.918 1.92h-62.56a1.919 1.919 0 0 1-1.917-1.92S56.535 91.092 56.3 85.64z" fill="#fff" fill-rule="evenodd"/><rect x="40" y="29" width="122" height="10.563" rx="2" ry="2" fill="#bfdef2"/></svg>