<svg id="wk-mouse" xmlns="http://www.w3.org/2000/svg" width="202" height="202" viewBox="0 0 202 202">
  <metadata><?xpacket begin="﻿" id="W5M0MpCehiHzreSzNTczkc9d"?>
<x:xmpmeta xmlns:x="adobe:ns:meta/" x:xmptk="Adobe XMP Core 5.6-c140 79.160451, 2017/05/06-01:08:21        ">
   <rdf:RDF xmlns:rdf="http://www.w3.org/1999/02/22-rdf-syntax-ns#">
      <rdf:Description rdf:about=""/>
   </rdf:RDF>
</x:xmpmeta>
                                                                                                    
                                                                                                    
                                                                                                    
                                                                                                    
                                                                                                    
                                                                                                    
                                                                                                    
                                                                                                    
                                                                                                    
                                                                                                    
                                                                                                    
                                                                                                    
                                                                                                    
                                                                                                    
                                                                                                    
                                                                                                    
                                                                                                    
                                                                                                    
                                                                                                    
                                                                                                    
                           
<?xpacket end="w"?></metadata>
<defs>
    <style>
      .cls-1 {
        fill: #bfd9ee;
      }

      .cls-2 {
        fill: #91bde2;
      }

      .cls-2, .cls-3, .cls-4 {
        fill-rule: evenodd;
      }

      .cls-3 {
        fill: #658aa9;
      }

      .cls-4 {
        fill: #79a7cd;
      }
    </style>
  </defs>
  <rect id="wk-mouse-body" class="cls-1" x="56" y="24" width="90" height="154" rx="40" ry="40"/>
  <path id="wk-mouse-clicks" class="cls-2" d="M58.323,101.009V68.678a42.678,42.678,0,0,1,85.354,0v32.331H58.323Zm2.344-32.686c-0.014.433-.021,30.358-0.021,30.358H99.469V29.434A40.287,40.287,0,0,0,60.666,68.323Zm80.661-.194a40.288,40.288,0,0,0-38.8-38.695V98.681h38.823S141.345,68.625,141.327,68.129Z"/>
  <path id="wk-scroll-hole" class="cls-3" d="M101,45.557c2.138,0,3.871,1.379,3.871,3.079V62.494c0,1.7-1.733,3.08-3.871,3.08s-3.871-1.379-3.871-3.08V48.636C97.129,46.935,98.862,45.557,101,45.557Z"/>
  <path id="wk-scroller" class="cls-4" d="M101,47.1a2.884,2.884,0,0,1,3.1,2.606V61.429a3.143,3.143,0,0,1-6.194,0V49.7A2.883,2.883,0,0,1,101,47.1Z"/>
</svg>
