<svg xmlns="http://www.w3.org/2000/svg" width="202" height="202"><rect x="56" y="24" width="90" height="154" rx="40" ry="40" fill="#bfd9ee"/><path d="M58.323 101.009V68.678a42.678 42.678 0 0 1 85.354 0v32.331H58.323zm2.344-32.686c-.014.433-.021 30.358-.021 30.358h38.823V29.434a40.287 40.287 0 0 0-38.803 38.889zm80.661-.194a40.288 40.288 0 0 0-38.8-38.695v69.247h38.823s-.006-30.056-.024-30.552z" fill-rule="evenodd" fill="#91bde2"/><path d="M101 45.557c2.138 0 3.871 1.379 3.871 3.079v13.858c0 1.7-1.733 3.08-3.871 3.08s-3.871-1.379-3.871-3.08V48.636c0-1.701 1.733-3.079 3.871-3.079z" fill="#658aa9" fill-rule="evenodd"/><path d="M101 47.1a2.884 2.884 0 0 1 3.1 2.606v11.723a3.143 3.143 0 0 1-6.194 0V49.7A2.883 2.883 0 0 1 101 47.1z" fill="#79a7cd" fill-rule="evenodd"/></svg>