<svg id="wk-message" xmlns="http://www.w3.org/2000/svg" width="222" height="222" viewBox="0 0 222 222">
  <metadata><?xpacket begin="﻿" id="W5M0MpCehiHzreSzNTczkc9d"?>
<x:xmpmeta xmlns:x="adobe:ns:meta/" x:xmptk="Adobe XMP Core 5.6-c140 79.160451, 2017/05/06-01:08:21        ">
   <rdf:RDF xmlns:rdf="http://www.w3.org/1999/02/22-rdf-syntax-ns#">
      <rdf:Description rdf:about=""/>
   </rdf:RDF>
</x:xmpmeta>
                                                                                                    
                                                                                                    
                                                                                                    
                                                                                                    
                                                                                                    
                                                                                                    
                                                                                                    
                                                                                                    
                                                                                                    
                                                                                                    
                                                                                                    
                                                                                                    
                                                                                                    
                                                                                                    
                                                                                                    
                                                                                                    
                                                                                                    
                                                                                                    
                                                                                                    
                                                                                                    
                           
<?xpacket end="w"?></metadata>
<defs>
    <style>
      .cls-1 {
        fill: #ff5353;
      }

      .cls-1, .cls-2, .cls-3 {
        fill-rule: evenodd;
      }

      .cls-2 {
        fill: #fff;
      }

      .cls-3 {
        fill: #6172dd;
      }
    </style>
  </defs>
  <path id="wk-red-chat" class="cls-1" d="M121.667,155.289H43.909L33.246,166,22.582,155.289H20.334A5.345,5.345,0,0,1,15,149.933V88.341a5.345,5.345,0,0,1,5.334-5.356H121.667A5.345,5.345,0,0,1,127,88.341v61.592A5.345,5.345,0,0,1,121.667,155.289Z"/>
  <path id="wk-txt" class="cls-2" d="M26.011,116.99V112h90.979v4.992H26.011Zm0-21h90.979v4.992H26.011V95.994Zm42.979,37H26.011V128H68.99v4.992Z"/>
  <path id="wk-blue-chat" class="cls-3" d="M100.333,128.439h77.758l10.664,10.729,10.663-10.729h2.249A5.35,5.35,0,0,0,207,123.073V61.366A5.35,5.35,0,0,0,201.667,56H100.333A5.35,5.35,0,0,0,95,61.366v61.707A5.35,5.35,0,0,0,100.333,128.439Z"/>
  <path id="wk-txt-2" data-name="wk-txt" class="cls-2" d="M106.01,91V86.012h90.979V91H106.01Zm0-22h90.979V74H106.01V69.008Zm42.98,38H106.011v-5.021H148.99v5.021Z"/>
</svg>
