<svg xmlns="http://www.w3.org/2000/svg" width="202" height="202"><rect x="85.875" y="55" width="94.437" height="48.5" rx="2" ry="2" fill="#46b566"/><path d="M148.556 81.764v-4.182h23.4v4.182h-23.4zm0-11.709h15.879v4.182h-15.879v-4.182zm-7.685 9.145a8.53 8.53 0 0 1 2.851 2.565 5.864 5.864 0 0 1 .907 3.265 6.459 6.459 0 0 1-2.709 5.417 14.4 14.4 0 0 1-7.586 2.449v4.346h-3.227V92.98a28.711 28.711 0 0 1-10.083-1.823v-5.6A33.319 33.319 0 0 0 131.107 88v-6.573l-1.579-.551a18.039 18.039 0 0 1-6.608-3.593 6.518 6.518 0 0 1-1.943-4.8 6.046 6.046 0 0 1 2.674-5.056 14.541 14.541 0 0 1 7.456-2.407v-3.246h3.227v3.159a29.288 29.288 0 0 1 9.753 1.951l-2.214 4.961a27.818 27.818 0 0 0-7.539-1.654v6.254a38.112 38.112 0 0 1 6.537 2.755zm-6.537 8.65q3.2-.487 3.2-2.5a1.84 1.84 0 0 0-.8-1.505 10.813 10.813 0 0 0-2.4-1.272v5.277zm-3.227-17.575q-3.039.4-3.039 2.2a1.919 1.919 0 0 0 .718 1.537 8.75 8.75 0 0 0 2.321 1.24v-4.976zm-30.189 14.834H116.8v4.182h-15.882v-4.182zM93.4 77.582h23.4v4.182H93.4v-4.182zm7.522-7.527H116.8v4.182h-15.882v-4.182zm63.517 19.236h-15.883v-4.182h15.879v4.182z" fill-rule="evenodd" fill="#288944"/><path d="M180.172 127.171S145.575 147 122.371 147c-18.369 0-46.178-11.472-60.6-15.863-6.211-.321-11.84 0-11.84 0V83.549s4.789-.187 10.539-.039a10.1 10.1 0 0 1 1.17-.074h56.816a10.036 10.036 0 1 1 0 20.073H88.978c12.028 8.362 24.9 15.731 34.978 15.731 22.644 0 47.585-12.532 56.216-11.9 15.367 5.08 0 19.831 0 19.831z" fill="#ffd797" fill-rule="evenodd"/><path fill="#fff" d="M30.25 75.219h19.719v63.062H30.25z"/><path d="M14 67.546l28.415 6.691v65.237L14 146.163V67.546z" fill="#e85d5d" fill-rule="evenodd"/></svg>