<svg id="wk-money-coins" xmlns="http://www.w3.org/2000/svg" width="202" height="202"><defs><style>.cls-1{fill:#ffba00}.cls-1,.cls-2,.cls-4{fill-rule:evenodd}.cls-2{fill:#ecac00}.cls-4{fill:#e3a500}</style></defs><g id="wk-coins-a"><g id="wk-coin-f"><path id="wk-coin-inside" class="cls-1" d="M88.307 141.131a81.658 81.658 0 0 1-8.824 1.987 74.279 74.279 0 0 1 9.093 2.931l-.268 15.83S58.857 171 21 161.879v-15.738a78.165 78.165 0 0 1 8.975-3.156A144.236 144.236 0 0 1 21 141.131v-15.738a78.173 78.173 0 0 1 8.976-3.156A144.414 144.414 0 0 1 21 120.383v-15.738a78.375 78.375 0 0 1 8.976-3.157A144.395 144.395 0 0 1 21 99.635V83.9a78.3 78.3 0 0 1 8.975-3.156A144.948 144.948 0 0 1 21 78.891V63.148a78.308 78.308 0 0 1 8.976-3.156A144.414 144.414 0 0 1 21 58.138V42.4c33.912-14.342 67.575-.091 67.575-.091l-.268 15.83a81.673 81.673 0 0 1-8.825 1.987 74.267 74.267 0 0 1 9.093 2.932l-.268 15.83a81.671 81.671 0 0 1-8.824 1.987 74.273 74.273 0 0 1 9.093 2.932l-.268 15.83a81.628 81.628 0 0 1-8.825 1.987 74.292 74.292 0 0 1 9.093 2.931l-.268 15.83a81.656 81.656 0 0 1-8.825 1.987 74.284 74.284 0 0 1 9.093 2.931z"/><path id="wk-coin-outside" class="cls-2" d="M21 161.879v-15.738c31.779 12.477 67.575-.014 67.575-.092v15.961S58.857 171 21 161.879zm0-20.748v-15.738c31.779 12.477 67.575-.014 67.575-.092v15.961s-29.718 8.991-67.575-.131zm0-20.748v-15.738c31.779 12.477 67.575-.014 67.575-.092v15.96s-29.718 8.992-67.575-.13zm0-20.748V83.9c31.779 12.478 67.575-.014 67.575-.091v15.96S58.857 108.757 21 99.635zm0-20.748V63.148c31.779 12.477 67.575-.014 67.575-.091v15.96S58.857 88.009 21 78.887zm0-20.748V42.4c31.779 12.478 67.575-.014 67.575-.091v15.96S58.857 67.26 21 58.139z"/></g></g><g id="wk-coins-b"><g id="wk-coin-a"><path id="ki-coin-inside" class="cls-1" d="M92.55 146.141c33.912-14.342 67.575-.092 67.575-.092l-.268 15.83s-29.45 9.122-67.307 0v-15.738z"/></g><g id="wk-coin-b"><path id="ki-coin-inside-2" data-name="ki-coin-inside" class="cls-1" d="M92.55 125.393c33.912-14.342 67.575-.092 67.575-.092l-.268 15.83s-29.45 9.122-67.307 0v-15.738z"/></g><g id="wk-coin-c"><path id="wk-coin-inside-2" data-name="wk-coin-inside" class="cls-1" d="M92.55 104.645c33.912-14.342 67.575-.092 67.575-.092l-.268 15.83s-29.45 9.122-67.307 0v-15.738z"/><path id="wk-coin-outside-2" data-name="wk-coin-outside" class="cls-2" d="M92.55 161.879v-15.738c31.778 12.477 67.575-.014 67.575-.092v15.961s-29.718 8.99-67.575-.131zm0-20.748v-15.738c31.778 12.477 67.575-.014 67.575-.092v15.961s-29.718 8.991-67.575-.131zm0-20.748v-15.738c31.778 12.477 67.575-.014 67.575-.092v15.96s-29.718 8.992-67.575-.13z"/></g></g><g id="ki-front-coin"><circle id="wk-back-circle" cx="145.813" cy="131.688" r="34.188" fill="#ffbe12"/><path id="wk-back-lines" class="cls-4" d="M145.812 97.375h.813V166h-.813V97.375zm-34.187 34.313H180v.781h-68.375v-.781zm58.362-24.266l.563.564-48.345 48.528-.562-.565zm-48.344 0l48.344 48.527-.562.565-48.345-48.528zm36.978-7.552l.737.3-25.612 63.63-.737-.3zm-44.5 18.961l63.392 25.709-.3.74-63.392-25.709zm63.163-.553l.311.734-62.935 26.816-.31-.735zM132.458 100.1l26.714 63.173-.732.312-26.714-63.173zm19.88-2.1l.78.152-13.045 67.367-.781-.152zm-40.08 27.136l67.114 13.1-.152.783-67.114-13.095zm61.9-12.641l.444.662-56.681 38.376-.445-.661zm-47.458-9.257l38.232 56.9-.659.446-38.232-56.9zm37.734-.331l.667.435-37.238 57.558-.667-.435zM117.145 113l57.34 37.377-.433.67-57.34-37.378zm62.108 11.554l.165.781-66.876 14.265-.165-.78zm-40.546-26.43l14.215 67.129-.777.166-14.215-67.132z"/><ellipse id="wk-circle" cx="146" cy="131.5" rx="30" ry="30.5" fill="#e3a500"/><ellipse id="wk-circle-outer" cx="146" cy="131.5" rx="28" ry="28.5" fill="#f7b401"/><path id="wk-_-sign-depth" data-name="wk-$-sign-depth" class="cls-4" d="M160.175 139.907c0-6.856-5.74-8.183-10.975-9.615v-9.576a13.493 13.493 0 0 1 6.848 3.688l3.372-4.451a16.922 16.922 0 0 0-10.22-4.824v-4.788h-3.975v4.788c-6.493.563-10.62 4.824-10.62 10.043 0 6.651 5.436 8.577 10.62 9.907v10.375c-3.624-.563-6.442-2.937-8.405-5.035l-3.272 4.6c2.668 2.865 6.442 4.808 11.677 5.218v4.787h3.975v-4.787c7.55-.712 10.975-5.111 10.975-10.33zm-19.53-15.145c0-2.3 1.711-3.74 4.58-4.046v7.98c-2.668-.768-4.58-1.938-4.58-3.934zm8.555 20.692v-9.577c2.819.87 4.985 2.239 4.985 4.593 0 1.945-1.512 4.472-4.985 4.984z"/><path id="wk-_-sign" data-name="wk-$-sign" d="M159.175 138.907c0-6.856-5.74-8.183-10.975-9.615v-9.576a13.493 13.493 0 0 1 6.848 3.688l3.372-4.451a16.922 16.922 0 0 0-10.22-4.824v-4.788h-3.975v4.788c-6.493.563-10.62 4.824-10.62 10.043 0 6.651 5.436 8.577 10.62 9.907v10.375c-3.624-.563-6.442-2.937-8.405-5.035l-3.272 4.6c2.668 2.865 6.442 4.808 11.677 5.218v4.787h3.975v-4.787c7.55-.712 10.975-5.111 10.975-10.33zm-19.53-15.145c0-2.3 1.711-3.74 4.58-4.046v7.98c-2.668-.768-4.58-1.938-4.58-3.934zm8.555 20.692v-9.577c2.819.87 4.985 2.239 4.985 4.593 0 1.945-1.512 4.472-4.985 4.984z" fill="#ffce0a" fill-rule="evenodd"/></g></svg>