<svg id="wk-magnify-glass" xmlns="http://www.w3.org/2000/svg" width="202" height="202"><defs><style>.cls-1{fill:#34495e;fill-rule:evenodd}</style></defs><path id="wk-body" class="cls-1" d="M49.618 48.565a63.49 63.49 0 1 1 0 89.673 63.688 63.688 0 0 1 0-89.673z"/><path class="cls-1" d="M124.556 125.4a6.453 6.453 0 0 1 9.151 0l34.452 34.578a6.483 6.483 0 1 1-9.151 9.185l-34.452-34.578a6.512 6.512 0 0 1 0-9.185z"/><circle id="wk-glass" cx="94.578" cy="93.406" r="52.141" fill="#e4f2ff"/><path id="wk-shine" d="M129.6 121.116c15.672-28.431 8.721-65.333-34.67-71.154 2.617-.689 54.117 14.449 34.67 71.154z" fill="#fff" fill-rule="evenodd"/></svg>