<svg id="wk-mufflers" xmlns="http://www.w3.org/2000/svg" width="276" height="276" viewBox="0 0 276 276">
  <metadata><?xpacket begin="﻿" id="W5M0MpCehiHzreSzNTczkc9d"?>
<x:xmpmeta xmlns:x="adobe:ns:meta/" x:xmptk="Adobe XMP Core 5.6-c140 79.160451, 2017/05/06-01:08:21        ">
   <rdf:RDF xmlns:rdf="http://www.w3.org/1999/02/22-rdf-syntax-ns#">
      <rdf:Description rdf:about=""/>
   </rdf:RDF>
</x:xmpmeta>
                                                                                                    
                                                                                                    
                                                                                                    
                                                                                                    
                                                                                                    
                                                                                                    
                                                                                                    
                                                                                                    
                                                                                                    
                                                                                                    
                                                                                                    
                                                                                                    
                                                                                                    
                                                                                                    
                                                                                                    
                                                                                                    
                                                                                                    
                                                                                                    
                                                                                                    
                                                                                                    
                           
<?xpacket end="w"?></metadata>
<defs>
    <style>
      .cls-1 {
        fill: #e3e3e3;
      }

      .cls-2 {
        fill: #333;
      }

      .cls-2, .cls-3, .cls-4, .cls-5, .cls-6, .cls-7, .cls-8 {
        fill-rule: evenodd;
      }

      .cls-3 {
        fill: #e9545a;
      }

      .cls-4 {
        fill: #283c87;
      }

      .cls-5 {
        fill: #c3343a;
      }

      .cls-6 {
        fill: #3a53b0;
      }

      .cls-7 {
        fill: #7791ee;
      }

      .cls-8 {
        fill: #4e6bd7;
      }
    </style>
  </defs>
  <g id="wk-poles">
    <rect id="wk-poles-2" data-name="wk-poles" class="cls-1" x="29" y="29" width="216" height="8" rx="4" ry="4"/>
  </g>
  <g id="wk-b">
    <g id="wk-hanger">
      <path id="wk-hanger-2" data-name="wk-hanger" class="cls-2" d="M152.5,95.935H50.2s-15.443,1.133-3.986-6.35c14.723-9.542,41.844-27.841,49.645-33.113V52.541c-6.408-.92-12.422-7.144-12.422-13.817a14.235,14.235,0,0,1,13.8-13.816,12.783,12.783,0,0,1,9.1,4.091H98v0.111c-0.253-.021-0.5-0.057-0.762-0.057a9.926,9.926,0,0,0-9.661,9.672A9.926,9.926,0,0,0,97.238,48.4a20.084,20.084,0,0,0,2.76,0v7.9c7.944,5.148,38.05,24.631,53.214,34.07C164.283,96.71,152.5,95.935,152.5,95.935Zm-13.974-9.163L98.066,61.008,60.089,86.189c-13.357,6.871,2.922,4.762,2.922,4.762H138S150.656,92.388,138.526,86.772ZM107,40a2,2,0,0,1-2-2V37h4v1A2,2,0,0,1,107,40Z"/>
    </g>
    <g id="wk-left">
      <path id="wk-back-fur" class="cls-3" d="M90.973,197.372V186.288H95v11.084H90.973ZM85.94,186.288h4.026v11.084H85.94V186.288Zm-5.033,0h4.026v11.084H80.907V186.288Zm-5.033,0H79.9v11.084H75.874V186.288Zm-5.033,0h4.026v11.084H70.841V186.288Zm-5.033,0h4.026v11.084H65.809V186.288Zm-5.033,0H64.8v11.084H60.776V186.288Z"/>
      <path id="wk-back-muffler" class="cls-4" d="M58.762,88.527H94.994S93.6,105.8,93.6,126.048c0,11.629,1.394,24.239,1.394,35.119v28.158H58.762s1.393-13.626,1.393-30.858c0-11.512-1.393-24.632-1.393-36.375V88.527Z"/>
      <path id="wk-front-fur" class="cls-5" d="M84.934,308.22V297.136H88.96V308.22H84.934ZM79.9,297.136h4.026V308.22H79.9V297.136Zm-5.033,0h4.026V308.22H74.868V297.136Zm-5.033,0h4.026V308.22H69.835V297.136Zm-5.033,0h4.026V308.22H64.8V297.136Zm-5.033,0H63.8V308.22H59.769V297.136Zm-5.033,0h4.026V308.22H54.736V297.136Z"/>
      <path id="wk-front-muffler" class="cls-6" d="M54.117,88.527H89.972s-1.379,28.657-1.379,64.88V255.571c0,26.082.367,44.588,0.367,44.588H54.736s0.76-29.09.76-65.711c0-27.322-2.758-58.829-2.758-85.558C52.738,114.83,54.117,88.527,54.117,88.527Z"/>
    </g>
    <g id="wk-right">
      <path id="wk-back-fur-2" data-name="wk-back-fur" class="cls-3" d="M137.973,197.372V186.288H142v11.084h-4.026Zm-5.033-11.084h4.026v11.084H132.94V186.288Zm-5.033,0h4.027v11.084h-4.027V186.288Zm-5.033,0H126.9v11.084h-4.027V186.288Zm-5.033,0h4.027v11.084h-4.027V186.288Zm-5.033,0h4.027v11.084h-4.027V186.288Zm-5.033,0H111.8v11.084h-4.027V186.288Z"/>
      <path id="wk-back-muffler-2" data-name="wk-back-muffler" class="cls-4" d="M105.762,88.527h36.232S140.6,105.8,140.6,126.048c0,11.629,1.394,24.239,1.394,35.119v28.158H105.762s1.394-13.626,1.394-30.858c0-11.512-1.394-24.632-1.394-36.375V88.527Z"/>
      <path id="wk-front-fur-2" data-name="wk-front-fur" class="cls-5" d="M131.934,308.22V297.136h4.026V308.22h-4.026ZM126.9,297.136h4.026V308.22H126.9V297.136Zm-5.033,0h4.026V308.22h-4.026V297.136Zm-5.033,0h4.026V308.22h-4.026V297.136Zm-5.033,0h4.026V308.22H111.8V297.136Zm-5.033,0H110.8V308.22h-4.026V297.136Zm-5.033,0h4.026V308.22h-4.026V297.136Z"/>
      <path id="wk-front-muffler-2" data-name="wk-front-muffler" class="cls-6" d="M101.117,88.527h35.855s-1.379,28.657-1.379,64.88V255.571c0,26.082.367,44.588,0.367,44.588H101.736s0.76-29.09.76-65.711c0-27.322-2.758-58.829-2.758-85.558C99.738,114.83,101.117,88.527,101.117,88.527Z"/>
    </g>
  </g>
  <g id="wk-a">
    <g id="wk-hanger-3" data-name="wk-hanger">
      <path id="wk-hanger-4" data-name="wk-hanger" class="cls-2" d="M227.5,95.935H125.2s-15.443,1.133-3.986-6.35c14.724-9.542,41.844-27.841,49.645-33.113V52.541c-6.408-.92-12.422-7.144-12.422-13.817a14.235,14.235,0,0,1,13.8-13.816,12.783,12.783,0,0,1,9.1,4.091H173v0.111c-0.253-.021-0.5-0.057-0.762-0.057a9.926,9.926,0,0,0-9.661,9.672,9.925,9.925,0,0,0,9.661,9.671,20.093,20.093,0,0,0,2.761,0v7.9c7.944,5.148,38.05,24.631,53.214,34.07C239.283,96.71,227.5,95.935,227.5,95.935Zm-13.974-9.163-40.46-25.765L135.089,86.189c-13.357,6.871,2.921,4.762,2.921,4.762H213S225.656,92.388,213.526,86.772ZM182,40a2,2,0,0,1-2-2V37h4v1A2,2,0,0,1,182,40Z"/>
    </g>
    <g id="wk-left-2" data-name="wk-left">
      <path id="wk-back-fur-3" data-name="wk-back-fur" class="cls-3" d="M165.973,197.372V186.288H170v11.084h-4.026Zm-5.033-11.084h4.026v11.084H160.94V186.288Zm-5.033,0h4.027v11.084h-4.027V186.288Zm-5.033,0H154.9v11.084h-4.027V186.288Zm-5.033,0h4.027v11.084h-4.027V186.288Zm-5.033,0h4.027v11.084h-4.027V186.288Zm-5.033,0H139.8v11.084h-4.027V186.288Z"/>
      <path id="wk-back-muffler-3" data-name="wk-back-muffler" class="cls-7" d="M133.762,88.527h36.232S168.6,105.8,168.6,126.048c0,11.629,1.394,24.239,1.394,35.119v28.158H133.762s1.394-13.626,1.394-30.858c0-11.512-1.394-24.632-1.394-36.375V88.527Z"/>
      <path id="wk-front-fur-3" data-name="wk-front-fur" class="cls-3" d="M159.934,308.22V297.136h4.026V308.22h-4.026ZM154.9,297.136h4.026V308.22H154.9V297.136Zm-5.033,0h4.026V308.22h-4.026V297.136Zm-5.033,0h4.026V308.22h-4.026V297.136Zm-5.033,0h4.026V308.22H139.8V297.136Zm-5.033,0h4.026V308.22h-4.026V297.136Zm-5.033,0h4.026V308.22h-4.026V297.136Z"/>
      <path id="wk-front-muffler-3" data-name="wk-front-muffler" class="cls-8" d="M129.117,88.527h35.855s-1.379,28.657-1.379,64.88V255.571c0,26.082.367,44.588,0.367,44.588H129.736s0.76-29.09.76-65.711c0-27.322-2.758-58.829-2.758-85.558C127.738,114.83,129.117,88.527,129.117,88.527Z"/>
    </g>
    <g id="wk-right-2" data-name="wk-right">
      <path id="wk-back-fur-4" data-name="wk-back-fur" class="cls-3" d="M212.973,197.372V186.288H217v11.084h-4.026Zm-5.033-11.084h4.026v11.084H207.94V186.288Zm-5.033,0h4.027v11.084h-4.027V186.288Zm-5.033,0H201.9v11.084h-4.027V186.288Zm-5.033,0h4.027v11.084h-4.027V186.288Zm-5.033,0h4.027v11.084h-4.027V186.288Zm-5.033,0H186.8v11.084h-4.027V186.288Z"/>
      <path id="wk-back-muffler-4" data-name="wk-back-muffler" class="cls-7" d="M180.762,88.527h36.232S215.6,105.8,215.6,126.048c0,11.629,1.394,24.239,1.394,35.119v28.158H180.762s1.394-13.626,1.394-30.858c0-11.512-1.394-24.632-1.394-36.375V88.527Z"/>
      <path id="wk-front-fur-4" data-name="wk-front-fur" class="cls-3" d="M206.934,308.22V297.136h4.026V308.22h-4.026ZM201.9,297.136h4.026V308.22H201.9V297.136Zm-5.033,0h4.026V308.22h-4.026V297.136Zm-5.033,0h4.026V308.22h-4.026V297.136Zm-5.033,0h4.026V308.22H186.8V297.136Zm-5.033,0H185.8V308.22h-4.026V297.136Zm-5.033,0h4.026V308.22h-4.026V297.136Z"/>
      <path id="wk-front-muffler-4" data-name="wk-front-muffler" class="cls-8" d="M176.117,88.527h35.855s-1.379,28.657-1.379,64.88V255.571c0,26.082.367,44.588,0.367,44.588H176.736s0.76-29.09.76-65.711c0-27.322-2.758-58.829-2.758-85.558C174.738,114.83,176.117,88.527,176.117,88.527Z"/>
    </g>
  </g>
</svg>
