<svg id="wk-message" xmlns="http://www.w3.org/2000/svg" width="222" height="222"><defs><style>.cls-2{fill-rule:evenodd;fill:#fff}</style></defs><path id="wk-red-chat" d="M121.667 155.289H43.909L33.246 166l-10.664-10.711h-2.248A5.345 5.345 0 0 1 15 149.933V88.341a5.345 5.345 0 0 1 5.334-5.356h101.333A5.345 5.345 0 0 1 127 88.341v61.592a5.345 5.345 0 0 1-5.333 5.356z" fill-rule="evenodd" fill="#ff5353"/><path id="wk-txt" class="cls-2" d="M26.011 116.99V112h90.979v4.992H26.011zm0-21h90.979v4.992H26.011v-4.988zm42.979 37H26.011V128H68.99v4.992z"/><path id="wk-blue-chat" d="M100.333 128.439h77.758l10.664 10.729 10.663-10.729h2.249a5.35 5.35 0 0 0 5.333-5.366V61.366A5.35 5.35 0 0 0 201.667 56H100.333A5.35 5.35 0 0 0 95 61.366v61.707a5.35 5.35 0 0 0 5.333 5.366z" fill="#6172dd" fill-rule="evenodd"/><path id="wk-txt-2" data-name="wk-txt" class="cls-2" d="M106.01 91v-4.988h90.979V91H106.01zm0-22h90.979v5H106.01v-4.992zm42.98 38h-42.979v-5.021h42.979V107z"/></svg>