<svg id="wk-money-process" xmlns="http://www.w3.org/2000/svg" width="202" height="202" viewBox="0 0 202 202">
  <metadata><?xpacket begin="﻿" id="W5M0MpCehiHzreSzNTczkc9d"?>
<x:xmpmeta xmlns:x="adobe:ns:meta/" x:xmptk="Adobe XMP Core 5.6-c140 79.160451, 2017/05/06-01:08:21        ">
   <rdf:RDF xmlns:rdf="http://www.w3.org/1999/02/22-rdf-syntax-ns#">
      <rdf:Description rdf:about=""/>
   </rdf:RDF>
</x:xmpmeta>
                                                                                                    
                                                                                                    
                                                                                                    
                                                                                                    
                                                                                                    
                                                                                                    
                                                                                                    
                                                                                                    
                                                                                                    
                                                                                                    
                                                                                                    
                                                                                                    
                                                                                                    
                                                                                                    
                                                                                                    
                                                                                                    
                                                                                                    
                                                                                                    
                                                                                                    
                                                                                                    
                           
<?xpacket end="w"?></metadata>
<defs>
    <style>
      .cls-1 {
        fill: #46b566;
      }

      .cls-2 {
        fill: #288944;
      }

      .cls-2, .cls-3, .cls-5 {
        fill-rule: evenodd;
      }

      .cls-3 {
        fill: #ffd797;
      }

      .cls-4 {
        fill: #fff;
      }

      .cls-5 {
        fill: #e85d5d;
      }
    </style>
  </defs>
  <rect id="wk-note-paper" class="cls-1" x="85.875" y="55" width="94.437" height="48.5" rx="2" ry="2"/>
  <path id="wk-money-content" class="cls-2" d="M148.556,81.764V77.582h23.4v4.182h-23.4Zm0-11.709h15.879v4.182H148.556V70.055ZM140.871,79.2a8.53,8.53,0,0,1,2.851,2.565,5.864,5.864,0,0,1,.907,3.265,6.459,6.459,0,0,1-2.709,5.417,14.4,14.4,0,0,1-7.586,2.449v4.346h-3.227V92.98a28.711,28.711,0,0,1-10.083-1.823v-5.6A33.319,33.319,0,0,0,131.107,88V81.427l-1.579-.551a18.039,18.039,0,0,1-6.608-3.593,6.518,6.518,0,0,1-1.943-4.8,6.046,6.046,0,0,1,2.674-5.056,14.541,14.541,0,0,1,7.456-2.407V61.774h3.227v3.159a29.288,29.288,0,0,1,9.753,1.951l-2.214,4.961a27.818,27.818,0,0,0-7.539-1.654v6.254A38.112,38.112,0,0,1,140.871,79.2Zm-6.537,8.65q3.2-.487,3.2-2.5a1.84,1.84,0,0,0-.8-1.505,10.813,10.813,0,0,0-2.4-1.272V87.85Zm-3.227-17.575q-3.039.4-3.039,2.2a1.919,1.919,0,0,0,.718,1.537,8.75,8.75,0,0,0,2.321,1.24V70.276ZM100.918,85.109H116.8v4.182H100.918V85.109ZM93.4,77.582h23.4v4.182H93.4V77.582Zm7.522-7.527H116.8v4.182H100.918V70.055Zm63.517,19.236H148.556V85.109h15.879v4.182Z"/>
  <path id="wk-palm" class="cls-3" d="M180.172,127.171S145.575,147,122.371,147c-18.369,0-46.178-11.472-60.6-15.863-6.211-.321-11.84,0-11.84,0V83.549s4.789-.187,10.539-0.039a10.1,10.1,0,0,1,1.17-.074h56.816a10.036,10.036,0,1,1,0,20.073H88.978c12.028,8.362,24.9,15.731,34.978,15.731,22.644,0,47.585-12.532,56.216-11.9C195.539,112.42,180.172,127.171,180.172,127.171Z"/>
  <rect id="wk-shirt" class="cls-4" x="30.25" y="75.219" width="19.719" height="63.062"/>
  <path id="wk-coat" class="cls-5" d="M14,67.546l28.415,6.691v65.237L14,146.163V67.546Z"/>
</svg>
