<svg id="wk-mike" xmlns="http://www.w3.org/2000/svg" width="202" height="202"><defs><style>.cls-2{fill-rule:evenodd;fill:#eadd72}</style></defs><path id="wk-handle" d="M90.421 68.849l37.493 21.531L73.3 171.217c-4.751 8.186-13.629 12.573-21.859 7.847s-9.4-13.611-4.653-21.8z" fill-rule="evenodd" fill="#2e4154"/><path id="wk-uppar-paint" class="cls-2" d="M122.364 99.943c-2.512 3.324-2.915 3.94-5.957 8.054-24.364.171-35.57-20.427-35.57-20.427l4.034-9.159s11.036 23.498 37.493 21.532z"/><path id="wk-lower-paint" class="cls-2" d="M48.6 151.934c11.646 12.46 27.879 16.01 27.879 16.01l-2.626 2.317s-12.5-1.4-25.957-14.906a22.378 22.378 0 0 1 .704-3.421z"/><path id="wk-mike-2" data-name="wk-mike" d="M139.214 26.746a35.231 35.231 0 0 1 13 48.266 35.626 35.626 0 0 1-48.525 12.933 35.231 35.231 0 0 1-13-48.266 35.626 35.626 0 0 1 48.525-12.933z" fill="#192836" fill-rule="evenodd"/></svg>