<svg id="wk-money-coins" xmlns="http://www.w3.org/2000/svg" width="202" height="202" viewBox="0 0 202 202">
  <metadata><?xpacket begin="﻿" id="W5M0MpCehiHzreSzNTczkc9d"?>
<x:xmpmeta xmlns:x="adobe:ns:meta/" x:xmptk="Adobe XMP Core 5.6-c140 79.160451, 2017/05/06-01:08:21        ">
   <rdf:RDF xmlns:rdf="http://www.w3.org/1999/02/22-rdf-syntax-ns#">
      <rdf:Description rdf:about=""/>
   </rdf:RDF>
</x:xmpmeta>
                                                                                                    
                                                                                                    
                                                                                                    
                                                                                                    
                                                                                                    
                                                                                                    
                                                                                                    
                                                                                                    
                                                                                                    
                                                                                                    
                                                                                                    
                                                                                                    
                                                                                                    
                                                                                                    
                                                                                                    
                                                                                                    
                                                                                                    
                                                                                                    
                                                                                                    
                                                                                                    
                           
<?xpacket end="w"?></metadata>
<defs>
    <style>
      .cls-1 {
        fill: #ffba00;
      }

      .cls-1, .cls-2, .cls-4, .cls-7 {
        fill-rule: evenodd;
      }

      .cls-2 {
        fill: #ecac00;
      }

      .cls-3 {
        fill: #ffbe12;
      }

      .cls-4, .cls-5 {
        fill: #e3a500;
      }

      .cls-6 {
        fill: #f7b401;
      }

      .cls-7 {
        fill: #ffce0a;
      }
    </style>
  </defs>
  <g id="wk-coins-a">
    <g id="wk-coin-f">
      <path id="wk-coin-inside" class="cls-1" d="M88.307,141.131a81.658,81.658,0,0,1-8.824,1.987,74.279,74.279,0,0,1,9.093,2.931l-0.268,15.83S58.857,171,21,161.879V146.141a78.165,78.165,0,0,1,8.975-3.156c-2.932-.513-5.923-1.118-8.975-1.854V125.393a78.173,78.173,0,0,1,8.976-3.156c-2.932-.513-5.923-1.118-8.976-1.854V104.645a78.375,78.375,0,0,1,8.976-3.157c-2.932-.512-5.923-1.118-8.976-1.853V83.9a78.3,78.3,0,0,1,8.975-3.156c-2.932-.513-5.923-1.118-8.975-1.853V63.148a78.308,78.308,0,0,1,8.976-3.156c-2.932-.513-5.923-1.118-8.976-1.854V42.4c33.912-14.342,67.575-.091,67.575-0.091l-0.268,15.83a81.673,81.673,0,0,1-8.825,1.987,74.267,74.267,0,0,1,9.093,2.932l-0.268,15.83a81.671,81.671,0,0,1-8.824,1.987,74.273,74.273,0,0,1,9.093,2.932l-0.268,15.83a81.628,81.628,0,0,1-8.825,1.987,74.292,74.292,0,0,1,9.093,2.931l-0.268,15.83a81.656,81.656,0,0,1-8.825,1.987,74.284,74.284,0,0,1,9.093,2.931Z"/>
      <path id="wk-coin-outside" class="cls-2" d="M21,161.879V146.141c31.779,12.477,67.575-.014,67.575-0.092V162.01S58.857,171,21,161.879Zm0-20.748V125.393c31.779,12.477,67.575-.014,67.575-0.092v15.961S58.857,150.253,21,141.131Zm0-20.748V104.645c31.779,12.477,67.575-.014,67.575-0.092v15.96S58.857,129.505,21,120.383Zm0-20.748V83.9c31.779,12.478,67.575-.014,67.575-0.091v15.96S58.857,108.757,21,99.635Zm0-20.748V63.148c31.779,12.477,67.575-.014,67.575-0.091v15.96S58.857,88.009,21,78.887Zm0-20.748V42.4c31.779,12.478,67.575-.014,67.575-0.091v15.96S58.857,67.26,21,58.139Z"/>
    </g>
  </g>
  <g id="wk-coins-b">
    <g id="wk-coin-a">
      <path id="ki-coin-inside" class="cls-1" d="M92.55,146.141c33.912-14.342,67.575-.092,67.575-0.092l-0.268,15.83s-29.45,9.122-67.307,0V146.141Z"/>
    </g>
    <g id="wk-coin-b">
      <path id="ki-coin-inside-2" data-name="ki-coin-inside" class="cls-1" d="M92.55,125.393c33.912-14.342,67.575-.092,67.575-0.092l-0.268,15.83s-29.45,9.122-67.307,0V125.393Z"/>
    </g>
    <g id="wk-coin-c">
      <path id="wk-coin-inside-2" data-name="wk-coin-inside" class="cls-1" d="M92.55,104.645c33.912-14.342,67.575-.092,67.575-0.092l-0.268,15.83s-29.45,9.122-67.307,0V104.645Z"/>
      <path id="wk-coin-outside-2" data-name="wk-coin-outside" class="cls-2" d="M92.55,161.879V146.141c31.778,12.477,67.575-.014,67.575-0.092V162.01S130.407,171,92.55,161.879Zm0-20.748V125.393c31.778,12.477,67.575-.014,67.575-0.092v15.961S130.407,150.253,92.55,141.131Zm0-20.748V104.645c31.778,12.477,67.575-.014,67.575-0.092v15.96S130.407,129.505,92.55,120.383Z"/>
    </g>
  </g>
  <g id="ki-front-coin">
    <circle id="wk-back-circle" class="cls-3" cx="145.813" cy="131.688" r="34.188"/>
    <path id="wk-back-lines" class="cls-4" d="M145.812,97.375h0.813V166h-0.813V97.375Zm-34.187,34.313H180v0.781H111.625v-0.781Zm58.362-24.266,0.563,0.564-48.345,48.528-0.562-.565Zm-48.344,0,48.344,48.527-0.562.565L121.08,107.986Zm36.978-7.552,0.737,0.3L133.746,163.8l-0.737-.3Zm-44.5,18.961,63.392,25.709-0.3.74-63.392-25.709Zm63.163-.553,0.311,0.734-62.935,26.816-0.31-.735ZM132.458,100.1l26.714,63.173-0.732.312-26.714-63.173Zm19.88-2.1,0.78,0.152-13.045,67.367-0.781-.152Zm-40.08,27.136,67.114,13.1-0.152.783-67.114-13.095Zm61.9-12.641,0.444,0.662-56.681,38.376-0.445-.661ZM126.7,103.238l38.232,56.9-0.659.446-38.232-56.9Zm37.734-.331,0.667,0.435L127.863,160.9l-0.667-.435ZM117.145,113l57.34,37.377-0.433.67-57.34-37.378Zm62.108,11.554,0.165,0.781L112.542,139.6l-0.165-.78Zm-40.546-26.43,14.215,67.129-0.777.166L137.93,98.287Z"/>
    <ellipse id="wk-circle" class="cls-5" cx="146" cy="131.5" rx="30" ry="30.5"/>
    <ellipse id="wk-circle-outer" class="cls-6" cx="146" cy="131.5" rx="28" ry="28.5"/>
    <path id="wk-_-sign-depth" data-name="wk-$-sign-depth" class="cls-4" d="M160.175,139.907c0-6.856-5.74-8.183-10.975-9.615v-9.576a13.493,13.493,0,0,1,6.848,3.688l3.372-4.451a16.922,16.922,0,0,0-10.22-4.824v-4.788h-3.975v4.788c-6.493.563-10.62,4.824-10.62,10.043,0,6.651,5.436,8.577,10.62,9.907v10.375c-3.624-.563-6.442-2.937-8.405-5.035l-3.272,4.6c2.668,2.865,6.442,4.808,11.677,5.218v4.787H149.2v-4.787C156.75,149.525,160.175,145.126,160.175,139.907Zm-19.53-15.145c0-2.3,1.711-3.74,4.58-4.046v7.98C142.557,127.928,140.645,126.758,140.645,124.762Zm8.555,20.692v-9.577c2.819,0.87,4.985,2.239,4.985,4.593C154.185,142.415,152.673,144.942,149.2,145.454Z"/>
    <path id="wk-_-sign" data-name="wk-$-sign" class="cls-7" d="M159.175,138.907c0-6.856-5.74-8.183-10.975-9.615v-9.576a13.493,13.493,0,0,1,6.848,3.688l3.372-4.451a16.922,16.922,0,0,0-10.22-4.824v-4.788h-3.975v4.788c-6.493.563-10.62,4.824-10.62,10.043,0,6.651,5.436,8.577,10.62,9.907v10.375c-3.624-.563-6.442-2.937-8.405-5.035l-3.272,4.6c2.668,2.865,6.442,4.808,11.677,5.218v4.787H148.2v-4.787C155.75,148.525,159.175,144.126,159.175,138.907Zm-19.53-15.145c0-2.3,1.711-3.74,4.58-4.046v7.98C141.557,126.928,139.645,125.758,139.645,123.762Zm8.555,20.692v-9.577c2.819,0.87,4.985,2.239,4.985,4.593C153.185,141.415,151.673,143.942,148.2,144.454Z"/>
  </g>
</svg>
