<svg id="wk-mufflers" xmlns="http://www.w3.org/2000/svg" width="276" height="276"><defs><style>.cls-2{fill:#333}.cls-2,.cls-3,.cls-4,.cls-5,.cls-6,.cls-7,.cls-8{fill-rule:evenodd}.cls-3{fill:#e9545a}.cls-4{fill:#283c87}.cls-5{fill:#c3343a}.cls-6{fill:#3a53b0}.cls-7{fill:#7791ee}.cls-8{fill:#4e6bd7}</style></defs><g id="wk-poles"><rect id="wk-poles-2" data-name="wk-poles" x="29" y="29" width="216" height="8" rx="4" ry="4" fill="#e3e3e3"/></g><g id="wk-b"><g id="wk-hanger"><path id="wk-hanger-2" data-name="wk-hanger" class="cls-2" d="M152.5 95.935H50.2s-15.443 1.133-3.986-6.35c14.723-9.542 41.844-27.841 49.645-33.113v-3.931c-6.408-.92-12.422-7.144-12.422-13.817a14.235 14.235 0 0 1 13.8-13.816 12.783 12.783 0 0 1 9.1 4.091H98v.111c-.253-.021-.5-.057-.762-.057a9.926 9.926 0 0 0-9.661 9.672 9.926 9.926 0 0 0 9.661 9.675 20.084 20.084 0 0 0 2.76 0v7.9c7.944 5.148 38.05 24.631 53.214 34.07 11.071 6.34-.712 5.565-.712 5.565zm-13.974-9.163l-40.46-25.764-37.977 25.181c-13.357 6.871 2.922 4.762 2.922 4.762H138s12.656 1.437.526-4.179zM107 40a2 2 0 0 1-2-2v-1h4v1a2 2 0 0 1-2 2z"/></g><g id="wk-left"><path id="wk-back-fur" class="cls-3" d="M90.973 197.372v-11.084H95v11.084h-4.027zm-5.033-11.084h4.026v11.084H85.94v-11.084zm-5.033 0h4.026v11.084h-4.026v-11.084zm-5.033 0H79.9v11.084h-4.026v-11.084zm-5.033 0h4.026v11.084h-4.026v-11.084zm-5.033 0h4.026v11.084h-4.025v-11.084zm-5.033 0H64.8v11.084h-4.024v-11.084z"/><path id="wk-back-muffler" class="cls-4" d="M58.762 88.527h36.232S93.6 105.8 93.6 126.048c0 11.629 1.394 24.239 1.394 35.119v28.158H58.762s1.393-13.626 1.393-30.858c0-11.512-1.393-24.632-1.393-36.375V88.527z"/><path id="wk-front-fur" class="cls-5" d="M84.934 308.22v-11.084h4.026v11.084h-4.026zM79.9 297.136h4.026v11.084H79.9v-11.084zm-5.033 0h4.026v11.084h-4.025v-11.084zm-5.033 0h4.026v11.084h-4.025v-11.084zm-5.033 0h4.026v11.084H64.8v-11.084zm-5.033 0H63.8v11.084h-4.031v-11.084zm-5.033 0h4.026v11.084h-4.025v-11.084z"/><path id="wk-front-muffler" class="cls-6" d="M54.117 88.527h35.855s-1.379 28.657-1.379 64.88v102.164c0 26.082.367 44.588.367 44.588H54.736s.76-29.09.76-65.711c0-27.322-2.758-58.829-2.758-85.558 0-34.06 1.379-60.363 1.379-60.363z"/></g><g id="wk-right"><path id="wk-back-fur-2" data-name="wk-back-fur" class="cls-3" d="M137.973 197.372v-11.084H142v11.084h-4.026zm-5.033-11.084h4.026v11.084h-4.026v-11.084zm-5.033 0h4.027v11.084h-4.027v-11.084zm-5.033 0h4.026v11.084h-4.027v-11.084zm-5.033 0h4.027v11.084h-4.027v-11.084zm-5.033 0h4.027v11.084h-4.027v-11.084zm-5.033 0h4.025v11.084h-4.027v-11.084z"/><path id="wk-back-muffler-2" data-name="wk-back-muffler" class="cls-4" d="M105.762 88.527h36.232S140.6 105.8 140.6 126.048c0 11.629 1.394 24.239 1.394 35.119v28.158h-36.232s1.394-13.626 1.394-30.858c0-11.512-1.394-24.632-1.394-36.375V88.527z"/><path id="wk-front-fur-2" data-name="wk-front-fur" class="cls-5" d="M131.934 308.22v-11.084h4.026v11.084h-4.026zm-5.034-11.084h4.026v11.084H126.9v-11.084zm-5.033 0h4.026v11.084h-4.026v-11.084zm-5.033 0h4.026v11.084h-4.026v-11.084zm-5.033 0h4.026v11.084H111.8v-11.084zm-5.033 0h4.032v11.084h-4.026v-11.084zm-5.033 0h4.026v11.084h-4.026v-11.084z"/><path id="wk-front-muffler-2" data-name="wk-front-muffler" class="cls-6" d="M101.117 88.527h35.855s-1.379 28.657-1.379 64.88v102.164c0 26.082.367 44.588.367 44.588h-34.224s.76-29.09.76-65.711c0-27.322-2.758-58.829-2.758-85.558 0-34.06 1.379-60.363 1.379-60.363z"/></g></g><g id="wk-a"><g id="wk-hanger-3" data-name="wk-hanger"><path id="wk-hanger-4" data-name="wk-hanger" class="cls-2" d="M227.5 95.935H125.2s-15.443 1.133-3.986-6.35c14.724-9.542 41.844-27.841 49.645-33.113v-3.931c-6.408-.92-12.422-7.144-12.422-13.817a14.235 14.235 0 0 1 13.8-13.816 12.783 12.783 0 0 1 9.1 4.091H173v.111c-.253-.021-.5-.057-.762-.057a9.926 9.926 0 0 0-9.661 9.672 9.925 9.925 0 0 0 9.661 9.671 20.093 20.093 0 0 0 2.761 0v7.9c7.944 5.148 38.05 24.631 53.214 34.07 11.07 6.344-.713 5.569-.713 5.569zm-13.974-9.163l-40.46-25.765-37.977 25.182c-13.357 6.871 2.921 4.762 2.921 4.762H213s12.656 1.437.526-4.179zM182 40a2 2 0 0 1-2-2v-1h4v1a2 2 0 0 1-2 2z"/></g><g id="wk-left-2" data-name="wk-left"><path id="wk-back-fur-3" data-name="wk-back-fur" class="cls-3" d="M165.973 197.372v-11.084H170v11.084h-4.026zm-5.033-11.084h4.026v11.084h-4.026v-11.084zm-5.033 0h4.027v11.084h-4.027v-11.084zm-5.033 0h4.026v11.084h-4.027v-11.084zm-5.033 0h4.027v11.084h-4.027v-11.084zm-5.033 0h4.027v11.084h-4.027v-11.084zm-5.033 0h4.025v11.084h-4.027v-11.084z"/><path id="wk-back-muffler-3" data-name="wk-back-muffler" class="cls-7" d="M133.762 88.527h36.232S168.6 105.8 168.6 126.048c0 11.629 1.394 24.239 1.394 35.119v28.158h-36.232s1.394-13.626 1.394-30.858c0-11.512-1.394-24.632-1.394-36.375V88.527z"/><path id="wk-front-fur-3" data-name="wk-front-fur" class="cls-3" d="M159.934 308.22v-11.084h4.026v11.084h-4.026zm-5.034-11.084h4.026v11.084H154.9v-11.084zm-5.033 0h4.026v11.084h-4.026v-11.084zm-5.033 0h4.026v11.084h-4.026v-11.084zm-5.033 0h4.026v11.084H139.8v-11.084zm-5.033 0h4.026v11.084h-4.026v-11.084zm-5.033 0h4.026v11.084h-4.026v-11.084z"/><path id="wk-front-muffler-3" data-name="wk-front-muffler" class="cls-8" d="M129.117 88.527h35.855s-1.379 28.657-1.379 64.88v102.164c0 26.082.367 44.588.367 44.588h-34.224s.76-29.09.76-65.711c0-27.322-2.758-58.829-2.758-85.558 0-34.06 1.379-60.363 1.379-60.363z"/></g><g id="wk-right-2" data-name="wk-right"><path id="wk-back-fur-4" data-name="wk-back-fur" class="cls-3" d="M212.973 197.372v-11.084H217v11.084h-4.026zm-5.033-11.084h4.026v11.084h-4.026v-11.084zm-5.033 0h4.027v11.084h-4.027v-11.084zm-5.033 0h4.026v11.084h-4.027v-11.084zm-5.033 0h4.027v11.084h-4.027v-11.084zm-5.033 0h4.027v11.084h-4.027v-11.084zm-5.033 0h4.025v11.084h-4.027v-11.084z"/><path id="wk-back-muffler-4" data-name="wk-back-muffler" class="cls-7" d="M180.762 88.527h36.232S215.6 105.8 215.6 126.048c0 11.629 1.394 24.239 1.394 35.119v28.158h-36.232s1.394-13.626 1.394-30.858c0-11.512-1.394-24.632-1.394-36.375V88.527z"/><path id="wk-front-fur-4" data-name="wk-front-fur" class="cls-3" d="M206.934 308.22v-11.084h4.026v11.084h-4.026zm-5.034-11.084h4.026v11.084H201.9v-11.084zm-5.033 0h4.026v11.084h-4.026v-11.084zm-5.033 0h4.026v11.084h-4.026v-11.084zm-5.033 0h4.026v11.084H186.8v-11.084zm-5.033 0h4.032v11.084h-4.026v-11.084zm-5.033 0h4.026v11.084h-4.026v-11.084z"/><path id="wk-front-muffler-4" data-name="wk-front-muffler" class="cls-8" d="M176.117 88.527h35.855s-1.379 28.657-1.379 64.88v102.164c0 26.082.367 44.588.367 44.588h-34.224s.76-29.09.76-65.711c0-27.322-2.758-58.829-2.758-85.558 0-34.06 1.379-60.363 1.379-60.363z"/></g></g></svg>