<svg id="wk-potato-fries" xmlns="http://www.w3.org/2000/svg" width="220" height="220" viewBox="0 0 220 220">
  <metadata><?xpacket begin="﻿" id="W5M0MpCehiHzreSzNTczkc9d"?>
<x:xmpmeta xmlns:x="adobe:ns:meta/" x:xmptk="Adobe XMP Core 5.6-c140 79.160451, 2017/05/06-01:08:21        ">
   <rdf:RDF xmlns:rdf="http://www.w3.org/1999/02/22-rdf-syntax-ns#">
      <rdf:Description rdf:about=""/>
   </rdf:RDF>
</x:xmpmeta>
                                                                                                    
                                                                                                    
                                                                                                    
                                                                                                    
                                                                                                    
                                                                                                    
                                                                                                    
                                                                                                    
                                                                                                    
                                                                                                    
                                                                                                    
                                                                                                    
                                                                                                    
                                                                                                    
                                                                                                    
                                                                                                    
                                                                                                    
                                                                                                    
                                                                                                    
                                                                                                    
                           
<?xpacket end="w"?></metadata>
<defs>
    <style>
      .cls-1 {
        fill: #e29f04;
      }

      .cls-1, .cls-2, .cls-3, .cls-4 {
        fill-rule: evenodd;
      }

      .cls-2 {
        fill: #fab007;
      }

      .cls-3 {
        fill: #e85757;
      }

      .cls-4 {
        fill: #ffcece;
      }
    </style>
  </defs>
  <path id="wk-back-fries" class="cls-1" d="M80.318,55.138L64.01,64.462l11.648,90.91,9.319-3.5ZM96.625,38.821L80.318,48.145l11.648,90.91,9.319-3.5ZM114.1,32.993L97.79,42.317l11.649,90.91,9.318-3.5Zm17.542-1.078-16.377,9.237,11.648,90.91,9.319-3.5ZM149.4,42.055l-16.662,9.586,11.649,90.911,9.319-3.5Z"/>
  <path id="wk-front-fries" class="cls-2" d="M74.14,49.66L57.232,59.007l11.737,91.2,9.389-3.508Zm16.066-16.9L73.3,42.109l11.737,91.2,9.389-3.508Zm17.757-5.915L91.039,36.2l11.751,91.2,9.4-3.508ZM124.875,26l-16.918,9.353,11.751,91.2,9.4-3.507Zm17.757,10.14L125.72,45.5l11.751,91.2,9.4-3.508ZM158.7,45.435L141.79,54.8,153.632,146l5.921-3.507Z"/>
  <path id="wk-box" class="cls-3" d="M54.855,99.507h111.29A1.846,1.846,0,0,1,168,101.343L149.452,195h-77.9L53,101.343A1.846,1.846,0,0,1,54.855,99.507Z"/>
  <path id="wk-branding" class="cls-4" d="M151.087,122.341l-4.639,21.112h-17.4a21.148,21.148,0,0,1-37.094,0h-17.4l-4.638-21.112H92.461a21.1,21.1,0,0,1,36.078,0h22.548Z"/>
</svg>
