<svg id="wk-paper" xmlns="http://www.w3.org/2000/svg" width="222" height="222"><defs><style>.cls-2,.cls-4,.cls-5{fill-rule:evenodd}.cls-2{fill:#e3e3e3}.cls-4{fill:#ebebeb}.cls-5{fill:#ebedf4;stroke:#4c4c4c;stroke-width:2px;opacity:.6}</style></defs><g id="wk-back-paper"><path id="wk-back-paper-2" data-name="wk-back-paper" d="M111.6 37.007a16.893 16.893 0 0 1 16.9 16.885v33.167h-8.877c-3.9 0-8.549-.6-12.766-.6-6.606 0-12.16.6-12.16.6V53.892A16.893 16.893 0 0 1 111.6 37.007z" fill-rule="evenodd" fill="#d2d2d2"/><path id="wk-middle-paper" class="cls-2" d="M56.461 37s7.324.6 16.662.6c6.748 0 14.548-.6 21.4-.6H112.2s-18.027-.2-16.9 20.5c.224 4.119.008 8.4.008 12.482 0 2.718-.008 8.969-.008 11.418v11.08a9.863 9.863 0 0 1-10.082 10.256H56.461a10.627 10.627 0 0 1-10.651-10.6V47.6A10.626 10.626 0 0 1 56.461 37z"/><path id="wk-front-paper" d="M12 48.449s10.6.605 22.111.607c5.717 0 11.658-.6 16.633-.6h11.96s-.6 8.86-.6 19.42c0 9.171-.637 19.647-.637 26.694a35.337 35.337 0 0 0 1.49 9.546c0 4.071 4.3 5.323 6.916 7.126 1 .686 7.11 9.456 8.521 9.579h-20.6c-4.839 0-10.13-.6-15.409-.6-5.981 0-11.946.6-17.218.6C14.339 120.823 12 106.928 12 106.928V48.449z" fill="#ededed" fill-rule="evenodd"/><path id="wk-cover" class="cls-4" d="M61.5 84.031h33.8v19.811a16.9 16.9 0 1 1-33.8 0V84.031z"/><g id="wk-txt"><path id="wk-a" class="cls-5" d="M18.036 59.313H31.6c3.679 0 7.615-.6 11.128-.6a98.112 98.112 0 0 1 10.926.6"/><path id="wk-b" class="cls-5" d="M19.244 68.961h10.811c5.114 0 11.161.6 16.072.6a69.392 69.392 0 0 0 9.333-.6"/><path id="wk-c" class="cls-5" d="M20.451 80.419a57.271 57.271 0 0 1 8.452-.6c4.4 0 9.782.6 14.291.6h9.249"/><path id="wk-d" class="cls-5" d="M20.451 93.686a110.6 110.6 0 0 0 11.443.6c3.937 0 8.3-.6 12.085-.6h9.671"/><path id="wk-e" class="cls-5" d="M62.7 72.58s7.775-.6 14.024-.6a50.866 50.866 0 0 1 7.706.6"/><path id="wk-f" class="cls-5" d="M63.308 85.243a25.71 25.71 0 0 0 5.591.6c5.892 0 14.329-.6 14.329-.6"/><path id="wk-g" class="cls-5" d="M63.308 100.923a57.553 57.553 0 0 0 8.015.6c5.309 0 11.3-.6 11.3-.6"/><path id="wk-h" class="cls-5" d="M63.308 56.9s5.941.6 11.233.6a58.655 58.655 0 0 0 8.083-.6"/></g></g><g id="wk-front-paper-2" data-name="wk-front-paper"><path id="wk-back-paper-3" data-name="wk-back-paper" class="cls-2" d="M184.22 61.895a24.791 24.791 0 0 1 24.78 24.8v48.714h-13.014c-5.722 0-12.535-.885-18.719-.885-9.685 0-17.83.885-17.83.885V86.695a24.792 24.792 0 0 1 24.783-24.8z"/><path id="wk-mid-paper" class="cls-4" d="M103.372 61.885s10.739.886 24.432.886c9.894 0 21.331-.886 31.372-.886H185.1s-26.435-.3-24.781 30.115c.329 6.05.012 12.335.012 18.334 0 3.991-.012 13.173-.012 16.771v16.267c0 8.6-6.158 15.063-14.783 15.063h-42.164a15.6 15.6 0 0 1-15.617-15.572v-65.4a15.6 15.6 0 0 1 15.617-15.578z"/><path id="wk-front-paper-3" data-name="wk-front-paper" d="M38.179 78.7s15.546.888 32.421.891c8.383 0 17.094-.883 24.39-.882h17.537s-.885 13.013-.885 28.523c0 13.47-.934 28.857-.934 39.207a52 52 0 0 0 2.184 14.021c0 5.978 6.3 7.818 10.141 10.466 1.463 1.008 10.425 13.888 12.494 14.069H57.487c-15.876 0-19.306-20.409-19.306-20.409V78.7z" fill="#f4f4f4" fill-rule="evenodd"/><path id="wk-cover-2" data-name="wk-cover" d="M110.75 130.969h49.562v29.25A24.781 24.781 0 0 1 135.531 185a24.781 24.781 0 0 1-24.781-24.781v-29.25z" fill="#ebebeb"/><g id="wk-txt-2" data-name="wk-txt"><path id="wk-a-2" data-name="wk-a" class="cls-5" d="M47.03 94.657h19.883c5.394 0 11.166-.886 16.317-.886a143.664 143.664 0 0 1 16.02.886"/><path id="wk-b-2" data-name="wk-b" class="cls-5" d="M48.8 108.828h15.854c7.5 0 16.365.886 23.567.886a101.51 101.51 0 0 0 13.686-.886"/><path id="wk-c-2" data-name="wk-c" class="cls-5" d="M50.571 125.657a83.8 83.8 0 0 1 12.393-.886c6.448 0 14.343.886 20.954.886h13.563"/><path id="wk-d-2" data-name="wk-d" class="cls-5" d="M50.571 145.143a161.975 161.975 0 0 0 16.779.885c5.773 0 12.175-.885 17.721-.885h14.18"/><path id="wk-e-2" data-name="wk-e" class="cls-5" d="M112.527 114.142s11.4-.885 20.564-.885a74.545 74.545 0 0 1 11.3.885"/><path id="wk-f-2" data-name="wk-f" class="cls-5" d="M113.412 132.743a37.675 37.675 0 0 0 8.2.885c8.64 0 21.01-.885 21.01-.885"/><path id="wk-g-2" data-name="wk-g" class="cls-5" d="M113.412 155.771a84.227 84.227 0 0 0 11.753.886c7.785 0 16.57-.886 16.57-.886"/><path id="wk-h-2" data-name="wk-h" class="cls-5" d="M113.412 91.114s8.711.886 16.472.886a85.876 85.876 0 0 0 11.851-.886"/></g></g></svg>