<svg id="wk-paper" xmlns="http://www.w3.org/2000/svg" width="222" height="222" viewBox="0 0 222 222">
  <metadata><?xpacket begin="﻿" id="W5M0MpCehiHzreSzNTczkc9d"?>
<x:xmpmeta xmlns:x="adobe:ns:meta/" x:xmptk="Adobe XMP Core 5.6-c140 79.160451, 2017/05/06-01:08:21        ">
   <rdf:RDF xmlns:rdf="http://www.w3.org/1999/02/22-rdf-syntax-ns#">
      <rdf:Description rdf:about=""/>
   </rdf:RDF>
</x:xmpmeta>
                                                                                                    
                                                                                                    
                                                                                                    
                                                                                                    
                                                                                                    
                                                                                                    
                                                                                                    
                                                                                                    
                                                                                                    
                                                                                                    
                                                                                                    
                                                                                                    
                                                                                                    
                                                                                                    
                                                                                                    
                                                                                                    
                                                                                                    
                                                                                                    
                                                                                                    
                                                                                                    
                           
<?xpacket end="w"?></metadata>
<defs>
    <style>
      .cls-1 {
        fill: #d2d2d2;
      }

      .cls-1, .cls-2, .cls-3, .cls-4, .cls-5, .cls-6 {
        fill-rule: evenodd;
      }

      .cls-2 {
        fill: #e3e3e3;
      }

      .cls-3 {
        fill: #ededed;
      }

      .cls-4, .cls-7 {
        fill: #ebebeb;
      }

      .cls-5 {
        fill: #ebedf4;
        stroke: #4c4c4c;
        stroke-width: 2px;
        opacity: 0.6;
      }

      .cls-6 {
        fill: #f4f4f4;
      }
    </style>
  </defs>
  <g id="wk-back-paper">
    <path id="wk-back-paper-2" data-name="wk-back-paper" class="cls-1" d="M111.6,37.007a16.893,16.893,0,0,1,16.9,16.885V87.059h-8.877c-3.9,0-8.549-.6-12.766-0.6-6.606,0-12.16.6-12.16,0.6V53.892A16.893,16.893,0,0,1,111.6,37.007Z"/>
    <path id="wk-middle-paper" class="cls-2" d="M56.461,37s7.324,0.6,16.662.6c6.748,0,14.548-.6,21.4-0.6H112.2s-18.027-.2-16.9,20.5c0.224,4.119.008,8.4,0.008,12.482,0,2.718-.008,8.969-0.008,11.418V92.48a9.863,9.863,0,0,1-10.082,10.256H56.461a10.627,10.627,0,0,1-10.651-10.6V47.6A10.626,10.626,0,0,1,56.461,37Z"/>
    <path id="wk-front-paper" class="cls-3" d="M12,48.449s10.6,0.605,22.111.607c5.717,0,11.658-.6,16.633-0.6l11.96,0s-0.6,8.86-.6,19.42c0,9.171-.637,19.647-0.637,26.694a35.337,35.337,0,0,0,1.49,9.546c0,4.071,4.3,5.323,6.916,7.126,1,0.686,7.11,9.456,8.521,9.579h-20.6c-4.839,0-10.13-.6-15.409-0.6-5.981,0-11.946.6-17.218,0.6C14.339,120.823,12,106.928,12,106.928V48.449Z"/>
    <path id="wk-cover" class="cls-4" d="M61.5,84.031h33.8v19.811a16.9,16.9,0,1,1-33.8,0V84.031Z"/>
    <g id="wk-txt">
      <path id="wk-a" class="cls-5" d="M18.036,59.313H31.6c3.679,0,7.615-.6,11.128-0.6a98.112,98.112,0,0,1,10.926.6"/>
      <path id="wk-b" class="cls-5" d="M19.244,68.961H30.055c5.114,0,11.161.6,16.072,0.6a69.392,69.392,0,0,0,9.333-.6"/>
      <path id="wk-c" class="cls-5" d="M20.451,80.419a57.271,57.271,0,0,1,8.452-.6c4.4,0,9.782.6,14.291,0.6h9.249"/>
      <path id="wk-d" class="cls-5" d="M20.451,93.686a110.6,110.6,0,0,0,11.443.6c3.937,0,8.3-.6,12.085-0.6H53.65"/>
      <path id="wk-e" class="cls-5" d="M62.7,72.58s7.775-.6,14.024-0.6a50.866,50.866,0,0,1,7.706.6"/>
      <path id="wk-f" class="cls-5" d="M63.308,85.243a25.71,25.71,0,0,0,5.591.6c5.892,0,14.329-.6,14.329-0.6"/>
      <path id="wk-g" class="cls-5" d="M63.308,100.923a57.553,57.553,0,0,0,8.015.6c5.309,0,11.3-.6,11.3-0.6"/>
      <path id="wk-h" class="cls-5" d="M63.308,56.9s5.941,0.6,11.233.6a58.655,58.655,0,0,0,8.083-.6"/>
    </g>
  </g>
  <g id="wk-front-paper-2" data-name="wk-front-paper">
    <path id="wk-back-paper-3" data-name="wk-back-paper" class="cls-2" d="M184.22,61.895A24.791,24.791,0,0,1,209,86.695v48.714H195.986c-5.722,0-12.535-.885-18.719-0.885-9.685,0-17.83.885-17.83,0.885V86.695A24.792,24.792,0,0,1,184.22,61.895Z"/>
    <path id="wk-mid-paper" class="cls-4" d="M103.372,61.885s10.739,0.886,24.432.886c9.894,0,21.331-.886,31.372-0.886H185.1s-26.435-.3-24.781,30.115c0.329,6.05.012,12.335,0.012,18.334,0,3.991-.012,13.173-0.012,16.771v16.267c0,8.6-6.158,15.063-14.783,15.063H103.372a15.6,15.6,0,0,1-15.617-15.572v-65.4A15.6,15.6,0,0,1,103.372,61.885Z"/>
    <path id="wk-front-paper-3" data-name="wk-front-paper" class="cls-6" d="M38.179,78.7s15.546,0.888,32.421.891c8.383,0,17.094-.883,24.39-0.882l17.537,0s-0.885,13.013-.885,28.523c0,13.47-.934,28.857-0.934,39.207a52,52,0,0,0,2.184,14.021c0,5.978,6.3,7.818,10.141,10.466,1.463,1.008,10.425,13.888,12.494,14.069h-30.2c-7.1,0-14.853,0-22.593,0-8.77,0-17.517,0-25.247,0-15.876,0-19.306-20.409-19.306-20.409V78.7Z"/>
    <path id="wk-cover-2" data-name="wk-cover" class="cls-7" d="M110.75,130.969h49.562a0,0,0,0,1,0,0v29.25A24.781,24.781,0,0,1,135.531,185h0a24.781,24.781,0,0,1-24.781-24.781v-29.25A0,0,0,0,1,110.75,130.969Z"/>
    <g id="wk-txt-2" data-name="wk-txt">
      <path id="wk-a-2" data-name="wk-a" class="cls-5" d="M47.03,94.657H66.913c5.394,0,11.166-.886,16.317-0.886a143.664,143.664,0,0,1,16.02.886"/>
      <path id="wk-b-2" data-name="wk-b" class="cls-5" d="M48.8,108.828H64.654c7.5,0,16.365.886,23.567,0.886a101.51,101.51,0,0,0,13.686-.886"/>
      <path id="wk-c-2" data-name="wk-c" class="cls-5" d="M50.571,125.657a83.8,83.8,0,0,1,12.393-.886c6.448,0,14.343.886,20.954,0.886H97.481"/>
      <path id="wk-d-2" data-name="wk-d" class="cls-5" d="M50.571,145.143a161.975,161.975,0,0,0,16.779.885c5.773,0,12.175-.885,17.721-0.885H99.251"/>
      <path id="wk-e-2" data-name="wk-e" class="cls-5" d="M112.527,114.142s11.4-.885,20.564-0.885a74.545,74.545,0,0,1,11.3.885"/>
      <path id="wk-f-2" data-name="wk-f" class="cls-5" d="M113.412,132.743a37.675,37.675,0,0,0,8.2.885c8.64,0,21.01-.885,21.01-0.885"/>
      <path id="wk-g-2" data-name="wk-g" class="cls-5" d="M113.412,155.771a84.227,84.227,0,0,0,11.753.886c7.785,0,16.57-.886,16.57-0.886"/>
      <path id="wk-h-2" data-name="wk-h" class="cls-5" d="M113.412,91.114S122.123,92,129.884,92a85.876,85.876,0,0,0,11.851-.886"/>
    </g>
  </g>
</svg>
