<svg id="wk-pizza" xmlns="http://www.w3.org/2000/svg" width="220" height="220" viewBox="0 0 220 220">
  <metadata><?xpacket begin="﻿" id="W5M0MpCehiHzreSzNTczkc9d"?>
<x:xmpmeta xmlns:x="adobe:ns:meta/" x:xmptk="Adobe XMP Core 5.6-c140 79.160451, 2017/05/06-01:08:21        ">
   <rdf:RDF xmlns:rdf="http://www.w3.org/1999/02/22-rdf-syntax-ns#">
      <rdf:Description rdf:about=""/>
   </rdf:RDF>
</x:xmpmeta>
                                                                                                    
                                                                                                    
                                                                                                    
                                                                                                    
                                                                                                    
                                                                                                    
                                                                                                    
                                                                                                    
                                                                                                    
                                                                                                    
                                                                                                    
                                                                                                    
                                                                                                    
                                                                                                    
                                                                                                    
                                                                                                    
                                                                                                    
                                                                                                    
                                                                                                    
                                                                                                    
                           
<?xpacket end="w"?></metadata>
<defs>
    <style>
      .cls-1 {
        fill: #fab007;
      }

      .cls-2 {
        fill: #e85757;
      }

      .cls-2, .cls-3, .cls-4, .cls-5, .cls-6, .cls-7, .cls-8 {
        fill-rule: evenodd;
      }

      .cls-3 {
        fill: #ffd473;
      }

      .cls-4 {
        fill: #34495e;
      }

      .cls-5 {
        fill: #f38a8a;
      }

      .cls-6 {
        fill: #67be5e;
      }

      .cls-7 {
        fill: #ffe4a6;
      }

      .cls-8 {
        fill: #9a8257;
      }
    </style>
  </defs>
  <circle id="wk-bread" class="cls-1" cx="110" cy="110" r="100"/>
  <path id="wk-ketchup-base" class="cls-2" d="M191.7,71.891s-7.915-33.247-49.183-45.145-43.961-10.4-60.223-3.01S50.178,43.8,50.178,43.8c-3.742,3.52-13.145,17.627-14.052,21.068S17.874,86.157,19.063,110.014s12.6,56.761,22.082,62.2S66.229,197.628,83.3,199.3s40.95,7.981,55.205-1,48.363-25.336,54.2-50.161S195.665,74.972,191.7,71.891Z"/>
  <path id="wk-cheeze-base" class="cls-3" d="M187.867,73.561s-7.556-31.809-46.951-43.193S98.95,20.417,83.425,27.489s-30.662,19.2-30.662,19.2C49.191,50.054,40.215,63.55,39.349,66.842S21.925,87.21,23.06,110.035s12.028,54.307,21.08,59.51,23.946,24.316,40.244,25.916,39.093,7.636,52.7-.96,46.169-24.24,51.741-47.992S191.65,76.508,187.867,73.561Z"/>
  <path id="wk-mushrooms" class="cls-4" d="M133.193,80.979a12.1,12.1,0,1,1,12.1-12.1A12.1,12.1,0,0,1,133.193,80.979Zm0-18.15a6.05,6.05,0,1,0,6.049,6.05A6.049,6.049,0,0,0,133.193,62.829Zm-41.129,64.13a8.471,8.471,0,1,1,8.468-8.47A8.469,8.469,0,0,1,92.064,126.959Zm0-12.7a4.235,4.235,0,1,0,4.234,4.235A4.234,4.234,0,0,0,92.064,114.254Zm-41.129-1.815a8.47,8.47,0,1,1,8.468-8.47A8.469,8.469,0,0,1,50.935,112.439Zm0-12.705a4.235,4.235,0,1,0,4.234,4.235A4.234,4.234,0,0,0,50.935,99.734Zm85.888,50.214a9.68,9.68,0,1,1-9.678,9.68A9.679,9.679,0,0,1,136.823,149.948Zm0,14.52a4.84,4.84,0,1,0-4.839-4.84A4.839,4.839,0,0,0,136.823,164.468Z"/>
  <g id="wk-tomato-a">
    <path id="wk-juicy" class="cls-2" d="M147.71,114.852V85.825c7.37,0.137,13.306,6.58,13.306,14.514S155.08,114.716,147.71,114.852Z"/>
    <path id="wk-slice" class="cls-5" d="M147.71,112.465V88.688c6.057,0.136,10.93,5.4,10.93,11.889S153.767,112.329,147.71,112.465Z"/>
  </g>
  <g id="wk-tomato-b">
    <path id="wk-juicy-2" data-name="wk-juicy" class="cls-2" d="M112.629,125.742V96.715c7.37,0.137,13.306,6.58,13.306,14.514S120,125.605,112.629,125.742Z"/>
    <path id="wk-slice-2" data-name="wk-slice" class="cls-5" d="M112.629,123.355V99.578c6.057,0.136,10.93,5.4,10.93,11.889S118.686,123.22,112.629,123.355Z"/>
  </g>
  <g id="wk-tomato-c">
    <path id="wk-juicy-3" data-name="wk-juicy" class="cls-2" d="M76.252,160.476l37.873-16c3.731,9.336-1.527,20.346-11.878,24.718S80.34,169.662,76.252,160.476Z"/>
    <path id="wk-slice-3" data-name="wk-slice" class="cls-5" d="M79.366,159.161l31.024-13.1c3.035,7.685-1.249,16.711-9.714,20.286S82.757,166.7,79.366,159.161Z"/>
  </g>
  <g id="wk-tomato-d">
    <path id="wk-juicy-4" data-name="wk-juicy" class="cls-2" d="M87.087,80.148L64.727,56.693c5.838-5.358,15.419-4.555,21.53,1.856S92.714,74.57,87.087,80.148Z"/>
    <path id="wk-slice-4" data-name="wk-slice" class="cls-5" d="M85.248,78.219L66.932,59.006c4.816-4.384,12.662-3.744,17.66,1.5S89.855,73.616,85.248,78.219Z"/>
  </g>
  <path id="wk-capsicum" class="cls-6" d="M106.581,47.1l-3.629-2.42s-9.515,22.558-7.258,41.139l4.838-1.21S97.159,72.35,106.581,47.1Zm72.58,106.478,4.839-2.42s-14-33-45.968-22.99l1.21,4.84S164.406,123.012,179.161,153.578Zm-129.435-6.05-3.629-2.42s11.547-23.922,42.339-9.679l-2.419,3.629S61.806,128.3,49.726,147.528Z"/>
  <path id="wk-seeds" class="cls-7" d="M124.125,35a5.438,5.438,0,1,1-5.437,5.438A5.437,5.437,0,0,1,124.125,35ZM158,72.5a3.031,3.031,0,1,1-3.031,3.031A3.031,3.031,0,0,1,158,72.5ZM73.313,100.344a3.016,3.016,0,1,1-3.031,3.015A3.023,3.023,0,0,1,73.313,100.344ZM50.328,73.719a3.031,3.031,0,1,1-3.016,3.031A3.023,3.023,0,0,1,50.328,73.719Zm22.391,94.375a4.844,4.844,0,1,1-4.844,4.844A4.843,4.843,0,0,1,72.719,168.094Zm53.219-41.125a3.625,3.625,0,1,1-3.626,3.625A3.624,3.624,0,0,1,125.938,126.969Zm53.828-2.438a4.235,4.235,0,1,1-4.235,4.235A4.235,4.235,0,0,1,179.766,124.531ZM98.7,94.281a4.234,4.234,0,1,1-4.234,4.234A4.235,4.235,0,0,1,98.7,94.281Z"/>
  <path id="wk-peppers" class="cls-8" d="M109,55.563h4.844v8.469H109V55.563Zm5.552,27.029,3.022-2.01,4.019,6.045-3.022,2.01Zm-0.72,94.286,4.159-2.7,5.532,8.135-4.159,2.705ZM64.546,95.519L68.325,92.5l5.29,6.614-3.778,3.024Zm35.984,39.31L97,131.782l-4.937,6.665,3.526,3.048ZM42.466,121.52l-3.526-3.048L34,125.137l3.526,3.048Zm133.065-5.6-2.519-2.286-3.527,5L172,120.921Z"/>
</svg>
