<svg xmlns="http://www.w3.org/2000/svg" width="222" height="222"><g fill-rule="evenodd"><path d="M140.389 10.985l2.9 33.26-2.055 5.686L113 39.582l2.055-5.686z" fill="#ebb085"/><path d="M140.389 10.985l.946 10.848-9.263-3.325z" fill="#333"/><path d="M115.058 33.9l28.23 10.349-42.47 117.512-28.23-10.348z" fill="#62acff"/><path d="M123.907 37.121l9.728 3.9-42.47 117.509-9.728-3.9z" fill="#86bfff"/></g><g fill-rule="evenodd"><path d="M162.644 20.662l5.025 19.247-10.832 16.7.183 5.832-3.011 5-15.3-5.916 1.135-5.773 4.087-3.936L146 32.459z" fill="#f0882b"/><path d="M163.038 22.172l-5.664 15.981a2.008 2.008 0 1 1-1.407-.542l5.782-16.311.9-.634z" opacity=".2"/><path d="M139.086 54.476l19.382 7.124-16.528 58.472-28.23-10.347z" fill="#293d80"/><path d="M113.883 103.348l31.994 11.728-20.55 56.861-31.994-11.728z" fill="#1a295b"/></g><g fill-rule="evenodd"><path d="M61.945 102.11H147.1a8.51 8.51 0 0 1 8.515 8.5q-4.749 46.653-9.5 93.305c-.823 7.746-7.051 7.048-7.051 7.048H69.841s-5.976.428-6.839-6.341l-9.572-94.007a8.512 8.512 0 0 1 8.515-8.505z" fill="#f05858"/><path d="M147.4 191.31a72.211 72.211 0 0 1-10.264 3.042c-18.669 4.007-30.853-5.189-50.435 2.249-7.428 2.822-14.749 10.221-20.952 13.147a6.991 6.991 0 0 1-2.749-5.12l-5.446-53.48c16.581-14.354 45.117 4.1 63.326-12.463 8.714-7.926 6.8-19.805 17.932-26.428a29.069 29.069 0 0 1 16.557-3.626 8.486 8.486 0 0 1 .242 1.984q-4.104 40.349-8.211 80.695z" fill="#cc4b4b"/></g></svg>