<svg xmlns="http://www.w3.org/2000/svg" width="220" height="220"><path d="M80.318 55.138L64.01 64.462l11.648 90.91 9.319-3.5zm16.307-16.317l-16.307 9.324 11.648 90.91 9.319-3.5zm17.475-5.828l-16.31 9.324 11.649 90.91 9.318-3.5zm17.542-1.078l-16.377 9.237 11.648 90.91 9.319-3.5zm17.758 10.14l-16.662 9.586 11.649 90.911 9.319-3.5z" fill-rule="evenodd" fill="#e29f04"/><path d="M74.14 49.66l-16.908 9.347 11.737 91.2 9.389-3.508zm16.066-16.9L73.3 42.109l11.737 91.2 9.389-3.508zm17.757-5.915L91.039 36.2l11.751 91.2 9.4-3.508zM124.875 26l-16.918 9.353 11.751 91.2 9.4-3.507zm17.757 10.14L125.72 45.5l11.751 91.2 9.4-3.508zm16.068 9.295L141.79 54.8l11.842 91.2 5.921-3.507z" fill="#fab007" fill-rule="evenodd"/><path d="M54.855 99.507h111.29a1.846 1.846 0 0 1 1.855 1.836L149.452 195h-77.9L53 101.343a1.846 1.846 0 0 1 1.855-1.836z" fill="#e85757" fill-rule="evenodd"/><path d="M151.087 122.341l-4.639 21.112h-17.4a21.148 21.148 0 0 1-37.094 0h-17.4l-4.638-21.112h22.545a21.1 21.1 0 0 1 36.078 0h22.548z" fill="#ffcece" fill-rule="evenodd"/></svg>