<svg xmlns="http://www.w3.org/2000/svg" width="202" height="202"><path d="M54.556 136.553s-1.568-51.932-36.695-111.3c-1.887-4.714 3.463-9.281 7.715-7.648C78.185 47.424 138.069 54.7 138.069 54.7s-3.622 29.066 19.682 58.85l-44.827 44.438c-34.414-24.476-58.368-21.435-58.368-21.435z" fill-rule="evenodd" fill="#fab007"/><path d="M17.758 19.212l1.47-1.457a2.614 2.614 0 0 1 3.674 0L93.45 87.69a2.56 2.56 0 0 1 0 3.643l-1.47 1.457a2.614 2.614 0 0 1-3.674 0L17.758 22.854a2.559 2.559 0 0 1 0-3.642z" fill="#d19100" fill-rule="evenodd"/><circle cx="93.828" cy="93.156" r="7.797" fill="#d19100"/><path d="M112.924 157.989l44.827-44.438 7.349 7.285-44.827 44.438z" fill="#acacac" fill-rule="evenodd"/><path d="M120.273 165.274l44.827-44.438 18.372 18.213a5.12 5.12 0 0 1 0 7.285l-37.479 37.153a5.229 5.229 0 0 1-7.348 0z" fill="#333" fill-rule="evenodd"/></svg>