<svg id="wk-pizza" xmlns="http://www.w3.org/2000/svg" width="220" height="220"><defs><style>.cls-2,.cls-5{fill:#e85757;fill-rule:evenodd}.cls-5{fill:#f38a8a}</style></defs><circle id="wk-bread" cx="110" cy="110" r="100" fill="#fab007"/><path id="wk-ketchup-base" class="cls-2" d="M191.7 71.891s-7.915-33.247-49.183-45.145-43.961-10.4-60.223-3.01S50.178 43.8 50.178 43.8c-3.742 3.52-13.145 17.627-14.052 21.068s-18.252 21.289-17.063 45.146 12.6 56.761 22.082 62.2S66.229 197.628 83.3 199.3s40.95 7.981 55.205-1 48.363-25.336 54.2-50.161 2.96-73.167-1.005-76.248z"/><path id="wk-cheeze-base" d="M187.867 73.561s-7.556-31.809-46.951-43.193-41.966-9.951-57.491-2.879-30.662 19.2-30.662 19.2c-3.572 3.365-12.548 16.861-13.414 20.153S21.925 87.21 23.06 110.035s12.028 54.307 21.08 59.51 23.946 24.316 40.244 25.916 39.093 7.636 52.7-.96 46.169-24.24 51.741-47.992 2.825-70.001-.958-72.948z" fill="#ffd473" fill-rule="evenodd"/><path id="wk-mushrooms" d="M133.193 80.979a12.1 12.1 0 1 1 12.1-12.1 12.1 12.1 0 0 1-12.1 12.1zm0-18.15a6.05 6.05 0 1 0 6.049 6.05 6.049 6.049 0 0 0-6.049-6.05zm-41.129 64.13a8.471 8.471 0 1 1 8.468-8.47 8.469 8.469 0 0 1-8.468 8.47zm0-12.7a4.235 4.235 0 1 0 4.234 4.235 4.234 4.234 0 0 0-4.234-4.24zm-41.129-1.815a8.47 8.47 0 1 1 8.468-8.47 8.469 8.469 0 0 1-8.468 8.465zm0-12.705a4.235 4.235 0 1 0 4.234 4.235 4.234 4.234 0 0 0-4.234-4.24zm85.888 50.214a9.68 9.68 0 1 1-9.678 9.68 9.679 9.679 0 0 1 9.678-9.685zm0 14.52a4.84 4.84 0 1 0-4.839-4.84 4.839 4.839 0 0 0 4.839 4.835z" fill="#34495e" fill-rule="evenodd"/><g id="wk-tomato-a"><path id="wk-juicy" class="cls-2" d="M147.71 114.852V85.825c7.37.137 13.306 6.58 13.306 14.514s-5.936 14.377-13.306 14.513z"/><path id="wk-slice" class="cls-5" d="M147.71 112.465V88.688c6.057.136 10.93 5.4 10.93 11.889s-4.873 11.752-10.93 11.888z"/></g><g id="wk-tomato-b"><path id="wk-juicy-2" data-name="wk-juicy" class="cls-2" d="M112.629 125.742V96.715c7.37.137 13.306 6.58 13.306 14.514s-5.935 14.376-13.306 14.513z"/><path id="wk-slice-2" data-name="wk-slice" class="cls-5" d="M112.629 123.355V99.578c6.057.136 10.93 5.4 10.93 11.889s-4.873 11.753-10.93 11.888z"/></g><g id="wk-tomato-c"><path id="wk-juicy-3" data-name="wk-juicy" class="cls-2" d="M76.252 160.476l37.873-16c3.731 9.336-1.527 20.346-11.878 24.718s-21.907.468-25.995-8.718z"/><path id="wk-slice-3" data-name="wk-slice" class="cls-5" d="M79.366 159.161l31.024-13.1c3.035 7.685-1.249 16.711-9.714 20.286s-17.919.353-21.31-7.186z"/></g><g id="wk-tomato-d"><path id="wk-juicy-4" data-name="wk-juicy" class="cls-2" d="M87.087 80.148l-22.36-23.455c5.838-5.358 15.419-4.555 21.53 1.856s6.457 16.021.83 21.599z"/><path id="wk-slice-4" data-name="wk-slice" class="cls-5" d="M85.248 78.219L66.932 59.006c4.816-4.384 12.662-3.744 17.66 1.5s5.263 13.11.656 17.713z"/></g><path id="wk-capsicum" d="M106.581 47.1l-3.629-2.42s-9.515 22.558-7.258 41.139l4.838-1.21S97.159 72.35 106.581 47.1zm72.58 106.478l4.839-2.42s-14-33-45.968-22.99l1.21 4.84s25.164-9.996 39.919 20.57zm-129.435-6.05l-3.629-2.42s11.547-23.922 42.339-9.679l-2.419 3.629s-24.211-10.758-36.291 8.47z" fill="#67be5e" fill-rule="evenodd"/><path id="wk-seeds" d="M124.125 35a5.438 5.438 0 1 1-5.437 5.438A5.437 5.437 0 0 1 124.125 35zM158 72.5a3.031 3.031 0 1 1-3.031 3.031A3.031 3.031 0 0 1 158 72.5zm-84.687 27.844a3.016 3.016 0 1 1-3.031 3.015 3.023 3.023 0 0 1 3.031-3.015zM50.328 73.719a3.031 3.031 0 1 1-3.016 3.031 3.023 3.023 0 0 1 3.016-3.031zm22.391 94.375a4.844 4.844 0 1 1-4.844 4.844 4.843 4.843 0 0 1 4.844-4.844zm53.219-41.125a3.625 3.625 0 1 1-3.626 3.625 3.624 3.624 0 0 1 3.626-3.625zm53.828-2.438a4.235 4.235 0 1 1-4.235 4.235 4.235 4.235 0 0 1 4.235-4.235zM98.7 94.281a4.234 4.234 0 1 1-4.234 4.234 4.235 4.235 0 0 1 4.234-4.234z" fill="#ffe4a6" fill-rule="evenodd"/><path id="wk-peppers" d="M109 55.563h4.844v8.469H109v-8.469zm5.552 27.029l3.022-2.01 4.019 6.045-3.022 2.01zm-.72 94.286l4.159-2.7 5.532 8.135-4.159 2.705zM64.546 95.519l3.779-3.019 5.29 6.614-3.778 3.024zm35.984 39.31L97 131.782l-4.937 6.665 3.526 3.048zM42.466 121.52l-3.526-3.048-4.94 6.665 3.526 3.048zm133.065-5.6l-2.519-2.286-3.527 5 2.515 2.287z" fill="#9a8257" fill-rule="evenodd"/></svg>