<svg id="wk-pentool" xmlns="http://www.w3.org/2000/svg" width="202" height="202" viewBox="0 0 202 202">
  <metadata><?xpacket begin="﻿" id="W5M0MpCehiHzreSzNTczkc9d"?>
<x:xmpmeta xmlns:x="adobe:ns:meta/" x:xmptk="Adobe XMP Core 5.6-c140 79.160451, 2017/05/06-01:08:21        ">
   <rdf:RDF xmlns:rdf="http://www.w3.org/1999/02/22-rdf-syntax-ns#">
      <rdf:Description rdf:about=""/>
   </rdf:RDF>
</x:xmpmeta>
                                                                                                    
                                                                                                    
                                                                                                    
                                                                                                    
                                                                                                    
                                                                                                    
                                                                                                    
                                                                                                    
                                                                                                    
                                                                                                    
                                                                                                    
                                                                                                    
                                                                                                    
                                                                                                    
                                                                                                    
                                                                                                    
                                                                                                    
                                                                                                    
                                                                                                    
                                                                                                    
                           
<?xpacket end="w"?></metadata>
<defs>
    <style>
      .cls-1 {
        fill: #fab007;
      }

      .cls-1, .cls-2, .cls-4, .cls-5 {
        fill-rule: evenodd;
      }

      .cls-2, .cls-3 {
        fill: #d19100;
      }

      .cls-4 {
        fill: #acacac;
      }

      .cls-5 {
        fill: #333;
      }
    </style>
  </defs>
  <path id="ki-metal" class="cls-1" d="M54.556,136.553s-1.568-51.932-36.695-111.3c-1.887-4.714,3.463-9.281,7.715-7.648C78.185,47.424,138.069,54.7,138.069,54.7s-3.622,29.066,19.682,58.85l-44.827,44.438C78.51,133.512,54.556,136.553,54.556,136.553Z"/>
  <path id="ki-point" class="cls-2" d="M17.758,19.212l1.47-1.457a2.614,2.614,0,0,1,3.674,0L93.45,87.69a2.56,2.56,0,0,1,0,3.643L91.98,92.79a2.614,2.614,0,0,1-3.674,0L17.758,22.854A2.559,2.559,0,0,1,17.758,19.212Z"/>
  <circle id="ki-ink-point" class="cls-3" cx="93.828" cy="93.156" r="7.797"/>
  <path id="ki-nip-base" class="cls-4" d="M112.924,157.989l44.827-44.438,7.349,7.285-44.827,44.438Z"/>
  <path id="ki-holder" class="cls-5" d="M120.273,165.274L165.1,120.836l18.372,18.213a5.12,5.12,0,0,1,0,7.285l-37.479,37.153a5.229,5.229,0,0,1-7.348,0Z"/>
</svg>
