<svg id="wk-pencil-stand" xmlns="http://www.w3.org/2000/svg" width="222" height="222" viewBox="0 0 222 222">
  <metadata><?xpacket begin="﻿" id="W5M0MpCehiHzreSzNTczkc9d"?>
<x:xmpmeta xmlns:x="adobe:ns:meta/" x:xmptk="Adobe XMP Core 5.6-c140 79.160451, 2017/05/06-01:08:21        ">
   <rdf:RDF xmlns:rdf="http://www.w3.org/1999/02/22-rdf-syntax-ns#">
      <rdf:Description rdf:about=""/>
   </rdf:RDF>
</x:xmpmeta>
                                                                                                    
                                                                                                    
                                                                                                    
                                                                                                    
                                                                                                    
                                                                                                    
                                                                                                    
                                                                                                    
                                                                                                    
                                                                                                    
                                                                                                    
                                                                                                    
                                                                                                    
                                                                                                    
                                                                                                    
                                                                                                    
                                                                                                    
                                                                                                    
                                                                                                    
                                                                                                    
                           
<?xpacket end="w"?></metadata>
<defs>
    <style>
      .cls-1 {
        fill: #ebb085;
      }

      .cls-1, .cls-10, .cls-2, .cls-3, .cls-4, .cls-5, .cls-6, .cls-7, .cls-8, .cls-9 {
        fill-rule: evenodd;
      }

      .cls-2 {
        fill: #333;
      }

      .cls-3 {
        fill: #62acff;
      }

      .cls-4 {
        fill: #86bfff;
      }

      .cls-5 {
        fill: #f0882b;
      }

      .cls-6 {
        opacity: 0.2;
      }

      .cls-7 {
        fill: #293d80;
      }

      .cls-8 {
        fill: #1a295b;
      }

      .cls-9 {
        fill: #f05858;
      }

      .cls-10 {
        fill: #cc4b4b;
      }
    </style>
  </defs>
  <g id="wk-pencil">
    <path id="wk-wood" class="cls-1" d="M140.389,10.985l2.9,33.26-2.055,5.686L113,39.582l2.055-5.686Z"/>
    <path id="wk-graphite" class="cls-2" d="M140.389,10.985l0.946,10.848-9.263-3.325Z"/>
    <path id="wk-painted" class="cls-3" d="M115.058,33.9l28.23,10.349-42.47,117.512-28.23-10.348Z"/>
    <path id="wk-light-paint" class="cls-4" d="M123.907,37.121l9.728,3.9L91.165,158.53l-9.728-3.9Z"/>
  </g>
  <g id="wk-pen">
    <path id="wk-metal" class="cls-5" d="M162.644,20.662l5.025,19.247-10.832,16.7,0.183,5.832-3.011,5-15.3-5.916,1.135-5.773,4.087-3.936L146,32.459Z"/>
    <path id="wk-pen-point" class="cls-6" d="M163.038,22.172l-5.664,15.981a2.008,2.008,0,1,1-1.407-.542L161.749,21.3l0.9-.634Z"/>
    <path id="wk-grip" class="cls-7" d="M139.086,54.476L158.468,61.6,141.94,120.072l-28.23-10.347Z"/>
    <path id="wk-ink-container" class="cls-8" d="M113.883,103.348l31.994,11.728-20.55,56.861L93.333,160.209Z"/>
  </g>
  <g id="wk-pencil-box">
    <path id="wk-box-bg" class="cls-9" d="M61.945,102.11H147.1a8.51,8.51,0,0,1,8.515,8.5q-4.749,46.653-9.5,93.305c-0.823,7.746-7.051,7.048-7.051,7.048H69.841s-5.976.428-6.839-6.341L53.43,110.615A8.512,8.512,0,0,1,61.945,102.11Z"/>
    <path id="wk-shadow" class="cls-10" d="M147.4,191.31a72.211,72.211,0,0,1-10.264,3.042c-18.669,4.007-30.853-5.189-50.435,2.249-7.428,2.822-14.749,10.221-20.952,13.147A6.991,6.991,0,0,1,63,204.628l-5.446-53.48c16.581-14.354,45.117,4.1,63.326-12.463,8.714-7.926,6.8-19.805,17.932-26.428a29.069,29.069,0,0,1,16.557-3.626,8.486,8.486,0,0,1,.242,1.984Q151.507,150.964,147.4,191.31Z"/>
  </g>
</svg>
