<svg id="wk-pots" xmlns="http://www.w3.org/2000/svg" width="222" height="222" viewBox="0 0 222 222">
  <metadata><?xpacket begin="﻿" id="W5M0MpCehiHzreSzNTczkc9d"?>
<x:xmpmeta xmlns:x="adobe:ns:meta/" x:xmptk="Adobe XMP Core 5.6-c140 79.160451, 2017/05/06-01:08:21        ">
   <rdf:RDF xmlns:rdf="http://www.w3.org/1999/02/22-rdf-syntax-ns#">
      <rdf:Description rdf:about=""/>
   </rdf:RDF>
</x:xmpmeta>
                                                                                                    
                                                                                                    
                                                                                                    
                                                                                                    
                                                                                                    
                                                                                                    
                                                                                                    
                                                                                                    
                                                                                                    
                                                                                                    
                                                                                                    
                                                                                                    
                                                                                                    
                                                                                                    
                                                                                                    
                                                                                                    
                                                                                                    
                                                                                                    
                                                                                                    
                                                                                                    
                           
<?xpacket end="w"?></metadata>
<defs>
    <style>
      .cls-1 {
        fill: #edd0ba;
      }

      .cls-1, .cls-10, .cls-11, .cls-12, .cls-3, .cls-5, .cls-6, .cls-7, .cls-8 {
        fill-rule: evenodd;
      }

      .cls-2 {
        fill: #dcbda6;
      }

      .cls-10, .cls-11, .cls-3, .cls-7 {
        fill: none;
      }

      .cls-10, .cls-11, .cls-12, .cls-3, .cls-7 {
        stroke: #000;
        stroke-width: 1px;
      }

      .cls-3 {
        opacity: 0.5;
      }

      .cls-4, .cls-7 {
        opacity: 0.8;
      }

      .cls-5 {
        fill: #333;
      }

      .cls-6 {
        fill: #fff;
      }

      .cls-8 {
        fill: #f9c59d;
      }

      .cls-9 {
        fill: #edba93;
      }

      .cls-10 {
        opacity: 0.7;
      }

      .cls-11 {
        opacity: 0.6;
      }

      .cls-12 {
        fill: #607adf;
      }
    </style>
  </defs>
  <g id="wk-c">
    <path id="wk-container" class="cls-1" d="M126.9,200.689H85.392s-79-115.5,0-176.805c-3.71.053,25.689-.275,41.508-0.047C205.636,85.154,126.9,200.689,126.9,200.689Z"/>
    <path id="wk-cap" class="cls-2" d="M81.594,21h49.031a0,0,0,0,1,0,0v3.406a2,2,0,0,1-2,2H83.594a2,2,0,0,1-2-2V21A0,0,0,0,1,81.594,21Z"/>
    <path id="wk-sign" class="cls-3" d="M78.106,93.468c-6.757-12.756-4.254-16.055-3.037-19.893C83.4,61.186,103.774,57.8,117.707,58.8c9.445,1.754,10.187,13.02,8.4,16.22-7.658,23.024-43.33,31.584-41.115,58.372,1.979,7.137,2.5,14.726,15.468,20.576,12.24,5.375,22.559,6.783,34.159,9.333"/>
    <g id="wk-tag" class="cls-4">
      <path id="wk-base" class="cls-5" d="M131.985,33.686L146.3,31.015l5.122,13.741,1.6,9.084L139.771,62l-5.8-11.746Z"/>
      <path id="wk-white" class="cls-6" d="M132.987,34.339l12.947-2.327,4.635,12.968,1.445,7.912L140.031,60l-5.249-10.23Z"/>
      <path id="wk-hole" class="cls-5" d="M141.824,39.936c-0.991.272-2.18-.571-2.647-1.927-0.481-1.4,0-2.754,1.072-2.98,1.043-.22,2.206.732,2.61,2.083C143.251,38.424,142.793,39.67,141.824,39.936Zm0.121-2.669a1.356,1.356,0,0,0-1.315-1.25,1.372,1.372,0,0,0-.541,1.788,1.282,1.282,0,0,0,1.334,1.156A1.378,1.378,0,0,0,141.945,37.267Z"/>
      <path id="wk-dolla-sign" class="cls-5" d="M145.543,52.068l-1-3.585a2.616,2.616,0,0,1,1.111.052,1.387,1.387,0,0,1,.819,1.07,2.561,2.561,0,0,1,.062,1.012,1.949,1.949,0,0,1-1,1.452h0Zm-3.988-6.043a2.745,2.745,0,0,1-.04-1.427,1.573,1.573,0,0,1,.992-1.122l1.071,3.736a1.988,1.988,0,0,1-1.238-.134,1.618,1.618,0,0,1-.785-1.053h0Zm-1.126.572a2.921,2.921,0,0,0,1.331,1.809,3.311,3.311,0,0,0,2.2.154l1.072,3.742a1.279,1.279,0,0,1-1.511-.177,3.58,3.58,0,0,1-.674-1.251l-1.043.514a4.042,4.042,0,0,0,.95,1.708,2.151,2.151,0,0,0,2.556.179l0.344,1.2,0.477-.273L145.8,53a4.271,4.271,0,0,0,1.253-1.275,3.861,3.861,0,0,0,.254-2.91,2.063,2.063,0,0,0-1.17-1.6,5.263,5.263,0,0,0-1.973-.109l-1.067-3.84a1.248,1.248,0,0,1,1.433.4,2.766,2.766,0,0,1,.5.94l0.976-.4a3.362,3.362,0,0,0-1.165-1.924,2.39,2.39,0,0,0-2.106-.316l-0.318-1.145-0.615.205,0.336,1.17a2.7,2.7,0,0,0-1.718,1.812,4.149,4.149,0,0,0,0,2.577h0Z"/>
      <path id="wk-thread" class="cls-7" d="M140.4,37.126c-0.2-6.377-4.912-18.973-14.38-15.86"/>
    </g>
  </g>
  <g id="wk-b">
    <path id="wk-container-2" data-name="wk-container" class="cls-8" d="M184.179,121.737H158.544c-24.245,17.9-39.379,53.627,2.047,78.952h21.526C223.859,175.364,208.609,139.638,184.179,121.737Z"/>
    <path id="wk-cap-2" data-name="wk-cap" class="cls-9" d="M156.438,119.031h29.968a0,0,0,0,1,0,0v2.563a1.5,1.5,0,0,1-1.5,1.5H157.938a1.5,1.5,0,0,1-1.5-1.5v-2.563A0,0,0,0,1,156.438,119.031Z"/>
    <path id="wk-sign-2" data-name="wk-sign" class="cls-10" d="M195.972,147.819c-7.535,27.928-46.313-10.16-46.313,11.747,2.677,10.772,45.388,4.266,42.676,12.406-2.618,8.608-32,7.138-37.227,2.854"/>
    <g id="wk-tag-2" data-name="wk-tag" class="cls-4">
      <path id="wk-base-2" data-name="wk-base" class="cls-5" d="M187.985,131.686l14.311-2.671,5.122,13.74,1.6,9.084L195.771,160l-5.8-11.746Z"/>
      <path id="wk-white-2" data-name="wk-white" class="cls-6" d="M188.987,132.339l12.947-2.326,4.635,12.967,1.445,7.912L196.031,158l-5.249-10.231Z"/>
      <path id="wk-hole-2" data-name="wk-hole" class="cls-5" d="M197.824,137.936c-0.991.272-2.18-.571-2.647-1.927-0.481-1.4,0-2.754,1.072-2.98,1.043-.22,2.206.732,2.61,2.083C199.251,136.424,198.793,137.67,197.824,137.936Zm0.121-2.669a1.356,1.356,0,0,0-1.315-1.25,1.372,1.372,0,0,0-.541,1.788,1.281,1.281,0,0,0,1.334,1.156A1.378,1.378,0,0,0,197.945,135.267Z"/>
      <path id="wk-dolla-sign-2" data-name="wk-dolla-sign" class="cls-5" d="M201.543,150.068l-1-3.585a2.619,2.619,0,0,1,1.111.052,1.39,1.39,0,0,1,.819,1.07,2.563,2.563,0,0,1,.062,1.012,1.947,1.947,0,0,1-1,1.451h0Zm-3.988-6.043a2.743,2.743,0,0,1-.04-1.427,1.573,1.573,0,0,1,.992-1.121l1.071,3.735a1.986,1.986,0,0,1-1.238-.134,1.618,1.618,0,0,1-.785-1.053h0Zm-1.126.572a2.92,2.92,0,0,0,1.331,1.809,3.311,3.311,0,0,0,2.2.154l1.072,3.741a1.278,1.278,0,0,1-1.511-.177,3.576,3.576,0,0,1-.674-1.251l-1.043.514a4.043,4.043,0,0,0,.95,1.708,2.152,2.152,0,0,0,2.556.179l0.344,1.2,0.477-.273-0.332-1.195a4.278,4.278,0,0,0,1.253-1.275,3.861,3.861,0,0,0,.254-2.91,2.063,2.063,0,0,0-1.17-1.6,5.269,5.269,0,0,0-1.973-.109l-1.067-3.84a1.247,1.247,0,0,1,1.433.405,2.769,2.769,0,0,1,.5.94l0.976-.4a3.367,3.367,0,0,0-1.165-1.924,2.391,2.391,0,0,0-2.106-.316l-0.318-1.144-0.615.205,0.336,1.17a2.7,2.7,0,0,0-1.718,1.812,4.148,4.148,0,0,0,0,2.577h0Z"/>
      <path id="wk-thread-2" data-name="wk-thread" class="cls-7" d="M196.4,135.126c-0.2-6.378-4.912-18.974-14.38-15.86"/>
    </g>
  </g>
  <g id="wk-a">
    <path id="wk-container-3" data-name="wk-container" class="cls-8" d="M61,200.689H38.218s-43.356-63.082,0-96.563c-2.036.029,14.1-.15,22.779-0.026C104.206,137.589,61,200.689,61,200.689Z"/>
    <path id="wk-cap-3" data-name="wk-cap" class="cls-9" d="M36.656,102.688H62.531a0,0,0,0,1,0,0v1.75a1,1,0,0,1-1,1H37.656a1,1,0,0,1-1-1v-1.75A0,0,0,0,1,36.656,102.688Z"/>
    <path id="wk-sign-3" data-name="wk-sign" class="cls-11" d="M34.22,142.13c-3.708-6.966-2.334-8.768-1.667-10.864,4.571-6.767,15.753-8.618,23.4-8.069,5.184,0.957,5.591,7.111,4.611,8.859-4.2,12.574-23.779,17.25-22.563,31.88,1.086,3.9,1.369,8.042,8.488,11.237,6.717,2.936,12.38,3.7,18.746,5.1"/>
    <g id="wk-tag-3" data-name="wk-tag">
      <path id="wk-base-3" data-name="wk-base" class="cls-5" d="M16.122,162.872L35.2,160.525,27.6,202.991l-15.595-2.179Z"/>
      <path id="wk-white-3" data-name="wk-white" class="cls-6" d="M16.733,164.1L34.008,162l-6.878,40-14.124-1.95Z"/>
      <path id="wk-dolla-sign-3" data-name="wk-dolla-sign" class="cls-5" d="M22.293,183.546l0.7-4.925a2.622,2.622,0,0,1,1.034.674,2.265,2.265,0,0,1,.32,1.806,4.012,4.012,0,0,1-.412,1.307,1.905,1.905,0,0,1-1.646,1.138h0Zm-0.849-9.1a4.045,4.045,0,0,1,.562-1.556,1.7,1.7,0,0,1,1.319-.864l-0.65,4.627a1.719,1.719,0,0,1-1.02-.719,2.18,2.18,0,0,1-.212-1.488h0Zm-1.139.164a4.025,4.025,0,0,0,.3,2.527,2.869,2.869,0,0,0,1.819,1.263l-0.715,5.089a1.4,1.4,0,0,1-1.253-1.181,6.3,6.3,0,0,1-.016-1.843l-1.071,0a7.168,7.168,0,0,0,.017,2.492,2.3,2.3,0,0,0,2.127,1.91l-0.245,1.742,0.576,0.022,0.25-1.749a3.616,3.616,0,0,0,1.833-.71,5.47,5.47,0,0,0,1.649-3.544,3.292,3.292,0,0,0-.47-2.673,5.158,5.158,0,0,0-1.86-1.139l0.687-4.809a1.15,1.15,0,0,1,1.168,1,3.823,3.823,0,0,1,.076,1.3l1.164-.049a4.427,4.427,0,0,0-.327-2.729,2.062,2.062,0,0,0-1.859-1.067l0.192-1.342-0.628.048-0.191,1.356a2.893,2.893,0,0,0-2.18,1.371,6.072,6.072,0,0,0-1.05,2.715h0Z"/>
      <path id="wk-txt" class="cls-12" d="M15.08,189.3l11.758-.607"/>
      <path id="wk-txt-2" data-name="wk-txt" class="cls-12" d="M14.546,193.9c3.823-1.151,7.335,1.839,11.706.48"/>
    </g>
  </g>
</svg>
