<svg id="wk-rocket" xmlns="http://www.w3.org/2000/svg" width="202" height="202" viewBox="0 0 202 202">
  <metadata><?xpacket begin="﻿" id="W5M0MpCehiHzreSzNTczkc9d"?>
<x:xmpmeta xmlns:x="adobe:ns:meta/" x:xmptk="Adobe XMP Core 5.6-c140 79.160451, 2017/05/06-01:08:21        ">
   <rdf:RDF xmlns:rdf="http://www.w3.org/1999/02/22-rdf-syntax-ns#">
      <rdf:Description rdf:about=""/>
   </rdf:RDF>
</x:xmpmeta>
                                                                                                    
                                                                                                    
                                                                                                    
                                                                                                    
                                                                                                    
                                                                                                    
                                                                                                    
                                                                                                    
                                                                                                    
                                                                                                    
                                                                                                    
                                                                                                    
                                                                                                    
                                                                                                    
                                                                                                    
                                                                                                    
                                                                                                    
                                                                                                    
                                                                                                    
                                                                                                    
                           
<?xpacket end="w"?></metadata>
<defs>
    <style>
      .cls-1 {
        fill: #ffc643;
      }

      .cls-1, .cls-2, .cls-3, .cls-4 {
        fill-rule: evenodd;
      }

      .cls-2 {
        fill: #fab007;
      }

      .cls-3 {
        fill: #c54343;
      }

      .cls-4 {
        fill: #e85757;
      }

      .cls-5 {
        fill: #fff;
      }
    </style>
  </defs>
  <path id="wk-outer-flame" class="cls-1" d="M25.865,172.517c0.624,3.393,1.055,3.94,4.6,4.619,49.249-10.053,67.2-58.5,67.2-58.5L81.783,102.692S30.335,124.683,25.865,172.517Z"/>
  <path id="wk-inner-flame" class="cls-2" d="M40.908,158.613c0.358,1.9.6,2.211,2.591,2.6,27.594-5.522,37.549-32.648,37.549-32.648L72.1,119.587S43.3,131.8,40.908,158.613Z"/>
  <path id="wk-left-wing" class="cls-3" d="M90.9,95.213l-30.653,30.77L29.63,95.248a2.236,2.236,0,0,1,0-3.154l3.93-3.945C63.768,91.675,90.9,95.213,90.9,95.213Z"/>
  <path id="wk-right-wing" class="cls-3" d="M105.757,110.126L75.1,140.9l30.618,30.736a2.217,2.217,0,0,0,3.142,0l3.93-3.945C109.282,137.363,105.757,110.126,105.757,110.126Z"/>
  <path id="wk-body" class="cls-4" d="M166.606,25c5.735,1.194,6.671,1.946,7.956,7.987C186.88,96.684,81.335,147.15,81.335,147.15L53.869,119.579S103.468,9.582,166.606,25Z"/>
  <path id="wk-head" class="cls-3" d="M173.516,57.393c3.9-24.785,8.261-38.335-31.511-32.412Z"/>
  <path id="wk-mid-wing" class="cls-3" d="M91.7,107.662l1.651,1.657-23.2,26.606L65.2,130.954Z"/>
  <circle id="wk-window" class="cls-5" cx="132.297" cy="66.922" r="16.391"/>
</svg>
