<svg id="wk-rocket" xmlns="http://www.w3.org/2000/svg" width="202" height="202"><defs><style>.cls-3{fill-rule:evenodd;fill:#c54343}</style></defs><path id="wk-outer-flame" d="M25.865 172.517c.624 3.393 1.055 3.94 4.6 4.619 49.249-10.053 67.2-58.5 67.2-58.5l-15.882-15.944s-51.448 21.991-55.918 69.825z" fill-rule="evenodd" fill="#ffc643"/><path id="wk-inner-flame" d="M40.908 158.613c.358 1.9.6 2.211 2.591 2.6 27.594-5.522 37.549-32.648 37.549-32.648l-8.948-8.978S43.3 131.8 40.908 158.613z" fill="#fab007" fill-rule="evenodd"/><path id="wk-left-wing" class="cls-3" d="M90.9 95.213l-30.653 30.77L29.63 95.248a2.236 2.236 0 0 1 0-3.154l3.93-3.945a4840.951 4840.951 0 0 1 57.34 7.064z"/><path id="wk-right-wing" class="cls-3" d="M105.757 110.126L75.1 140.9l30.618 30.736a2.217 2.217 0 0 0 3.142 0l3.93-3.945c-3.508-30.328-7.033-57.565-7.033-57.565z"/><path id="wk-body" d="M166.606 25c5.735 1.194 6.671 1.946 7.956 7.987C186.88 96.684 81.335 147.15 81.335 147.15l-27.466-27.571S103.468 9.582 166.606 25z" fill="#e85757" fill-rule="evenodd"/><path id="wk-head" class="cls-3" d="M173.516 57.393c3.9-24.785 8.261-38.335-31.511-32.412z"/><path id="wk-mid-wing" class="cls-3" d="M91.7 107.662l1.651 1.657-23.2 26.606-4.951-4.971z"/><circle id="wk-window" cx="132.297" cy="66.922" r="16.391" fill="#fff"/></svg>