<svg xmlns="http://www.w3.org/2000/svg" width="202" height="202"><path d="M101 175a74 74 0 1 1 74-74 74 74 0 0 1-74 74zm0-110.281A36.281 36.281 0 1 0 137.281 101 36.281 36.281 0 0 0 101 64.719z" fill-rule="evenodd" fill="#f25c5c"/><path data-name="Rectangle 6 copy" d="M165.437 63.573c-.318.3-12.894 12.973-29.089 29.267a36.322 36.322 0 0 0-26.74-27.085c16.117-16 28.666-28.411 29.142-28.868 2.261-2.167 28.889 24.618 26.687 26.686zm-99.7 28.911C49.584 76.323 37.066 63.8 36.749 63.5 34.541 61.429 61.232 34.576 63.5 36.748c.477.458 12.94 12.927 28.987 28.986a36.324 36.324 0 0 0-26.753 26.75zm27.254 43.9c-16.213 16.231-28.793 28.731-29.063 28.7-6.411-.647-26-20.446-26.686-26.687-.036-.332 12.351-12.836 28.479-28.957a36.319 36.319 0 0 0 27.266 26.942zm43.273-26.837c16.194 16.2 28.736 28.749 28.987 28.972 2.185 1.943-24.477 28.75-26.748 26.753-.2-.179-12.775-12.752-29.011-29a36.326 36.326 0 0 0 26.768-26.727z" fill="#eee" fill-rule="evenodd"/></svg>