<svg id="wk-shield" xmlns="http://www.w3.org/2000/svg" width="222" height="222" viewBox="0 0 222 222">
  <metadata><?xpacket begin="﻿" id="W5M0MpCehiHzreSzNTczkc9d"?>
<x:xmpmeta xmlns:x="adobe:ns:meta/" x:xmptk="Adobe XMP Core 5.6-c140 79.160451, 2017/05/06-01:08:21        ">
   <rdf:RDF xmlns:rdf="http://www.w3.org/1999/02/22-rdf-syntax-ns#">
      <rdf:Description rdf:about=""/>
   </rdf:RDF>
</x:xmpmeta>
                                                                                                    
                                                                                                    
                                                                                                    
                                                                                                    
                                                                                                    
                                                                                                    
                                                                                                    
                                                                                                    
                                                                                                    
                                                                                                    
                                                                                                    
                                                                                                    
                                                                                                    
                                                                                                    
                                                                                                    
                                                                                                    
                                                                                                    
                                                                                                    
                                                                                                    
                                                                                                    
                           
<?xpacket end="w"?></metadata>
<defs>
    <style>
      .cls-1 {
        fill: #e1e1e1;
      }

      .cls-1, .cls-2, .cls-3 {
        fill-rule: evenodd;
      }

      .cls-2 {
        fill: #fab007;
      }

      .cls-3 {
        fill: #fff;
        opacity: 0.3;
      }
    </style>
  </defs>
  <path id="wk-frame" class="cls-1" d="M110.022,207.394C21.9,158.462,17.534,43.339,17.534,43.339S65.578,31.6,80.306,14.149c1.858,0.146,57.576.162,59.633,0C154.62,31.6,202.51,43.339,202.51,43.339S195.7,160.35,110.022,207.394Z"/>
  <path id="wk-gold" class="cls-2" d="M109.562,198.191C34.67,155.589,26.737,48.6,26.737,48.6S69.761,38.08,82.951,22.43c1.664,0.131,51.56.146,53.4,0C149.5,38.08,192.386,48.6,192.386,48.6S184.212,155.589,109.562,198.191Z"/>
  <path id="wk-shine" class="cls-3" d="M64.741,156.432a200.365,200.365,0,0,1-22.352-42.721l91.235-91.234c1.528-.013,2.5-0.029,2.731-0.047,8.011,9.537,27.053,17.164,40.717,21.673Zm4.974,6.74,116.3-116.3c3.905,1.128,6.37,1.735,6.37,1.735s-0.153,1.989-.6,5.511L75.614,170.287Q72.542,166.8,69.715,163.172Z"/>
</svg>
