<svg xmlns="http://www.w3.org/2000/svg" width="202" height="202"><path d="M107.643 90.244c-.99 6.013-1.975 15.692-.213 24.493 46.644 4.2 48.12 56.771 48.12 56.771H46.45s2.152-51.933 48.019-56.7a78.787 78.787 0 0 0-.044-24.631C48.6 85.393 46.45 33.492 46.45 33.492h109.1s-1.471 52.415-47.907 56.752z" fill-rule="evenodd" fill="#d1ebff"/><path d="M104.967 134.759l39.067 39.076H56.45l39.067-39.076a7.106 7.106 0 0 1 9.45 0zM58 55.846h86.784C130 95.08 71.055 94.742 58 55.846z" fill="#fab007" fill-rule="evenodd"/><path d="M38 171.5h126v8.5H38v-8.5zM38 25h126v8.5H38V25z" fill="#a18443" fill-rule="evenodd"/></svg>