<svg xmlns="http://www.w3.org/2000/svg" width="222" height="222"><circle cx="109" cy="111" r="65" fill="#222e3b"/><path d="M152.452 32.538v32.721a62.8 62.8 0 0 0-86.115.467V33.284a89.708 89.708 0 0 1 86.115-.746z" fill-rule="evenodd" fill="#eeae53"/><path d="M75.43 28.832l13.126 23.21A62.964 62.964 0 0 0 50.075 91.22L34.3 63.691a89.7 89.7 0 0 1 41.13-34.859z" fill="#6da670" fill-rule="evenodd"/><path d="M46.805 111.207a62.506 62.506 0 0 0 6.388 27.6l-12.352 12.146-20.1-35.062a90.41 90.41 0 0 1-.134-4.814 88.568 88.568 0 0 1 16.922-52.164L56.955 77a62.461 62.461 0 0 0-10.15 34.207z" fill="#80b283" fill-rule="evenodd"/><path d="M184.061 60.981L168.221 88.5a62.973 62.973 0 0 0-39.737-37.215l13.381-23.562a89.664 89.664 0 0 1 42.196 33.258z" fill="#ff7e7e" fill-rule="evenodd"/><path d="M181.225 57.072a88.582 88.582 0 0 1 18.253 52.917l-23.52 40.861-10.683-10.46a62.737 62.737 0 0 0-3.944-64.873z" fill="#e85757" fill-rule="evenodd"/><path d="M110.058 200.257a89.314 89.314 0 0 1-89.448-89.18c0-1.032.043-2.053.078-3.077h26.2q-.08 1.593-.081 3.207a62.834 62.834 0 0 0 125.669 0q0-1.612-.081-3.207h27.035c.035 1.024.078 2.045.078 3.077a89.314 89.314 0 0 1-89.45 89.18z" fill="#34495e" fill-rule="evenodd"/><path d="M118.311 114.9a8.9 8.9 0 1 1-16.785-5.892 3.016 3.016 0 0 1 .715-1.323l24.732-45.72-8.435 51.546a2.846 2.846 0 0 1-.227 1.389z" fill="#fff" fill-rule="evenodd"/></svg>