<svg id="wk-spectacles" xmlns="http://www.w3.org/2000/svg" width="202" height="202"><defs><style>.cls-1{fill:#555}.cls-1,.cls-3{fill-rule:evenodd}.cls-2{fill:#e7f1ff;stroke:#555;stroke-linejoin:round;stroke-width:3px}.cls-3{fill:#fff}</style></defs><path id="wk-nose-pad" class="cls-1" d="M85.15 81.321a39.528 39.528 0 0 1 32.69 0v8.153s-16.767-8.625-32.69 0c0 .759.072-.908 0-8.153z"/><path id="wk-left-stand" class="cls-1" d="M2 78.8l9.76-1.219v8.532L2 87.333V78.8z"/><path id="wk-right-stand" class="cls-1" d="M200 78.8l-9.76-1.219v8.532l9.76 1.22V78.8z"/><circle id="wk-left-glass" class="cls-2" cx="48.797" cy="101" r="40.953"/><path id="wk-left-shine" class="cls-3" d="M58.43 63.951l3.96.988-34.65 68.169-2.97-2.964z"/><path id="wk-right-shine" class="cls-3" d="M67.34 67.9l2.97 1.976-33.66 67.184-3.96-.988z"/><circle id="wk-right-glass" class="cls-2" cx="153.203" cy="101" r="40.953"/><path id="wk-left-shine-2" data-name="wk-left-shine" class="cls-3" d="M163.37 63.951l3.96.988-33.66 68.169-3.96-1.976z"/><path id="wk-right-shine-2" data-name="wk-right-shine" class="cls-3" d="M171.29 67.9l3.96 1.976-32.67 67.184-3.96-.988z"/></svg>