<svg id="wk-sublime" xmlns="http://www.w3.org/2000/svg" width="202" height="202"><defs><style>.cls-2{fill:#181915}.cls-7{fill:#f05858}.cls-8{fill:#66d9ef}.cls-9{fill:#f2d575}.cls-10{fill:#b9e75e}</style></defs><path id="wk-body" d="M13 39h177a5 5 0 0 1 5 5v120H8V44a5 5 0 0 1 5-5z" fill="#32332c"/><path id="wk-browser-shadow" class="cls-2" d="M8 162.125h187V164H8z"/><g id="wk-browser-header"><path id="wk-header-shadow" class="cls-2" d="M8 60.469h187v.937H8z"/><path id="wk-header" d="M13 39h177a5 5 0 0 1 5 5v16.469H8V44a5 5 0 0 1 5-5z" fill="#272822"/><g id="wk-controllers"><ellipse id="wk-red" cx="162.75" cy="50.641" rx="3.281" ry="3.266" fill="#e74c3c"/><ellipse id="wk-yellow" cx="173.953" cy="50.641" rx="3.266" ry="3.266" fill="#e5e73c"/><ellipse id="wk-green" cx="185.172" cy="50.641" rx="3.266" ry="3.266" fill="#52ce6a"/></g></g><g id="wk-code"><path id="wk-a" class="cls-7" d="M21.094 69.781h15.875V73.5H21.094z"/><path id="wk-b" class="cls-7" d="M21.094 76.313h15.875v3.719H21.094z"/><path id="wk-c" class="cls-7" d="M39.781 76.313h15.906v3.719H39.781z"/><path id="wk-d" class="cls-7" d="M21.094 82.844h15.875v3.75H21.094z"/><path id="wk-e" class="cls-7" d="M21.094 89.375h15.875v3.75H21.094z"/><path id="wk-f" class="cls-8" d="M36.969 97.781h15.906v3.719H36.969z"/><path id="wk-g" class="cls-8" d="M55.688 97.781h15.875v3.719H55.688z"/><path id="wk-h" class="cls-9" d="M74.406 97.781h88.813v3.719H74.406z"/><path id="wk-i" class="cls-8" d="M166.031 97.781h14.938v3.719h-14.938z"/><path id="wk-j" class="cls-8" d="M36.969 104.281h15.906v3.75H36.969z"/><path id="wk-k" class="cls-9" d="M55.688 104.281h43.938v3.75H55.688z"/><path id="wk-l" class="cls-7" d="M102.438 104.281h43.937v3.75h-43.937z"/><path id="wk-m" class="cls-8" d="M149.188 104.281h14.937v3.75h-14.937z"/><path id="wk-n" class="cls-8" d="M36.969 110.812h15.906v3.75H36.969z"/><path id="wk-o" class="cls-10" d="M55.688 110.812h43.938v3.75H55.688z"/><path id="wk-p" class="cls-7" d="M102.438 110.812h43.937v3.75h-43.937z"/><path id="wk-q" class="cls-8" d="M36.969 117.375h15.906v3.719H36.969z"/><path id="wk-r" class="cls-10" d="M55.688 117.375h43.938v3.719H55.688z"/><path id="wk-s" class="cls-7" d="M102.438 117.375h43.937v3.719h-43.937z"/><path id="wk-t" class="cls-8" d="M36.969 132.281h15.906V136H36.969z"/><path id="wk-u" class="cls-7" d="M55.688 132.281h15.875V136H55.688z"/><path id="wk-v" class="cls-7" d="M36.969 139.75h15.906v3.719H36.969z"/><path id="wk-w" class="cls-10" d="M74.406 132.281h71.969V136H74.406z"/><path id="wk-x" class="cls-7" d="M36.969 124.812h18.719v3.75H36.969z"/><path id="wk-y" class="cls-7" d="M21.094 150.938h15.875v3.75H21.094z"/></g><g id="wk-mouse-cursor" fill-rule="evenodd"><path id="wk-shadow" d="M97.727 142.784l7.933 1.32-2.644 2.638 3.306 3.3L105 151.36l-3.3-3.3-2.651 2.64z" fill="#dfdfdf"/><path id="wk-cursor" d="M96.4 142.784l7.933 1.32-2.644 2.638 3.3 3.3-1.322 1.32-3.306-3.3-2.634 2.638z" fill="#fff"/></g></svg>