<svg xmlns="http://www.w3.org/2000/svg" width="222" height="222"><path d="M110.022 207.394C21.9 158.462 17.534 43.339 17.534 43.339S65.578 31.6 80.306 14.149c1.858.146 57.576.162 59.633 0 14.681 17.451 62.571 29.19 62.571 29.19s-6.81 117.011-92.488 164.055z" fill-rule="evenodd" fill="#e1e1e1"/><path d="M109.562 198.191C34.67 155.589 26.737 48.6 26.737 48.6s43.024-10.52 56.214-26.17c1.664.131 51.56.146 53.4 0C149.5 38.08 192.386 48.6 192.386 48.6s-8.174 106.989-82.824 149.591z" fill="#fab007" fill-rule="evenodd"/><path d="M64.741 156.432a200.365 200.365 0 0 1-22.352-42.721l91.235-91.234c1.528-.013 2.5-.029 2.731-.047 8.011 9.537 27.053 17.164 40.717 21.673zm4.974 6.74l116.3-116.3c3.905 1.128 6.37 1.735 6.37 1.735s-.153 1.989-.6 5.511L75.614 170.287q-3.072-3.487-5.899-7.115z" fill="#fff" opacity=".3" fill-rule="evenodd"/></svg>