<svg id="wk-speedometer" xmlns="http://www.w3.org/2000/svg" width="222" height="222" viewBox="0 0 222 222">
  <metadata><?xpacket begin="﻿" id="W5M0MpCehiHzreSzNTczkc9d"?>
<x:xmpmeta xmlns:x="adobe:ns:meta/" x:xmptk="Adobe XMP Core 5.6-c140 79.160451, 2017/05/06-01:08:21        ">
   <rdf:RDF xmlns:rdf="http://www.w3.org/1999/02/22-rdf-syntax-ns#">
      <rdf:Description rdf:about=""/>
   </rdf:RDF>
</x:xmpmeta>
                                                                                                    
                                                                                                    
                                                                                                    
                                                                                                    
                                                                                                    
                                                                                                    
                                                                                                    
                                                                                                    
                                                                                                    
                                                                                                    
                                                                                                    
                                                                                                    
                                                                                                    
                                                                                                    
                                                                                                    
                                                                                                    
                                                                                                    
                                                                                                    
                                                                                                    
                                                                                                    
                           
<?xpacket end="w"?></metadata>
<defs>
    <style>
      .cls-1 {
        fill: #222e3b;
      }

      .cls-2 {
        fill: #eeae53;
      }

      .cls-2, .cls-3, .cls-4, .cls-5, .cls-6, .cls-7, .cls-8 {
        fill-rule: evenodd;
      }

      .cls-3 {
        fill: #6da670;
      }

      .cls-4 {
        fill: #80b283;
      }

      .cls-5 {
        fill: #ff7e7e;
      }

      .cls-6 {
        fill: #e85757;
      }

      .cls-7 {
        fill: #34495e;
      }

      .cls-8 {
        fill: #fff;
      }
    </style>
  </defs>
  <circle id="wk-speedometer-base" class="cls-1" cx="109" cy="111" r="65"/>
  <path id="wk-yellow" class="cls-2" d="M152.452,32.538V65.259a62.8,62.8,0,0,0-86.115.467V33.284A89.708,89.708,0,0,1,152.452,32.538Z"/>
  <path id="wk-dark-green" class="cls-3" d="M75.43,28.832l13.126,23.21A62.964,62.964,0,0,0,50.075,91.22L34.3,63.691A89.7,89.7,0,0,1,75.43,28.832Z"/>
  <path id="wk-light-green" class="cls-4" d="M46.805,111.207a62.506,62.506,0,0,0,6.388,27.6L40.841,150.953l-20.1-35.062c-0.085-1.594-.134-3.2-0.134-4.814A88.568,88.568,0,0,1,37.529,58.913L56.955,77A62.461,62.461,0,0,0,46.805,111.207Z"/>
  <path id="wk-light-red" class="cls-5" d="M184.061,60.981L168.221,88.5a62.973,62.973,0,0,0-39.737-37.215l13.381-23.562A89.664,89.664,0,0,1,184.061,60.981Z"/>
  <path id="wk-dark-red" class="cls-6" d="M181.225,57.072a88.582,88.582,0,0,1,18.253,52.917l-23.52,40.861L165.275,140.39a62.737,62.737,0,0,0-3.944-64.873Z"/>
  <path id="wk-grey" class="cls-7" d="M110.058,200.257a89.314,89.314,0,0,1-89.448-89.18c0-1.032.043-2.053,0.078-3.077h26.2q-0.08,1.593-.081,3.207a62.834,62.834,0,0,0,125.669,0q0-1.612-.081-3.207h27.035c0.035,1.024.078,2.045,0.078,3.077A89.314,89.314,0,0,1,110.058,200.257Z"/>
  <path id="wk-pointer" class="cls-8" d="M118.311,114.9a8.9,8.9,0,1,1-16.785-5.892,3.016,3.016,0,0,1,.715-1.323l24.732-45.72-8.435,51.546A2.846,2.846,0,0,1,118.311,114.9Z"/>
</svg>
