<svg xmlns="http://www.w3.org/2000/svg" width="222" height="222"><rect x="34" y="58" width="153" height="134" rx="10" ry="10" fill="#ebebeb"/><path d="M55 129h29a5 5 0 0 1 5 5v58H50v-58a5 5 0 0 1 5-5z" fill="#b37f43"/><path fill="#c38c4c" d="M54 133h31v59H54z"/><circle cx="81.5" cy="159.5" r="2.5" fill="#e7e7e7"/><path fill="#906b41" d="M44 188h50v4H44z"/><path fill="#a1794a" d="M46 184h46v4H46z"/><g><rect data-name="wk-frame" x="101" y="130" width="72" height="54" rx="5" ry="5" fill="#a7c9f2"/><path fill="#bcdafe" d="M104 133h66v48h-66z"/><path d="M158.259 181h-3.39L106.8 133h3.39zm-16.949 0L104 143.742V133h1.673l48.066 48H141.31z" fill-rule="evenodd" fill="#cae2ff"/></g><g fill-rule="evenodd"><path d="M125.916 99l-1.092-69.009h32.825L173.447 99h-47.531zm-72.085 0l14.634-69.013H105.5L100.8 99H53.831z" fill="#fff"/><path d="M176.436 99l-11.777-7.2-12.2-61.812h24.526a7.966 7.966 0 0 1 8 7.932l16 53.145V99h-24.549zM97.847 29.987h28.487l2.652 63H93zM45.9 99H21v-7.936l16-53.145a7.966 7.966 0 0 1 8-7.932h24.371L56.8 91.8z" fill="#ff5353"/></g><g fill-rule="evenodd"><path data-name="wk-white" d="M146.994 124a18.007 18.007 0 0 1-18.008-18.006v-14H165v14A18.008 18.008 0 0 1 146.994 124zm-71.987 0a18 18 0 0 1-17.993-18.01v-14H93v14A18 18 0 0 1 75.007 124z" fill="#efefef"/><path data-name="wk-red" d="M183 124a18 18 0 0 1-18-18.01v-14h35.985v14A18 18 0 0 1 183 124zm-72 0a18 18 0 0 1-18-18.01v-14h35.986v14A18 18 0 0 1 110.993 124zm-71.987 0A18.007 18.007 0 0 1 21 105.99v-14h36.015v14A18.007 18.007 0 0 1 39.006 124z" fill="#f34b4b"/></g></svg>