<svg id="wk-support" xmlns="http://www.w3.org/2000/svg" width="202" height="202" viewBox="0 0 202 202">
  <metadata><?xpacket begin="﻿" id="W5M0MpCehiHzreSzNTczkc9d"?>
<x:xmpmeta xmlns:x="adobe:ns:meta/" x:xmptk="Adobe XMP Core 5.6-c140 79.160451, 2017/05/06-01:08:21        ">
   <rdf:RDF xmlns:rdf="http://www.w3.org/1999/02/22-rdf-syntax-ns#">
      <rdf:Description rdf:about=""/>
   </rdf:RDF>
</x:xmpmeta>
                                                                                                    
                                                                                                    
                                                                                                    
                                                                                                    
                                                                                                    
                                                                                                    
                                                                                                    
                                                                                                    
                                                                                                    
                                                                                                    
                                                                                                    
                                                                                                    
                                                                                                    
                                                                                                    
                                                                                                    
                                                                                                    
                                                                                                    
                                                                                                    
                                                                                                    
                                                                                                    
                           
<?xpacket end="w"?></metadata>
<defs>
    <style>
      .cls-1 {
        fill: #f25c5c;
      }

      .cls-1, .cls-2 {
        fill-rule: evenodd;
      }

      .cls-2 {
        fill: #eee;
      }
    </style>
  </defs>
  <path class="cls-1" d="M101,175a74,74,0,1,1,74-74A74,74,0,0,1,101,175Zm0-110.281A36.281,36.281,0,1,0,137.281,101,36.281,36.281,0,0,0,101,64.719Z"/>
  <path id="Rectangle_6_copy" data-name="Rectangle 6 copy" class="cls-2" d="M165.437,63.573c-0.318.3-12.894,12.973-29.089,29.267a36.322,36.322,0,0,0-26.74-27.085c16.117-16,28.666-28.411,29.142-28.868C141.011,34.72,167.639,61.505,165.437,63.573Zm-99.7,28.911C49.584,76.323,37.066,63.8,36.749,63.5,34.541,61.429,61.232,34.576,63.5,36.748c0.477,0.458,12.94,12.927,28.987,28.986A36.324,36.324,0,0,0,65.734,92.484Zm27.254,43.9c-16.213,16.231-28.793,28.731-29.063,28.7-6.411-.647-26-20.446-26.686-26.687-0.036-.332,12.351-12.836,28.479-28.957A36.319,36.319,0,0,0,92.987,136.382Zm43.273-26.837c16.194,16.2,28.736,28.749,28.987,28.972,2.185,1.943-24.477,28.75-26.748,26.753-0.2-.179-12.775-12.752-29.011-29A36.326,36.326,0,0,0,136.26,109.545Z"/>
</svg>
