<svg id="wk-server" xmlns="http://www.w3.org/2000/svg" width="202" height="202"><defs><style>.cls-2{fill:#263a4d;fill-rule:evenodd}.cls-3{fill:#508f4c}.cls-4{fill:#ec6b6b}.cls-5{fill:#ac8643}</style></defs><rect id="wk-server-bg" x="39" y="9" width="124" height="185" rx="2" ry="2" fill="#3a5269"/><g id="wk-server-a"><path id="wk-disk-space" class="cls-2" d="M58.438 21.031h68.469v8.313H58.438v-8.313zm0 13.875h68.469v8.313H58.438v-8.313zm0 13.875h68.469v8.313H58.438v-8.313z"/><circle id="wk-green" class="cls-3" cx="139.406" cy="25.188" r="4.156"/><ellipse id="wk-red" class="cls-4" cx="139.406" cy="39.063" rx="4.156" ry="4.156"/><ellipse id="wk-orange" class="cls-5" cx="139.406" cy="52.938" rx="4.156" ry="4.156"/></g><g id="wk-server-b"><path id="wk-disk-space-2" data-name="wk-disk-space" class="cls-2" d="M58.438 83.031h68.469v8.313H58.438v-8.313zm0 13.875h68.469v8.313H58.438v-8.313zm0 13.875h68.469v8.313H58.438v-8.313z"/><circle id="wk-green-2" data-name="wk-green" class="cls-3" cx="139.406" cy="87.188" r="4.156"/><ellipse id="wk-red-2" data-name="wk-red" class="cls-4" cx="139.406" cy="101.063" rx="4.156" ry="4.156"/><ellipse id="wk-orange-2" data-name="wk-orange" class="cls-5" cx="139.406" cy="114.938" rx="4.156" ry="4.156"/></g><g id="wk-server-c"><path id="wk-disk-space-3" data-name="wk-disk-space" class="cls-2" d="M58.438 146.031h68.469v8.313H58.438v-8.313zm0 13.875h68.469v8.313H58.438v-8.313zm0 13.875h68.469v8.313H58.438v-8.313z"/><circle id="wk-green-3" data-name="wk-green" class="cls-3" cx="139.406" cy="150.188" r="4.156"/><ellipse id="wk-red-3" data-name="wk-red" class="cls-4" cx="139.406" cy="164.063" rx="4.156" ry="4.156"/><ellipse id="wk-orange-3" data-name="wk-orange" class="cls-5" cx="139.406" cy="177.938" rx="4.156" ry="4.156"/></g><path id="wk-sep" d="M39 69h124v2H39v-2zm0 63h124v2H39v-2z" fill="#7b93aa" fill-rule="evenodd"/></svg>