<svg id="wk-sublime" xmlns="http://www.w3.org/2000/svg" width="202" height="202" viewBox="0 0 202 202">
  <metadata><?xpacket begin="﻿" id="W5M0MpCehiHzreSzNTczkc9d"?>
<x:xmpmeta xmlns:x="adobe:ns:meta/" x:xmptk="Adobe XMP Core 5.6-c140 79.160451, 2017/05/06-01:08:21        ">
   <rdf:RDF xmlns:rdf="http://www.w3.org/1999/02/22-rdf-syntax-ns#">
      <rdf:Description rdf:about=""/>
   </rdf:RDF>
</x:xmpmeta>
                                                                                                    
                                                                                                    
                                                                                                    
                                                                                                    
                                                                                                    
                                                                                                    
                                                                                                    
                                                                                                    
                                                                                                    
                                                                                                    
                                                                                                    
                                                                                                    
                                                                                                    
                                                                                                    
                                                                                                    
                                                                                                    
                                                                                                    
                                                                                                    
                                                                                                    
                                                                                                    
                           
<?xpacket end="w"?></metadata>
<defs>
    <style>
      .cls-1 {
        fill: #32332c;
      }

      .cls-2 {
        fill: #181915;
      }

      .cls-3 {
        fill: #272822;
      }

      .cls-4 {
        fill: #e74c3c;
      }

      .cls-5 {
        fill: #e5e73c;
      }

      .cls-6 {
        fill: #52ce6a;
      }

      .cls-7 {
        fill: #f05858;
      }

      .cls-8 {
        fill: #66d9ef;
      }

      .cls-9 {
        fill: #f2d575;
      }

      .cls-10 {
        fill: #b9e75e;
      }

      .cls-11 {
        fill: #dfdfdf;
      }

      .cls-11, .cls-12 {
        fill-rule: evenodd;
      }

      .cls-12 {
        fill: #fff;
      }
    </style>
  </defs>
  <path id="wk-body" class="cls-1" d="M13,39H190a5,5,0,0,1,5,5V164a0,0,0,0,1,0,0H8a0,0,0,0,1,0,0V44A5,5,0,0,1,13,39Z"/>
  <rect id="wk-browser-shadow" class="cls-2" x="8" y="162.125" width="187" height="1.875"/>
  <g id="wk-browser-header">
    <rect id="wk-header-shadow" class="cls-2" x="8" y="60.469" width="187" height="0.937"/>
    <path id="wk-header" class="cls-3" d="M13,39H190a5,5,0,0,1,5,5V60.469a0,0,0,0,1,0,0H8a0,0,0,0,1,0,0V44A5,5,0,0,1,13,39Z"/>
    <g id="wk-controllers">
      <ellipse id="wk-red" class="cls-4" cx="162.75" cy="50.641" rx="3.281" ry="3.266"/>
      <ellipse id="wk-yellow" class="cls-5" cx="173.953" cy="50.641" rx="3.266" ry="3.266"/>
      <ellipse id="wk-green" class="cls-6" cx="185.172" cy="50.641" rx="3.266" ry="3.266"/>
    </g>
  </g>
  <g id="wk-code">
    <rect id="wk-a" class="cls-7" x="21.094" y="69.781" width="15.875" height="3.719"/>
    <rect id="wk-b" class="cls-7" x="21.094" y="76.313" width="15.875" height="3.719"/>
    <rect id="wk-c" class="cls-7" x="39.781" y="76.313" width="15.906" height="3.719"/>
    <rect id="wk-d" class="cls-7" x="21.094" y="82.844" width="15.875" height="3.75"/>
    <rect id="wk-e" class="cls-7" x="21.094" y="89.375" width="15.875" height="3.75"/>
    <rect id="wk-f" class="cls-8" x="36.969" y="97.781" width="15.906" height="3.719"/>
    <rect id="wk-g" class="cls-8" x="55.688" y="97.781" width="15.875" height="3.719"/>
    <rect id="wk-h" class="cls-9" x="74.406" y="97.781" width="88.813" height="3.719"/>
    <rect id="wk-i" class="cls-8" x="166.031" y="97.781" width="14.938" height="3.719"/>
    <rect id="wk-j" class="cls-8" x="36.969" y="104.281" width="15.906" height="3.75"/>
    <rect id="wk-k" class="cls-9" x="55.688" y="104.281" width="43.938" height="3.75"/>
    <rect id="wk-l" class="cls-7" x="102.438" y="104.281" width="43.937" height="3.75"/>
    <rect id="wk-m" class="cls-8" x="149.188" y="104.281" width="14.937" height="3.75"/>
    <rect id="wk-n" class="cls-8" x="36.969" y="110.812" width="15.906" height="3.75"/>
    <rect id="wk-o" class="cls-10" x="55.688" y="110.812" width="43.938" height="3.75"/>
    <rect id="wk-p" class="cls-7" x="102.438" y="110.812" width="43.937" height="3.75"/>
    <rect id="wk-q" class="cls-8" x="36.969" y="117.375" width="15.906" height="3.719"/>
    <rect id="wk-r" class="cls-10" x="55.688" y="117.375" width="43.938" height="3.719"/>
    <rect id="wk-s" class="cls-7" x="102.438" y="117.375" width="43.937" height="3.719"/>
    <rect id="wk-t" class="cls-8" x="36.969" y="132.281" width="15.906" height="3.719"/>
    <rect id="wk-u" class="cls-7" x="55.688" y="132.281" width="15.875" height="3.719"/>
    <rect id="wk-v" class="cls-7" x="36.969" y="139.75" width="15.906" height="3.719"/>
    <rect id="wk-w" class="cls-10" x="74.406" y="132.281" width="71.969" height="3.719"/>
    <rect id="wk-x" class="cls-7" x="36.969" y="124.812" width="18.719" height="3.75"/>
    <rect id="wk-y" class="cls-7" x="21.094" y="150.938" width="15.875" height="3.75"/>
  </g>
  <g id="wk-mouse-cursor">
    <path id="wk-shadow" class="cls-11" d="M97.727,142.784l7.933,1.32-2.644,2.638,3.306,3.3L105,151.36l-3.3-3.3L99.049,150.7Z"/>
    <path id="wk-cursor" class="cls-12" d="M96.4,142.784l7.933,1.32-2.644,2.638,3.3,3.3-1.322,1.32-3.306-3.3L97.727,150.7Z"/>
  </g>
</svg>
