<svg id="wk-marketplace" xmlns="http://www.w3.org/2000/svg" width="222" height="222" viewBox="0 0 222 222">
  <metadata><?xpacket begin="﻿" id="W5M0MpCehiHzreSzNTczkc9d"?>
<x:xmpmeta xmlns:x="adobe:ns:meta/" x:xmptk="Adobe XMP Core 5.6-c140 79.160451, 2017/05/06-01:08:21        ">
   <rdf:RDF xmlns:rdf="http://www.w3.org/1999/02/22-rdf-syntax-ns#">
      <rdf:Description rdf:about=""/>
   </rdf:RDF>
</x:xmpmeta>
                                                                                                    
                                                                                                    
                                                                                                    
                                                                                                    
                                                                                                    
                                                                                                    
                                                                                                    
                                                                                                    
                                                                                                    
                                                                                                    
                                                                                                    
                                                                                                    
                                                                                                    
                                                                                                    
                                                                                                    
                                                                                                    
                                                                                                    
                                                                                                    
                                                                                                    
                                                                                                    
                           
<?xpacket end="w"?></metadata>
<defs>
    <style>
      .cls-1 {
        fill: #ebebeb;
      }

      .cls-2 {
        fill: #b37f43;
      }

      .cls-3 {
        fill: #c38c4c;
      }

      .cls-4 {
        fill: #e7e7e7;
      }

      .cls-5 {
        fill: #906b41;
      }

      .cls-6 {
        fill: #a1794a;
      }

      .cls-7 {
        fill: #a7c9f2;
      }

      .cls-8 {
        fill: #bcdafe;
      }

      .cls-9 {
        fill: #cae2ff;
      }

      .cls-10, .cls-11, .cls-12, .cls-13, .cls-9 {
        fill-rule: evenodd;
      }

      .cls-10 {
        fill: #fff;
      }

      .cls-11 {
        fill: #ff5353;
      }

      .cls-12 {
        fill: #efefef;
      }

      .cls-13 {
        fill: #f34b4b;
      }
    </style>
  </defs>
  <rect id="wk-wall" class="cls-1" x="34" y="58" width="153" height="134" rx="10" ry="10"/>
  <g id="wk-door-and-stairs">
    <path id="wk-frame" class="cls-2" d="M55,129H84a5,5,0,0,1,5,5v58a0,0,0,0,1,0,0H50a0,0,0,0,1,0,0V134A5,5,0,0,1,55,129Z"/>
    <rect id="wk-door" class="cls-3" x="54" y="133" width="31" height="59"/>
    <circle id="wk-lock" class="cls-4" cx="81.5" cy="159.5" r="2.5"/>
    <rect id="wk-step-2" class="cls-5" x="44" y="188" width="50" height="4"/>
    <rect id="wk-step-1" class="cls-6" x="46" y="184" width="46" height="4"/>
  </g>
  <g id="wk-glass-window">
    <rect id="wk-frame-2" data-name="wk-frame" class="cls-7" x="101" y="130" width="72" height="54" rx="5" ry="5"/>
    <rect id="wk-glass" class="cls-8" x="104" y="133" width="66" height="48"/>
    <path id="wk-shine" class="cls-9" d="M158.259,181h-3.39L106.8,133h3.39Zm-16.949,0L104,143.742V133h1.673l48.066,48H141.31Z"/>
  </g>
  <g id="wk-uppar">
    <path id="wk-white" class="cls-10" d="M125.916,99l-1.092-69.009h32.825L173.447,99H125.916ZM53.831,99L68.465,29.987H105.5L100.8,99H53.831Z"/>
    <path id="wk-red" class="cls-11" d="M176.436,99l-11.777-7.2-12.2-61.812h24.526a7.966,7.966,0,0,1,8,7.932l16,53.145V99H176.436ZM97.847,29.987h28.487l2.652,63H93ZM45.9,99H21V91.064L37,37.919a7.966,7.966,0,0,1,8-7.932H69.371L56.8,91.8Z"/>
  </g>
  <g id="wk-lower">
    <path id="wk-white-2" data-name="wk-white" class="cls-12" d="M146.994,124a18.007,18.007,0,0,1-18.008-18.006v-14H165v14A18.008,18.008,0,0,1,146.994,124Zm-71.987,0A18,18,0,0,1,57.014,105.99v-14H93v14A18,18,0,0,1,75.007,124Z"/>
    <path id="wk-red-2" data-name="wk-red" class="cls-13" d="M183,124A18,18,0,0,1,165,105.99v-14h35.985v14A18,18,0,0,1,183,124Zm-72,0A18,18,0,0,1,93,105.99v-14h35.986v14A18,18,0,0,1,110.993,124Zm-71.987,0A18.007,18.007,0,0,1,21,105.99v-14H57.015v14A18.007,18.007,0,0,1,39.006,124Z"/>
  </g>
</svg>
