<svg id="wk-trolley" xmlns="http://www.w3.org/2000/svg" width="202" height="202"><defs><style>.cls-3,.cls-4{fill-rule:evenodd}.cls-3{fill:#b6903f}.cls-4{fill:#e3bd6b}</style></defs><path id="wk-holder" d="M184.145 118.331l-70.141 41-6.435 3.761L37.723 40.609l6.435-3.761 66.132 115.969 70.141-41a3.691 3.691 0 0 1 5.075 1.377 3.786 3.786 0 0 1-1.361 5.137z" fill-rule="evenodd" fill="#3498db"/><path id="wk-grip" d="M16.134 33.667c.537-2.022 2.023-4.228 5.425-3.541l21.644 6.7-3.085 7.446L18.763 38.3a3.78 3.78 0 0 1-2.629-4.633z" fill="#e85757" fill-rule="evenodd"/><g id="wk-big-box"><path id="wk-box-bg" class="cls-3" d="M85.715 97.687l57.915-33.854a2.952 2.952 0 0 1 4.06 1.1l26.75 46.908-63.063 36.863-26.75-46.904a3.029 3.029 0 0 1 1.088-4.113z"/><path id="wk-tape" class="cls-4" d="M110.168 83.393l9.009-5.266 14.861 26.06-7.462-2.588-1.547 7.854z"/></g><g id="wk-small-box"><path id="wk-box-bg-2" data-name="wk-box-bg" class="cls-3" d="M63.424 58.6l41.184-24.074a2.952 2.952 0 0 1 4.06 1.1L127.987 69.5 81.655 96.585 62.336 62.707a3.03 3.03 0 0 1 1.088-4.107z"/><path id="wk-tape-2" data-name="wk-tape" class="cls-4" d="M81.442 48.064l5.148-3.009 9.66 16.939-4.843-2.381L91.1 65z"/></g><g id="wk-tyre"><path id="wk-tyre-2" data-name="wk-tyre" d="M98.7 137.179a19.178 19.178 0 1 1-7 26.225 19.077 19.077 0 0 1 7-26.225z" fill="#333" fill-rule="evenodd"/><circle id="wk-tyre-plate" cx="108.672" cy="154.313" r="8.516" fill="#ccc"/><path id="wk-tyre-shine" d="M109.065 142.119a11 11 0 0 0-11.46 9.821c0-.2-.014-.4-.005-.606a11.063 11.063 0 0 1 22.1.915c-.009.2-.037.4-.057.6a10.962 10.962 0 0 0-10.578-10.73z" fill="#fff" fill-rule="evenodd"/></g></svg>