<svg id="wk-trolley" xmlns="http://www.w3.org/2000/svg" width="202" height="202" viewBox="0 0 202 202">
  <metadata><?xpacket begin="﻿" id="W5M0MpCehiHzreSzNTczkc9d"?>
<x:xmpmeta xmlns:x="adobe:ns:meta/" x:xmptk="Adobe XMP Core 5.6-c140 79.160451, 2017/05/06-01:08:21        ">
   <rdf:RDF xmlns:rdf="http://www.w3.org/1999/02/22-rdf-syntax-ns#">
      <rdf:Description rdf:about=""/>
   </rdf:RDF>
</x:xmpmeta>
                                                                                                    
                                                                                                    
                                                                                                    
                                                                                                    
                                                                                                    
                                                                                                    
                                                                                                    
                                                                                                    
                                                                                                    
                                                                                                    
                                                                                                    
                                                                                                    
                                                                                                    
                                                                                                    
                                                                                                    
                                                                                                    
                                                                                                    
                                                                                                    
                                                                                                    
                                                                                                    
                           
<?xpacket end="w"?></metadata>
<defs>
    <style>
      .cls-1 {
        fill: #3498db;
      }

      .cls-1, .cls-2, .cls-3, .cls-4, .cls-5, .cls-7 {
        fill-rule: evenodd;
      }

      .cls-2 {
        fill: #e85757;
      }

      .cls-3 {
        fill: #b6903f;
      }

      .cls-4 {
        fill: #e3bd6b;
      }

      .cls-5 {
        fill: #333;
      }

      .cls-6 {
        fill: #ccc;
      }

      .cls-7 {
        fill: #fff;
      }
    </style>
  </defs>
  <path id="wk-holder" class="cls-1" d="M184.145,118.331l-70.141,41h0l-6.435,3.761L37.723,40.609l6.435-3.761,66.132,115.969,70.141-41a3.691,3.691,0,0,1,5.075,1.377A3.786,3.786,0,0,1,184.145,118.331Z"/>
  <path id="wk-grip" class="cls-2" d="M16.134,33.667c0.537-2.022,2.023-4.228,5.425-3.541l21.644,6.7-3.085,7.446L18.763,38.3A3.78,3.78,0,0,1,16.134,33.667Z"/>
  <g id="wk-big-box">
    <path id="wk-box-bg" class="cls-3" d="M85.715,97.687L143.63,63.833a2.952,2.952,0,0,1,4.06,1.1l26.75,46.908-63.063,36.863L84.627,101.8A3.029,3.029,0,0,1,85.715,97.687Z"/>
    <path id="wk-tape" class="cls-4" d="M110.168,83.393l9.009-5.266,14.861,26.06-7.462-2.588-1.547,7.854Z"/>
  </g>
  <g id="wk-small-box">
    <path id="wk-box-bg-2" data-name="wk-box-bg" class="cls-3" d="M63.424,58.6l41.184-24.074a2.952,2.952,0,0,1,4.06,1.1L127.987,69.5,81.655,96.585,62.336,62.707A3.03,3.03,0,0,1,63.424,58.6Z"/>
    <path id="wk-tape-2" data-name="wk-tape" class="cls-4" d="M81.442,48.064l5.148-3.009,9.66,16.939-4.843-2.381L91.1,65Z"/>
  </g>
  <g id="wk-tyre">
    <path id="wk-tyre-2" data-name="wk-tyre" class="cls-5" d="M98.7,137.179a19.178,19.178,0,1,1-7,26.225A19.077,19.077,0,0,1,98.7,137.179Z"/>
    <circle id="wk-tyre-plate" class="cls-6" cx="108.672" cy="154.313" r="8.516"/>
    <path id="wk-tyre-shine" class="cls-7" d="M109.065,142.119a11,11,0,0,0-11.46,9.821c0-.2-0.014-0.4-0.005-0.606a11.063,11.063,0,0,1,22.1.915c-0.009.2-.037,0.4-0.057,0.6A10.962,10.962,0,0,0,109.065,142.119Z"/>
  </g>
</svg>
