<svg id="wk-truck" xmlns="http://www.w3.org/2000/svg" width="202" height="202" viewBox="0 0 202 202">
  <metadata><?xpacket begin="﻿" id="W5M0MpCehiHzreSzNTczkc9d"?>
<x:xmpmeta xmlns:x="adobe:ns:meta/" x:xmptk="Adobe XMP Core 5.6-c140 79.160451, 2017/05/06-01:08:21        ">
   <rdf:RDF xmlns:rdf="http://www.w3.org/1999/02/22-rdf-syntax-ns#">
      <rdf:Description rdf:about=""/>
   </rdf:RDF>
</x:xmpmeta>
                                                                                                    
                                                                                                    
                                                                                                    
                                                                                                    
                                                                                                    
                                                                                                    
                                                                                                    
                                                                                                    
                                                                                                    
                                                                                                    
                                                                                                    
                                                                                                    
                                                                                                    
                                                                                                    
                                                                                                    
                                                                                                    
                                                                                                    
                                                                                                    
                                                                                                    
                                                                                                    
                           
<?xpacket end="w"?></metadata>
<defs>
    <style>
      .cls-1 {
        fill: #f46464;
      }

      .cls-2 {
        fill: #ccc;
      }

      .cls-3 {
        fill: #d1ebff;
      }

      .cls-4, .cls-6 {
        fill: #fff;
      }

      .cls-4 {
        fill-rule: evenodd;
      }

      .cls-5 {
        fill: #f7efc5;
      }
    </style>
  </defs>
  <path class="cls-1" d="M39,29H164a10,10,0,0,1,10,10V145.719a0,0,0,0,1,0,0H29a0,0,0,0,1,0,0V39A10,10,0,0,1,39,29Z"/>
  <path id="Rectangle_7_copy" data-name="Rectangle 7 copy" class="cls-2" d="M46.313,41.313H156.688a5,5,0,0,1,5,5V158.781a0,0,0,0,1,0,0H41.313a0,0,0,0,1,0,0V46.313A5,5,0,0,1,46.313,41.313Z"/>
  <path id="Rectangle_7_copy_3" data-name="Rectangle 7 copy 3" class="cls-3" d="M59.375,52.188h84.969a5,5,0,0,1,5,5v43.594a0,0,0,0,1,0,0H54.375a0,0,0,0,1,0,0V57.188A5,5,0,0,1,59.375,52.188Z"/>
  <path class="cls-4" d="M103.1,56.55h2.175L68.15,96.425H65.975Z"/>
  <path id="Rectangle_10_copy" data-name="Rectangle 10 copy" class="cls-4" d="M112.524,56.55H114.7L77.575,96.425H75.4Z"/>
  <path id="Rectangle_10_copy_2" data-name="Rectangle 10 copy 2" class="cls-4" d="M125.574,56.55h2.175L90.625,96.425H88.45Z"/>
  <path id="Rectangle_10_copy_2-2" data-name="Rectangle 10 copy 2" class="cls-4" d="M135,56.55h2.175L100.05,96.425H97.875Z"/>
  <path d="M54.375,158.781H67.406a0,0,0,0,1,0,0v8.7A6.516,6.516,0,0,1,60.891,174h0a6.516,6.516,0,0,1-6.516-6.516v-8.7A0,0,0,0,1,54.375,158.781Z"/>
  <path id="Rectangle_8_copy" data-name="Rectangle 8 copy" d="M136.312,158.781h13.032a0,0,0,0,1,0,0v8.7A6.516,6.516,0,0,1,142.828,174h0a6.516,6.516,0,0,1-6.516-6.516v-8.7a0,0,0,0,1,0,0Z"/>
  <rect class="cls-5" x="52.938" y="134.844" width="5.063" height="12.344" rx="1" ry="1"/>
  <rect id="Rectangle_9_copy_2" data-name="Rectangle 9 copy 2" class="cls-6" x="58" y="134.844" width="16.688" height="12.344" rx="1" ry="1"/>
  <rect id="Rectangle_9_copy" data-name="Rectangle 9 copy" class="cls-5" x="144.281" y="134.844" width="5.063" height="12.344" rx="1" ry="1"/>
  <rect id="Rectangle_9_copy_3" data-name="Rectangle 9 copy 3" class="cls-6" x="127.594" y="134.844" width="16.687" height="12.344" rx="1" ry="1"/>
</svg>
