<svg id="wk-tshirts" xmlns="http://www.w3.org/2000/svg" width="220" height="220" viewBox="0 0 220 220">
  <metadata><?xpacket begin="﻿" id="W5M0MpCehiHzreSzNTczkc9d"?>
<x:xmpmeta xmlns:x="adobe:ns:meta/" x:xmptk="Adobe XMP Core 5.6-c140 79.160451, 2017/05/06-01:08:21        ">
   <rdf:RDF xmlns:rdf="http://www.w3.org/1999/02/22-rdf-syntax-ns#">
      <rdf:Description rdf:about=""/>
   </rdf:RDF>
</x:xmpmeta>
                                                                                                    
                                                                                                    
                                                                                                    
                                                                                                    
                                                                                                    
                                                                                                    
                                                                                                    
                                                                                                    
                                                                                                    
                                                                                                    
                                                                                                    
                                                                                                    
                                                                                                    
                                                                                                    
                                                                                                    
                                                                                                    
                                                                                                    
                                                                                                    
                                                                                                    
                                                                                                    
                           
<?xpacket end="w"?></metadata>
<defs>
    <style>
      .cls-1 {
        fill: #e3e3e3;
      }

      .cls-2 {
        fill: #333;
      }

      .cls-2, .cls-3, .cls-4 {
        fill-rule: evenodd;
      }

      .cls-3 {
        fill: #ca3333;
      }

      .cls-4 {
        fill: #ea5656;
      }
    </style>
  </defs>
  <g id="wk-poles">
    <rect id="wk-poles-2" data-name="wk-poles" class="cls-1" x="19" y="36" width="182" height="7" rx="3.5" ry="3.5"/>
  </g>
  <g id="wk-b">
    <g id="wk-hanger">
      <path id="wk-hanger-2" data-name="wk-hanger" class="cls-2" d="M120.409,92.941H33.955s-13.051.963-3.368-5.4L73.139,59.808H72.128v-3.5c-5.408-.777-10.484-6.027-10.484-11.655A12.011,12.011,0,0,1,73.293,33a10.792,10.792,0,0,1,7.678,3.451H73.936v0.093c-0.214-.018-0.422-0.048-0.643-0.048a8.158,8.158,0,0,0,0,16.317,17.022,17.022,0,0,0,2.33,0v6.977L121.011,88.2C130.366,93.6,120.409,92.941,120.409,92.941ZM109.19,85.615C98.735,79.057,74.334,64,74.334,64S50.647,79.182,40.493,86.149c-5.03,3.478,2.373,2.81,2.373,2.81h65.9S115.78,89.423,109.19,85.615ZM81.533,45.732a1.688,1.688,0,0,1-1.688-1.687V43.2h3.376v0.843A1.688,1.688,0,0,1,81.533,45.732Z"/>
    </g>
    <g id="wk-tshirt">
      <path id="wk-tshirt-2" data-name="wk-tshirt" class="cls-3" d="M148,118.156s-6.908,5.79-13.475,10.187a96.653,96.653,0,0,1-11.625,6.619l-1.291-1.915-7.38-10.3V143.1c0,7.181,1.165,15.269,1.165,22.52a195.022,195.022,0,0,1-1.165,21.223H85.395c-10.312,0-21.71,1.166-31.161,1.166a170.324,170.324,0,0,1-20.386-1.166V163.075c0-7.216,1.165-15.006,1.165-21.725a127.177,127.177,0,0,0-1.165-17.441l-7.4,9.138-1.291,1.915s-7-5.85-13.6-10.272a94.123,94.123,0,0,0-11.5-6.534s5.666-9.566,11.747-18.582c7.043-10.443,14.644-20.546,14.644-20.546V78.295L55.3,70.313c-0.025.4-.06,0.793-0.06,1.2,0,10.359,7.839,18.6,18.217,18.6s19.366-8.241,19.366-18.6c0-.4-0.035-0.8-0.061-1.2l28.847,7.982v0.733S127,88.179,132.9,96.935C140.068,107.561,148,118.156,148,118.156Z"/>
    </g>
  </g>
  <g id="wk-a">
    <g id="wk-hanger-3" data-name="wk-hanger">
      <path id="wk-hanger-4" data-name="wk-hanger" class="cls-2" d="M192.409,92.941H105.955s-13.051.963-3.368-5.4l42.552-27.736h-1.011v-3.5c-5.408-.777-10.484-6.027-10.484-11.655A12.01,12.01,0,0,1,145.293,33a10.79,10.79,0,0,1,7.678,3.451h-7.035v0.093c-0.213-.018-0.422-0.048-0.643-0.048a8.158,8.158,0,0,0,0,16.317,17.026,17.026,0,0,0,2.33,0v6.977L193.011,88.2C202.366,93.6,192.409,92.941,192.409,92.941ZM181.19,85.615C170.735,79.057,146.334,64,146.334,64s-23.687,15.177-33.841,22.144c-5.03,3.478,2.373,2.81,2.373,2.81h65.9S187.78,89.423,181.19,85.615ZM153.533,45.732a1.688,1.688,0,0,1-1.689-1.687V43.2h3.377v0.843A1.688,1.688,0,0,1,153.533,45.732Z"/>
    </g>
    <g id="wk-tshirt-3" data-name="wk-tshirt">
      <path id="wk-tshirt-4" data-name="wk-tshirt" class="cls-4" d="M220,118.156s-6.908,5.79-13.475,10.187a96.653,96.653,0,0,1-11.625,6.619l-1.291-1.915-7.38-10.3V143.1c0,7.181,1.165,15.269,1.165,22.52a195.022,195.022,0,0,1-1.165,21.223H157.4c-10.312,0-21.71,1.166-31.161,1.166a170.316,170.316,0,0,1-20.386-1.166V163.075c0-7.216,1.165-15.006,1.165-21.725a127.177,127.177,0,0,0-1.165-17.441l-7.4,9.138-1.291,1.915s-7-5.85-13.6-10.272a94.127,94.127,0,0,0-11.5-6.534s5.666-9.566,11.747-18.582c7.043-10.443,14.644-20.546,14.644-20.546V78.295L127.3,70.313c-0.025.4-.061,0.793-0.061,1.2,0,10.359,7.839,18.6,18.217,18.6s19.366-8.241,19.366-18.6c0-.4-0.035-0.8-0.06-1.2l28.847,7.982v0.733S199,88.179,204.9,96.935C212.068,107.561,220,118.156,220,118.156Z"/>
    </g>
  </g>
</svg>
