<svg id="wk-truck-perspective" xmlns="http://www.w3.org/2000/svg" width="202" height="202" viewBox="0 0 202 202">
  <metadata><?xpacket begin="﻿" id="W5M0MpCehiHzreSzNTczkc9d"?>
<x:xmpmeta xmlns:x="adobe:ns:meta/" x:xmptk="Adobe XMP Core 5.6-c140 79.160451, 2017/05/06-01:08:21        ">
   <rdf:RDF xmlns:rdf="http://www.w3.org/1999/02/22-rdf-syntax-ns#">
      <rdf:Description rdf:about=""/>
   </rdf:RDF>
</x:xmpmeta>
                                                                                                    
                                                                                                    
                                                                                                    
                                                                                                    
                                                                                                    
                                                                                                    
                                                                                                    
                                                                                                    
                                                                                                    
                                                                                                    
                                                                                                    
                                                                                                    
                                                                                                    
                                                                                                    
                                                                                                    
                                                                                                    
                                                                                                    
                                                                                                    
                                                                                                    
                                                                                                    
                           
<?xpacket end="w"?></metadata>
<defs>
    <style>
      .cls-1 {
        fill: #f26060;
      }

      .cls-1, .cls-2, .cls-5 {
        fill-rule: evenodd;
      }

      .cls-2 {
        fill: #8cd3ee;
      }

      .cls-3 {
        fill: #333;
      }

      .cls-4 {
        fill: #ccc;
      }

      .cls-5 {
        fill: #fff;
      }
    </style>
  </defs>
  <path id="wk-truck-container" class="cls-1" d="M82.148,136.333a17.576,17.576,0,0,0-34.9,0h-1.4a17.576,17.576,0,0,0-34.9,0H2V48H129.6v88.333H82.148Z"/>
  <path id="wk-truck-front" class="cls-2" d="M184.448,136.333a17.576,17.576,0,0,0-34.9,0H132.9V67.875h35.06L200,102.218v34.115H184.448ZM165.671,71.187H154.9V102.1h39.6Z"/>
  <g id="wk-tyre-a">
    <ellipse id="wk-tyre" class="cls-3" cx="28.391" cy="138.531" rx="15.391" ry="15.469"/>
    <circle id="wk-tyre-plate" class="cls-4" cx="28.391" cy="138.563" r="6.609"/>
    <path id="wk-tyre-shine" class="cls-5" d="M33.7,130.4a9.868,9.868,0,0,0-13.346,2.612c0.09-.16.172-0.324,0.271-0.481a9.911,9.911,0,1,1,16.716,10.652c-0.1.158-.212,0.3-0.318,0.451A9.95,9.95,0,0,0,33.7,130.4Z"/>
  </g>
  <g id="wk-tyre-b">
    <circle id="wk-tyre-2" data-name="wk-tyre" class="cls-3" cx="64.688" cy="138.531" r="15.406"/>
    <ellipse id="wk-tyre-plate-2" data-name="wk-tyre-plate" class="cls-4" cx="64.688" cy="138.563" rx="6.594" ry="6.625"/>
    <path id="wk-tyre-shine-2" data-name="wk-tyre-shine" class="cls-5" d="M70,130.4a9.867,9.867,0,0,0-13.346,2.612c0.09-.16.172-0.324,0.271-0.481a9.911,9.911,0,1,1,16.716,10.652c-0.1.158-.212,0.3-0.318,0.451A9.95,9.95,0,0,0,70,130.4Z"/>
  </g>
  <g id="wk-tyre-c">
    <circle id="wk-tyre-3" data-name="wk-tyre" class="cls-3" cx="167" cy="138.531" r="15.406"/>
    <ellipse id="wk-tyre-plate-3" data-name="wk-tyre-plate" class="cls-4" cx="167" cy="138.563" rx="6.594" ry="6.625"/>
    <path id="wk-tyre-shine-3" data-name="wk-tyre-shine" class="cls-5" d="M172.3,130.4a9.868,9.868,0,0,0-13.346,2.612c0.089-.16.172-0.324,0.271-0.481a9.911,9.911,0,1,1,16.716,10.652c-0.1.158-.211,0.3-0.318,0.451A9.951,9.951,0,0,0,172.3,130.4Z"/>
  </g>
</svg>
