<svg id="wk-ticket" xmlns="http://www.w3.org/2000/svg" width="202" height="202"><defs><style>.cls-3{fill-rule:evenodd;fill:#80add4}</style></defs><path id="ki-bg" d="M-.008 98.728l163.821-76.721 38.2 82.264-163.826 76.721zM17.948 137.4c22.023-13.609 2.762-41.384-15.28-32.909zm17.944 38.65c22.023-13.609 2.762-41.384-15.28-32.909zM181.769 60.681c-24.51 8.184-33.32-24.485-15.28-32.909zm17.944 38.648c-24.509 8.183-33.32-24.485-15.279-32.909z" fill-rule="evenodd" fill="#a4c5e1"/><path id="ki-boundries" d="M28.329 97.475L144.642 43l29.411 63.344L57.74 160.818zm7.206 2.634l106.484-49.868 24.827 53.471-106.483 49.869z" fill="#fff" fill-rule="evenodd"/><path id="ki-text-a" class="cls-3" d="M77.9 103.3l39.321-18.41 2.292 4.936L80.2 108.238z"/><path id="ki-text-b" class="cls-3" d="M68.125 120.9l68.8-32.222 2.292 4.936-68.8 32.223z"/></svg>