<svg xmlns="http://www.w3.org/2000/svg" width="202" height="202"><path fill="#a3774b" d="M86.5 129.031h28.969v52.719H86.5z"/><path fill="#67be5e" d="M78.813 181.75h44.313V186H78.813z"/><path d="M70.216 149.015C41.655 163.9 14.711 122.793 45.94 99.551a24.12 24.12 0 0 1 4.335-15.62c-.96-5.762-2.2-21.512 17.34-32.108 2.359-16.4 12.2-20.776 16.473-23.43 10.492-19.461 31.352-14.257 35.546 3.471 11.157 1.928 20.613 16.408 18.206 31.24 15.235 6.933 20.128 16.473 19.074 36.447 25.64 15.328 11.339 65.711-23.409 49.464-9.809 4.215-15.611 1.029-19.94.868-4.362 1.009-10.545 6.194-22.542 0 0 0-13.995 3.129-20.807-.868z" fill-rule="evenodd" fill="#67be5e"/></svg>