<svg id="wk-truck" xmlns="http://www.w3.org/2000/svg" width="202" height="202"><defs><style>.cls-4,.cls-6{fill:#fff}.cls-4{fill-rule:evenodd}.cls-5{fill:#f7efc5}</style></defs><path d="M39 29h125a10 10 0 0 1 10 10v106.719H29V39a10 10 0 0 1 10-10z" fill="#f46464"/><path id="Rectangle_7_copy" data-name="Rectangle 7 copy" d="M46.313 41.313h110.375a5 5 0 0 1 5 5v112.468H41.313V46.313a5 5 0 0 1 5-5z" fill="#ccc"/><path id="Rectangle_7_copy_3" data-name="Rectangle 7 copy 3" d="M59.375 52.188h84.969a5 5 0 0 1 5 5v43.594H54.375V57.188a5 5 0 0 1 5-5z" fill="#d1ebff"/><path class="cls-4" d="M103.1 56.55h2.175L68.15 96.425h-2.175z"/><path id="Rectangle_10_copy" data-name="Rectangle 10 copy" class="cls-4" d="M112.524 56.55h2.176L77.575 96.425H75.4z"/><path id="Rectangle_10_copy_2" data-name="Rectangle 10 copy 2" class="cls-4" d="M125.574 56.55h2.175L90.625 96.425H88.45z"/><path id="Rectangle_10_copy_2-2" data-name="Rectangle 10 copy 2" class="cls-4" d="M135 56.55h2.175L100.05 96.425h-2.175z"/><path d="M54.375 158.781h13.031v8.7A6.516 6.516 0 0 1 60.891 174a6.516 6.516 0 0 1-6.516-6.516v-8.7-.003z"/><path id="Rectangle_8_copy" data-name="Rectangle 8 copy" d="M136.312 158.781h13.032v8.7a6.516 6.516 0 0 1-6.516 6.519 6.516 6.516 0 0 1-6.516-6.516v-8.7z"/><rect class="cls-5" x="52.938" y="134.844" width="5.063" height="12.344" rx="1" ry="1"/><rect id="Rectangle_9_copy_2" data-name="Rectangle 9 copy 2" class="cls-6" x="58" y="134.844" width="16.688" height="12.344" rx="1" ry="1"/><rect id="Rectangle_9_copy" data-name="Rectangle 9 copy" class="cls-5" x="144.281" y="134.844" width="5.063" height="12.344" rx="1" ry="1"/><rect id="Rectangle_9_copy_3" data-name="Rectangle 9 copy 3" class="cls-6" x="127.594" y="134.844" width="16.687" height="12.344" rx="1" ry="1"/></svg>