<svg id="wk-user-group" xmlns="http://www.w3.org/2000/svg" width="222" height="222" viewBox="0 0 222 222">
  <metadata><?xpacket begin="﻿" id="W5M0MpCehiHzreSzNTczkc9d"?>
<x:xmpmeta xmlns:x="adobe:ns:meta/" x:xmptk="Adobe XMP Core 5.6-c140 79.160451, 2017/05/06-01:08:21        ">
   <rdf:RDF xmlns:rdf="http://www.w3.org/1999/02/22-rdf-syntax-ns#">
      <rdf:Description rdf:about=""/>
   </rdf:RDF>
</x:xmpmeta>
                                                                                                    
                                                                                                    
                                                                                                    
                                                                                                    
                                                                                                    
                                                                                                    
                                                                                                    
                                                                                                    
                                                                                                    
                                                                                                    
                                                                                                    
                                                                                                    
                                                                                                    
                                                                                                    
                                                                                                    
                                                                                                    
                                                                                                    
                                                                                                    
                                                                                                    
                                                                                                    
                           
<?xpacket end="w"?></metadata>
<defs>
    <style>
      .cls-1 {
        fill: #6172dd;
      }

      .cls-1, .cls-3, .cls-4, .cls-5, .cls-6 {
        fill-rule: evenodd;
      }

      .cls-2, .cls-6 {
        fill: #eecfad;
      }

      .cls-3 {
        fill: #fcdcb9;
      }

      .cls-4 {
        fill: #222;
      }

      .cls-5 {
        fill: #ff6c6c;
      }
    </style>
  </defs>
  <path id="wk-tshirt-back" class="cls-1" d="M150.709,102.757a53.8,53.8,0,0,0-16.437-2.706c-13.464,0-30.3,2.706-30.3,2.706C88.141,104.321,73.7,122.171,73.891,136.1c1.158,30.006,3.948,29.842,3.948,29.842,27.8-15.169,81.486,35.434,95.948-4.187,0,0,3.584-6.454,1.457-29.715C175.244,120.37,164.564,106.712,150.709,102.757Z"/>
  <path id="wk-neck-back" class="cls-2" d="M123.531,81.844h19.438a0,0,0,0,1,0,0v26.531a5,5,0,0,1-5,5h-9.438a5,5,0,0,1-5-5V81.844A0,0,0,0,1,123.531,81.844Z"/>
  <path id="wk-face-back" class="cls-3" d="M143.409,20.9c-20.634,0-37.362,17.172-37.362,38.354S122.775,97.6,143.409,97.6s26.765-17.172,26.765-38.354S164.044,20.9,143.409,20.9Z"/>
  <path id="wk-hair-back" class="cls-4" d="M171.384,68.336C163.2,51.31,180.76,27.683,129.407,41.969c-7.156.611-5.255,10.24-4.749,11.746s-2,5.1-5.411,1.858c-0.424-.04-7.835-7.774-9.017,5.572-0.45,5.072,7,14.6,7,14.6C106.827,64.711,105.083,51.386,108.6,37c3.085-12.639,7.149-15.253,20.361-17.632C182.777,9.674,179.55,53.875,171.384,68.336Z"/>
  <path id="wk-tshirt-front" class="cls-5" d="M79.516,132.419a53.926,53.926,0,0,1,16.458-2.706c13.481,0,30.342,2.706,30.342,2.706,15.847,1.563,30.305,19.414,30.116,33.344,0.978,21.71-3.953,29.843-3.953,29.843-37.8,2.392-82.072,22.268-96.07-4.188,0,0-1.9-8.947-1.459-29.714C54.949,150.032,65.643,136.373,79.516,132.419Z"/>
  <path id="wk-neck-front" class="cls-6" d="M86.5,111.624h19.985v21.057a10.006,10.006,0,1,1-19.985,0V111.624Z"/>
  <path id="wk-face-front" class="cls-3" d="M86.125,50.531c20.661,0,37.41,17.172,37.41,38.355s-16.749,38.355-37.41,38.355-26.8-17.172-26.8-38.355S65.464,50.531,86.125,50.531Z"/>
  <path id="wk-hair-front" class="cls-4" d="M47.112,77.778c7.3,4.734,15.4,2.624,25.076.59q13.126-2.757,27.294-4.305c7.3,1.41,5.924,7.782,5.418,9.287s2,5.1,5.418,1.858c0.424-.04,9.913-7.8,9.029,5.572s-1.806,16.717-1.806,16.717c10.42-11.034,14.715-26.57,10.835-40.864-3.529-13-14.231-26.584-27.088-27.861-12.624-1.254-18.9,10.846-32.506,13-12.587,1.994-25.846-7.048-30.7-1.858C33.149,55.192,37.235,71.37,47.112,77.778Z"/>
</svg>
