<svg id="wk-wallet" xmlns="http://www.w3.org/2000/svg" width="202" height="202"><defs><style>.cls-1,.cls-2{fill:#76b976;fill-rule:evenodd}.cls-2{fill:#529352}</style></defs><g id="wk-lower-back"><path id="wk-back-light-green" class="cls-1" d="M27.265 66.133l117.023-38.014a2.561 2.561 0 0 1 3.227 1.654l13.809 42.817a2.574 2.574 0 0 1-1.648 3.239L42.653 113.844a2.561 2.561 0 0 1-3.227-1.655l-13.81-42.817a2.574 2.574 0 0 1 1.649-3.239z"/><path id="wk-front-dark-green" class="cls-2" d="M32.106 68.615l109.708-35.638a2.56 2.56 0 0 1 3.227 1.655l10.659 33.03a2.574 2.574 0 0 1-1.649 3.238L44.337 106.539a2.561 2.561 0 0 1-3.227-1.654L30.457 71.854a2.573 2.573 0 0 1 1.649-3.239z"/></g><g id="wk-uppar-front"><path id="wk-back-light-green-2" data-name="wk-back-light-green" class="cls-1" d="M37.9 61.144l121.8-17.18a2.564 2.564 0 0 1 2.894 2.189l6.241 44.566a2.57 2.57 0 0 1-2.181 2.9L44.857 110.8a2.564 2.564 0 0 1-2.894-2.189l-6.241-44.562a2.57 2.57 0 0 1 2.178-2.905z"/><path id="wk-front-dark-green-2" data-name="wk-front-dark-green" class="cls-2" d="M42.244 64.427l114.19-16.106a2.563 2.563 0 0 1 2.894 2.189l4.815 34.38a2.571 2.571 0 0 1-2.181 2.9L47.772 103.9a2.564 2.564 0 0 1-2.894-2.188l-4.815-34.38a2.57 2.57 0 0 1 2.181-2.905z"/></g><path id="wk-lower-leather" d="M25.406 61.619h151.188a6.486 6.486 0 0 1 6.406 6.5v99.477a6.406 6.406 0 0 1-6.406 6.404H25.406A6.406 6.406 0 0 1 19 167.594V68.025a6.406 6.406 0 0 1 6.406-6.406z" fill="#96713f" fill-rule="evenodd"/><path id="wk-uppar-leather" d="M27.874 64.088h146.251a6.494 6.494 0 0 1 6.415 6.512v94.517a6.417 6.417 0 0 1-6.415 6.418H27.874a6.417 6.417 0 0 1-6.414-6.418V70.505a6.416 6.416 0 0 1 6.414-6.417z" fill="#a07844" fill-rule="evenodd"/><path id="wk-stitches" d="M30.218 69l140.744.087a3.78 3.78 0 0 1 3.838 3.782v89.88a3.854 3.854 0 0 1-3.838 3.869H30.218a3.854 3.854 0 0 1-3.838-3.869v-89.88A3.853 3.853 0 0 1 30.218 69z" fill-opacity="0" stroke="#d4a567" stroke-width="2" stroke-dasharray="8 4" fill="#a07844" fill-rule="evenodd"/><g id="wk-belt"><path id="wk-belt-2" data-name="wk-belt" d="M121.214 108.371H183v18.877h-61.786c-5.276 0-9.554-3.556-9.554-8.765v-.683a9.493 9.493 0 0 1 9.554-9.429z" fill="#825f31" fill-rule="evenodd"/><ellipse id="wk-button" cx="121.5" cy="118.219" rx="6.562" ry="6.563" fill="#ccc"/></g></svg>