<svg xmlns="http://www.w3.org/2000/svg" width="202" height="202"><g fill="#fab007"><circle data-name="wk-sun" cx="52.719" cy="87.219" r="28.656"/><path d="M71.694 64.2l13.318-9-9.006 13.268zm-22.017 52.58h6.1l-3.114 15.68zM52.661 42l3.114 15.68h-6.1zm-23.215 64l4.311 4.264-13.41 8.91zm-6.594-15.753L7 87.167l15.852-2.951v6.031zM20.439 55.2l13.318 9-4.311 4.265zM82.6 84.216l15.852 2.951-15.852 3.08v-6.031zm2.505 34.954l-13.411-8.91 4.312-4.26z" fill-rule="evenodd"/></g><path d="M149.688 159H31.563v-.263a27.123 27.123 0 0 1 3.781-54.018c.326 0 .649.013.973.024.735-18.243 16.089-32.805 34.933-32.805a35.611 35.611 0 0 1 10.785 1.672 32.228 32.228 0 0 1 61.977-5.976 47.115 47.115 0 0 1 5.676-.352c25.577 0 46.312 20.532 46.312 45.86S175.265 159 149.688 159z" fill="#c6d8ff" fill-rule="evenodd"/></svg>