<svg id="wk-waste-coat" xmlns="http://www.w3.org/2000/svg" width="220" height="220" viewBox="0 0 220 220">
  <metadata><?xpacket begin="﻿" id="W5M0MpCehiHzreSzNTczkc9d"?>
<x:xmpmeta xmlns:x="adobe:ns:meta/" x:xmptk="Adobe XMP Core 5.6-c140 79.160451, 2017/05/06-01:08:21        ">
   <rdf:RDF xmlns:rdf="http://www.w3.org/1999/02/22-rdf-syntax-ns#">
      <rdf:Description rdf:about=""/>
   </rdf:RDF>
</x:xmpmeta>
                                                                                                    
                                                                                                    
                                                                                                    
                                                                                                    
                                                                                                    
                                                                                                    
                                                                                                    
                                                                                                    
                                                                                                    
                                                                                                    
                                                                                                    
                                                                                                    
                                                                                                    
                                                                                                    
                                                                                                    
                                                                                                    
                                                                                                    
                                                                                                    
                                                                                                    
                                                                                                    
                           
<?xpacket end="w"?></metadata>
<defs>
    <style>
      .cls-1 {
        fill: #e3e3e3;
      }

      .cls-2 {
        fill: #333;
      }

      .cls-2, .cls-3, .cls-4 {
        fill-rule: evenodd;
      }

      .cls-4 {
        fill: #555;
      }
    </style>
  </defs>
  <g id="Poles">
    <rect id="Rectangle_1011_copy_3" data-name="Rectangle 1011 copy 3" class="cls-1" x="2" y="28" width="216" height="8" rx="4" ry="4"/>
  </g>
  <g id="wk-b">
    <g id="wk-hanger">
      <path id="wk-hanger-2" data-name="wk-hanger" class="cls-2" d="M127.5,93.935H25.2s-15.443,1.133-3.986-6.35L70.858,55.412v-3.87C64.45,50.621,58.436,44.4,58.436,37.725a14.234,14.234,0,0,1,13.8-13.816A12.782,12.782,0,0,1,81.335,28H73v0.111c-0.253-.021-0.5-0.057-0.762-0.057a9.926,9.926,0,0,0-9.661,9.671A9.926,9.926,0,0,0,72.238,47.4a20.146,20.146,0,0,0,2.76,0v7.846l53.214,33.121C139.283,94.71,127.5,93.935,127.5,93.935Zm-12.142-8.022c-13.474-7.925-42.346-25.906-42.346-25.906S46.551,77.213,33.264,85.35c-8.673,4.479,3.058,3.6,3.058,3.6h78.49S122.592,89.714,115.358,85.913ZM82,39a2,2,0,0,1-2-2V36h4v1A2,2,0,0,1,82,39Z"/>
    </g>
    <g id="wk-waste-coat-2" data-name="wk-waste-coat">
      <path id="wk-main-cloth" class="cls-2" d="M119.7,125.769c0-2.355-1.381,16.113-1.381,34.728,0,17.8,1.381,35.736,1.381,35.736H94.78c-11.047,0-24.2-1.382-36.036-1.382-17.959,0-32.9,1.382-32.9,1.382s1.38-23.414,1.38-43.3c0-13.463-1.38-25.306-1.38-27.166,6.439-32.533-9.184-52.018-9.184-52.018v-0.87L58.3,63.419c-0.03.471-.072,0.94-0.072,1.419,0,12.281,14.539,77.51,14.539,77.51S85.632,77.12,85.632,64.839c0-.48-0.042-0.948-0.072-1.419L129.1,72.881v0.87S116.019,91.453,119.7,125.769Z"/>
      <path id="wk-collors" class="cls-3" d="M90.357,95.591L96.97,98.43,72.4,144.8,86.577,63.419l15.117,27.44Zm-35.9,0L43.115,90.86l15.118-27.44L72.4,144.8,47.839,98.43Z"/>
      <path id="wk-buttons" class="cls-3" d="M72.766,168.625a4.172,4.172,0,1,1,4.109-4.172A4.141,4.141,0,0,1,72.766,168.625Zm0-11.094a4.141,4.141,0,1,1,4.109-4.141A4.125,4.125,0,0,1,72.766,157.531Zm0,13.813a4.156,4.156,0,1,1-4.109,4.156A4.133,4.133,0,0,1,72.766,171.344Z"/>
    </g>
  </g>
  <g id="wk-a">
    <g id="wk-hanger-3" data-name="wk-hanger">
      <path id="wk-hanger-4" data-name="wk-hanger" class="cls-2" d="M197.5,93.935H95.2s-15.443,1.133-3.986-6.35l49.645-32.174v-3.87c-6.408-.921-12.422-7.145-12.422-13.817a14.235,14.235,0,0,1,13.8-13.816,12.781,12.781,0,0,1,9.1,4.092H143v0.111c-0.253-.021-0.5-0.057-0.762-0.057a9.926,9.926,0,0,0-9.661,9.671,9.925,9.925,0,0,0,9.661,9.672,20.157,20.157,0,0,0,2.761,0v7.846l53.214,33.121C209.283,94.71,197.5,93.935,197.5,93.935Zm-12.142-8.022c-13.474-7.925-42.346-25.906-42.346-25.906s-26.461,17.2-39.748,25.342c-8.673,4.479,3.058,3.6,3.058,3.6h78.49S192.592,89.714,185.358,85.913ZM152,39a2,2,0,0,1-2-2V36h4v1A2,2,0,0,1,152,39Z"/>
    </g>
    <g id="wk-waste-coat-3" data-name="wk-waste-coat">
      <path id="wk-main-cloth-2" data-name="wk-main-cloth" class="cls-4" d="M189.7,125.769c0-2.355-1.381,16.113-1.381,34.728,0,17.8,1.381,35.736,1.381,35.736H164.78c-11.047,0-24.2-1.382-36.036-1.382-17.959,0-32.9,1.382-32.9,1.382s1.38-23.414,1.38-43.3c0-13.463-1.38-25.306-1.38-27.166,6.438-32.533-9.184-52.018-9.184-52.018v-0.87L128.3,63.419c-0.03.471-.072,0.94-0.072,1.419,0,12.281,14.539,77.51,14.539,77.51s12.861-65.229,12.861-77.51c0-.48-0.042-0.948-0.071-1.419L199.1,72.881v0.87S186.019,91.453,189.7,125.769Z"/>
      <path id="wk-collors-2" data-name="wk-collors" class="cls-2" d="M160.356,95.591l6.614,2.839L142.405,144.8l14.172-81.377,15.117,27.44Zm-35.9,0L113.115,90.86l15.117-27.44L142.405,144.8,117.839,98.43Z"/>
      <path id="wk-buttons-2" data-name="wk-buttons" class="cls-2" d="M142.766,168.625a4.172,4.172,0,1,1,4.109-4.172A4.141,4.141,0,0,1,142.766,168.625Zm0-11.094a4.141,4.141,0,1,1,4.109-4.141A4.126,4.126,0,0,1,142.766,157.531Zm0,13.813a4.156,4.156,0,1,1-4.11,4.156A4.133,4.133,0,0,1,142.766,171.344Z"/>
    </g>
  </g>
</svg>
