<svg id="wk-warehouse" xmlns="http://www.w3.org/2000/svg" width="222" height="222"><defs><style>.cls-6{fill:#fdcf9e}.cls-7{fill:#e2a869}</style></defs><g id="wk-warehouse-2" data-name="wk-warehouse"><path id="wk-walls" d="M37.216 77.6c13.066-11.889 54.006-49.143 67.441-61.451 5.17-4.736 8.675-.163 8.675-.163l69.912 61.306c6.075 5.328 4.556 9.9 4.556 9.9v92H33.162V86.917s-1.351-4.404 4.054-9.317z" fill-rule="evenodd" fill="#858cd3"/><path id="wk-hall" opacity=".6" d="M67 100h85v79H67z"/><path id="wk-shutter" fill="#ededed" d="M67 95h85v9H67z"/><path id="wk-txt" d="M115.482 75.006H72.527a3.055 3.055 0 0 1 0-6.013h42.955a3.055 3.055 0 0 1 0 6.013zm20.018-8.992H92.509a3.052 3.052 0 0 1 0-6.009H135.5a3.052 3.052 0 0 1 0 6.009z" opacity=".5" fill-rule="evenodd"/></g><g id="wk-boxes"><g id="wk-c"><path id="wk-box-bg" fill="#d49d63" d="M150 163h39v36h-39z"/><path id="wk-tape" class="cls-6" d="M163 163h13v15h-13z"/></g><g id="wk-b"><path id="wk-box-bg-2" data-name="wk-box-bg" class="cls-7" d="M112 156h45v44h-45z"/><path id="wk-tape-2" data-name="wk-tape" class="cls-6" d="M127 156h15v18h-15z"/></g><g id="wk-a"><path id="wk-box-bg-3" data-name="wk-box-bg" class="cls-7" d="M177 181h27v28h-27z"/><path id="wk-tape-3" data-name="wk-tape" class="cls-6" d="M177 190h11v10h-11z"/></g></g></svg>