<svg id="wk-wallet" xmlns="http://www.w3.org/2000/svg" width="202" height="202" viewBox="0 0 202 202">
  <metadata><?xpacket begin="﻿" id="W5M0MpCehiHzreSzNTczkc9d"?>
<x:xmpmeta xmlns:x="adobe:ns:meta/" x:xmptk="Adobe XMP Core 5.6-c140 79.160451, 2017/05/06-01:08:21        ">
   <rdf:RDF xmlns:rdf="http://www.w3.org/1999/02/22-rdf-syntax-ns#">
      <rdf:Description rdf:about=""/>
   </rdf:RDF>
</x:xmpmeta>
                                                                                                    
                                                                                                    
                                                                                                    
                                                                                                    
                                                                                                    
                                                                                                    
                                                                                                    
                                                                                                    
                                                                                                    
                                                                                                    
                                                                                                    
                                                                                                    
                                                                                                    
                                                                                                    
                                                                                                    
                                                                                                    
                                                                                                    
                                                                                                    
                                                                                                    
                                                                                                    
                           
<?xpacket end="w"?></metadata>
<defs>
    <style>
      .cls-1 {
        fill: #76b976;
      }

      .cls-1, .cls-2, .cls-3, .cls-4, .cls-5, .cls-6 {
        fill-rule: evenodd;
      }

      .cls-2 {
        fill: #529352;
      }

      .cls-3 {
        fill: #96713f;
      }

      .cls-4, .cls-5 {
        fill: #a07844;
      }

      .cls-5 {
        fill-opacity: 0;
        stroke: #d4a567;
        stroke-width: 2px;
        stroke-dasharray: 8 4;
      }

      .cls-6 {
        fill: #825f31;
      }

      .cls-7 {
        fill: #ccc;
      }
    </style>
  </defs>
  <g id="wk-lower-back">
    <path id="wk-back-light-green" class="cls-1" d="M27.265,66.133L144.288,28.119a2.561,2.561,0,0,1,3.227,1.654l13.809,42.817a2.574,2.574,0,0,1-1.648,3.239L42.653,113.844a2.561,2.561,0,0,1-3.227-1.655L25.616,69.372A2.574,2.574,0,0,1,27.265,66.133Z"/>
    <path id="wk-front-dark-green" class="cls-2" d="M32.106,68.615L141.814,32.977a2.56,2.56,0,0,1,3.227,1.655L155.7,67.662a2.574,2.574,0,0,1-1.649,3.238L44.337,106.539a2.561,2.561,0,0,1-3.227-1.654L30.457,71.854A2.573,2.573,0,0,1,32.106,68.615Z"/>
  </g>
  <g id="wk-uppar-front">
    <path id="wk-back-light-green-2" data-name="wk-back-light-green" class="cls-1" d="M37.9,61.144l121.8-17.18a2.564,2.564,0,0,1,2.894,2.189l6.241,44.566a2.57,2.57,0,0,1-2.181,2.9L44.857,110.8a2.564,2.564,0,0,1-2.894-2.189L35.722,64.049A2.57,2.57,0,0,1,37.9,61.144Z"/>
    <path id="wk-front-dark-green-2" data-name="wk-front-dark-green" class="cls-2" d="M42.244,64.427l114.19-16.106a2.563,2.563,0,0,1,2.894,2.189l4.815,34.38a2.571,2.571,0,0,1-2.181,2.9L47.772,103.9a2.564,2.564,0,0,1-2.894-2.188l-4.815-34.38A2.57,2.57,0,0,1,42.244,64.427Z"/>
  </g>
  <path id="wk-lower-leather" class="cls-3" d="M25.406,61.619H176.594a6.486,6.486,0,0,1,6.406,6.5v99.477A6.406,6.406,0,0,1,176.594,174H25.406A6.406,6.406,0,0,1,19,167.594V68.025A6.406,6.406,0,0,1,25.406,61.619Z"/>
  <path id="wk-uppar-leather" class="cls-4" d="M27.874,64.088H174.125A6.494,6.494,0,0,1,180.54,70.6v94.517a6.417,6.417,0,0,1-6.415,6.418H27.874a6.417,6.417,0,0,1-6.414-6.418V70.505A6.416,6.416,0,0,1,27.874,64.088Z"/>
  <path id="wk-stitches" class="cls-5" d="M30.218,69l140.744,0.087a3.78,3.78,0,0,1,3.838,3.782v89.88a3.854,3.854,0,0,1-3.838,3.869H30.218a3.854,3.854,0,0,1-3.838-3.869V72.869A3.853,3.853,0,0,1,30.218,69Z"/>
  <g id="wk-belt">
    <path id="wk-belt-2" data-name="wk-belt" class="cls-6" d="M121.214,108.371H183v18.877H121.214c-5.276,0-9.554-3.556-9.554-8.765V117.8A9.493,9.493,0,0,1,121.214,108.371Z"/>
    <ellipse id="wk-button" class="cls-7" cx="121.5" cy="118.219" rx="6.562" ry="6.563"/>
  </g>
</svg>
