<svg id="wk-weather" xmlns="http://www.w3.org/2000/svg" width="202" height="202" viewBox="0 0 202 202">
  <metadata><?xpacket begin="﻿" id="W5M0MpCehiHzreSzNTczkc9d"?>
<x:xmpmeta xmlns:x="adobe:ns:meta/" x:xmptk="Adobe XMP Core 5.6-c140 79.160451, 2017/05/06-01:08:21        ">
   <rdf:RDF xmlns:rdf="http://www.w3.org/1999/02/22-rdf-syntax-ns#">
      <rdf:Description rdf:about=""/>
   </rdf:RDF>
</x:xmpmeta>
                                                                                                    
                                                                                                    
                                                                                                    
                                                                                                    
                                                                                                    
                                                                                                    
                                                                                                    
                                                                                                    
                                                                                                    
                                                                                                    
                                                                                                    
                                                                                                    
                                                                                                    
                                                                                                    
                                                                                                    
                                                                                                    
                                                                                                    
                                                                                                    
                                                                                                    
                                                                                                    
                           
<?xpacket end="w"?></metadata>
<defs>
    <style>
      .cls-1, .cls-2 {
        fill: #fab007;
      }

      .cls-2, .cls-3 {
        fill-rule: evenodd;
      }

      .cls-3 {
        fill: #c6d8ff;
      }
    </style>
  </defs>
  <g id="wk-sun">
    <circle id="wk-sun-2" data-name="wk-sun" class="cls-1" cx="52.719" cy="87.219" r="28.656"/>
    <path id="wk-fire" class="cls-2" d="M71.694,64.2l13.318-9L76.006,68.468Zm-22.017,52.58h6.1l-3.114,15.68ZM52.661,42l3.114,15.68h-6.1ZM29.446,106l4.311,4.264-13.41,8.91ZM22.852,90.247L7,87.167l15.852-2.951v6.031ZM20.439,55.2l13.318,9-4.311,4.265ZM82.6,84.216l15.852,2.951L82.6,90.247V84.216Zm2.505,34.954-13.411-8.91L76.006,106Z"/>
  </g>
  <path id="wk-cloud" class="cls-3" d="M149.688,159H31.563v-0.263a27.123,27.123,0,0,1,3.781-54.018c0.326,0,.649.013,0.973,0.024C37.052,86.5,52.406,71.938,71.25,71.938A35.611,35.611,0,0,1,82.035,73.61a32.228,32.228,0,0,1,61.977-5.976,47.115,47.115,0,0,1,5.676-.352c25.577,0,46.312,20.532,46.312,45.86S175.265,159,149.688,159Z"/>
</svg>
