<svg xmlns="http://www.w3.org/2000/svg" width="220" height="220"><g fill-rule="evenodd"><path d="M68.312 140.877a13.438 13.438 0 1 1-18.4 4.915 13.4 13.4 0 0 1 18.4-4.915z" fill="#917124"/><path d="M107.552 178.287L69.4 156.334l-13.036-7.5-38.15-21.955c-4.717-2.714-8.414-11.05 4.374-11.7 8.768-.448 14.42-2.428 22.437-14.662l14.058-24.271a41.577 41.577 0 0 1 42.247-20.62 31.175 31.175 0 0 1 14.22 4.574c.213.122.415.255.625.381s.431.227.644.349c5.166 2.972 8.772 6.338 11.088 9.985a41.284 41.284 0 0 1 3.207 46.776l-14.058 24.267c-6.622 13.037-5.517 18.906-1.522 26.7 5.827 11.366-3.265 12.342-7.982 9.629z" fill="#f0aa07"/><path d="M115.534 168.66c1.617 3.153 2.082 5.5 1.814 7.2l-1.676 2.771c-2.116 1.466-5.694 1.052-8.12-.344L69.4 156.334l-13.036-7.5-38.15-21.955c-4.717-2.714-8.414-11.05 4.374-11.7 5.61-.286 9.946-1.216 14.44-5.042L112.6 154.14c-.919 5.56.446 9.667 2.934 14.52z" fill="#f5c24c"/></g><circle data-name="wk-hit" cx="159.297" cy="158.172" r="13.422" fill="#9b7726"/><path d="M113.5 184.01l38.005-22 12.986-7.516 38.006-22c4.7-2.72 8.381-11.073-4.358-11.727-8.735-.449-14.365-2.434-22.351-14.692l-14-24.317A41.342 41.342 0 0 0 119.7 61.1c-4.31.177-9.02 1.609-14.166 4.588-.212.123-.413.256-.622.382s-.43.227-.641.35a31.014 31.014 0 0 0-11.045 10.004 41.565 41.565 0 0 0-3.194 46.876l14 24.316c6.6 13.064 5.5 18.945 1.516 26.752-5.801 11.383 3.252 12.362 7.952 9.642z" fill="#fab007" fill-rule="evenodd"/><path data-name="wk-outer" d="M184.248 116.133c4.3 3.491 8.509 4.361 13.894 4.638 12.739.654 9.056 9.007 4.358 11.727l-38.006 22-12.986 7.516-38.005 22c-4.7 2.72-13.757 1.741-7.952-9.647 2.381-4.67 3.715-8.661 3-13.9z" fill="#ffc94f" fill-rule="evenodd"/><g fill-rule="evenodd"><path d="M167.859 63.036l-48.216 13.2v.926l-1.691-.463-1.691.463v-.924l-48.19-13.2L85.147 35l32.806 27.093L150.776 35z" fill="#f96252"/><path d="M118.9 67.9l32.881 21.092-13.958 9.247-19.878-22.716-19.866 22.718-13.949-9.247L116.986 67.9l.562-.871.4.255.4-.255z" fill="#e65b4c"/></g></svg>