<svg id="wk-xmas-deer" xmlns="http://www.w3.org/2000/svg" width="220" height="220"><defs><style>.cls-3,.cls-6{fill-rule:evenodd}.cls-3{fill:#ffebc0}.cls-6{fill:#34495e}</style></defs><g id="wk-ear" fill="#d1ad58"><path id="Left_Ear" data-name="Left Ear" d="M84.319 86.9c6.343 6.341 5.447 20.5-3.842 29.788s-30.907 17.636-37.25 11.294 2.008-27.954 11.3-37.241S77.976 80.559 84.319 86.9z" fill-rule="evenodd"/><circle id="Right_Ear" data-name="Right Ear" cx="156.281" cy="106.687" r="23.719"/></g><g id="wk-bones"><path id="Left" class="cls-3" d="M92.452 47.813a7.264 7.264 0 0 1 7.264 7.264v84.1a7.265 7.265 0 0 1-7.264 7.265 7.265 7.265 0 0 1-7.264-7.265v-84.1a7.264 7.264 0 0 1 7.264-7.264zM57.968 20.606c2.821-2.821 6.781-3.435 8.843-1.373l31.667 31.658c2.062 2.062 1.448 6.02-1.374 8.841s-6.781 3.435-8.843 1.373L56.595 29.447c-2.063-2.062-1.448-6.02 1.373-8.841zm0 28.285c2.821-2.821 6.781-3.436 8.843-1.373l31.667 31.659c2.062 2.062 1.448 6.02-1.374 8.841s-6.781 3.436-8.843 1.373L56.595 57.733c-2.063-2.063-1.448-6.021 1.373-8.841z"/><path id="Right" class="cls-3" d="M129.139 47.813a7.264 7.264 0 0 1 7.264 7.264v84.1a7.265 7.265 0 0 1-7.264 7.265 7.265 7.265 0 0 1-7.264-7.265v-84.1a7.264 7.264 0 0 1 7.264-7.264zm34.49-27.206c-2.821-2.821-6.78-3.435-8.843-1.373L123.12 50.891c-2.063 2.062-1.448 6.02 1.373 8.841s6.781 3.435 8.843 1.373L165 29.447c2.065-2.062 1.45-6.02-1.371-8.841zm0 28.285c-2.821-2.821-6.78-3.436-8.843-1.373L123.12 79.177c-2.063 2.062-1.448 6.02 1.373 8.841s6.781 3.436 8.843 1.373L165 57.733c2.065-2.063 1.45-6.021-1.371-8.841z"/></g><path id="Face" d="M110.416 73.806c25.416 0 52 24.8 52 55.381s-26.581 72.284-52 72.284-52-41.7-52-72.284 26.584-55.381 52-55.381z" fill="#dfb75e" fill-rule="evenodd"/><path id="wk-nose-area" d="M110.416 201.471c-10.3 0-20.791-6.85-29.627-17.033 26.545-21.059 48.464-8.616 58.932.358-8.769 9.98-19.128 16.675-29.305 16.675z" fill="#bcaa83" fill-rule="evenodd"/><path id="wk-nose" class="cls-6" d="M115 190a3.058 3.058 0 1 1 3.059-3.058A3.058 3.058 0 0 1 115 190zm-8.411 0a3.058 3.058 0 1 1 3.059-3.058 3.059 3.059 0 0 1-3.055 3.058z"/><path id="wk-eyes" class="cls-6" d="M128.386 134.963a4.969 4.969 0 1 1 4.97-4.969 4.97 4.97 0 0 1-4.97 4.969zm-35.174 0a4.969 4.969 0 1 1 4.97-4.969 4.97 4.97 0 0 1-4.97 4.969z"/></svg>