<svg id="wk-xmas-deer" xmlns="http://www.w3.org/2000/svg" width="220" height="220" viewBox="0 0 220 220">
  <metadata><?xpacket begin="﻿" id="W5M0MpCehiHzreSzNTczkc9d"?>
<x:xmpmeta xmlns:x="adobe:ns:meta/" x:xmptk="Adobe XMP Core 5.6-c140 79.160451, 2017/05/06-01:08:21        ">
   <rdf:RDF xmlns:rdf="http://www.w3.org/1999/02/22-rdf-syntax-ns#">
      <rdf:Description rdf:about=""/>
   </rdf:RDF>
</x:xmpmeta>
                                                                                                    
                                                                                                    
                                                                                                    
                                                                                                    
                                                                                                    
                                                                                                    
                                                                                                    
                                                                                                    
                                                                                                    
                                                                                                    
                                                                                                    
                                                                                                    
                                                                                                    
                                                                                                    
                                                                                                    
                                                                                                    
                                                                                                    
                                                                                                    
                                                                                                    
                                                                                                    
                           
<?xpacket end="w"?></metadata>
<defs>
    <style>
      .cls-1, .cls-2 {
        fill: #d1ad58;
      }

      .cls-1, .cls-3, .cls-4, .cls-5, .cls-6 {
        fill-rule: evenodd;
      }

      .cls-3 {
        fill: #ffebc0;
      }

      .cls-4 {
        fill: #dfb75e;
      }

      .cls-5 {
        fill: #bcaa83;
      }

      .cls-6 {
        fill: #34495e;
      }
    </style>
  </defs>
  <g id="wk-ear">
    <path id="Left_Ear" data-name="Left Ear" class="cls-1" d="M84.319,86.9c6.343,6.341,5.447,20.5-3.842,29.788s-30.907,17.636-37.25,11.294,2.008-27.954,11.3-37.241S77.976,80.559,84.319,86.9Z"/>
    <circle id="Right_Ear" data-name="Right Ear" class="cls-2" cx="156.281" cy="106.687" r="23.719"/>
  </g>
  <g id="wk-bones">
    <path id="Left" class="cls-3" d="M92.452,47.813h0a7.264,7.264,0,0,1,7.264,7.264v84.1a7.265,7.265,0,0,1-7.264,7.265h0a7.265,7.265,0,0,1-7.264-7.265v-84.1A7.264,7.264,0,0,1,92.452,47.813ZM57.968,20.606c2.821-2.821,6.781-3.435,8.843-1.373L98.478,50.891c2.062,2.062,1.448,6.02-1.374,8.841s-6.781,3.435-8.843,1.373L56.595,29.447C54.532,27.385,55.147,23.427,57.968,20.606Zm0,28.285c2.821-2.821,6.781-3.436,8.843-1.373L98.478,79.177c2.062,2.062,1.448,6.02-1.374,8.841s-6.781,3.436-8.843,1.373L56.595,57.733C54.532,55.67,55.147,51.712,57.968,48.892Z"/>
    <path id="Right" class="cls-3" d="M129.139,47.813h0a7.264,7.264,0,0,1,7.264,7.264v84.1a7.265,7.265,0,0,1-7.264,7.265h0a7.265,7.265,0,0,1-7.264-7.265v-84.1A7.264,7.264,0,0,1,129.139,47.813Zm34.49-27.206c-2.821-2.821-6.78-3.435-8.843-1.373L123.12,50.891c-2.063,2.062-1.448,6.02,1.373,8.841s6.781,3.435,8.843,1.373L165,29.447C167.065,27.385,166.45,23.427,163.629,20.606Zm0,28.285c-2.821-2.821-6.78-3.436-8.843-1.373L123.12,79.177c-2.063,2.062-1.448,6.02,1.373,8.841s6.781,3.436,8.843,1.373L165,57.733C167.065,55.67,166.45,51.712,163.629,48.892Z"/>
  </g>
  <path id="Face" class="cls-4" d="M110.416,73.806c25.416,0,52,24.8,52,55.381s-26.581,72.284-52,72.284-52-41.7-52-72.284S85,73.806,110.416,73.806Z"/>
  <path id="wk-nose-area" class="cls-5" d="M110.416,201.471c-10.3,0-20.791-6.85-29.627-17.033,26.545-21.059,48.464-8.616,58.932.358C130.952,194.776,120.593,201.471,110.416,201.471Z"/>
  <path id="wk-nose" class="cls-6" d="M115,190a3.058,3.058,0,1,1,3.059-3.058A3.058,3.058,0,0,1,115,190Zm-8.411,0a3.058,3.058,0,1,1,3.059-3.058A3.059,3.059,0,0,1,106.593,190Z"/>
  <path id="wk-eyes" class="cls-6" d="M128.386,134.963a4.969,4.969,0,1,1,4.97-4.969A4.97,4.97,0,0,1,128.386,134.963Zm-35.174,0a4.969,4.969,0,1,1,4.97-4.969A4.97,4.97,0,0,1,93.212,134.963Z"/>
</svg>
