<svg id="wk-xmas-leaves" xmlns="http://www.w3.org/2000/svg" width="220" height="220" viewBox="0 0 220 220">
  <metadata><?xpacket begin="﻿" id="W5M0MpCehiHzreSzNTczkc9d"?>
<x:xmpmeta xmlns:x="adobe:ns:meta/" x:xmptk="Adobe XMP Core 5.6-c140 79.160451, 2017/05/06-01:08:21        ">
   <rdf:RDF xmlns:rdf="http://www.w3.org/1999/02/22-rdf-syntax-ns#">
      <rdf:Description rdf:about=""/>
   </rdf:RDF>
</x:xmpmeta>
                                                                                                    
                                                                                                    
                                                                                                    
                                                                                                    
                                                                                                    
                                                                                                    
                                                                                                    
                                                                                                    
                                                                                                    
                                                                                                    
                                                                                                    
                                                                                                    
                                                                                                    
                                                                                                    
                                                                                                    
                                                                                                    
                                                                                                    
                                                                                                    
                                                                                                    
                                                                                                    
                           
<?xpacket end="w"?></metadata>
<defs>
    <style>
      .cls-1 {
        fill: #1abc9c;
      }

      .cls-1, .cls-2 {
        fill-rule: evenodd;
      }

      .cls-2 {
        fill: #34495e;
      }

      .cls-3 {
        fill: #e65b4c;
      }

      .cls-4 {
        fill: #f05f4f;
      }

      .cls-5 {
        fill: #f96252;
      }
    </style>
  </defs>
  <path id="wk-leafs" class="cls-1" d="M197.723,94.915s-28.734-6.114-35.555,18.441c0.194-.1.3-0.166,0.3-0.166,5.434,27.628,36.183,21.08,36.183,21.08-10.336,13.482,3.356,45.672,3.356,45.672C183.783,174.02,151.63,185,151.63,185c9.5-19.917-28.066-28.968-28.066-28.968,5.583-4.826,7.86-16.415-.7-23.384,4.835-4.834,11.9-12.874,15.183-16.717,7.4,3.625,16.338.872,21.083-1.133-4.421-2-14.1-5.416-22.014-1.538-3.282-3.843-10.348-11.883-15.183-16.717,8.563-6.969,6.286-18.557.7-23.384,0,0,37.569-9.051,28.066-28.968,0,0,32.153,10.977,50.38,5.055C201.079,49.243,187.387,81.433,197.723,94.915Zm-71.333,7.219c-5.99,6.752-14.671,17.909-18.7,23.235-14.329-6.105-31.862,5.418-31.862,5.418C66.658,94.635,26.78,105.559,26.78,105.559,39.351,86.962,19,45.381,19,45.381c24.363,6.494,65.758-10.393,65.758-10.393-11,27.049,38.981,36.261,38.981,36.261C116.767,78.045,114.635,93.544,126.39,102.134Z"/>
  <path id="wk-base" class="cls-2" d="M131.894,107.51c-0.965-1.018-1.655-1.821-2.847-3.134,34.339-35.3,48.581-37.89,48.581-37.89S149.32,86.257,131.894,107.51ZM51.057,66.47s18.886,2.381,66.57,46.556c-1.468,1.825-2.314,2.938-3.5,4.357C89.677,90.545,51.057,66.47,51.057,66.47Zm127.5,96.23s-14.242-2.591-48.581-37.89c1.192-1.313,1.882-2.116,2.847-3.135C150.251,142.928,178.559,162.7,178.559,162.7Z"/>
  <g id="wk-cherries">
    <circle id="wk-a" class="cls-3" cx="127.516" cy="106.656" r="11.172"/>
    <ellipse id="wk-b" class="cls-4" cx="136.828" cy="123.453" rx="11.172" ry="11.172"/>
    <ellipse id="wk-c" class="cls-5" cx="121" cy="121.594" rx="11.188" ry="11.188"/>
  </g>
</svg>
