<svg xmlns="http://www.w3.org/2000/svg" width="220" height="220"><path fill="#9b7726" d="M92.656 155.031h34.25V201h-34.25z"/><path d="M170.342 131.652h-20.386L183 164.35c0 2.508-1.631 4.541-3.643 4.541H41.643c-2.012 0-3.643-2.033-3.643-4.541l32.363-32.7H49.929c-1.759 0-3.186-1.783-3.186-3.982l34.931-35.391h-22.73c-1.507 0-2.728-1.531-2.728-3.419l51.829-52.651c.946-1.18 3.361-1.123 3.819 0l52.92 52.651c0 1.888-1.221 3.419-2.728 3.419h-24.194l35.666 35.393c0 2.199-1.428 3.982-3.186 3.982z" fill-rule="evenodd" fill="#2ecc71"/><path d="M170.342 131.652h-20.386l3.677 3.639c-12.972-.213-26.2-1.82-40.583 5.87-6.64 3.551-17.226 12.883-26.206 27.73h-45.2c-2.012 0-3.643-2.033-3.643-4.541l32.363-32.7H49.929c-1.759 0-3.186-1.783-3.186-3.982l34.931-35.391h-22.73c-1.507 0-2.728-1.531-2.728-3.419l42.906-43.586c19.918 11.46 40.26 32.562 58.778 36.737l6.884 6.849c0 1.888-1.221 3.419-2.728 3.419h-24.194l35.666 35.393c0 2.199-1.428 3.982-3.186 3.982z" fill="#2dc26b" fill-rule="evenodd"/><path d="M111.451 22.087l3.358 6.692h6.179s5.427-.609 1.517 2.8c-2.857 2.494-6.415 6.135-6.415 6.135l3.774 6.769s4.233 5.522-2.166 2.333l-8.015-3.994-7.248 4.013c-5.713 3.163-2.243-2.2-2.243-2.2l3.084-6.916s-3.388-3.128-6.509-5.475c-5.492-4.13.6-3.465.6-3.465h7.188l3.34-6.658c2.384-4.744 3.556-.034 3.556-.034z" fill="#fab007" fill-rule="evenodd"/></svg>