<svg xmlns="http://www.w3.org/2000/svg" width="220" height="220"><path d="M197.723 94.915s-28.734-6.114-35.555 18.441c.194-.1.3-.166.3-.166 5.434 27.628 36.183 21.08 36.183 21.08-10.336 13.482 3.356 45.672 3.356 45.672C183.783 174.02 151.63 185 151.63 185c9.5-19.917-28.066-28.968-28.066-28.968 5.583-4.826 7.86-16.415-.7-23.384 4.835-4.834 11.9-12.874 15.183-16.717 7.4 3.625 16.338.872 21.083-1.133-4.421-2-14.1-5.416-22.014-1.538-3.282-3.843-10.348-11.883-15.183-16.717 8.563-6.969 6.286-18.557.7-23.384 0 0 37.569-9.051 28.066-28.968 0 0 32.153 10.977 50.38 5.055 0-.003-13.692 32.187-3.356 45.669zm-71.333 7.219c-5.99 6.752-14.671 17.909-18.7 23.235-14.329-6.105-31.862 5.418-31.862 5.418-9.17-36.152-49.048-25.228-49.048-25.228C39.351 86.962 19 45.381 19 45.381c24.363 6.494 65.758-10.393 65.758-10.393-11 27.049 38.981 36.261 38.981 36.261-6.972 6.796-9.104 22.295 2.651 30.885z" fill-rule="evenodd" fill="#1abc9c"/><path d="M131.894 107.51c-.965-1.018-1.655-1.821-2.847-3.134 34.339-35.3 48.581-37.89 48.581-37.89s-28.308 19.771-45.734 41.024zM51.057 66.47s18.886 2.381 66.57 46.556c-1.468 1.825-2.314 2.938-3.5 4.357-24.45-26.838-63.07-50.913-63.07-50.913zm127.5 96.23s-14.242-2.591-48.581-37.89c1.192-1.313 1.882-2.116 2.847-3.135 17.428 21.253 45.736 41.025 45.736 41.025z" fill="#34495e" fill-rule="evenodd"/><circle cx="127.516" cy="106.656" r="11.172" fill="#e65b4c"/><ellipse cx="136.828" cy="123.453" rx="11.172" ry="11.172" fill="#f05f4f"/><ellipse cx="121" cy="121.594" rx="11.188" ry="11.188" fill="#f96252"/></svg>