<svg id="wk-xmas-santa" xmlns="http://www.w3.org/2000/svg" width="220" height="220"><defs><style>.cls-2{fill:#34495e}.cls-3{fill:#f2f2f2;fill-rule:evenodd}</style></defs><rect id="wk-face-bg" x="60.906" y="60.969" width="89.563" height="102.125" rx="44.781" ry="44.781" fill="#efd5b7"/><g id="wk-eyes"><circle id="wk-l" class="cls-2" cx="86.922" cy="102.875" r="5.359"/><circle id="wk-r" class="cls-2" cx="122.922" cy="102.875" r="5.36"/></g><g id="wk-beard"><path id="wk-beard-2" data-name="wk-beard" class="cls-3" d="M61.047 90.69s-10.536 34.039-1.181 64.684c0 0 .781-9.585 7.232-11.729 0 0-7.541 10.024 3.616 38.8 0 0 .047-8.258 4.52-9.925 0 0 6.71 28.146 31.64 32.482 0 0 28.643-8.034 27.119-33.385 0 0 5.548 4.858 5.424 9.023 0 0 17.848-27.381 9.944-43.309 0 0 6.889 6 7.232 11.73 0 0 10.382-44.885-6.6-57.466 0 0-6.058 23.971-25.034 27.69-13.187 2.585-12.8-2.948-31.64 0S61.38 94.677 61.047 90.69z"/></g><g id="wk-smile"><path id="wk-smile-2" data-name="wk-smile" d="M117.564 127.261v.463a12.254 12.254 0 1 1-24.5 0v-.463h24.5z" fill-rule="evenodd" fill="#34495e"/></g><g id="wk-cap"><path id="wk-white-strip" class="cls-3" d="M60.133 77.731h91.1v10.76a4.5 4.5 0 0 1-4.51 4.483h-82.08a4.5 4.5 0 0 1-4.51-4.483v-10.76z"/><path id="wk-red-cap" d="M197.17 69.9c-3.656.016-1.311.087-6.349 0-26.615-8.114-39 10.875-39 10.875H60.23C51.266 49.235 114.017-41.461 197.17 69.9z" fill="#f96252" fill-rule="evenodd"/><ellipse id="wk-cap-ball" cx="191.953" cy="69.656" rx="9.047" ry="9.031" fill="#f2f2f2"/></g></svg>