<svg id="wk-xmas-socks" xmlns="http://www.w3.org/2000/svg" width="220" height="220"><defs><style>.cls-3,.cls-7{fill-rule:evenodd}.cls-3{fill:#f5ddda}.cls-7{fill:#ffe5e2}</style></defs><g id="wk-left"><path id="wk-socks-bg" d="M142.082 183.56a22.947 22.947 0 0 1-32.184 0l-43.353-40.728a21.823 21.823 0 0 1-6.594-17.76v-65.82a3.819 3.819 0 0 1 3.836-3.7h38.087a3.93 3.93 0 0 1 3.958 3.7v58.425l36.25 34.074a22.308 22.308 0 0 1 0 31.809z" fill-rule="evenodd" fill="#eb5d4d"/><path id="wk-socks-lines" d="M72.614 148.534l48.162-16.811 12.15 11.42-48.158 16.809zm-12.663-44.759l45.881-14.49V104.8l-45.881 14.49v-15.515zm0-23.666l45.881-14.489v15.512L59.951 95.621V80.109zm0-9.633V59.252a3.819 3.819 0 0 1 3.836-3.7h38.087a4.08 4.08 0 0 1 2.5.9zm6.461 72.217a22.082 22.082 0 0 1-6.453-13.408l45.874-16.011v4.4l8.734 8.209zm36.935 34.712L90.988 165.8l49.43-15.609 1.664 1.564a22.3 22.3 0 0 1 6.213 11.46z" fill="#f58d82" fill-rule="evenodd"/><path id="wk-ankle" class="cls-3" d="M59.951 125.072v-7.724a17.647 17.647 0 0 1 8.8-2.348h.5A17.749 17.749 0 0 1 87 132.749v.5a17.753 17.753 0 0 1-12.58 16.981l-7.875-7.4a21.823 21.823 0 0 1-6.594-17.758z"/><path id="wk-fingers-pad" class="cls-3" d="M142.082 183.56a22.95 22.95 0 0 1-29.071 2.55l-1.569-3.665a17.822 17.822 0 0 1 9.372-23.4l17.751-7.6a17.907 17.907 0 0 1 2.349-.8l1.168 1.1a22.308 22.308 0 0 1 0 31.815z"/><rect id="wk-elastic" x="56" y="40" width="55" height="24" rx="5" ry="5" fill="#f5ddda"/></g><g id="wk-right"><path id="wk-socks-bg-2" data-name="wk-socks-bg" d="M177.082 172.56a22.947 22.947 0 0 1-32.184 0l-43.353-40.728a21.823 21.823 0 0 1-6.594-17.76v-65.82a3.819 3.819 0 0 1 3.836-3.7h38.087a3.93 3.93 0 0 1 3.958 3.7v58.425l36.25 34.074a22.308 22.308 0 0 1 0 31.809z" fill="#f96252" fill-rule="evenodd"/><path id="wk-socks-lines-2" data-name="wk-socks-lines" d="M107.614 137.534l48.162-16.811 12.15 11.42-48.158 16.809zM94.951 92.775l45.881-14.489V93.8l-45.881 14.49V92.775zm0-23.666l45.881-14.489v15.512L94.951 84.621V69.109zm0-9.633V48.252a3.819 3.819 0 0 1 3.836-3.7h38.087a4.08 4.08 0 0 1 2.5.9zm6.461 72.217a22.08 22.08 0 0 1-6.454-13.408l45.874-16.011v4.4l8.734 8.209zm36.934 34.712l-12.358-11.61 49.43-15.609 1.664 1.564a22.3 22.3 0 0 1 6.213 11.46z" fill="#ff9286" fill-rule="evenodd"/><path id="wk-ankle-2" data-name="wk-ankle" class="cls-7" d="M94.951 114.072v-7.724a17.646 17.646 0 0 1 8.8-2.348h.5A17.75 17.75 0 0 1 122 121.749v.5a17.753 17.753 0 0 1-12.58 16.979l-7.875-7.4a21.823 21.823 0 0 1-6.594-17.756z"/><path id="wk-fingers-pad-2" data-name="wk-fingers-pad" class="cls-7" d="M177.082 172.56a22.95 22.95 0 0 1-29.071 2.55l-1.569-3.665a17.822 17.822 0 0 1 9.372-23.4l17.751-7.6a17.907 17.907 0 0 1 2.349-.8l1.168 1.1a22.308 22.308 0 0 1 0 31.815z"/><rect id="wk-elastic-2" data-name="wk-elastic" x="91" y="29" width="55" height="24" rx="5" ry="5" fill="#ffe5e2"/></g></svg>