<svg id="wk-xmas-socks" xmlns="http://www.w3.org/2000/svg" width="220" height="220" viewBox="0 0 220 220">
  <metadata><?xpacket begin="﻿" id="W5M0MpCehiHzreSzNTczkc9d"?>
<x:xmpmeta xmlns:x="adobe:ns:meta/" x:xmptk="Adobe XMP Core 5.6-c140 79.160451, 2017/05/06-01:08:21        ">
   <rdf:RDF xmlns:rdf="http://www.w3.org/1999/02/22-rdf-syntax-ns#">
      <rdf:Description rdf:about=""/>
   </rdf:RDF>
</x:xmpmeta>
                                                                                                    
                                                                                                    
                                                                                                    
                                                                                                    
                                                                                                    
                                                                                                    
                                                                                                    
                                                                                                    
                                                                                                    
                                                                                                    
                                                                                                    
                                                                                                    
                                                                                                    
                                                                                                    
                                                                                                    
                                                                                                    
                                                                                                    
                                                                                                    
                                                                                                    
                                                                                                    
                           
<?xpacket end="w"?></metadata>
<defs>
    <style>
      .cls-1 {
        fill: #eb5d4d;
      }

      .cls-1, .cls-2, .cls-3, .cls-5, .cls-6, .cls-7 {
        fill-rule: evenodd;
      }

      .cls-2 {
        fill: #f58d82;
      }

      .cls-3, .cls-4 {
        fill: #f5ddda;
      }

      .cls-5 {
        fill: #f96252;
      }

      .cls-6 {
        fill: #ff9286;
      }

      .cls-7, .cls-8 {
        fill: #ffe5e2;
      }
    </style>
  </defs>
  <g id="wk-left">
    <path id="wk-socks-bg" class="cls-1" d="M142.082,183.56a22.947,22.947,0,0,1-32.184,0L66.545,142.832a21.823,21.823,0,0,1-6.594-17.76V59.252a3.819,3.819,0,0,1,3.836-3.7h38.087a3.93,3.93,0,0,1,3.958,3.7v58.425l36.25,34.074A22.308,22.308,0,0,1,142.082,183.56Z"/>
    <path id="wk-socks-lines" class="cls-2" d="M72.614,148.534l48.162-16.811,12.15,11.42L84.768,159.952ZM59.951,103.775l45.881-14.49V104.8l-45.881,14.49V103.775Zm0-23.666L105.832,65.62V81.132L59.951,95.621V80.109Zm0-9.633V59.252a3.819,3.819,0,0,1,3.836-3.7h38.087a4.08,4.08,0,0,1,2.5.9Zm6.461,72.217a22.082,22.082,0,0,1-6.453-13.408l45.874-16.011v4.4l8.734,8.209Zm36.935,34.712L90.988,165.8l49.43-15.609,1.664,1.564a22.3,22.3,0,0,1,6.213,11.46Z"/>
    <path id="wk-ankle" class="cls-3" d="M59.951,125.072v-7.724a17.647,17.647,0,0,1,8.8-2.348h0.5A17.749,17.749,0,0,1,87,132.749v0.5A17.753,17.753,0,0,1,74.42,150.23l-7.875-7.4A21.823,21.823,0,0,1,59.951,125.072Z"/>
    <path id="wk-fingers-pad" class="cls-3" d="M142.082,183.56a22.95,22.95,0,0,1-29.071,2.55l-1.569-3.665a17.822,17.822,0,0,1,9.372-23.4l17.751-7.6a17.907,17.907,0,0,1,2.349-.8l1.168,1.1A22.308,22.308,0,0,1,142.082,183.56Z"/>
    <rect id="wk-elastic" class="cls-4" x="56" y="40" width="55" height="24" rx="5" ry="5"/>
  </g>
  <g id="wk-right">
    <path id="wk-socks-bg-2" data-name="wk-socks-bg" class="cls-5" d="M177.082,172.56a22.947,22.947,0,0,1-32.184,0l-43.353-40.728a21.823,21.823,0,0,1-6.594-17.76V48.252a3.819,3.819,0,0,1,3.836-3.7h38.087a3.93,3.93,0,0,1,3.958,3.7v58.425l36.25,34.074A22.308,22.308,0,0,1,177.082,172.56Z"/>
    <path id="wk-socks-lines-2" data-name="wk-socks-lines" class="cls-6" d="M107.614,137.534l48.162-16.811,12.15,11.42-48.158,16.809ZM94.951,92.775l45.881-14.489V93.8l-45.881,14.49V92.775Zm0-23.666L140.832,54.62V70.132L94.951,84.621V69.109Zm0-9.633V48.252a3.819,3.819,0,0,1,3.836-3.7h38.087a4.08,4.08,0,0,1,2.5.9Zm6.461,72.217a22.08,22.08,0,0,1-6.454-13.408l45.874-16.011v4.4l8.734,8.209Zm36.934,34.712-12.358-11.61,49.43-15.609,1.664,1.564a22.3,22.3,0,0,1,6.213,11.46Z"/>
    <path id="wk-ankle-2" data-name="wk-ankle" class="cls-7" d="M94.951,114.072v-7.724a17.646,17.646,0,0,1,8.8-2.348h0.5A17.75,17.75,0,0,1,122,121.749v0.5a17.753,17.753,0,0,1-12.58,16.979l-7.875-7.4A21.823,21.823,0,0,1,94.951,114.072Z"/>
    <path id="wk-fingers-pad-2" data-name="wk-fingers-pad" class="cls-7" d="M177.082,172.56a22.95,22.95,0,0,1-29.071,2.55l-1.569-3.665a17.822,17.822,0,0,1,9.372-23.4l17.751-7.6a17.907,17.907,0,0,1,2.349-.8l1.168,1.1A22.308,22.308,0,0,1,177.082,172.56Z"/>
    <rect id="wk-elastic-2" data-name="wk-elastic" class="cls-8" x="91" y="29" width="55" height="24" rx="5" ry="5"/>
  </g>
</svg>
