<svg id="wk-xmas-bells" xmlns="http://www.w3.org/2000/svg" width="220" height="220" viewBox="0 0 220 220">
  <metadata><?xpacket begin="﻿" id="W5M0MpCehiHzreSzNTczkc9d"?>
<x:xmpmeta xmlns:x="adobe:ns:meta/" x:xmptk="Adobe XMP Core 5.6-c140 79.160451, 2017/05/06-01:08:21        ">
   <rdf:RDF xmlns:rdf="http://www.w3.org/1999/02/22-rdf-syntax-ns#">
      <rdf:Description rdf:about=""/>
   </rdf:RDF>
</x:xmpmeta>
                                                                                                    
                                                                                                    
                                                                                                    
                                                                                                    
                                                                                                    
                                                                                                    
                                                                                                    
                                                                                                    
                                                                                                    
                                                                                                    
                                                                                                    
                                                                                                    
                                                                                                    
                                                                                                    
                                                                                                    
                                                                                                    
                                                                                                    
                                                                                                    
                                                                                                    
                                                                                                    
                           
<?xpacket end="w"?></metadata>
<defs>
    <style>
      .cls-1 {
        fill: #917124;
      }

      .cls-1, .cls-2, .cls-3, .cls-5, .cls-6, .cls-7, .cls-8 {
        fill-rule: evenodd;
      }

      .cls-2 {
        fill: #f0aa07;
      }

      .cls-3 {
        fill: #f5c24c;
      }

      .cls-4 {
        fill: #9b7726;
      }

      .cls-5 {
        fill: #fab007;
      }

      .cls-6 {
        fill: #ffc94f;
      }

      .cls-7 {
        fill: #f96252;
      }

      .cls-8 {
        fill: #e65b4c;
      }
    </style>
  </defs>
  <g id="wk-bell-left">
    <path id="wk-hit" class="cls-1" d="M68.312,140.877a13.438,13.438,0,1,1-18.4,4.915A13.4,13.4,0,0,1,68.312,140.877Z"/>
    <path id="wk-base" class="cls-2" d="M107.552,178.287L69.4,156.334l-13.036-7.5L18.214,126.879c-4.717-2.714-8.414-11.05,4.374-11.7,8.768-.448,14.42-2.428,22.437-14.662L59.083,76.246a41.577,41.577,0,0,1,42.247-20.62A31.175,31.175,0,0,1,115.55,60.2c0.213,0.122.415,0.255,0.625,0.381s0.431,0.227.644,0.349c5.166,2.972,8.772,6.338,11.088,9.985a41.284,41.284,0,0,1,3.207,46.776l-14.058,24.267c-6.622,13.037-5.517,18.906-1.522,26.7C121.361,180.024,112.269,181,107.552,178.287Z"/>
    <path id="wk-outer" class="cls-3" d="M115.534,168.66c1.617,3.153,2.082,5.5,1.814,7.2l-1.676,2.771c-2.116,1.466-5.694,1.052-8.12-.344L69.4,156.334l-13.036-7.5L18.214,126.879c-4.717-2.714-8.414-11.05,4.374-11.7,5.61-.286,9.946-1.216,14.44-5.042L112.6,154.14C111.681,159.7,113.046,163.807,115.534,168.66Z"/>
  </g>
  <g id="wk-bell-right">
    <circle id="wk-hit-2" data-name="wk-hit" class="cls-4" cx="159.297" cy="158.172" r="13.422"/>
    <path id="wk--base" class="cls-5" d="M113.5,184.01l38.005-22,12.986-7.516,38.006-22c4.7-2.72,8.381-11.073-4.358-11.727-8.735-.449-14.365-2.434-22.351-14.692l-14-24.317A41.342,41.342,0,0,0,119.7,61.1c-4.31.177-9.02,1.609-14.166,4.588-0.212.123-.413,0.256-0.622,0.382s-0.43.227-.641,0.35A31.014,31.014,0,0,0,93.226,76.424,41.565,41.565,0,0,0,90.032,123.3l14,24.316c6.6,13.064,5.5,18.945,1.516,26.752C99.747,185.751,108.8,186.73,113.5,184.01Z"/>
    <path id="wk-outer-2" data-name="wk-outer" class="cls-6" d="M184.248,116.133c4.3,3.491,8.509,4.361,13.894,4.638,12.739,0.654,9.056,9.007,4.358,11.727l-38.006,22-12.986,7.516-38.005,22c-4.7,2.72-13.757,1.741-7.952-9.647,2.381-4.67,3.715-8.661,3-13.9Z"/>
  </g>
  <g id="wk-robbon">
    <path id="wk-node" class="cls-7" d="M167.859,63.036l-48.216,13.2v0.926l-1.691-.463-1.691.463V76.238l-48.19-13.2L85.147,35l32.806,27.093L150.776,35Z"/>
    <path id="wk-out" class="cls-8" d="M118.9,67.9l32.881,21.092-13.958,9.247L117.945,75.523,98.079,98.241,84.13,88.994,116.986,67.9l0.562-.871,0.4,0.255,0.4-.255Z"/>
  </g>
</svg>
