<svg id="wk-xmas-tree" xmlns="http://www.w3.org/2000/svg" width="220" height="220" viewBox="0 0 220 220">
  <metadata><?xpacket begin="﻿" id="W5M0MpCehiHzreSzNTczkc9d"?>
<x:xmpmeta xmlns:x="adobe:ns:meta/" x:xmptk="Adobe XMP Core 5.6-c140 79.160451, 2017/05/06-01:08:21        ">
   <rdf:RDF xmlns:rdf="http://www.w3.org/1999/02/22-rdf-syntax-ns#">
      <rdf:Description rdf:about=""/>
   </rdf:RDF>
</x:xmpmeta>
                                                                                                    
                                                                                                    
                                                                                                    
                                                                                                    
                                                                                                    
                                                                                                    
                                                                                                    
                                                                                                    
                                                                                                    
                                                                                                    
                                                                                                    
                                                                                                    
                                                                                                    
                                                                                                    
                                                                                                    
                                                                                                    
                                                                                                    
                                                                                                    
                                                                                                    
                                                                                                    
                           
<?xpacket end="w"?></metadata>
<defs>
    <style>
      .cls-1 {
        fill: #9b7726;
      }

      .cls-2 {
        fill: #2ecc71;
      }

      .cls-2, .cls-3, .cls-4 {
        fill-rule: evenodd;
      }

      .cls-3 {
        fill: #2dc26b;
      }

      .cls-4 {
        fill: #fab007;
      }
    </style>
  </defs>
  <rect id="wk-wood" class="cls-1" x="92.656" y="155.031" width="34.25" height="45.969"/>
  <path id="wk-leaves" class="cls-2" d="M170.342,131.652H149.956L183,164.35c0,2.508-1.631,4.541-3.643,4.541H41.643c-2.012,0-3.643-2.033-3.643-4.541l32.363-32.7H49.929c-1.759,0-3.186-1.783-3.186-3.982L81.674,92.277H58.944c-1.507,0-2.728-1.531-2.728-3.419l51.829-52.651c0.946-1.18,3.361-1.123,3.819,0l52.92,52.651c0,1.888-1.221,3.419-2.728,3.419H137.862l35.666,35.393C173.528,129.869,172.1,131.652,170.342,131.652Z"/>
  <path id="wk-shadow" class="cls-3" d="M170.342,131.652H149.956l3.677,3.639c-12.972-.213-26.2-1.82-40.583,5.87-6.64,3.551-17.226,12.883-26.206,27.73h-45.2c-2.012,0-3.643-2.033-3.643-4.541l32.363-32.7H49.929c-1.759,0-3.186-1.783-3.186-3.982L81.674,92.277H58.944c-1.507,0-2.728-1.531-2.728-3.419L99.122,45.272c19.918,11.46,40.26,32.562,58.778,36.737l6.884,6.849c0,1.888-1.221,3.419-2.728,3.419H137.862l35.666,35.393C173.528,129.869,172.1,131.652,170.342,131.652Z"/>
  <path id="wk-star" class="cls-4" d="M111.451,22.087l3.358,6.692h6.179s5.427-.609,1.517,2.8c-2.857,2.494-6.415,6.135-6.415,6.135l3.774,6.769s4.233,5.522-2.166,2.333l-8.015-3.994-7.248,4.013c-5.713,3.163-2.243-2.2-2.243-2.2l3.084-6.916s-3.388-3.128-6.509-5.475c-5.492-4.13.6-3.465,0.6-3.465h7.188l3.34-6.658C110.279,17.377,111.451,22.087,111.451,22.087Z"/>
</svg>
